{"asset":{"version":"2.0","generator":"Blockbench 5.0.3 glTF exporter"},"scenes":[{"nodes":[18],"name":"blockbench_export"}],"scene":0,"nodes":[{"name":"cube","mesh":0},{"name":"cube","mesh":1},{"name":"cube","mesh":2},{"name":"cube","mesh":3},{"rotation":[-0.3826834323650898,0,0,0.9238795325112867],"translation":[2.0625,0.125,0],"name":"cube","mesh":4},{"rotation":[-0.3826834323650898,0,0,0.9238795325112867],"translation":[2.0625,-0.0625,0],"name":"cube","mesh":5},{"translation":[-0.4702275000000001,-0.4683312500000001,0.005756874999999995],"name":"cube","mesh":6},{"rotation":[0,0,0.06540312923014306,0.9978589232386035],"translation":[-0.3139775000000001,-0.2964562500000001,0.005756874999999995],"name":"cube","mesh":7},{"rotation":[0,0,-0.17364817766693033,0.984807753012208],"translation":[-0.5419343750000002,-0.45324125000000004,-0.0004931249999999832],"name":"cube","mesh":8},{"name":"cube","mesh":9},{"name":"cube","mesh":10},{"name":"cube","mesh":11},{"name":"cube","mesh":12},{"name":"cube","mesh":13},{"name":"cube","mesh":14},{"rotation":[0,0,0.2798290140309921,0.9600498543859287],"translation":[0.10398874999999994,-0.1758425,-0.005756874999999995],"name":"cuboid","mesh":15},{"rotation":[0,0,0.2798290140309921,0.9600498543859287],"translation":[0.10398874999999994,-0.1758425,-0.005756874999999995],"name":"cuboid","mesh":16},{"translation":[0.229344375,-0.5401987500000001,0.005756874999999995],"name":"magazine","children":[15,16]},{"rotation":[0,0.7071067811865475,0,0.7071067811865476],"translation":[-0.002083125000000005,1.09333125,0.3125],"name":"ak-47","children":[0,1,2,3,4,5,6,7,8,9,10,11,12,13,14,17]}],"bufferViews":[{"buffer":0,"byteOffset":0,"byteLength":288,"target":34962,"byteStride":12},{"buffer":0,"byteOffset":288,"byteLength":288,"target":34962,"byteStride":12},{"buffer":0,"byteOffset":576,"byteLength":192,"target":34962,"byteStride":8},{"buffer":0,"byteOffset":768,"byteLength":72,"target":34963},{"buffer":0,"byteOffset":840,"byteLength":288,"target":34962,"byteStride":12},{"buffer":0,"byteOffset":1128,"byteLength":288,"target":34962,"byteStride":12},{"buffer":0,"byteOffset":1416,"byteLength":192,"target":34962,"byteStride":8},{"buffer":0,"byteOffset":1608,"byteLength":72,"target":34963},{"buffer":0,"byteOffset":1680,"byteLength":288,"target":34962,"byteStride":12},{"buffer":0,"byteOffset":1968,"byteLength":288,"target":34962,"byteStride":12},{"buffer":0,"byteOffset":2256,"byteLength":192,"target":34962,"byteStride":8},{"buffer":0,"byteOffset":2448,"byteLength":72,"target":34963},{"buffer":0,"byteOffset":2520,"byteLength":288,"target":34962,"byteStride":12},{"buffer":0,"byteOffset":2808,"byteLength":288,"target":34962,"byteStride":12},{"buffer":0,"byteOffset":3096,"byteLength":192,"target":34962,"byteStride":8},{"buffer":0,"byteOffset":3288,"byteLength":72,"target":34963},{"buffer":0,"byteOffset":3360,"byteLength":288,"target":34962,"byteStride":12},{"buffer":0,"byteOffset":3648,"byteLength":288,"target":34962,"byteStride":12},{"buffer":0,"byteOffset":3936,"byteLength":192,"target":34962,"byteStride":8},{"buffer":0,"byteOffset":4128,"byteLength":72,"target":34963},{"buffer":0,"byteOffset":4200,"byteLength":288,"target":34962,"byteStride":12},{"buffer":0,"byteOffset":4488,"byteLength":288,"target":34962,"byteStride":12},{"buffer":0,"byteOffset":4776,"byteLength":192,"target":34962,"byteStride":8},{"buffer":0,"byteOffset":4968,"byteLength":72,"target":34963},{"buffer":0,"byteOffset":5040,"byteLength":960,"target":34962,"byteStride":12},{"buffer":0,"byteOffset":6000,"byteLength":960,"target":34962,"byteStride":12},{"buffer":0,"byteOffset":6960,"byteLength":640,"target":34962,"byteStride":8},{"buffer":0,"byteOffset":7600,"byteLength":240,"target":34963},{"buffer":0,"byteOffset":7840,"byteLength":480,"target":34962,"byteStride":12},{"buffer":0,"byteOffset":8320,"byteLength":480,"target":34962,"byteStride":12},{"buffer":0,"byteOffset":8800,"byteLength":320,"target":34962,"byteStride":8},{"buffer":0,"byteOffset":9120,"byteLength":120,"target":34963},{"buffer":0,"byteOffset":9240,"byteLength":672,"target":34962,"byteStride":12},{"buffer":0,"byteOffset":9912,"byteLength":672,"target":34962,"byteStride":12},{"buffer":0,"byteOffset":10584,"byteLength":448,"target":34962,"byteStride":8},{"buffer":0,"byteOffset":11032,"byteLength":168,"target":34963},{"buffer":0,"byteOffset":11200,"byteLength":1056,"target":34962,"byteStride":12},{"buffer":0,"byteOffset":12256,"byteLength":1056,"target":34962,"byteStride":12},{"buffer":0,"byteOffset":13312,"byteLength":704,"target":34962,"byteStride":8},{"buffer":0,"byteOffset":14016,"byteLength":264,"target":34963},{"buffer":0,"byteOffset":14280,"byteLength":672,"target":34962,"byteStride":12},{"buffer":0,"byteOffset":14952,"byteLength":672,"target":34962,"byteStride":12},{"buffer":0,"byteOffset":15624,"byteLength":448,"target":34962,"byteStride":8},{"buffer":0,"byteOffset":16072,"byteLength":168,"target":34963},{"buffer":0,"byteOffset":16240,"byteLength":288,"target":34962,"byteStride":12},{"buffer":0,"byteOffset":16528,"byteLength":288,"target":34962,"byteStride":12},{"buffer":0,"byteOffset":16816,"byteLength":192,"target":34962,"byteStride":8},{"buffer":0,"byteOffset":17008,"byteLength":72,"target":34963},{"buffer":0,"byteOffset":17080,"byteLength":672,"target":34962,"byteStride":12},{"buffer":0,"byteOffset":17752,"byteLength":672,"target":34962,"byteStride":12},{"buffer":0,"byteOffset":18424,"byteLength":448,"target":34962,"byteStride":8},{"buffer":0,"byteOffset":18872,"byteLength":168,"target":34963},{"buffer":0,"byteOffset":19040,"byteLength":288,"target":34962,"byteStride":12},{"buffer":0,"byteOffset":19328,"byteLength":288,"target":34962,"byteStride":12},{"buffer":0,"byteOffset":19616,"byteLength":192,"target":34962,"byteStride":8},{"buffer":0,"byteOffset":19808,"byteLength":72,"target":34963},{"buffer":0,"byteOffset":19880,"byteLength":480,"target":34962,"byteStride":12},{"buffer":0,"byteOffset":20360,"byteLength":480,"target":34962,"byteStride":12},{"buffer":0,"byteOffset":20840,"byteLength":320,"target":34962,"byteStride":8},{"buffer":0,"byteOffset":21160,"byteLength":120,"target":34963},{"buffer":0,"byteOffset":21280,"byteLength":288,"target":34962,"byteStride":12},{"buffer":0,"byteOffset":21568,"byteLength":288,"target":34962,"byteStride":12},{"buffer":0,"byteOffset":21856,"byteLength":192,"target":34962,"byteStride":8},{"buffer":0,"byteOffset":22048,"byteLength":72,"target":34963},{"buffer":0,"byteOffset":22120,"byteLength":864,"target":34962,"byteStride":12},{"buffer":0,"byteOffset":22984,"byteLength":864,"target":34962,"byteStride":12},{"buffer":0,"byteOffset":23848,"byteLength":576,"target":34962,"byteStride":8},{"buffer":0,"byteOffset":24424,"byteLength":216,"target":34963}],"buffers":[{"byteLength":24640,"uri":"data:application/octet-stream;base64,"}],"accessors":[{"bufferView":0,"componentType":5126,"count":24,"max":[2.5625,0.1875,0.0625],"min":[2.375,-0.0625,-0.0625],"type":"VEC3"},{"bufferView":1,"componentType":5126,"count":24,"max":[1,1,1],"min":[-1,-1,-1],"type":"VEC3"},{"bufferView":2,"componentType":5126,"count":24,"max":[0.421875,0.44140625],"min":[0,0.2734375],"type":"VEC2"},{"bufferView":3,"componentType":5123,"count":36,"max":[23],"min":[0],"type":"SCALAR"},{"bufferView":4,"componentType":5126,"count":24,"max":[2.5625,0.25,-0.0625],"min":[2.375,0.0625,-0.09375],"type":"VEC3"},{"bufferView":5,"componentType":5126,"count":24,"max":[1,1,1],"min":[-1,-1,-1],"type":"VEC3"},{"bufferView":6,"componentType":5126,"count":24,"max":[0.4765625,0.4765625],"min":[0,0.015625],"type":"VEC2"},{"bufferView":7,"componentType":5123,"count":36,"max":[23],"min":[0],"type":"SCALAR"},{"bufferView":8,"componentType":5126,"count":24,"max":[1.875,0.109375,0.03125],"min":[1.6875,-0.015625,-0.03125],"type":"VEC3"},{"bufferView":9,"componentType":5126,"count":24,"max":[0.8944271802902222,1,1],"min":[-0.8944271802902222,-1,-1],"type":"VEC3"},{"bufferView":10,"componentType":5126,"count":24,"max":[0.4375,0.4609375],"min":[0.06296679377555847,0.359375],"type":"VEC2"},{"bufferView":11,"componentType":5123,"count":36,"max":[23],"min":[0],"type":"SCALAR"},{"bufferView":12,"componentType":5126,"count":24,"max":[2.5625,0.25,0.09375],"min":[2.375,0.0625,0.0625],"type":"VEC3"},{"bufferView":13,"componentType":5126,"count":24,"max":[1,1,1],"min":[-1,-1,-1],"type":"VEC3"},{"bufferView":14,"componentType":5126,"count":24,"max":[0.4765625,0.4765625],"min":[0,0.015625],"type":"VEC2"},{"bufferView":15,"componentType":5123,"count":36,"max":[23],"min":[0],"type":"SCALAR"},{"bufferView":16,"componentType":5126,"count":24,"max":[-0.1875,0.0625,0.0625],"min":[-0.625,-0.0625,-0.0625],"type":"VEC3"},{"bufferView":17,"componentType":5126,"count":24,"max":[1,1,1],"min":[-1,-1,-1],"type":"VEC3"},{"bufferView":18,"componentType":5126,"count":24,"max":[0.5625,0.53125],"min":[0,0.375],"type":"VEC2"},{"bufferView":19,"componentType":5123,"count":36,"max":[23],"min":[0],"type":"SCALAR"},{"bufferView":20,"componentType":5126,"count":24,"max":[0.625,0.0625,0.0625],"min":[-0.625,-0.0625,-0.0625],"type":"VEC3"},{"bufferView":21,"componentType":5126,"count":24,"max":[1,1,1],"min":[-1,-1,-1],"type":"VEC3"},{"bufferView":22,"componentType":5126,"count":24,"max":[0.625,0.625],"min":[0,0],"type":"VEC2"},{"bufferView":23,"componentType":5123,"count":36,"max":[23],"min":[0],"type":"SCALAR"},{"bufferView":24,"componentType":5126,"count":80,"max":[0.421875,0.28125,0.046875],"min":[0.0625,0.078125,-0.046875],"type":"VEC3"},{"bufferView":25,"componentType":5126,"count":80,"max":[1,1,1],"min":[-1,-1,-1],"type":"VEC3"},{"bufferView":26,"componentType":5126,"count":80,"max":[0.458984375,0.45718592405319214],"min":[0.03125,0.125],"type":"VEC2"},{"bufferView":27,"componentType":5123,"count":120,"max":[79],"min":[0],"type":"SCALAR"},{"bufferView":28,"componentType":5126,"count":40,"max":[0.08845187723636627,0.11562500149011612,0.015625],"min":[0.02812499925494194,-0.026905624195933342,-0.015625],"type":"VEC3"},{"bufferView":29,"componentType":5126,"count":40,"max":[1,1,1],"min":[-1,-1,-1],"type":"VEC3"},{"bufferView":30,"componentType":5126,"count":40,"max":[0.45703125,0.471580445766449],"min":[0.0546875,0.1640625],"type":"VEC2"},{"bufferView":31,"componentType":5123,"count":60,"max":[39],"min":[0],"type":"SCALAR"},{"bufferView":32,"componentType":5126,"count":56,"max":[0.1543656289577484,0.34375,0.078125],"min":[-0.125,-0.21875,-0.078125],"type":"VEC3"},{"bufferView":33,"componentType":5126,"count":56,"max":[1,1,1],"min":[-1,-0.9992689490318298,-1],"type":"VEC3"},{"bufferView":34,"componentType":5126,"count":56,"max":[0.46875,0.4453125],"min":[0.00011757812171708792,0],"type":"VEC2"},{"bufferView":35,"componentType":5123,"count":84,"max":[55],"min":[0],"type":"SCALAR"},{"bufferView":36,"componentType":5126,"count":88,"max":[0.5625,0.25,0.125],"min":[-0.75,-0.1875,-0.125],"type":"VEC3"},{"bufferView":37,"componentType":5126,"count":88,"max":[1,1,1],"min":[-1,-1,-1],"type":"VEC3"},{"bufferView":38,"componentType":5126,"count":88,"max":[0.4375,0.3478991985321045],"min":[0,0],"type":"VEC2"},{"bufferView":39,"componentType":5123,"count":132,"max":[87],"min":[0],"type":"SCALAR"},{"bufferView":40,"componentType":5126,"count":56,"max":[1.4375,0.0625,0.140625],"min":[0.5625,-0.25,-0.140625],"type":"VEC3"},{"bufferView":41,"componentType":5126,"count":56,"max":[1,1,1],"min":[-1,-1,-1],"type":"VEC3"},{"bufferView":42,"componentType":5126,"count":56,"max":[0.35260000824928284,0.3515625],"min":[0.12505429983139038,0.1015625],"type":"VEC2"},{"bufferView":43,"componentType":5123,"count":84,"max":[55],"min":[0],"type":"SCALAR"},{"bufferView":44,"componentType":5126,"count":24,"max":[0.8125,0.25,0.0625],"min":[0.5625,0.0625,-0.0625],"type":"VEC3"},{"bufferView":45,"componentType":5126,"count":24,"max":[1,1,1],"min":[-1,-1,-1],"type":"VEC3"},{"bufferView":46,"componentType":5126,"count":24,"max":[0.4453125,0.4140625],"min":[0.2265625,0.0234375],"type":"VEC2"},{"bufferView":47,"componentType":5123,"count":36,"max":[23],"min":[0],"type":"SCALAR"},{"bufferView":48,"componentType":5126,"count":56,"max":[1.4375,0.25,0.125],"min":[0.8125,0.0625,-0.125],"type":"VEC3"},{"bufferView":49,"componentType":5126,"count":56,"max":[1,1,0.9486833214759827],"min":[-1,-1,-0.9486833214759827],"type":"VEC3"},{"bufferView":50,"componentType":5126,"count":56,"max":[0.4296875,0.421875],"min":[0.0703125,0.0234375],"type":"VEC2"},{"bufferView":51,"componentType":5123,"count":84,"max":[55],"min":[0],"type":"SCALAR"},{"bufferView":52,"componentType":5126,"count":24,"max":[-0.75,0.03125,0.125],"min":[-1,-0.25,-0.125],"type":"VEC3"},{"bufferView":53,"componentType":5126,"count":24,"max":[1,0.9922778606414795,0.9701424837112427],"min":[-1,-0.9701424837112427,-0.9701424837112427],"type":"VEC3"},{"bufferView":54,"componentType":5126,"count":24,"max":[0.390625,0.39453125],"min":[0.03125,0.203125],"type":"VEC2"},{"bufferView":55,"componentType":5123,"count":36,"max":[23],"min":[0],"type":"SCALAR"},{"bufferView":56,"componentType":5126,"count":40,"max":[-1,0.0625,0.09375],"min":[-1.8125,-0.375,-0.09375],"type":"VEC3"},{"bufferView":57,"componentType":5126,"count":40,"max":[1,1,1],"min":[-1,-0.988371729850769,-1],"type":"VEC3"},{"bufferView":58,"componentType":5126,"count":40,"max":[0.38594844937324524,0.4140625],"min":[0,0],"type":"VEC2"},{"bufferView":59,"componentType":5123,"count":60,"max":[39],"min":[0],"type":"SCALAR"},{"bufferView":60,"componentType":5126,"count":24,"max":[0.1728506237268448,-0.17877937853336334,0.09375],"min":[-0.24720187485218048,-0.26003125309944153,-0.09375],"type":"VEC3"},{"bufferView":61,"componentType":5126,"count":24,"max":[0.9999000430107117,0.9999922513961792,1],"min":[-1,-1,-1],"type":"VEC3"},{"bufferView":62,"componentType":5126,"count":24,"max":[0.78125,0.484375],"min":[0.2828125059604645,0],"type":"VEC2"},{"bufferView":63,"componentType":5123,"count":36,"max":[23],"min":[0],"type":"SCALAR"},{"bufferView":64,"componentType":5126,"count":72,"max":[0.31303438544273376,0.6293487548828125,0.078125],"min":[-0.22836250066757202,-0.17877937853336334,-0.078125],"type":"VEC3"},{"bufferView":65,"componentType":5126,"count":72,"max":[1,0.8469842076301575,1],"min":[-1,-1,-1],"type":"VEC3"},{"bufferView":66,"componentType":5126,"count":72,"max":[0.71875,0.8653531074523926],"min":[0,0],"type":"VEC2"},{"bufferView":67,"componentType":5123,"count":108,"max":[71],"min":[0],"type":"SCALAR"}],"materials":[{"pbrMetallicRoughness":{"metallicFactor":0,"roughnessFactor":1,"baseColorTexture":{"index":0}},"alphaMode":"MASK","alphaCutoff":0.05},{"pbrMetallicRoughness":{"metallicFactor":0,"roughnessFactor":1,"baseColorTexture":{"index":1}},"alphaMode":"MASK","alphaCutoff":0.05},{"pbrMetallicRoughness":{"metallicFactor":0,"roughnessFactor":1,"baseColorTexture":{"index":2}},"alphaMode":"MASK","alphaCutoff":0.05}],"textures":[{"sampler":0,"source":0,"name":"ak-47-fun"},{"sampler":1,"source":1,"name":"cube_fun"},{"sampler":2,"source":2,"name":"magazine-fun"}],"samplers":[{"magFilter":9728,"minFilter":9728,"wrapS":10497,"wrapT":10497},{"magFilter":9728,"minFilter":9728,"wrapS":10497,"wrapT":10497},{"magFilter":9728,"minFilter":9728,"wrapS":10497,"wrapT":10497}],"images":[{"mimeType":"image/png","uri":"data:image/png;base64,"},{"mimeType":"image/png","uri":"data:image/png;base64,"},{"mimeType":"image/png","uri":"data:image/png;base64,"}],"meshes":[{"primitives":[{"mode":4,"attributes":{"POSITION":0,"NORMAL":1,"TEXCOORD_0":2},"indices":3,"material":0}]},{"primitives":[{"mode":4,"attributes":{"POSITION":4,"NORMAL":5,"TEXCOORD_0":6},"indices":7,"material":0}]},{"primitives":[{"mode":4,"attributes":{"POSITION":8,"NORMAL":9,"TEXCOORD_0":10},"indices":11,"material":0}]},{"primitives":[{"mode":4,"attributes":{"POSITION":12,"NORMAL":13,"TEXCOORD_0":14},"indices":15,"material":0}]},{"primitives":[{"mode":4,"attributes":{"POSITION":16,"NORMAL":17,"TEXCOORD_0":18},"indices":19,"material":1}]},{"primitives":[{"mode":4,"attributes":{"POSITION":20,"NORMAL":21,"TEXCOORD_0":22},"indices":23,"material":1}]},{"primitives":[{"mode":4,"attributes":{"POSITION":24,"NORMAL":25,"TEXCOORD_0":26},"indices":27,"material":0}]},{"primitives":[{"mode":4,"attributes":{"POSITION":28,"NORMAL":29,"TEXCOORD_0":30},"indices":31,"material":0}]},{"primitives":[{"mode":4,"attributes":{"POSITION":32,"NORMAL":33,"TEXCOORD_0":34},"indices":35,"material":0}]},{"primitives":[{"mode":4,"attributes":{"POSITION":36,"NORMAL":37,"TEXCOORD_0":38},"indices":39,"material":0}]},{"primitives":[{"mode":4,"attributes":{"POSITION":40,"NORMAL":41,"TEXCOORD_0":42},"indices":43,"material":0}]},{"primitives":[{"mode":4,"attributes":{"POSITION":44,"NORMAL":45,"TEXCOORD_0":46},"indices":47,"material":0}]},{"primitives":[{"mode":4,"attributes":{"POSITION":48,"NORMAL":49,"TEXCOORD_0":50},"indices":51,"material":0}]},{"primitives":[{"mode":4,"attributes":{"POSITION":52,"NORMAL":53,"TEXCOORD_0":54},"indices":55,"material":0}]},{"primitives":[{"mode":4,"attributes":{"POSITION":56,"NORMAL":57,"TEXCOORD_0":58},"indices":59,"material":0}]},{"primitives":[{"mode":4,"attributes":{"POSITION":60,"NORMAL":61,"TEXCOORD_0":62},"indices":63,"material":2}]},{"primitives":[{"mode":4,"attributes":{"POSITION":64,"NORMAL":65,"TEXCOORD_0":66},"indices":67,"material":2}]}]}