{"asset":{"version":"2.0","generator":"Blockbench 5.0.3 glTF exporter"},"scenes":[{"nodes":[19],"name":"blockbench_export"}],"scene":0,"nodes":[{"rotation":[0,0,0.1521233861899167,0.9883615104677607],"translation":[0.013312499999999977,-0.11259250000000004,-0.005756875000000106],"name":"cube","mesh":0},{"rotation":[0,0,0.19509032201612825,0.9807852804032304],"translation":[0.07911375000000007,-0.30414687500000004,-0.005756875000000106],"name":"cube","mesh":1},{"translation":[0.22934437500000004,-0.54019875,0.005756875000000106],"name":"magazine","children":[0,1]},{"rotation":[-0.3826834323650898,0,0,0.9238795325112867],"translation":[3.625,0.06250000000000011,0],"name":"cube","mesh":2},{"translation":[-0.47022749999999996,-0.46833125,0.005756875000000106],"name":"cube","mesh":3},{"rotation":[0,0,0.06540312923014306,0.9978589232386035],"translation":[-0.37647749999999996,-0.29645625,0.005756875000000106],"name":"cube","mesh":4},{"rotation":[0,0,-0.06540312923014306,0.9978589232386035],"translation":[-0.541934375,-0.45324124999999993,0.005756875000000106],"name":"cube","mesh":5},{"name":"cube","mesh":6},{"name":"cube","mesh":7},{"rotation":[0,0,0.08715574274765817,0.9961946980917455],"translation":[0.1875,-0.25,0],"name":"cube","mesh":8},{"rotation":[0,0,0.08715574274765817,0.9961946980917455],"translation":[0.1875,-0.25,0],"name":"cube","mesh":9},{"rotation":[0,0,0.06540312923014306,0.9978589232386035],"translation":[-1.2187500000000002,-0.09645062500000001,0],"name":"cube","mesh":10},{"rotation":[0,0,0.06540312923014306,0.9978589232386035],"translation":[-1.2187500000000002,-0.09645062500000001,0],"name":"cube","mesh":11},{"rotation":[0,0,0.19509032201612825,0.9807852804032304],"translation":[-1.2187500000000002,-0.09645062500000001,0],"name":"cube","mesh":12},{"rotation":[0,0,0.06540312923014306,0.9978589232386035],"translation":[-1.2187500000000002,-0.09645062500000001,0],"name":"cube","mesh":13},{"rotation":[0,0,0.08715574274765817,0.9961946980917455],"translation":[-1.1375668750000003,-0.11455812499999996,0],"name":"cube","mesh":14},{"name":"cube","mesh":15},{"name":"cube","mesh":16},{"rotation":[-0.3826834323650898,0,0,0.9238795325112867],"translation":[1.9374999999999998,0.06250000000000011,0],"name":"cube","mesh":17},{"rotation":[0,0.7071067811865475,0,0.7071067811865476],"translation":[0.0007524999999999754,0.96833125,0.37212187499999994],"name":"asval","children":[2,3,4,5,6,7,8,9,10,11,12,13,14,15,16,17,18]}],"bufferViews":[{"buffer":0,"byteOffset":0,"byteLength":288,"target":34962,"byteStride":12},{"buffer":0,"byteOffset":288,"byteLength":288,"target":34962,"byteStride":12},{"buffer":0,"byteOffset":576,"byteLength":192,"target":34962,"byteStride":8},{"buffer":0,"byteOffset":768,"byteLength":72,"target":34963},{"buffer":0,"byteOffset":840,"byteLength":288,"target":34962,"byteStride":12},{"buffer":0,"byteOffset":1128,"byteLength":288,"target":34962,"byteStride":12},{"buffer":0,"byteOffset":1416,"byteLength":192,"target":34962,"byteStride":8},{"buffer":0,"byteOffset":1608,"byteLength":72,"target":34963},{"buffer":0,"byteOffset":1680,"byteLength":288,"target":34962,"byteStride":12},{"buffer":0,"byteOffset":1968,"byteLength":288,"target":34962,"byteStride":12},{"buffer":0,"byteOffset":2256,"byteLength":192,"target":34962,"byteStride":8},{"buffer":0,"byteOffset":2448,"byteLength":72,"target":34963},{"buffer":0,"byteOffset":2520,"byteLength":960,"target":34962,"byteStride":12},{"buffer":0,"byteOffset":3480,"byteLength":960,"target":34962,"byteStride":12},{"buffer":0,"byteOffset":4440,"byteLength":640,"target":34962,"byteStride":8},{"buffer":0,"byteOffset":5080,"byteLength":240,"target":34963},{"buffer":0,"byteOffset":5320,"byteLength":480,"target":34962,"byteStride":12},{"buffer":0,"byteOffset":5800,"byteLength":480,"target":34962,"byteStride":12},{"buffer":0,"byteOffset":6280,"byteLength":320,"target":34962,"byteStride":8},{"buffer":0,"byteOffset":6600,"byteLength":120,"target":34963},{"buffer":0,"byteOffset":6720,"byteLength":672,"target":34962,"byteStride":12},{"buffer":0,"byteOffset":7392,"byteLength":672,"target":34962,"byteStride":12},{"buffer":0,"byteOffset":8064,"byteLength":448,"target":34962,"byteStride":8},{"buffer":0,"byteOffset":8512,"byteLength":168,"target":34963},{"buffer":0,"byteOffset":8680,"byteLength":1152,"target":34962,"byteStride":12},{"buffer":0,"byteOffset":9832,"byteLength":1152,"target":34962,"byteStride":12},{"buffer":0,"byteOffset":10984,"byteLength":768,"target":34962,"byteStride":8},{"buffer":0,"byteOffset":11752,"byteLength":288,"target":34963},{"buffer":0,"byteOffset":12040,"byteLength":768,"target":34962,"byteStride":12},{"buffer":0,"byteOffset":12808,"byteLength":768,"target":34962,"byteStride":12},{"buffer":0,"byteOffset":13576,"byteLength":512,"target":34962,"byteStride":8},{"buffer":0,"byteOffset":14088,"byteLength":192,"target":34963},{"buffer":0,"byteOffset":14280,"byteLength":288,"target":34962,"byteStride":12},{"buffer":0,"byteOffset":14568,"byteLength":288,"target":34962,"byteStride":12},{"buffer":0,"byteOffset":14856,"byteLength":192,"target":34962,"byteStride":8},{"buffer":0,"byteOffset":15048,"byteLength":72,"target":34963},{"buffer":0,"byteOffset":15120,"byteLength":288,"target":34962,"byteStride":12},{"buffer":0,"byteOffset":15408,"byteLength":288,"target":34962,"byteStride":12},{"buffer":0,"byteOffset":15696,"byteLength":192,"target":34962,"byteStride":8},{"buffer":0,"byteOffset":15888,"byteLength":72,"target":34963},{"buffer":0,"byteOffset":15960,"byteLength":288,"target":34962,"byteStride":12},{"buffer":0,"byteOffset":16248,"byteLength":288,"target":34962,"byteStride":12},{"buffer":0,"byteOffset":16536,"byteLength":192,"target":34962,"byteStride":8},{"buffer":0,"byteOffset":16728,"byteLength":72,"target":34963},{"buffer":0,"byteOffset":16800,"byteLength":288,"target":34962,"byteStride":12},{"buffer":0,"byteOffset":17088,"byteLength":288,"target":34962,"byteStride":12},{"buffer":0,"byteOffset":17376,"byteLength":192,"target":34962,"byteStride":8},{"buffer":0,"byteOffset":17568,"byteLength":72,"target":34963},{"buffer":0,"byteOffset":17640,"byteLength":480,"target":34962,"byteStride":12},{"buffer":0,"byteOffset":18120,"byteLength":480,"target":34962,"byteStride":12},{"buffer":0,"byteOffset":18600,"byteLength":320,"target":34962,"byteStride":8},{"buffer":0,"byteOffset":18920,"byteLength":120,"target":34963},{"buffer":0,"byteOffset":19040,"byteLength":288,"target":34962,"byteStride":12},{"buffer":0,"byteOffset":19328,"byteLength":288,"target":34962,"byteStride":12},{"buffer":0,"byteOffset":19616,"byteLength":192,"target":34962,"byteStride":8},{"buffer":0,"byteOffset":19808,"byteLength":72,"target":34963},{"buffer":0,"byteOffset":19880,"byteLength":288,"target":34962,"byteStride":12},{"buffer":0,"byteOffset":20168,"byteLength":288,"target":34962,"byteStride":12},{"buffer":0,"byteOffset":20456,"byteLength":192,"target":34962,"byteStride":8},{"buffer":0,"byteOffset":20648,"byteLength":72,"target":34963},{"buffer":0,"byteOffset":20720,"byteLength":480,"target":34962,"byteStride":12},{"buffer":0,"byteOffset":21200,"byteLength":480,"target":34962,"byteStride":12},{"buffer":0,"byteOffset":21680,"byteLength":320,"target":34962,"byteStride":8},{"buffer":0,"byteOffset":22000,"byteLength":120,"target":34963},{"buffer":0,"byteOffset":22120,"byteLength":480,"target":34962,"byteStride":12},{"buffer":0,"byteOffset":22600,"byteLength":480,"target":34962,"byteStride":12},{"buffer":0,"byteOffset":23080,"byteLength":320,"target":34962,"byteStride":8},{"buffer":0,"byteOffset":23400,"byteLength":120,"target":34963},{"buffer":0,"byteOffset":23520,"byteLength":288,"target":34962,"byteStride":12},{"buffer":0,"byteOffset":23808,"byteLength":288,"target":34962,"byteStride":12},{"buffer":0,"byteOffset":24096,"byteLength":192,"target":34962,"byteStride":8},{"buffer":0,"byteOffset":24288,"byteLength":72,"target":34963}],"buffers":[{"byteLength":24360,"uri":"data:application/octet-stream;base64,"}],"accessors":[{"bufferView":0,"componentType":5126,"count":24,"max":[0.1875,0.375,0.09375],"min":[-0.1875,-0.15625,-0.09375],"type":"VEC3"},{"bufferView":1,"componentType":5126,"count":24,"max":[1,1,1],"min":[-1,-1,-1],"type":"VEC3"},{"bufferView":2,"componentType":5126,"count":24,"max":[0.2578125,0.375],"min":[0.0234375,0.109375],"type":"VEC2"},{"bufferView":3,"componentType":5123,"count":36,"max":[23],"min":[0],"type":"SCALAR"},{"bufferView":4,"componentType":5126,"count":24,"max":[0.203125,0.0625,0.125],"min":[-0.203125,-0.0625,-0.125],"type":"VEC3"},{"bufferView":5,"componentType":5126,"count":24,"max":[1,1,1],"min":[-1,-1,-1],"type":"VEC3"},{"bufferView":6,"componentType":5126,"count":24,"max":[0.4609375,0.46875],"min":[0.0859375,0.0390625],"type":"VEC2"},{"bufferView":7,"componentType":5123,"count":36,"max":[23],"min":[0],"type":"SCALAR"},{"bufferView":8,"componentType":5126,"count":24,"max":[-0.8125,0.125,0.125],"min":[-0.90625,-0.125,-0.125],"type":"VEC3"},{"bufferView":9,"componentType":5126,"count":24,"max":[1,1,1],"min":[-1,-1,-1],"type":"VEC3"},{"bufferView":10,"componentType":5126,"count":24,"max":[0.609375,0.78125],"min":[0,0.5],"type":"VEC2"},{"bufferView":11,"componentType":5123,"count":36,"max":[23],"min":[0],"type":"SCALAR"},{"bufferView":12,"componentType":5126,"count":80,"max":[0.421875,0.28125,0.046875],"min":[0.0625,0.078125,-0.046875],"type":"VEC3"},{"bufferView":13,"componentType":5126,"count":80,"max":[1,1,1],"min":[-1,-1,-1],"type":"VEC3"},{"bufferView":14,"componentType":5126,"count":80,"max":[0.505859375,0.4921875],"min":[0.078125,0.0546875],"type":"VEC2"},{"bufferView":15,"componentType":5123,"count":120,"max":[79],"min":[0],"type":"SCALAR"},{"bufferView":16,"componentType":5126,"count":40,"max":[0.08845187723636627,0.11562500149011612,0.015625],"min":[0.02812499925494194,-0.026905624195933342,-0.015625],"type":"VEC3"},{"bufferView":17,"componentType":5126,"count":40,"max":[1,1,1],"min":[-1,-1,-1],"type":"VEC3"},{"bufferView":18,"componentType":5126,"count":40,"max":[0.42578125,0.502831220626831],"min":[0.09375,0.0546875],"type":"VEC2"},{"bufferView":19,"componentType":5123,"count":60,"max":[39],"min":[0],"type":"SCALAR"},{"bufferView":20,"componentType":5126,"count":56,"max":[0.1543656289577484,0.34375,0.078125],"min":[-0.125,-0.21875,-0.078125],"type":"VEC3"},{"bufferView":21,"componentType":5126,"count":56,"max":[1,1,1],"min":[-1,-0.9992689490318298,-1],"type":"VEC3"},{"bufferView":22,"componentType":5126,"count":56,"max":[0.3515625,0.4609375],"min":[0,0.05517578125],"type":"VEC2"},{"bufferView":23,"componentType":5123,"count":84,"max":[55],"min":[0],"type":"SCALAR"},{"bufferView":24,"componentType":5126,"count":96,"max":[0.375,0.25,0.125],"min":[-0.6875,-0.1875,-0.125],"type":"VEC3"},{"bufferView":25,"componentType":5126,"count":96,"max":[1,1,1],"min":[-0.9956633448600769,-1,-1],"type":"VEC3"},{"bufferView":26,"componentType":5126,"count":96,"max":[0.328125,0.359375],"min":[0,0],"type":"VEC2"},{"bufferView":27,"componentType":5123,"count":144,"max":[95],"min":[0],"type":"SCALAR"},{"bufferView":28,"componentType":5126,"count":64,"max":[1.0625,0.25,0.17383313179016113],"min":[0.375,-0.1875,-0.17383313179016113],"type":"VEC3"},{"bufferView":29,"componentType":5126,"count":64,"max":[1,1,0.9964872598648071],"min":[-1,-0.9838699102401733,-0.9969227313995361],"type":"VEC3"},{"bufferView":30,"componentType":5126,"count":64,"max":[0.2880859375,0.390625],"min":[0.0008445312269032001,0],"type":"VEC2"},{"bufferView":31,"componentType":5123,"count":96,"max":[63],"min":[0],"type":"SCALAR"},{"bufferView":32,"componentType":5126,"count":24,"max":[0.15625,0.015625,0.140625],"min":[-0.28125,-0.109375,-0.140625],"type":"VEC3"},{"bufferView":33,"componentType":5126,"count":24,"max":[1,1,1],"min":[-1,-1,-1],"type":"VEC3"},{"bufferView":34,"componentType":5126,"count":24,"max":[0.46484375,0.453125],"min":[0,0.109375],"type":"VEC2"},{"bufferView":35,"componentType":5123,"count":36,"max":[23],"min":[0],"type":"SCALAR"},{"bufferView":36,"componentType":5126,"count":24,"max":[0.15625,0.140625,0.109375],"min":[-0.25,0.015625,-0.109375],"type":"VEC3"},{"bufferView":37,"componentType":5126,"count":24,"max":[1,1,1],"min":[-1,-1,-1],"type":"VEC3"},{"bufferView":38,"componentType":5126,"count":24,"max":[0.47265625,0.4765625],"min":[0.09375,0.2578125],"type":"VEC2"},{"bufferView":39,"componentType":5123,"count":36,"max":[23],"min":[0],"type":"SCALAR"},{"bufferView":40,"componentType":5126,"count":24,"max":[0.578125,0.22145062685012817,0.09375],"min":[0.390625,-0.09104937314987183,-0.09375],"type":"VEC3"},{"bufferView":41,"componentType":5126,"count":24,"max":[1,1,1],"min":[-1,-1,-1],"type":"VEC3"},{"bufferView":42,"componentType":5126,"count":24,"max":[0.2578125,0.46875],"min":[0.0234375,0.3828125],"type":"VEC2"},{"bufferView":43,"componentType":5123,"count":36,"max":[23],"min":[0],"type":"SCALAR"},{"bufferView":44,"componentType":5126,"count":24,"max":[0.390625,0.19020062685012817,0.0625],"min":[-0.421875,0.09645062685012817,-0.0625],"type":"VEC3"},{"bufferView":45,"componentType":5126,"count":24,"max":[1,1,1],"min":[-1,-1,-1],"type":"VEC3"},{"bufferView":46,"componentType":5126,"count":24,"max":[0.4921875,0.48828125],"min":[0,0.015625],"type":"VEC2"},{"bufferView":47,"componentType":5123,"count":36,"max":[23],"min":[0],"type":"SCALAR"},{"bufferView":48,"componentType":5126,"count":40,"max":[0.39020249247550964,-0.04945874959230423,0.0625],"min":[-0.48479750752449036,-0.19008375704288483,-0.0625],"type":"VEC3"},{"bufferView":49,"componentType":5126,"count":40,"max":[1,0.9984476566314697,1],"min":[-1,-0.998447597026825,-1],"type":"VEC3"},{"bufferView":50,"componentType":5126,"count":40,"max":[0.484375,0.416015625],"min":[0.0625,0.0390625],"type":"VEC2"},{"bufferView":51,"componentType":5123,"count":60,"max":[39],"min":[0],"type":"SCALAR"},{"bufferView":52,"componentType":5126,"count":24,"max":[-0.421875,0.22145062685012817,0.09375],"min":[-0.546875,-0.2785493731498718,-0.09375],"type":"VEC3"},{"bufferView":53,"componentType":5126,"count":24,"max":[1,1,1],"min":[-1,-1,-1],"type":"VEC3"},{"bufferView":54,"componentType":5126,"count":24,"max":[0.359375,0.4765625],"min":[0,0],"type":"VEC2"},{"bufferView":55,"componentType":5123,"count":36,"max":[23],"min":[0],"type":"SCALAR"},{"bufferView":56,"componentType":5126,"count":24,"max":[0.03125,0.234375,0.078125],"min":[-0.09375,-0.15625,-0.078125],"type":"VEC3"},{"bufferView":57,"componentType":5126,"count":24,"max":[1,1,1],"min":[-1,-1,-1],"type":"VEC3"},{"bufferView":58,"componentType":5126,"count":24,"max":[0.484375,0.48828125],"min":[0,0.171875],"type":"VEC2"},{"bufferView":59,"componentType":5123,"count":36,"max":[23],"min":[0],"type":"SCALAR"},{"bufferView":60,"componentType":5126,"count":40,"max":[2.796875,0.25,0.046875],"min":[2.671875,0.125,-0.046875],"type":"VEC3"},{"bufferView":61,"componentType":5126,"count":40,"max":[1,0.8320503234863281,1],"min":[-1,-1,-1],"type":"VEC3"},{"bufferView":62,"componentType":5126,"count":40,"max":[0.484375,0.4921875],"min":[0.046875,0.109375],"type":"VEC2"},{"bufferView":63,"componentType":5123,"count":60,"max":[39],"min":[0],"type":"SCALAR"},{"bufferView":64,"componentType":5126,"count":40,"max":[1.359375,0.25,0.0625],"min":[1.046875,0.125,-0.0625],"type":"VEC3"},{"bufferView":65,"componentType":5126,"count":40,"max":[1,0.9701424837112427,0.9922778606414795],"min":[-1,-1,-0.9922778606414795],"type":"VEC3"},{"bufferView":66,"componentType":5126,"count":40,"max":[0.5,0.484375],"min":[0.1484375,0.25],"type":"VEC2"},{"bufferView":67,"componentType":5123,"count":60,"max":[39],"min":[0],"type":"SCALAR"},{"bufferView":68,"componentType":5126,"count":24,"max":[0.78125,0.09375,0.09375],"min":[-0.875,-0.09375,-0.09375],"type":"VEC3"},{"bufferView":69,"componentType":5126,"count":24,"max":[1,1,1],"min":[-1,-1,-1],"type":"VEC3"},{"bufferView":70,"componentType":5126,"count":24,"max":[0.828125,0.59375],"min":[0,0],"type":"VEC2"},{"bufferView":71,"componentType":5123,"count":36,"max":[23],"min":[0],"type":"SCALAR"}],"materials":[{"pbrMetallicRoughness":{"metallicFactor":0,"roughnessFactor":1,"baseColorTexture":{"index":0}},"alphaMode":"MASK","alphaCutoff":0.05},{"pbrMetallicRoughness":{"metallicFactor":0,"roughnessFactor":1,"baseColorTexture":{"index":1}},"alphaMode":"MASK","alphaCutoff":0.05}],"textures":[{"sampler":0,"source":0,"name":"asval-fun"},{"sampler":1,"source":1,"name":"asvalfun_cube"}],"samplers":[{"magFilter":9728,"minFilter":9728,"wrapS":10497,"wrapT":10497},{"magFilter":9728,"minFilter":9728,"wrapS":10497,"wrapT":10497}],"images":[{"mimeType":"image/png","uri":"data:image/png;base64,"},{"mimeType":"image/png","uri":"data:image/png;base64,"}],"meshes":[{"primitives":[{"mode":4,"attributes":{"POSITION":0,"NORMAL":1,"TEXCOORD_0":2},"indices":3,"material":0}]},{"primitives":[{"mode":4,"attributes":{"POSITION":4,"NORMAL":5,"TEXCOORD_0":6},"indices":7,"material":0}]},{"primitives":[{"mode":4,"attributes":{"POSITION":8,"NORMAL":9,"TEXCOORD_0":10},"indices":11,"material":1}]},{"primitives":[{"mode":4,"attributes":{"POSITION":12,"NORMAL":13,"TEXCOORD_0":14},"indices":15,"material":0}]},{"primitives":[{"mode":4,"attributes":{"POSITION":16,"NORMAL":17,"TEXCOORD_0":18},"indices":19,"material":0}]},{"primitives":[{"mode":4,"attributes":{"POSITION":20,"NORMAL":21,"TEXCOORD_0":22},"indices":23,"material":0}]},{"primitives":[{"mode":4,"attributes":{"POSITION":24,"NORMAL":25,"TEXCOORD_0":26},"indices":27,"material":0}]},{"primitives":[{"mode":4,"attributes":{"POSITION":28,"NORMAL":29,"TEXCOORD_0":30},"indices":31,"material":0}]},{"primitives":[{"mode":4,"attributes":{"POSITION":32,"NORMAL":33,"TEXCOORD_0":34},"indices":35,"material":0}]},{"primitives":[{"mode":4,"attributes":{"POSITION":36,"NORMAL":37,"TEXCOORD_0":38},"indices":39,"material":0}]},{"primitives":[{"mode":4,"attributes":{"POSITION":40,"NORMAL":41,"TEXCOORD_0":42},"indices":43,"material":0}]},{"primitives":[{"mode":4,"attributes":{"POSITION":44,"NORMAL":45,"TEXCOORD_0":46},"indices":47,"material":0}]},{"primitives":[{"mode":4,"attributes":{"POSITION":48,"NORMAL":49,"TEXCOORD_0":50},"indices":51,"material":0}]},{"primitives":[{"mode":4,"attributes":{"POSITION":52,"NORMAL":53,"TEXCOORD_0":54},"indices":55,"material":0}]},{"primitives":[{"mode":4,"attributes":{"POSITION":56,"NORMAL":57,"TEXCOORD_0":58},"indices":59,"material":0}]},{"primitives":[{"mode":4,"attributes":{"POSITION":60,"NORMAL":61,"TEXCOORD_0":62},"indices":63,"material":0}]},{"primitives":[{"mode":4,"attributes":{"POSITION":64,"NORMAL":65,"TEXCOORD_0":66},"indices":67,"material":0}]},{"primitives":[{"mode":4,"attributes":{"POSITION":68,"NORMAL":69,"TEXCOORD_0":70},"indices":71,"material":1}]}]}