{"asset":{"version":"2.0","generator":"Blockbench 5.0.3 glTF exporter"},"scenes":[{"nodes":[21],"name":"blockbench_export"}],"scene":0,"nodes":[{"translation":[-0.4233525,-0.4370812500000001,0.005756875000000106],"name":"cube","mesh":0},{"rotation":[0,0,0.06540312923014306,0.9978589232386035],"translation":[-0.2671025,-0.2652062500000001,0.005756875000000106],"name":"cube","mesh":1},{"translation":[-0.4375,0.06249999999999978,0],"name":"cube","mesh":2},{"translation":[-1.625,-0.0625,0],"name":"cube","mesh":3},{"rotation":[0,0,0.043619387365336,0.9990482215818578],"translation":[-1.75,-0.09375,0],"name":"cube","mesh":4},{"translation":[-0.375,-0.0625,0],"name":"cube","mesh":5},{"translation":[-0.625,-0.3125,0],"name":"cube","mesh":6},{"name":"cube","mesh":7},{"rotation":[-0.3826834323650898,0,0,0.9238795325112867],"translation":[3.40625,0.18749999999999978,0],"name":"cube","mesh":8},{"rotation":[-0.3826834323650898,0,0,0.9238795325112867],"translation":[3.40625,0.18749999999999978,0],"name":"cube","mesh":9},{"name":"cube","mesh":10},{"name":"cube","mesh":11},{"translation":[-0.4375,0,0],"name":"cube","mesh":12},{"translation":[0,-0.015625,0],"name":"cube","mesh":13},{"translation":[-0.6875,-0.015625,0],"name":"cube","mesh":14},{"rotation":[0,-0.3826834323650898,0,0.9238795325112867],"translation":[0.03125,0.7343749999999998,0],"name":"cube","mesh":15},{"rotation":[-0.6532814824381882,-0.27059805007309845,0.2705980500730985,0.6532814824381883],"translation":[0.03125,0.5624999999999998,-0.171875],"name":"cube","mesh":16},{"rotation":[0.6532814824381882,0.27059805007309845,0.2705980500730985,0.6532814824381883],"translation":[0.03125,0.5624999999999998,0.17763125000000013],"name":"cube","mesh":17},{"translation":[0.71875,0.5468749999999998,0],"name":"cube","mesh":18},{"translation":[-0.041844375000000045,0.22769875000000006,-0.005756875000000106],"name":"cube","mesh":19},{"translation":[0.22934437500000004,-0.5401987500000001,0.005756875000000106],"name":"magazine","children":[19]},{"rotation":[0,0.7071067811865475,0,0.7071067811865476],"translation":[0,0.6558312500000001,0.6846218749999999],"name":"awp","children":[0,1,2,3,4,5,6,7,8,9,10,11,12,13,14,15,16,17,18,20]}],"bufferViews":[{"buffer":0,"byteOffset":0,"byteLength":960,"target":34962,"byteStride":12},{"buffer":0,"byteOffset":960,"byteLength":960,"target":34962,"byteStride":12},{"buffer":0,"byteOffset":1920,"byteLength":640,"target":34962,"byteStride":8},{"buffer":0,"byteOffset":2560,"byteLength":240,"target":34963},{"buffer":0,"byteOffset":2800,"byteLength":480,"target":34962,"byteStride":12},{"buffer":0,"byteOffset":3280,"byteLength":480,"target":34962,"byteStride":12},{"buffer":0,"byteOffset":3760,"byteLength":320,"target":34962,"byteStride":8},{"buffer":0,"byteOffset":4080,"byteLength":120,"target":34963},{"buffer":0,"byteOffset":4200,"byteLength":480,"target":34962,"byteStride":12},{"buffer":0,"byteOffset":4680,"byteLength":480,"target":34962,"byteStride":12},{"buffer":0,"byteOffset":5160,"byteLength":320,"target":34962,"byteStride":8},{"buffer":0,"byteOffset":5480,"byteLength":120,"target":34963},{"buffer":0,"byteOffset":5600,"byteLength":288,"target":34962,"byteStride":12},{"buffer":0,"byteOffset":5888,"byteLength":288,"target":34962,"byteStride":12},{"buffer":0,"byteOffset":6176,"byteLength":192,"target":34962,"byteStride":8},{"buffer":0,"byteOffset":6368,"byteLength":72,"target":34963},{"buffer":0,"byteOffset":6440,"byteLength":288,"target":34962,"byteStride":12},{"buffer":0,"byteOffset":6728,"byteLength":288,"target":34962,"byteStride":12},{"buffer":0,"byteOffset":7016,"byteLength":192,"target":34962,"byteStride":8},{"buffer":0,"byteOffset":7208,"byteLength":72,"target":34963},{"buffer":0,"byteOffset":7280,"byteLength":1056,"target":34962,"byteStride":12},{"buffer":0,"byteOffset":8336,"byteLength":1056,"target":34962,"byteStride":12},{"buffer":0,"byteOffset":9392,"byteLength":704,"target":34962,"byteStride":8},{"buffer":0,"byteOffset":10096,"byteLength":264,"target":34963},{"buffer":0,"byteOffset":10360,"byteLength":1152,"target":34962,"byteStride":12},{"buffer":0,"byteOffset":11512,"byteLength":1152,"target":34962,"byteStride":12},{"buffer":0,"byteOffset":12664,"byteLength":768,"target":34962,"byteStride":8},{"buffer":0,"byteOffset":13432,"byteLength":288,"target":34963},{"buffer":0,"byteOffset":13720,"byteLength":768,"target":34962,"byteStride":12},{"buffer":0,"byteOffset":14488,"byteLength":768,"target":34962,"byteStride":12},{"buffer":0,"byteOffset":15256,"byteLength":512,"target":34962,"byteStride":8},{"buffer":0,"byteOffset":15768,"byteLength":192,"target":34963},{"buffer":0,"byteOffset":15960,"byteLength":288,"target":34962,"byteStride":12},{"buffer":0,"byteOffset":16248,"byteLength":288,"target":34962,"byteStride":12},{"buffer":0,"byteOffset":16536,"byteLength":192,"target":34962,"byteStride":8},{"buffer":0,"byteOffset":16728,"byteLength":72,"target":34963},{"buffer":0,"byteOffset":16800,"byteLength":288,"target":34962,"byteStride":12},{"buffer":0,"byteOffset":17088,"byteLength":288,"target":34962,"byteStride":12},{"buffer":0,"byteOffset":17376,"byteLength":192,"target":34962,"byteStride":8},{"buffer":0,"byteOffset":17568,"byteLength":72,"target":34963},{"buffer":0,"byteOffset":17640,"byteLength":288,"target":34962,"byteStride":12},{"buffer":0,"byteOffset":17928,"byteLength":288,"target":34962,"byteStride":12},{"buffer":0,"byteOffset":18216,"byteLength":192,"target":34962,"byteStride":8},{"buffer":0,"byteOffset":18408,"byteLength":72,"target":34963},{"buffer":0,"byteOffset":18480,"byteLength":288,"target":34962,"byteStride":12},{"buffer":0,"byteOffset":18768,"byteLength":288,"target":34962,"byteStride":12},{"buffer":0,"byteOffset":19056,"byteLength":192,"target":34962,"byteStride":8},{"buffer":0,"byteOffset":19248,"byteLength":72,"target":34963},{"buffer":0,"byteOffset":19320,"byteLength":288,"target":34962,"byteStride":12},{"buffer":0,"byteOffset":19608,"byteLength":288,"target":34962,"byteStride":12},{"buffer":0,"byteOffset":19896,"byteLength":192,"target":34962,"byteStride":8},{"buffer":0,"byteOffset":20088,"byteLength":72,"target":34963},{"buffer":0,"byteOffset":20160,"byteLength":288,"target":34962,"byteStride":12},{"buffer":0,"byteOffset":20448,"byteLength":288,"target":34962,"byteStride":12},{"buffer":0,"byteOffset":20736,"byteLength":192,"target":34962,"byteStride":8},{"buffer":0,"byteOffset":20928,"byteLength":72,"target":34963},{"buffer":0,"byteOffset":21000,"byteLength":288,"target":34962,"byteStride":12},{"buffer":0,"byteOffset":21288,"byteLength":288,"target":34962,"byteStride":12},{"buffer":0,"byteOffset":21576,"byteLength":192,"target":34962,"byteStride":8},{"buffer":0,"byteOffset":21768,"byteLength":72,"target":34963},{"buffer":0,"byteOffset":21840,"byteLength":288,"target":34962,"byteStride":12},{"buffer":0,"byteOffset":22128,"byteLength":288,"target":34962,"byteStride":12},{"buffer":0,"byteOffset":22416,"byteLength":192,"target":34962,"byteStride":8},{"buffer":0,"byteOffset":22608,"byteLength":72,"target":34963},{"buffer":0,"byteOffset":22680,"byteLength":288,"target":34962,"byteStride":12},{"buffer":0,"byteOffset":22968,"byteLength":288,"target":34962,"byteStride":12},{"buffer":0,"byteOffset":23256,"byteLength":192,"target":34962,"byteStride":8},{"buffer":0,"byteOffset":23448,"byteLength":72,"target":34963},{"buffer":0,"byteOffset":23520,"byteLength":288,"target":34962,"byteStride":12},{"buffer":0,"byteOffset":23808,"byteLength":288,"target":34962,"byteStride":12},{"buffer":0,"byteOffset":24096,"byteLength":192,"target":34962,"byteStride":8},{"buffer":0,"byteOffset":24288,"byteLength":72,"target":34963},{"buffer":0,"byteOffset":24360,"byteLength":288,"target":34962,"byteStride":12},{"buffer":0,"byteOffset":24648,"byteLength":288,"target":34962,"byteStride":12},{"buffer":0,"byteOffset":24936,"byteLength":192,"target":34962,"byteStride":8},{"buffer":0,"byteOffset":25128,"byteLength":72,"target":34963},{"buffer":0,"byteOffset":25200,"byteLength":288,"target":34962,"byteStride":12},{"buffer":0,"byteOffset":25488,"byteLength":288,"target":34962,"byteStride":12},{"buffer":0,"byteOffset":25776,"byteLength":192,"target":34962,"byteStride":8},{"buffer":0,"byteOffset":25968,"byteLength":72,"target":34963}],"buffers":[{"byteLength":26040,"uri":"data:application/octet-stream;base64,"}],"accessors":[{"bufferView":0,"componentType":5126,"count":80,"max":[0.421875,0.28125,0.046875],"min":[0.0625,0.078125,-0.046875],"type":"VEC3"},{"bufferView":1,"componentType":5126,"count":80,"max":[1,1,1],"min":[-1,-1,-1],"type":"VEC3"},{"bufferView":2,"componentType":5126,"count":80,"max":[0.556445300579071,0.56640625],"min":[0.02363281324505806,0],"type":"VEC2"},{"bufferView":3,"componentType":5123,"count":120,"max":[79],"min":[0],"type":"SCALAR"},{"bufferView":4,"componentType":5126,"count":40,"max":[0.025951875373721123,0.11562500149011612,0.015625],"min":[-0.03437500074505806,-0.026905624195933342,-0.015625],"type":"VEC3"},{"bufferView":5,"componentType":5126,"count":40,"max":[1,1,1],"min":[-1,-1,-1],"type":"VEC3"},{"bufferView":6,"componentType":5126,"count":40,"max":[0.43359375,0.44033122062683105],"min":[0.03125,0.09375],"type":"VEC2"},{"bufferView":7,"componentType":5123,"count":60,"max":[39],"min":[0],"type":"SCALAR"},{"bufferView":8,"componentType":5126,"count":40,"max":[0.4375,0.125,0.125],"min":[-0.375,-0.296875,-0.125],"type":"VEC3"},{"bufferView":9,"componentType":5126,"count":40,"max":[1,1,1],"min":[-1,-1,-1],"type":"VEC3"},{"bufferView":10,"componentType":5126,"count":40,"max":[0.3203125,0.5078125],"min":[0.046875,0.0390625],"type":"VEC2"},{"bufferView":11,"componentType":5123,"count":60,"max":[39],"min":[0],"type":"SCALAR"},{"bufferView":12,"componentType":5126,"count":24,"max":[0.8125,0.25,0.125],"min":[-0.0625,-0.25,-0.125],"type":"VEC3"},{"bufferView":13,"componentType":5126,"count":24,"max":[1,1,1],"min":[-1,-1,-1],"type":"VEC3"},{"bufferView":14,"componentType":5126,"count":24,"max":[0.3515625,0.4609375],"min":[0,0.1328125],"type":"VEC2"},{"bufferView":15,"componentType":5123,"count":36,"max":[23],"min":[0],"type":"SCALAR"},{"bufferView":16,"componentType":5126,"count":24,"max":[0.09375,0.3125,0.15625],"min":[-0.09375,-0.3125,-0.15625],"type":"VEC3"},{"bufferView":17,"componentType":5126,"count":24,"max":[1,1,1],"min":[-1,-1,-1],"type":"VEC3"},{"bufferView":18,"componentType":5126,"count":24,"max":[0.421875,0.5234375],"min":[0.125,0.3125],"type":"VEC2"},{"bufferView":19,"componentType":5123,"count":36,"max":[23],"min":[0],"type":"SCALAR"},{"bufferView":20,"componentType":5126,"count":88,"max":[2,0.25,0.125],"min":[0.375,-0.25,-0.125],"type":"VEC3"},{"bufferView":21,"componentType":5126,"count":88,"max":[1,1,1],"min":[-1,-1,-1],"type":"VEC3"},{"bufferView":22,"componentType":5126,"count":88,"max":[0.4113730490207672,0.4997812509536743],"min":[0,0],"type":"VEC2"},{"bufferView":23,"componentType":5123,"count":132,"max":[87],"min":[0],"type":"SCALAR"},{"bufferView":24,"componentType":5126,"count":96,"max":[0.296875,0.15625,0.0625],"min":[-0.484375,-0.34375,-0.0625],"type":"VEC3"},{"bufferView":25,"componentType":5126,"count":96,"max":[1,1,1],"min":[-0.9980526566505432,-1,-1],"type":"VEC3"},{"bufferView":26,"componentType":5126,"count":96,"max":[0.5390625,0.5390625],"min":[0,0.09375],"type":"VEC2"},{"bufferView":27,"componentType":5123,"count":144,"max":[95],"min":[0],"type":"SCALAR"},{"bufferView":28,"componentType":5126,"count":64,"max":[3.25,0.25,0.0625],"min":[0.5625,0.125,-0.0625],"type":"VEC3"},{"bufferView":29,"componentType":5126,"count":64,"max":[1,0.9486833214759827,0.9486833214759827],"min":[-1,-0.9486833214759827,-0.9486833214759827],"type":"VEC3"},{"bufferView":30,"componentType":5126,"count":64,"max":[0.6640625,0.546875],"min":[0.28125,0.0390625],"type":"VEC2"},{"bufferView":31,"componentType":5123,"count":96,"max":[63],"min":[0],"type":"SCALAR"},{"bufferView":32,"componentType":5126,"count":24,"max":[0.15625,0.0625,0.0625],"min":[-0.15625,-0.0625,-0.0625],"type":"VEC3"},{"bufferView":33,"componentType":5126,"count":24,"max":[1,1,1],"min":[-1,-1,-1],"type":"VEC3"},{"bufferView":34,"componentType":5126,"count":24,"max":[0.5546875,0.5546875],"min":[0,0],"type":"VEC2"},{"bufferView":35,"componentType":5123,"count":36,"max":[23],"min":[0],"type":"SCALAR"},{"bufferView":36,"componentType":5126,"count":24,"max":[-0.15625,0.09375,0.09375],"min":[-0.28125,-0.09375,-0.09375],"type":"VEC3"},{"bufferView":37,"componentType":5126,"count":24,"max":[1,1,1],"min":[-1,-1,-1],"type":"VEC3"},{"bufferView":38,"componentType":5126,"count":24,"max":[0.4453125,0.5390625],"min":[0,0.2578125],"type":"VEC2"},{"bufferView":39,"componentType":5123,"count":36,"max":[23],"min":[0],"type":"SCALAR"},{"bufferView":40,"componentType":5126,"count":24,"max":[0.5625,0.3125,0.09375],"min":[-0.375,0.125,-0.09375],"type":"VEC3"},{"bufferView":41,"componentType":5126,"count":24,"max":[1,1,1],"min":[-1,-1,-1],"type":"VEC3"},{"bufferView":42,"componentType":5126,"count":24,"max":[0.5234375,0.53125],"min":[0.109375,0.09375],"type":"VEC2"},{"bufferView":43,"componentType":5123,"count":36,"max":[23],"min":[0],"type":"SCALAR"},{"bufferView":44,"componentType":5126,"count":24,"max":[0.3125,0.4375,0.09375],"min":[0.1875,0.3125,-0.09375],"type":"VEC3"},{"bufferView":45,"componentType":5126,"count":24,"max":[1,1,1],"min":[-1,-1,-1],"type":"VEC3"},{"bufferView":46,"componentType":5126,"count":24,"max":[0.5546875,0.5546875],"min":[0.109375,0.3828125],"type":"VEC2"},{"bufferView":47,"componentType":5123,"count":36,"max":[23],"min":[0],"type":"SCALAR"},{"bufferView":48,"componentType":5126,"count":24,"max":[0.3125,0.4375,0.09375],"min":[0.1875,0.3125,-0.09375],"type":"VEC3"},{"bufferView":49,"componentType":5126,"count":24,"max":[1,1,1],"min":[-1,-1,-1],"type":"VEC3"},{"bufferView":50,"componentType":5126,"count":24,"max":[0.5546875,0.5546875],"min":[0.109375,0.3828125],"type":"VEC2"},{"bufferView":51,"componentType":5123,"count":36,"max":[23],"min":[0],"type":"SCALAR"},{"bufferView":52,"componentType":5126,"count":24,"max":[0.375,0.671875,0.109375],"min":[-0.3125,0.453125,-0.109375],"type":"VEC3"},{"bufferView":53,"componentType":5126,"count":24,"max":[1,1,1],"min":[-1,-1,-1],"type":"VEC3"},{"bufferView":54,"componentType":5126,"count":24,"max":[0.49609375,0.38671875],"min":[0.28125,0],"type":"VEC2"},{"bufferView":55,"componentType":5123,"count":36,"max":[23],"min":[0],"type":"SCALAR"},{"bufferView":56,"componentType":5126,"count":24,"max":[0.375,0.703125,0.140625],"min":[-0.0625,0.421875,-0.140625],"type":"VEC3"},{"bufferView":57,"componentType":5126,"count":24,"max":[1,1,1],"min":[-1,-1,-1],"type":"VEC3"},{"bufferView":58,"componentType":5126,"count":24,"max":[0.49609375,0.50390625],"min":[0,0.265625],"type":"VEC2"},{"bufferView":59,"componentType":5123,"count":36,"max":[23],"min":[0],"type":"SCALAR"},{"bufferView":60,"componentType":5126,"count":24,"max":[0.078125,0.046875,0.078125],"min":[-0.078125,-0.078125,-0.078125],"type":"VEC3"},{"bufferView":61,"componentType":5126,"count":24,"max":[1,1,1],"min":[-1,-1,-1],"type":"VEC3"},{"bufferView":62,"componentType":5126,"count":24,"max":[0.55078125,0.546875],"min":[0.3515625,0.265625],"type":"VEC2"},{"bufferView":63,"componentType":5123,"count":36,"max":[23],"min":[0],"type":"SCALAR"},{"bufferView":64,"componentType":5126,"count":24,"max":[0.078125,0.0625,0.078125],"min":[-0.078125,-0.0625,-0.078125],"type":"VEC3"},{"bufferView":65,"componentType":5126,"count":24,"max":[1,1,1],"min":[-1,-1,-1],"type":"VEC3"},{"bufferView":66,"componentType":5126,"count":24,"max":[0.55078125,0.546875],"min":[0.3515625,0.265625],"type":"VEC2"},{"bufferView":67,"componentType":5123,"count":36,"max":[23],"min":[0],"type":"SCALAR"},{"bufferView":68,"componentType":5126,"count":24,"max":[0.078125,0.0625,0.078125],"min":[-0.078125,-0.0625,-0.078125],"type":"VEC3"},{"bufferView":69,"componentType":5126,"count":24,"max":[1,1,1],"min":[-1,-1,-1],"type":"VEC3"},{"bufferView":70,"componentType":5126,"count":24,"max":[0.55078125,0.546875],"min":[0.3515625,0.265625],"type":"VEC2"},{"bufferView":71,"componentType":5123,"count":36,"max":[23],"min":[0],"type":"SCALAR"},{"bufferView":72,"componentType":5126,"count":24,"max":[0.21875,0.140625,0.140625],"min":[-0.34375,-0.140625,-0.140625],"type":"VEC3"},{"bufferView":73,"componentType":5126,"count":24,"max":[1,0.9984603524208069,0.9984603524208069],"min":[-1,-0.9984603524208069,-0.9984603524208069],"type":"VEC3"},{"bufferView":74,"componentType":5126,"count":24,"max":[0.453125,0.4921875],"min":[0.0005411718739196658,0],"type":"VEC2"},{"bufferView":75,"componentType":5123,"count":36,"max":[23],"min":[0],"type":"SCALAR"},{"bufferView":76,"componentType":5126,"count":24,"max":[0.25,0.125,0.0625],"min":[-0.125,-0.25,-0.0625],"type":"VEC3"},{"bufferView":77,"componentType":5126,"count":24,"max":[1,1,1],"min":[-1,-0.9950371980667114,-1],"type":"VEC3"},{"bufferView":78,"componentType":5126,"count":24,"max":[0.5234375,0.4921875],"min":[0.171875,0.125],"type":"VEC2"},{"bufferView":79,"componentType":5123,"count":36,"max":[23],"min":[0],"type":"SCALAR"}],"materials":[{"pbrMetallicRoughness":{"metallicFactor":0,"roughnessFactor":1,"baseColorTexture":{"index":0}},"alphaMode":"MASK","alphaCutoff":0.05,"doubleSided":true}],"textures":[{"sampler":0,"source":0,"name":"awp"}],"samplers":[{"magFilter":9728,"minFilter":9728,"wrapS":10497,"wrapT":10497}],"images":[{"mimeType":"image/png","uri":"data:image/png;base64,"}],"meshes":[{"primitives":[{"mode":4,"attributes":{"POSITION":0,"NORMAL":1,"TEXCOORD_0":2},"indices":3,"material":0}]},{"primitives":[{"mode":4,"attributes":{"POSITION":4,"NORMAL":5,"TEXCOORD_0":6},"indices":7,"material":0}]},{"primitives":[{"mode":4,"attributes":{"POSITION":8,"NORMAL":9,"TEXCOORD_0":10},"indices":11,"material":0}]},{"primitives":[{"mode":4,"attributes":{"POSITION":12,"NORMAL":13,"TEXCOORD_0":14},"indices":15,"material":0}]},{"primitives":[{"mode":4,"attributes":{"POSITION":16,"NORMAL":17,"TEXCOORD_0":18},"indices":19,"material":0}]},{"primitives":[{"mode":4,"attributes":{"POSITION":20,"NORMAL":21,"TEXCOORD_0":22},"indices":23,"material":0}]},{"primitives":[{"mode":4,"attributes":{"POSITION":24,"NORMAL":25,"TEXCOORD_0":26},"indices":27,"material":0}]},{"primitives":[{"mode":4,"attributes":{"POSITION":28,"NORMAL":29,"TEXCOORD_0":30},"indices":31,"material":0}]},{"primitives":[{"mode":4,"attributes":{"POSITION":32,"NORMAL":33,"TEXCOORD_0":34},"indices":35,"material":0}]},{"primitives":[{"mode":4,"attributes":{"POSITION":36,"NORMAL":37,"TEXCOORD_0":38},"indices":39,"material":0}]},{"primitives":[{"mode":4,"attributes":{"POSITION":40,"NORMAL":41,"TEXCOORD_0":42},"indices":43,"material":0}]},{"primitives":[{"mode":4,"attributes":{"POSITION":44,"NORMAL":45,"TEXCOORD_0":46},"indices":47,"material":0}]},{"primitives":[{"mode":4,"attributes":{"POSITION":48,"NORMAL":49,"TEXCOORD_0":50},"indices":51,"material":0}]},{"primitives":[{"mode":4,"attributes":{"POSITION":52,"NORMAL":53,"TEXCOORD_0":54},"indices":55,"material":0}]},{"primitives":[{"mode":4,"attributes":{"POSITION":56,"NORMAL":57,"TEXCOORD_0":58},"indices":59,"material":0}]},{"primitives":[{"mode":4,"attributes":{"POSITION":60,"NORMAL":61,"TEXCOORD_0":62},"indices":63,"material":0}]},{"primitives":[{"mode":4,"attributes":{"POSITION":64,"NORMAL":65,"TEXCOORD_0":66},"indices":67,"material":0}]},{"primitives":[{"mode":4,"attributes":{"POSITION":68,"NORMAL":69,"TEXCOORD_0":70},"indices":71,"material":0}]},{"primitives":[{"mode":4,"attributes":{"POSITION":72,"NORMAL":73,"TEXCOORD_0":74},"indices":75,"material":0}]},{"primitives":[{"mode":4,"attributes":{"POSITION":76,"NORMAL":77,"TEXCOORD_0":78},"indices":79,"material":0}]}]}