{"asset":{"version":"2.0","generator":"Blockbench 5.0.3 glTF exporter"},"scenes":[{"nodes":[12],"name":"blockbench_export"}],"scene":0,"nodes":[{"translation":[0.46875,0.20937499999999998,-0.15625],"name":"cube","mesh":0},{"translation":[-0.062499999999999986,0.084375,0.0625],"name":"cube","mesh":1},{"translation":[-0.062499999999999986,0.084375,-0.0625],"name":"cube","mesh":2},{"translation":[-0.062499999999999986,0.084375,0.0625],"name":"cube","mesh":3},{"translation":[0.10211375000000007,0.125,0],"name":"cube","mesh":4},{"rotation":[0,0,0.17364817766693033,0.984807753012208],"translation":[0.28961374999999995,0.296875,0],"name":"cube","mesh":5},{"name":"cube","mesh":6},{"translation":[0,0.375,0],"name":"cube","mesh":7},{"translation":[0,0.375,0],"name":"cube","mesh":8},{"translation":[0,0.375,0],"name":"cube","mesh":9},{"translation":[0,0.375,0],"name":"cube","mesh":10},{"rotation":[0,0,-0.13052619222005157,0.9914448613738104],"translation":[-0.21084999999999995,0.685538125,-0.076171875],"name":"cube","mesh":11},{"rotation":[0,0.7071067811865475,0,0.7071067811865476],"translation":[-0.0034987500000000383,0.125,0.5625],"name":"desert_eagle","children":[0,1,2,3,4,5,6,7,8,9,10,11]}],"bufferViews":[{"buffer":0,"byteOffset":0,"byteLength":216,"target":34962,"byteStride":12},{"buffer":0,"byteOffset":216,"byteLength":216,"target":34962,"byteStride":12},{"buffer":0,"byteOffset":432,"byteLength":144,"target":34962,"byteStride":8},{"buffer":0,"byteOffset":576,"byteLength":48,"target":34963},{"buffer":0,"byteOffset":624,"byteLength":768,"target":34962,"byteStride":12},{"buffer":0,"byteOffset":1392,"byteLength":768,"target":34962,"byteStride":12},{"buffer":0,"byteOffset":2160,"byteLength":512,"target":34962,"byteStride":8},{"buffer":0,"byteOffset":2672,"byteLength":192,"target":34963},{"buffer":0,"byteOffset":2864,"byteLength":768,"target":34962,"byteStride":12},{"buffer":0,"byteOffset":3632,"byteLength":768,"target":34962,"byteStride":12},{"buffer":0,"byteOffset":4400,"byteLength":512,"target":34962,"byteStride":8},{"buffer":0,"byteOffset":4912,"byteLength":192,"target":34963},{"buffer":0,"byteOffset":5104,"byteLength":288,"target":34962,"byteStride":12},{"buffer":0,"byteOffset":5392,"byteLength":288,"target":34962,"byteStride":12},{"buffer":0,"byteOffset":5680,"byteLength":192,"target":34962,"byteStride":8},{"buffer":0,"byteOffset":5872,"byteLength":72,"target":34963},{"buffer":0,"byteOffset":5944,"byteLength":960,"target":34962,"byteStride":12},{"buffer":0,"byteOffset":6904,"byteLength":960,"target":34962,"byteStride":12},{"buffer":0,"byteOffset":7864,"byteLength":640,"target":34962,"byteStride":8},{"buffer":0,"byteOffset":8504,"byteLength":240,"target":34963},{"buffer":0,"byteOffset":8744,"byteLength":480,"target":34962,"byteStride":12},{"buffer":0,"byteOffset":9224,"byteLength":480,"target":34962,"byteStride":12},{"buffer":0,"byteOffset":9704,"byteLength":320,"target":34962,"byteStride":8},{"buffer":0,"byteOffset":10024,"byteLength":120,"target":34963},{"buffer":0,"byteOffset":10144,"byteLength":1056,"target":34962,"byteStride":12},{"buffer":0,"byteOffset":11200,"byteLength":1056,"target":34962,"byteStride":12},{"buffer":0,"byteOffset":12256,"byteLength":704,"target":34962,"byteStride":8},{"buffer":0,"byteOffset":12960,"byteLength":264,"target":34963},{"buffer":0,"byteOffset":13224,"byteLength":1056,"target":34962,"byteStride":12},{"buffer":0,"byteOffset":14280,"byteLength":1056,"target":34962,"byteStride":12},{"buffer":0,"byteOffset":15336,"byteLength":704,"target":34962,"byteStride":8},{"buffer":0,"byteOffset":16040,"byteLength":264,"target":34963},{"buffer":0,"byteOffset":16304,"byteLength":480,"target":34962,"byteStride":12},{"buffer":0,"byteOffset":16784,"byteLength":480,"target":34962,"byteStride":12},{"buffer":0,"byteOffset":17264,"byteLength":320,"target":34962,"byteStride":8},{"buffer":0,"byteOffset":17584,"byteLength":120,"target":34963},{"buffer":0,"byteOffset":17704,"byteLength":480,"target":34962,"byteStride":12},{"buffer":0,"byteOffset":18184,"byteLength":480,"target":34962,"byteStride":12},{"buffer":0,"byteOffset":18664,"byteLength":320,"target":34962,"byteStride":8},{"buffer":0,"byteOffset":18984,"byteLength":120,"target":34963},{"buffer":0,"byteOffset":19104,"byteLength":768,"target":34962,"byteStride":12},{"buffer":0,"byteOffset":19872,"byteLength":768,"target":34962,"byteStride":12},{"buffer":0,"byteOffset":20640,"byteLength":512,"target":34962,"byteStride":8},{"buffer":0,"byteOffset":21152,"byteLength":192,"target":34963},{"buffer":0,"byteOffset":21344,"byteLength":768,"target":34962,"byteStride":12},{"buffer":0,"byteOffset":22112,"byteLength":768,"target":34962,"byteStride":12},{"buffer":0,"byteOffset":22880,"byteLength":512,"target":34962,"byteStride":8},{"buffer":0,"byteOffset":23392,"byteLength":168,"target":34963}],"buffers":[{"byteLength":23560,"uri":"data:application/octet-stream;base64,"}],"accessors":[{"bufferView":0,"componentType":5126,"count":18,"max":[0.828125,0.6031249761581421,0.1875],"min":[0.6968749761581421,0.5406249761581421,0.125],"type":"VEC3"},{"bufferView":1,"componentType":5126,"count":18,"max":[1,0.9028605222702026,1],"min":[-0.4299335777759552,-1,-1],"type":"VEC3"},{"bufferView":2,"componentType":5126,"count":18,"max":[0.65625,0.625],"min":[0.265625,0.09375],"type":"VEC2"},{"bufferView":3,"componentType":5123,"count":24,"max":[17],"min":[0],"type":"SCALAR"},{"bufferView":4,"componentType":5126,"count":64,"max":[0.0625,0.737500011920929,-0.06875000149011612],"min":[0,0.6968749761581421,-0.14687499403953552],"type":"VEC3"},{"bufferView":5,"componentType":5126,"count":64,"max":[1,0.9928768277168274,1],"min":[-1,-1,-1],"type":"VEC3"},{"bufferView":6,"componentType":5126,"count":64,"max":[0.6744195222854614,0.6664062738418579],"min":[0.125,0.453125],"type":"VEC2"},{"bufferView":7,"componentType":5123,"count":96,"max":[63],"min":[0],"type":"SCALAR"},{"bufferView":8,"componentType":5126,"count":64,"max":[0.0625,0.737500011920929,0.14687499403953552],"min":[0,0.6968749761581421,0.06875000149011612],"type":"VEC3"},{"bufferView":9,"componentType":5126,"count":64,"max":[1,0.9928768277168274,1],"min":[-1,-1,-1],"type":"VEC3"},{"bufferView":10,"componentType":5126,"count":64,"max":[0.6744195222854614,0.6664062738418579],"min":[0.125,0.453125],"type":"VEC2"},{"bufferView":11,"componentType":5123,"count":96,"max":[63],"min":[0],"type":"SCALAR"},{"bufferView":12,"componentType":5126,"count":24,"max":[0.0625,0.6968749761581421,0.02187499962747097],"min":[0,0.6656249761581421,-0.14687499403953552],"type":"VEC3"},{"bufferView":13,"componentType":5126,"count":24,"max":[1,1,1],"min":[-1,-1,-1],"type":"VEC3"},{"bufferView":14,"componentType":5126,"count":24,"max":[0.68359375,0.6640625],"min":[0.234375,0.34375],"type":"VEC2"},{"bufferView":15,"componentType":5123,"count":36,"max":[23],"min":[0],"type":"SCALAR"},{"bufferView":16,"componentType":5126,"count":80,"max":[0.46875,0.28125,0.0625],"min":[0.125,0.046875,-0.0625],"type":"VEC3"},{"bufferView":17,"componentType":5126,"count":80,"max":[1,1,1],"min":[-1,-1,-1],"type":"VEC3"},{"bufferView":18,"componentType":5126,"count":80,"max":[0.671875,0.6253093481063843],"min":[0,0],"type":"VEC2"},{"bufferView":19,"componentType":5123,"count":120,"max":[79],"min":[0],"type":"SCALAR"},{"bufferView":20,"componentType":5126,"count":40,"max":[0.07500000298023224,0.08437500149011612,0.03125],"min":[0.02812499925494194,-0.04062499850988388,-0.03125],"type":"VEC3"},{"bufferView":21,"componentType":5126,"count":40,"max":[1,1,1],"min":[-1,-1,-1],"type":"VEC3"},{"bufferView":22,"componentType":5126,"count":40,"max":[0.625,0.671875],"min":[0,0.34375],"type":"VEC2"},{"bufferView":23,"componentType":5123,"count":60,"max":[39],"min":[0],"type":"SCALAR"},{"bufferView":24,"componentType":5126,"count":88,"max":[0.25,0.375,0.140625],"min":[-0.1442600041627884,-0.125,-0.140625],"type":"VEC3"},{"bufferView":25,"componentType":5126,"count":88,"max":[0.9922780990600586,1,1],"min":[-0.9922778606414795,-1,-1],"type":"VEC3"},{"bufferView":26,"componentType":5126,"count":88,"max":[0.65625,0.5927734375],"min":[0,0],"type":"VEC2"},{"bufferView":27,"componentType":5123,"count":132,"max":[87],"min":[0],"type":"SCALAR"},{"bufferView":28,"componentType":5126,"count":88,"max":[0.4375,0.375,0.140625],"min":[-0.1875,0,-0.140625],"type":"VEC3"},{"bufferView":29,"componentType":5126,"count":88,"max":[1,1,1],"min":[-1,-1,-1],"type":"VEC3"},{"bufferView":30,"componentType":5126,"count":88,"max":[0.5234375,0.5478289127349854],"min":[0,0],"type":"VEC2"},{"bufferView":31,"componentType":5123,"count":132,"max":[87],"min":[0],"type":"SCALAR"},{"bufferView":32,"componentType":5126,"count":40,"max":[1.3125,0.1875,0.125],"min":[0.4375,0,-0.125],"type":"VEC3"},{"bufferView":33,"componentType":5126,"count":40,"max":[1,1,1],"min":[-1,-0.9701424837112427,-1],"type":"VEC3"},{"bufferView":34,"componentType":5126,"count":40,"max":[0.5625,0.53125],"min":[0.09375,0.0019812583923339844],"type":"VEC2"},{"bufferView":35,"componentType":5123,"count":60,"max":[39],"min":[0],"type":"SCALAR"},{"bufferView":36,"componentType":5126,"count":40,"max":[1.3125,0.375,0.125],"min":[0.5625,0.1875,-0.125],"type":"VEC3"},{"bufferView":37,"componentType":5126,"count":40,"max":[1,1,0.9562836289405823],"min":[-1,-1,-0.9562836289405823],"type":"VEC3"},{"bufferView":38,"componentType":5126,"count":40,"max":[0.71875,0.328125],"min":[0.296875,0],"type":"VEC2"},{"bufferView":39,"componentType":5123,"count":60,"max":[39],"min":[0],"type":"SCALAR"},{"bufferView":40,"componentType":5126,"count":64,"max":[0.5625,0.375,0.125],"min":[0.4375,0.1875,-0.125],"type":"VEC3"},{"bufferView":41,"componentType":5126,"count":64,"max":[1,1,0.9965459108352661],"min":[-1,-1,-0.9965459108352661],"type":"VEC3"},{"bufferView":42,"componentType":5126,"count":64,"max":[0.59375,0.6132015585899353],"min":[0.09375,0.25],"type":"VEC2"},{"bufferView":43,"componentType":5123,"count":96,"max":[63],"min":[0],"type":"SCALAR"},{"bufferView":44,"componentType":5126,"count":64,"max":[0.057417500764131546,0.03437500074505806,0.125],"min":[-0.055208124220371246,-0.12761811912059784,0.029296875],"type":"VEC3"},{"bufferView":45,"componentType":5126,"count":64,"max":[1,0.970642626285553,1],"min":[-1,-0.9706399440765381,-1],"type":"VEC3"},{"bufferView":46,"componentType":5126,"count":64,"max":[0.6703293919563293,0.671875],"min":[0.0625,0.03125],"type":"VEC2"},{"bufferView":47,"componentType":5123,"count":84,"max":[63],"min":[0],"type":"SCALAR"}],"materials":[{"pbrMetallicRoughness":{"metallicFactor":0,"roughnessFactor":1,"baseColorTexture":{"index":0}},"alphaMode":"MASK","alphaCutoff":0.05,"doubleSided":true}],"textures":[{"sampler":0,"source":0,"name":"desert_eagle"}],"samplers":[{"magFilter":9728,"minFilter":9728,"wrapS":10497,"wrapT":10497}],"images":[{"mimeType":"image/png","uri":"data:image/png;base64,"}],"meshes":[{"primitives":[{"mode":4,"attributes":{"POSITION":0,"NORMAL":1,"TEXCOORD_0":2},"indices":3,"material":0}]},{"primitives":[{"mode":4,"attributes":{"POSITION":4,"NORMAL":5,"TEXCOORD_0":6},"indices":7,"material":0}]},{"primitives":[{"mode":4,"attributes":{"POSITION":8,"NORMAL":9,"TEXCOORD_0":10},"indices":11,"material":0}]},{"primitives":[{"mode":4,"attributes":{"POSITION":12,"NORMAL":13,"TEXCOORD_0":14},"indices":15,"material":0}]},{"primitives":[{"mode":4,"attributes":{"POSITION":16,"NORMAL":17,"TEXCOORD_0":18},"indices":19,"material":0}]},{"primitives":[{"mode":4,"attributes":{"POSITION":20,"NORMAL":21,"TEXCOORD_0":22},"indices":23,"material":0}]},{"primitives":[{"mode":4,"attributes":{"POSITION":24,"NORMAL":25,"TEXCOORD_0":26},"indices":27,"material":0}]},{"primitives":[{"mode":4,"attributes":{"POSITION":28,"NORMAL":29,"TEXCOORD_0":30},"indices":31,"material":0}]},{"primitives":[{"mode":4,"attributes":{"POSITION":32,"NORMAL":33,"TEXCOORD_0":34},"indices":35,"material":0}]},{"primitives":[{"mode":4,"attributes":{"POSITION":36,"NORMAL":37,"TEXCOORD_0":38},"indices":39,"material":0}]},{"primitives":[{"mode":4,"attributes":{"POSITION":40,"NORMAL":41,"TEXCOORD_0":42},"indices":43,"material":0}]},{"primitives":[{"mode":4,"attributes":{"POSITION":44,"NORMAL":45,"TEXCOORD_0":46},"indices":47,"material":0}]}]}