{"asset":{"version":"2.0","generator":"Blockbench 5.0.3 glTF exporter"},"scenes":[{"nodes":[14],"name":"blockbench_export"}],"scene":0,"nodes":[{"rotation":[0,0,-0.13052619222005157,0.9914448613738104],"name":"cube","mesh":0},{"translation":[0,-0.0625,0],"name":"cube","mesh":1},{"name":"cube","mesh":2},{"rotation":[0,0,0.3826834323650898,0.9238795325112867],"translation":[0.21875,0.125,0],"name":"cube","mesh":3},{"name":"cube","mesh":4},{"rotation":[0,0,-0.13052619222005157,0.9914448613738104],"translation":[-0.02207874999999998,-0.07498374999999999,0],"name":"cube","mesh":5},{"translation":[0.02207874999999998,0.07498374999999999,0],"name":"magazine","children":[5]},{"translation":[-0.276815625,-0.4099925,0],"name":"cube","mesh":6},{"translation":[-0.276815625,-0.5349925,0],"name":"cube","mesh":7},{"translation":[-0.402918125,-0.533001875,-0.078125],"name":"cube","mesh":8},{"translation":[-0.402918125,-0.533001875,-0.078125],"name":"cube","mesh":9},{"translation":[-0.402918125,-0.533001875,0.078125],"name":"cube","mesh":10},{"translation":[-0.402918125,-0.533001875,-0.078125],"name":"cube","mesh":11},{"translation":[0.276815625,0.5349925,0],"name":"top","children":[7,8,9,10,11,12]},{"rotation":[0,0.7071067811865475,0,0.7071067811865476],"translation":[0,0.15625,0.3125],"name":"glock-19","children":[0,1,2,3,4,6,13]}],"bufferViews":[{"buffer":0,"byteOffset":0,"byteLength":864,"target":34962,"byteStride":12},{"buffer":0,"byteOffset":864,"byteLength":864,"target":34962,"byteStride":12},{"buffer":0,"byteOffset":1728,"byteLength":576,"target":34962,"byteStride":8},{"buffer":0,"byteOffset":2304,"byteLength":216,"target":34963},{"buffer":0,"byteOffset":2520,"byteLength":2016,"target":34962,"byteStride":12},{"buffer":0,"byteOffset":4536,"byteLength":2016,"target":34962,"byteStride":12},{"buffer":0,"byteOffset":6552,"byteLength":1344,"target":34962,"byteStride":8},{"buffer":0,"byteOffset":7896,"byteLength":504,"target":34963},{"buffer":0,"byteOffset":8400,"byteLength":960,"target":34962,"byteStride":12},{"buffer":0,"byteOffset":9360,"byteLength":960,"target":34962,"byteStride":12},{"buffer":0,"byteOffset":10320,"byteLength":640,"target":34962,"byteStride":8},{"buffer":0,"byteOffset":10960,"byteLength":240,"target":34963},{"buffer":0,"byteOffset":11200,"byteLength":480,"target":34962,"byteStride":12},{"buffer":0,"byteOffset":11680,"byteLength":480,"target":34962,"byteStride":12},{"buffer":0,"byteOffset":12160,"byteLength":320,"target":34962,"byteStride":8},{"buffer":0,"byteOffset":12480,"byteLength":120,"target":34963},{"buffer":0,"byteOffset":12600,"byteLength":768,"target":34962,"byteStride":12},{"buffer":0,"byteOffset":13368,"byteLength":768,"target":34962,"byteStride":12},{"buffer":0,"byteOffset":14136,"byteLength":512,"target":34962,"byteStride":8},{"buffer":0,"byteOffset":14648,"byteLength":192,"target":34963},{"buffer":0,"byteOffset":14840,"byteLength":864,"target":34962,"byteStride":12},{"buffer":0,"byteOffset":15704,"byteLength":864,"target":34962,"byteStride":12},{"buffer":0,"byteOffset":16568,"byteLength":576,"target":34962,"byteStride":8},{"buffer":0,"byteOffset":17144,"byteLength":216,"target":34963},{"buffer":0,"byteOffset":17360,"byteLength":288,"target":34962,"byteStride":12},{"buffer":0,"byteOffset":17648,"byteLength":288,"target":34962,"byteStride":12},{"buffer":0,"byteOffset":17936,"byteLength":192,"target":34962,"byteStride":8},{"buffer":0,"byteOffset":18128,"byteLength":72,"target":34963},{"buffer":0,"byteOffset":18200,"byteLength":768,"target":34962,"byteStride":12},{"buffer":0,"byteOffset":18968,"byteLength":768,"target":34962,"byteStride":12},{"buffer":0,"byteOffset":19736,"byteLength":512,"target":34962,"byteStride":8},{"buffer":0,"byteOffset":20248,"byteLength":192,"target":34963},{"buffer":0,"byteOffset":20440,"byteLength":288,"target":34962,"byteStride":12},{"buffer":0,"byteOffset":20728,"byteLength":288,"target":34962,"byteStride":12},{"buffer":0,"byteOffset":21016,"byteLength":192,"target":34962,"byteStride":8},{"buffer":0,"byteOffset":21208,"byteLength":72,"target":34963},{"buffer":0,"byteOffset":21280,"byteLength":288,"target":34962,"byteStride":12},{"buffer":0,"byteOffset":21568,"byteLength":288,"target":34962,"byteStride":12},{"buffer":0,"byteOffset":21856,"byteLength":192,"target":34962,"byteStride":8},{"buffer":0,"byteOffset":22048,"byteLength":72,"target":34963},{"buffer":0,"byteOffset":22120,"byteLength":288,"target":34962,"byteStride":12},{"buffer":0,"byteOffset":22408,"byteLength":288,"target":34962,"byteStride":12},{"buffer":0,"byteOffset":22696,"byteLength":192,"target":34962,"byteStride":8},{"buffer":0,"byteOffset":22888,"byteLength":72,"target":34963},{"buffer":0,"byteOffset":22960,"byteLength":288,"target":34962,"byteStride":12},{"buffer":0,"byteOffset":23248,"byteLength":288,"target":34962,"byteStride":12},{"buffer":0,"byteOffset":23536,"byteLength":192,"target":34962,"byteStride":8},{"buffer":0,"byteOffset":23728,"byteLength":72,"target":34963}],"buffers":[{"byteLength":23800,"uri":"data:application/octet-stream;base64,"}],"accessors":[{"bufferView":0,"componentType":5126,"count":72,"max":[0.140625,0.27812498807907104,0.09375],"min":[-0.13670188188552856,-0.12812499701976776,-0.09375],"type":"VEC3"},{"bufferView":1,"componentType":5126,"count":72,"max":[1,1,1],"min":[-1,-1,-1],"type":"VEC3"},{"bufferView":2,"componentType":5126,"count":72,"max":[0.53125,0.515625],"min":[0,0.1875],"type":"VEC2"},{"bufferView":3,"componentType":5123,"count":108,"max":[71],"min":[0],"type":"SCALAR"},{"bufferView":4,"componentType":5126,"count":168,"max":[0.8426474928855896,0.4176156222820282,0.09375],"min":[-0.1886025071144104,0.2769906222820282,-0.09375],"type":"VEC3"},{"bufferView":5,"componentType":5126,"count":168,"max":[1,1,1],"min":[-1,-1,-1],"type":"VEC3"},{"bufferView":6,"componentType":5126,"count":168,"max":[0.5625,0.505859375],"min":[0,0],"type":"VEC2"},{"bufferView":7,"componentType":5123,"count":252,"max":[167],"min":[0],"type":"SCALAR"},{"bufferView":8,"componentType":5126,"count":80,"max":[0.4437499940395355,0.21875,0.0625],"min":[0.125,0.046875,-0.0625],"type":"VEC3"},{"bufferView":9,"componentType":5126,"count":80,"max":[1,1,1],"min":[-1,-1,-1],"type":"VEC3"},{"bufferView":10,"componentType":5126,"count":80,"max":[0.578125,0.5625],"min":[0.12373046576976776,0.09375],"type":"VEC2"},{"bufferView":11,"componentType":5123,"count":120,"max":[79],"min":[0],"type":"SCALAR"},{"bufferView":12,"componentType":5126,"count":40,"max":[0.07500000298023224,0.08437500149011612,0.03125],"min":[0.02812499925494194,-0.04062499850988388,-0.03125],"type":"VEC3"},{"bufferView":13,"componentType":5126,"count":40,"max":[1,1,1],"min":[-1,-1,-1],"type":"VEC3"},{"bufferView":14,"componentType":5126,"count":40,"max":[0.59375,0.578125],"min":[0.046875,0.03125],"type":"VEC2"},{"bufferView":15,"componentType":5123,"count":60,"max":[39],"min":[0],"type":"SCALAR"},{"bufferView":16,"componentType":5126,"count":64,"max":[0.875,0.34375,0.046875],"min":[0.84375,0.25,-0.046875],"type":"VEC3"},{"bufferView":17,"componentType":5126,"count":64,"max":[1,0.8944271802902222,0.8944271802902222],"min":[-1,-0.8944271802902222,-0.8944271802902222],"type":"VEC3"},{"bufferView":18,"componentType":5126,"count":64,"max":[0.59375,0.59375],"min":[0,0.21875],"type":"VEC2"},{"bufferView":19,"componentType":5123,"count":96,"max":[63],"min":[0],"type":"SCALAR"},{"bufferView":20,"componentType":5126,"count":72,"max":[0.09375,0.30937498807907104,0.078125],"min":[-0.08124999701976776,-0.09687499701976776,-0.078125],"type":"VEC3"},{"bufferView":21,"componentType":5126,"count":72,"max":[1,1,1],"min":[-1,-1,-1],"type":"VEC3"},{"bufferView":22,"componentType":5126,"count":72,"max":[0.5625,0.544726550579071],"min":[0.06406249850988388,0.0341796875],"type":"VEC2"},{"bufferView":23,"componentType":5123,"count":108,"max":[71],"min":[0],"type":"SCALAR"},{"bufferView":24,"componentType":5126,"count":24,"max":[0.8426474928855896,0.4176156222820282,0.109375],"min":[-0.1886025071144104,0.2301156222820282,-0.109375],"type":"VEC3"},{"bufferView":25,"componentType":5126,"count":24,"max":[1,1,1],"min":[-1,-1,-1],"type":"VEC3"},{"bufferView":26,"componentType":5126,"count":24,"max":[0.5,0.484375],"min":[0,0],"type":"VEC2"},{"bufferView":27,"componentType":5123,"count":36,"max":[23],"min":[0],"type":"SCALAR"},{"bufferView":28,"componentType":5126,"count":64,"max":[0.875,0.515625,0.0625],"min":[0.84375,0.390625,-0.0625],"type":"VEC3"},{"bufferView":29,"componentType":5126,"count":64,"max":[1,0.8944298624992371,0.8944298624992371],"min":[-1,-0.8944298624992371,-0.8944298624992371],"type":"VEC3"},{"bufferView":30,"componentType":5126,"count":64,"max":[0.578125,0.578125],"min":[0.109375,0.0625],"type":"VEC2"},{"bufferView":31,"componentType":5123,"count":96,"max":[63],"min":[0],"type":"SCALAR"},{"bufferView":32,"componentType":5126,"count":24,"max":[0.0625,0.5718749761581421,0.15625],"min":[0,0.5406249761581421,0],"type":"VEC3"},{"bufferView":33,"componentType":5126,"count":24,"max":[1,1,1],"min":[-1,-1,-1],"type":"VEC3"},{"bufferView":34,"componentType":5126,"count":24,"max":[0.59375,0.5859375],"min":[0.25,0.1875],"type":"VEC2"},{"bufferView":35,"componentType":5123,"count":36,"max":[23],"min":[0],"type":"SCALAR"},{"bufferView":36,"componentType":5126,"count":24,"max":[0.0625,0.612500011920929,0.0625],"min":[0,0.5718749761581421,0],"type":"VEC3"},{"bufferView":37,"componentType":5126,"count":24,"max":[1,0.9889363646507263,1],"min":[-1,-1,-1],"type":"VEC3"},{"bufferView":38,"componentType":5126,"count":24,"max":[0.578125,0.580273449420929],"min":[0.140625,0.12343752384185791],"type":"VEC2"},{"bufferView":39,"componentType":5123,"count":36,"max":[23],"min":[0],"type":"SCALAR"},{"bufferView":40,"componentType":5126,"count":24,"max":[0.0625,0.612500011920929,0],"min":[0,0.5718749761581421,-0.0625],"type":"VEC3"},{"bufferView":41,"componentType":5126,"count":24,"max":[1,0.9889363646507263,1],"min":[-1,-1,-1],"type":"VEC3"},{"bufferView":42,"componentType":5126,"count":24,"max":[0.578125,0.580273449420929],"min":[0.140625,0.12343752384185791],"type":"VEC2"},{"bufferView":43,"componentType":5123,"count":36,"max":[23],"min":[0],"type":"SCALAR"},{"bufferView":44,"componentType":5126,"count":24,"max":[0.953125,0.5874999761581421,0.109375],"min":[0.8218749761581421,0.5406249761581421,0.046875],"type":"VEC3"},{"bufferView":45,"componentType":5126,"count":24,"max":[0.9486833214759827,1,1],"min":[-0.991227924823761,-1,-1],"type":"VEC3"},{"bufferView":46,"componentType":5126,"count":24,"max":[0.565234363079071,0.59375],"min":[0,0],"type":"VEC2"},{"bufferView":47,"componentType":5123,"count":36,"max":[23],"min":[0],"type":"SCALAR"}],"materials":[{"pbrMetallicRoughness":{"metallicFactor":0,"roughnessFactor":1,"baseColorTexture":{"index":0}},"alphaMode":"MASK","alphaCutoff":0.05,"doubleSided":true}],"textures":[{"sampler":0,"source":0,"name":"glock-19-pink"}],"samplers":[{"magFilter":9728,"minFilter":9728,"wrapS":10497,"wrapT":10497}],"images":[{"mimeType":"image/png","uri":"data:image/png;base64,"}],"meshes":[{"primitives":[{"mode":4,"attributes":{"POSITION":0,"NORMAL":1,"TEXCOORD_0":2},"indices":3,"material":0}]},{"primitives":[{"mode":4,"attributes":{"POSITION":4,"NORMAL":5,"TEXCOORD_0":6},"indices":7,"material":0}]},{"primitives":[{"mode":4,"attributes":{"POSITION":8,"NORMAL":9,"TEXCOORD_0":10},"indices":11,"material":0}]},{"primitives":[{"mode":4,"attributes":{"POSITION":12,"NORMAL":13,"TEXCOORD_0":14},"indices":15,"material":0}]},{"primitives":[{"mode":4,"attributes":{"POSITION":16,"NORMAL":17,"TEXCOORD_0":18},"indices":19,"material":0}]},{"primitives":[{"mode":4,"attributes":{"POSITION":20,"NORMAL":21,"TEXCOORD_0":22},"indices":23,"material":0}]},{"primitives":[{"mode":4,"attributes":{"POSITION":24,"NORMAL":25,"TEXCOORD_0":26},"indices":27,"material":0}]},{"primitives":[{"mode":4,"attributes":{"POSITION":28,"NORMAL":29,"TEXCOORD_0":30},"indices":31,"material":0}]},{"primitives":[{"mode":4,"attributes":{"POSITION":32,"NORMAL":33,"TEXCOORD_0":34},"indices":35,"material":0}]},{"primitives":[{"mode":4,"attributes":{"POSITION":36,"NORMAL":37,"TEXCOORD_0":38},"indices":39,"material":0}]},{"primitives":[{"mode":4,"attributes":{"POSITION":40,"NORMAL":41,"TEXCOORD_0":42},"indices":43,"material":0}]},{"primitives":[{"mode":4,"attributes":{"POSITION":44,"NORMAL":45,"TEXCOORD_0":46},"indices":47,"material":0}]}]}