{"asset":{"version":"2.0","generator":"Blockbench 5.0.7 glTF exporter"},"scenes":[{"nodes":[20],"name":"blockbench_export"}],"scene":0,"nodes":[{"rotation":[0,0,0.13052619222005157,0.9914448613738104],"translation":[0.012306250000000019,-0.19081687500000002,0],"name":"cube","mesh":0},{"translation":[0.229344375,-0.54019875,0.005756874999999995],"name":"magazine","children":[0]},{"rotation":[0,0,0.06540312923014306,0.9978589232386035],"translation":[-0.31397749999999996,-0.29645625,0.005756874999999995],"name":"cube","mesh":1},{"translation":[-0.47022749999999996,-0.46833125,0.005756874999999995],"name":"cube","mesh":2},{"rotation":[0,0,0.06540312923014306,0.9978589232386035],"translation":[0.1842825,-0.39020625,0.005756874999999995],"name":"cube","mesh":3},{"translation":[0.4967825,-0.030831249999999977,0.005756874999999995],"name":"cube","mesh":4},{"translation":[-2.3625925000000003,-0.030831249999999977,0.005756874999999995],"name":"cube","mesh":5},{"translation":[0.4967825,-0.030831249999999977,0.005756874999999995],"name":"cube","mesh":6},{"translation":[-1.1125924999999999,-0.030831249999999977,0.005756874999999995],"name":"cube","mesh":7},{"translation":[-0.5500925,0.15666875000000002,0.005756874999999995],"name":"cube","mesh":8},{"rotation":[0,0,0.06540312923014306,0.9978589232386035],"translation":[0.1842825,-0.39020625,0.005756874999999995],"name":"cube","mesh":9},{"rotation":[0,0,-0.17364817766693033,0.984807753012208],"translation":[-0.5419343750000001,-0.45324125,0.005756874999999995],"name":"cube","mesh":10},{"translation":[-1.0500924999999999,-0.59333125,0.005756874999999995],"name":"cube","mesh":11},{"translation":[-1.0500924999999999,-0.53083125,0.005756874999999995],"name":"cube","mesh":12},{"rotation":[0,0,0.3826834323650898,0.9238795325112867],"translation":[-0.4250925,0.40666875,-0.103618125],"name":"cube","mesh":13},{"translation":[-0.9875925,-0.59333125,0.005756874999999995],"name":"cube","mesh":14},{"translation":[-2.0500925000000003,-0.07770624999999998,0.005756874999999995],"name":"cube","mesh":15},{"translation":[-1.0500924999999999,-0.53083125,0.005756874999999995],"name":"cube","mesh":16},{"translation":[-1.0500924999999999,-0.53083125,0.630756875],"name":"cube","mesh":17},{"rotation":[-0.3826834323650898,0,0,0.9238795325112867],"translation":[1.96875,0.03125,0],"name":"cube","mesh":18},{"rotation":[0,0.7071067811865475,0,0.7071067811865476],"translation":[-0.00537625,0.84333125,0.195415],"name":"m4a4","children":[1,2,3,4,5,6,7,8,9,10,11,12,13,14,15,16,17,18,19]}],"bufferViews":[{"buffer":0,"byteOffset":0,"byteLength":480,"target":34962,"byteStride":12},{"buffer":0,"byteOffset":480,"byteLength":480,"target":34962,"byteStride":12},{"buffer":0,"byteOffset":960,"byteLength":320,"target":34962,"byteStride":8},{"buffer":0,"byteOffset":1280,"byteLength":120,"target":34963},{"buffer":0,"byteOffset":1400,"byteLength":480,"target":34962,"byteStride":12},{"buffer":0,"byteOffset":1880,"byteLength":480,"target":34962,"byteStride":12},{"buffer":0,"byteOffset":2360,"byteLength":320,"target":34962,"byteStride":8},{"buffer":0,"byteOffset":2680,"byteLength":120,"target":34963},{"buffer":0,"byteOffset":2800,"byteLength":960,"target":34962,"byteStride":12},{"buffer":0,"byteOffset":3760,"byteLength":960,"target":34962,"byteStride":12},{"buffer":0,"byteOffset":4720,"byteLength":640,"target":34962,"byteStride":8},{"buffer":0,"byteOffset":5360,"byteLength":240,"target":34963},{"buffer":0,"byteOffset":5600,"byteLength":288,"target":34962,"byteStride":12},{"buffer":0,"byteOffset":5888,"byteLength":288,"target":34962,"byteStride":12},{"buffer":0,"byteOffset":6176,"byteLength":192,"target":34962,"byteStride":8},{"buffer":0,"byteOffset":6368,"byteLength":72,"target":34963},{"buffer":0,"byteOffset":6440,"byteLength":768,"target":34962,"byteStride":12},{"buffer":0,"byteOffset":7208,"byteLength":768,"target":34962,"byteStride":12},{"buffer":0,"byteOffset":7976,"byteLength":512,"target":34962,"byteStride":8},{"buffer":0,"byteOffset":8488,"byteLength":192,"target":34963},{"buffer":0,"byteOffset":8680,"byteLength":672,"target":34962,"byteStride":12},{"buffer":0,"byteOffset":9352,"byteLength":672,"target":34962,"byteStride":12},{"buffer":0,"byteOffset":10024,"byteLength":448,"target":34962,"byteStride":8},{"buffer":0,"byteOffset":10472,"byteLength":168,"target":34963},{"buffer":0,"byteOffset":10640,"byteLength":768,"target":34962,"byteStride":12},{"buffer":0,"byteOffset":11408,"byteLength":768,"target":34962,"byteStride":12},{"buffer":0,"byteOffset":12176,"byteLength":512,"target":34962,"byteStride":8},{"buffer":0,"byteOffset":12688,"byteLength":192,"target":34963},{"buffer":0,"byteOffset":12880,"byteLength":1416,"target":34962,"byteStride":12},{"buffer":0,"byteOffset":14296,"byteLength":1416,"target":34962,"byteStride":12},{"buffer":0,"byteOffset":15712,"byteLength":944,"target":34962,"byteStride":8},{"buffer":0,"byteOffset":16656,"byteLength":336,"target":34963},{"buffer":0,"byteOffset":16992,"byteLength":480,"target":34962,"byteStride":12},{"buffer":0,"byteOffset":17472,"byteLength":480,"target":34962,"byteStride":12},{"buffer":0,"byteOffset":17952,"byteLength":320,"target":34962,"byteStride":8},{"buffer":0,"byteOffset":18272,"byteLength":120,"target":34963},{"buffer":0,"byteOffset":18392,"byteLength":288,"target":34962,"byteStride":12},{"buffer":0,"byteOffset":18680,"byteLength":288,"target":34962,"byteStride":12},{"buffer":0,"byteOffset":18968,"byteLength":192,"target":34962,"byteStride":8},{"buffer":0,"byteOffset":19160,"byteLength":72,"target":34963},{"buffer":0,"byteOffset":19232,"byteLength":672,"target":34962,"byteStride":12},{"buffer":0,"byteOffset":19904,"byteLength":672,"target":34962,"byteStride":12},{"buffer":0,"byteOffset":20576,"byteLength":448,"target":34962,"byteStride":8},{"buffer":0,"byteOffset":21024,"byteLength":168,"target":34963},{"buffer":0,"byteOffset":21192,"byteLength":672,"target":34962,"byteStride":12},{"buffer":0,"byteOffset":21864,"byteLength":672,"target":34962,"byteStride":12},{"buffer":0,"byteOffset":22536,"byteLength":448,"target":34962,"byteStride":8},{"buffer":0,"byteOffset":22984,"byteLength":168,"target":34963},{"buffer":0,"byteOffset":23152,"byteLength":288,"target":34962,"byteStride":12},{"buffer":0,"byteOffset":23440,"byteLength":288,"target":34962,"byteStride":12},{"buffer":0,"byteOffset":23728,"byteLength":192,"target":34962,"byteStride":8},{"buffer":0,"byteOffset":23920,"byteLength":72,"target":34963},{"buffer":0,"byteOffset":23992,"byteLength":288,"target":34962,"byteStride":12},{"buffer":0,"byteOffset":24280,"byteLength":288,"target":34962,"byteStride":12},{"buffer":0,"byteOffset":24568,"byteLength":192,"target":34962,"byteStride":8},{"buffer":0,"byteOffset":24760,"byteLength":72,"target":34963},{"buffer":0,"byteOffset":24832,"byteLength":576,"target":34962,"byteStride":12},{"buffer":0,"byteOffset":25408,"byteLength":576,"target":34962,"byteStride":12},{"buffer":0,"byteOffset":25984,"byteLength":384,"target":34962,"byteStride":8},{"buffer":0,"byteOffset":26368,"byteLength":144,"target":34963},{"buffer":0,"byteOffset":26512,"byteLength":288,"target":34962,"byteStride":12},{"buffer":0,"byteOffset":26800,"byteLength":288,"target":34962,"byteStride":12},{"buffer":0,"byteOffset":27088,"byteLength":192,"target":34962,"byteStride":8},{"buffer":0,"byteOffset":27280,"byteLength":72,"target":34963},{"buffer":0,"byteOffset":27352,"byteLength":288,"target":34962,"byteStride":12},{"buffer":0,"byteOffset":27640,"byteLength":288,"target":34962,"byteStride":12},{"buffer":0,"byteOffset":27928,"byteLength":192,"target":34962,"byteStride":8},{"buffer":0,"byteOffset":28120,"byteLength":72,"target":34963},{"buffer":0,"byteOffset":28192,"byteLength":288,"target":34962,"byteStride":12},{"buffer":0,"byteOffset":28480,"byteLength":288,"target":34962,"byteStride":12},{"buffer":0,"byteOffset":28768,"byteLength":192,"target":34962,"byteStride":8},{"buffer":0,"byteOffset":28960,"byteLength":72,"target":34963},{"buffer":0,"byteOffset":29032,"byteLength":288,"target":34962,"byteStride":12},{"buffer":0,"byteOffset":29320,"byteLength":288,"target":34962,"byteStride":12},{"buffer":0,"byteOffset":29608,"byteLength":192,"target":34962,"byteStride":8},{"buffer":0,"byteOffset":29800,"byteLength":72,"target":34963}],"buffers":[{"byteLength":29872,"uri":"data:application/octet-stream;base64,"}],"accessors":[{"bufferView":0,"componentType":5126,"count":40,"max":[0.24062499403953552,0.7634956240653992,0.078125],"min":[-0.13437500596046448,-0.09375,-0.078125],"type":"VEC3"},{"bufferView":1,"componentType":5126,"count":40,"max":[1,0.9907991886138916,1],"min":[-1,-1,-1],"type":"VEC3"},{"bufferView":2,"componentType":5126,"count":40,"max":[0.515625,0.8757062554359436],"min":[0,0],"type":"VEC2"},{"bufferView":3,"componentType":5123,"count":60,"max":[39],"min":[0],"type":"SCALAR"},{"bufferView":4,"componentType":5126,"count":40,"max":[0.08845187723636627,0.08437500149011612,0.015625],"min":[0.02812499925494194,-0.05815562605857849,-0.015625],"type":"VEC3"},{"bufferView":5,"componentType":5126,"count":40,"max":[1,1,1],"min":[-1,-1,-1],"type":"VEC3"},{"bufferView":6,"componentType":5126,"count":40,"max":[0.49609375,0.510643720626831],"min":[0.078125,0.0703125],"type":"VEC2"},{"bufferView":7,"componentType":5123,"count":60,"max":[39],"min":[0],"type":"SCALAR"},{"bufferView":8,"componentType":5126,"count":80,"max":[0.46875,0.28125,0.046875],"min":[0.078125,0.046875,-0.046875],"type":"VEC3"},{"bufferView":9,"componentType":5126,"count":80,"max":[1,1,1],"min":[-1,-1,-1],"type":"VEC3"},{"bufferView":10,"componentType":5126,"count":80,"max":[0.501953125,0.4921875],"min":[0.1328125,0.046875],"type":"VEC2"},{"bufferView":11,"componentType":5123,"count":120,"max":[79],"min":[0],"type":"SCALAR"},{"bufferView":12,"componentType":5126,"count":24,"max":[0.1875,0.21875,0.109375],"min":[-0.1875,0,-0.109375],"type":"VEC3"},{"bufferView":13,"componentType":5126,"count":24,"max":[1,1,1],"min":[-1,-1,-1],"type":"VEC3"},{"bufferView":14,"componentType":5126,"count":24,"max":[0.44921875,0.45703125],"min":[0,0],"type":"VEC2"},{"bufferView":15,"componentType":5123,"count":36,"max":[23],"min":[0],"type":"SCALAR"},{"bufferView":16,"componentType":5126,"count":64,"max":[1.125,0.265625,0.203125],"min":[0,-0.140625,-0.203125],"type":"VEC3"},{"bufferView":17,"componentType":5126,"count":64,"max":[1,0.9647636413574219,0.9647636413574219],"min":[-1,-0.9647636413574219,-0.9647636413574219],"type":"VEC3"},{"bufferView":18,"componentType":5126,"count":64,"max":[0.37890625,0.35546875],"min":[0,0],"type":"VEC2"},{"bufferView":19,"componentType":5123,"count":96,"max":[63],"min":[0],"type":"SCALAR"},{"bufferView":20,"componentType":5126,"count":56,"max":[1.375,0.1875,0.140625],"min":[0.75,-0.3125,-0.140625],"type":"VEC3"},{"bufferView":21,"componentType":5126,"count":56,"max":[1,1,1],"min":[-1,-0.9805806875228882,-1],"type":"VEC3"},{"bufferView":22,"componentType":5126,"count":56,"max":[0.359375,0.4296875],"min":[0.00045312498696148396,0.00012421607971191406],"type":"VEC2"},{"bufferView":23,"componentType":5123,"count":84,"max":[55],"min":[0],"type":"SCALAR"},{"bufferView":24,"componentType":5126,"count":64,"max":[0,0.296875,0.234375],"min":[-0.125,-0.171875,-0.234375],"type":"VEC3"},{"bufferView":25,"componentType":5126,"count":64,"max":[1,0.983189046382904,0.9656161665916443],"min":[-1,-0.983189046382904,-0.9656161665916443],"type":"VEC3"},{"bufferView":26,"componentType":5126,"count":64,"max":[0.4541015625,0.484375],"min":[0.203125,0.1796875],"type":"VEC2"},{"bufferView":27,"componentType":5123,"count":96,"max":[63],"min":[0],"type":"SCALAR"},{"bufferView":28,"componentType":5126,"count":118,"max":[1.5,0.25,0.171875],"min":[0.4375,-0.1875,-0.171875],"type":"VEC3"},{"bufferView":29,"componentType":5126,"count":118,"max":[1,1,1],"min":[-1,-0.9992689490318298,-1],"type":"VEC3"},{"bufferView":30,"componentType":5126,"count":118,"max":[0.5002734661102295,0.49609375],"min":[0,0],"type":"VEC2"},{"bufferView":31,"componentType":5123,"count":168,"max":[117],"min":[0],"type":"SCALAR"},{"bufferView":32,"componentType":5126,"count":40,"max":[0.9375,0.125,0.109375],"min":[0,0.0625,-0.109375],"type":"VEC3"},{"bufferView":33,"componentType":5126,"count":40,"max":[1,1,1],"min":[-1,-1,-1],"type":"VEC3"},{"bufferView":34,"componentType":5126,"count":40,"max":[0.5234375,0.484375],"min":[0,0.109375],"type":"VEC2"},{"bufferView":35,"componentType":5123,"count":60,"max":[39],"min":[0],"type":"SCALAR"},{"bufferView":36,"componentType":5126,"count":24,"max":[0.20720374584197998,0.030982499942183495,0.125],"min":[-0.203125,-0.0625,-0.125],"type":"VEC3"},{"bufferView":37,"componentType":5126,"count":24,"max":[1,0.9971615076065063,1],"min":[-1,-0.9971615076065063,-1],"type":"VEC3"},{"bufferView":38,"componentType":5126,"count":24,"max":[0.4921875,0.5051506161689758],"min":[0,0.09375],"type":"VEC2"},{"bufferView":39,"componentType":5123,"count":36,"max":[23],"min":[0],"type":"SCALAR"},{"bufferView":40,"componentType":5126,"count":56,"max":[0.1543656289577484,0.3125,0.078125],"min":[-0.125,-0.28125,-0.078125],"type":"VEC3"},{"bufferView":41,"componentType":5126,"count":56,"max":[1,1,1],"min":[-1,-0.9889190793037415,-1],"type":"VEC3"},{"bufferView":42,"componentType":5126,"count":56,"max":[0.4375,0.484375],"min":[0.0001179687533294782,0.296875],"type":"VEC2"},{"bufferView":43,"componentType":5123,"count":84,"max":[55],"min":[0],"type":"SCALAR"},{"bufferView":44,"componentType":5126,"count":56,"max":[0.5,0.875,0.171875],"min":[0.375,0.8125,-0.171875],"type":"VEC3"},{"bufferView":45,"componentType":5126,"count":56,"max":[1,1,0.9747326970100403],"min":[-1,-1,-0.9747326970100403],"type":"VEC3"},{"bufferView":46,"componentType":5126,"count":56,"max":[0.5,0.4921875],"min":[0.171875,0.1015625],"type":"VEC2"},{"bufferView":47,"componentType":5123,"count":84,"max":[55],"min":[0],"type":"SCALAR"},{"bufferView":48,"componentType":5126,"count":24,"max":[0.6875,0.9375,0.0625],"min":[0.5625,0.8125,-0.0625],"type":"VEC3"},{"bufferView":49,"componentType":5126,"count":24,"max":[1,1,1],"min":[-1,-1,-1],"type":"VEC3"},{"bufferView":50,"componentType":5126,"count":24,"max":[0.484375,0.3828125],"min":[0.4609375,0],"type":"VEC2"},{"bufferView":51,"componentType":5123,"count":36,"max":[23],"min":[0],"type":"SCALAR"},{"bufferView":52,"componentType":5126,"count":24,"max":[0.03125,0.03125,0.015625],"min":[-0.03125,-0.03125,-0.015625],"type":"VEC3"},{"bufferView":53,"componentType":5126,"count":24,"max":[1,1,1],"min":[-1,-1,-1],"type":"VEC3"},{"bufferView":54,"componentType":5126,"count":24,"max":[0.5,0.5],"min":[0.109375,0.1328125],"type":"VEC2"},{"bufferView":55,"componentType":5123,"count":36,"max":[23],"min":[0],"type":"SCALAR"},{"bufferView":56,"componentType":5126,"count":48,"max":[2.875,1,0.046875],"min":[2.609375,0.6875,-0.046875],"type":"VEC3"},{"bufferView":57,"componentType":5126,"count":48,"max":[1,1,1],"min":[-1,-1,-1],"type":"VEC3"},{"bufferView":58,"componentType":5126,"count":48,"max":[0.5078125,0.4995419383049011],"min":[0.015625,0],"type":"VEC2"},{"bufferView":59,"componentType":5123,"count":72,"max":[47],"min":[0],"type":"SCALAR"},{"bufferView":60,"componentType":5126,"count":24,"max":[1.375,0.234375,0.09375],"min":[1.0625,0.005208124872297049,-0.09375],"type":"VEC3"},{"bufferView":61,"componentType":5126,"count":24,"max":[1,1,1],"min":[-1,-0.9994449019432068,-1],"type":"VEC3"},{"bufferView":62,"componentType":5126,"count":24,"max":[0.453125,0.46875],"min":[0.0546875,0.1640625],"type":"VEC2"},{"bufferView":63,"componentType":5123,"count":36,"max":[23],"min":[0],"type":"SCALAR"},{"bufferView":64,"componentType":5126,"count":24,"max":[0.6875,1,-0.0625],"min":[0.5625,0.875,-0.109375],"type":"VEC3"},{"bufferView":65,"componentType":5126,"count":24,"max":[1,1,1],"min":[-1,-1,-0.9922778606414795],"type":"VEC3"},{"bufferView":66,"componentType":5126,"count":24,"max":[0.5,0.5078125],"min":[0.046875,0.0703125],"type":"VEC2"},{"bufferView":67,"componentType":5123,"count":36,"max":[23],"min":[0],"type":"SCALAR"},{"bufferView":68,"componentType":5126,"count":24,"max":[0.6875,1,-0.515625],"min":[0.5625,0.875,-0.5625],"type":"VEC3"},{"bufferView":69,"componentType":5126,"count":24,"max":[1,1,0.9922778606414795],"min":[-1,-1,-1],"type":"VEC3"},{"bufferView":70,"componentType":5126,"count":24,"max":[0.5,0.5078125],"min":[0.046875,0.0703125],"type":"VEC2"},{"bufferView":71,"componentType":5123,"count":36,"max":[23],"min":[0],"type":"SCALAR"},{"bufferView":72,"componentType":5126,"count":24,"max":[0.34375,0.09375,0.09375],"min":[-0.34375,-0.09375,-0.09375],"type":"VEC3"},{"bufferView":73,"componentType":5126,"count":24,"max":[1,1,1],"min":[-1,-1,-1],"type":"VEC3"},{"bufferView":74,"componentType":5126,"count":24,"max":[0.9375,0.9375],"min":[0,0],"type":"VEC2"},{"bufferView":75,"componentType":5123,"count":36,"max":[23],"min":[0],"type":"SCALAR"}],"materials":[{"pbrMetallicRoughness":{"metallicFactor":0,"roughnessFactor":1,"baseColorTexture":{"index":0}},"alphaMode":"MASK","alphaCutoff":0.05,"doubleSided":true},{"pbrMetallicRoughness":{"metallicFactor":0,"roughnessFactor":1,"baseColorTexture":{"index":1}},"alphaMode":"MASK","alphaCutoff":0.05,"doubleSided":true},{"pbrMetallicRoughness":{"metallicFactor":0,"roughnessFactor":1,"baseColorTexture":{"index":2}},"alphaMode":"MASK","alphaCutoff":0.05,"doubleSided":true}],"textures":[{"sampler":0,"source":0,"name":"magazine_realistic"},{"sampler":1,"source":1,"name":"m4a4_realistic"},{"sampler":2,"source":2,"name":"cube_realistic"}],"samplers":[{"magFilter":9728,"minFilter":9728,"wrapS":33071,"wrapT":33071},{"magFilter":9728,"minFilter":9728,"wrapS":33071,"wrapT":33071},{"magFilter":9728,"minFilter":9728,"wrapS":33071,"wrapT":33071}],"images":[{"mimeType":"image/png","uri":"data:image/png;base64,"},{"mimeType":"image/png","uri":"data:image/png;base64,"},{"mimeType":"image/png","uri":"data:image/png;base64,"}],"meshes":[{"primitives":[{"mode":4,"attributes":{"POSITION":0,"NORMAL":1,"TEXCOORD_0":2},"indices":3,"material":0}]},{"primitives":[{"mode":4,"attributes":{"POSITION":4,"NORMAL":5,"TEXCOORD_0":6},"indices":7,"material":1}]},{"primitives":[{"mode":4,"attributes":{"POSITION":8,"NORMAL":9,"TEXCOORD_0":10},"indices":11,"material":1}]},{"primitives":[{"mode":4,"attributes":{"POSITION":12,"NORMAL":13,"TEXCOORD_0":14},"indices":15,"material":1}]},{"primitives":[{"mode":4,"attributes":{"POSITION":16,"NORMAL":17,"TEXCOORD_0":18},"indices":19,"material":1}]},{"primitives":[{"mode":4,"attributes":{"POSITION":20,"NORMAL":21,"TEXCOORD_0":22},"indices":23,"material":1}]},{"primitives":[{"mode":4,"attributes":{"POSITION":24,"NORMAL":25,"TEXCOORD_0":26},"indices":27,"material":1}]},{"primitives":[{"mode":4,"attributes":{"POSITION":28,"NORMAL":29,"TEXCOORD_0":30},"indices":31,"material":1}]},{"primitives":[{"mode":4,"attributes":{"POSITION":32,"NORMAL":33,"TEXCOORD_0":34},"indices":35,"material":1}]},{"primitives":[{"mode":4,"attributes":{"POSITION":36,"NORMAL":37,"TEXCOORD_0":38},"indices":39,"material":1}]},{"primitives":[{"mode":4,"attributes":{"POSITION":40,"NORMAL":41,"TEXCOORD_0":42},"indices":43,"material":1}]},{"primitives":[{"mode":4,"attributes":{"POSITION":44,"NORMAL":45,"TEXCOORD_0":46},"indices":47,"material":1}]},{"primitives":[{"mode":4,"attributes":{"POSITION":48,"NORMAL":49,"TEXCOORD_0":50},"indices":51,"material":1}]},{"primitives":[{"mode":4,"attributes":{"POSITION":52,"NORMAL":53,"TEXCOORD_0":54},"indices":55,"material":1}]},{"primitives":[{"mode":4,"attributes":{"POSITION":56,"NORMAL":57,"TEXCOORD_0":58},"indices":59,"material":1}]},{"primitives":[{"mode":4,"attributes":{"POSITION":60,"NORMAL":61,"TEXCOORD_0":62},"indices":63,"material":1}]},{"primitives":[{"mode":4,"attributes":{"POSITION":64,"NORMAL":65,"TEXCOORD_0":66},"indices":67,"material":1}]},{"primitives":[{"mode":4,"attributes":{"POSITION":68,"NORMAL":69,"TEXCOORD_0":70},"indices":71,"material":1}]},{"primitives":[{"mode":4,"attributes":{"POSITION":72,"NORMAL":73,"TEXCOORD_0":74},"indices":75,"material":2}]}]}