{"asset":{"version":"2.0","generator":"Blockbench 5.0.3 glTF exporter"},"scenes":[{"nodes":[20],"name":"blockbench_export"}],"scene":0,"nodes":[{"translation":[-0.47022749999999996,-0.4683312500000001,0.005756874999999995],"name":"cube","mesh":0},{"rotation":[0,0,0.06540312923014306,0.9978589232386035],"translation":[-0.31397749999999996,-0.2964562500000001,0.005756874999999995],"name":"cube","mesh":1},{"rotation":[0,0,-0.17364817766693033,0.984807753012208],"translation":[-0.541934375,-0.45324125000000004,0.005756874999999995],"name":"cube","mesh":2},{"translation":[-1.1125925,-0.030831250000000088,0.005756874999999995],"name":"cube","mesh":3},{"rotation":[0,0,0.06540312923014306,0.9978589232386035],"translation":[0.18428250000000002,-0.3902062500000001,0.005756874999999995],"name":"cube","mesh":4},{"rotation":[0,0,0.06540312923014306,0.9978589232386035],"translation":[0.18428250000000002,-0.3902062500000001,0.005756874999999995],"name":"cube","mesh":5},{"translation":[-2.0500925000000003,-0.07770625000000009,0.005756874999999995],"name":"cube","mesh":6},{"translation":[-2.3625925000000003,-0.030831250000000088,0.005756874999999995],"name":"cube","mesh":7},{"translation":[0.49678250000000007,-0.030831250000000088,0.005756874999999995],"name":"cube","mesh":8},{"translation":[0.49678250000000007,-0.030831250000000088,0.005756874999999995],"name":"cube","mesh":9},{"translation":[-0.5500925,0.1566687499999999,0.005756874999999995],"name":"cube","mesh":10},{"translation":[-1.0500925,-0.5933312500000001,0.005756874999999995],"name":"cube","mesh":11},{"translation":[-1.0500925,-0.5308312500000001,0.005756874999999995],"name":"cube","mesh":12},{"translation":[-1.0500925,-0.5308312500000001,0.005756874999999995],"name":"cube","mesh":13},{"translation":[-1.0500925,-0.5308312500000001,0.630756875],"name":"cube","mesh":14},{"rotation":[0,0,0.3826834323650898,0.9238795325112867],"translation":[-0.42509249999999993,0.4066687499999999,-0.103618125],"name":"cube","mesh":15},{"translation":[-0.9875925,-0.5933312500000001,0.005756874999999995],"name":"cube","mesh":16},{"rotation":[-0.3826834323650898,0,0,0.9238795325112867],"translation":[1.96875,0.03125,0],"name":"cube","mesh":17},{"rotation":[0,0,0.13052619222005157,0.9914448613738104],"translation":[0.01230624999999999,-0.1908168750000001,0],"name":"cube","mesh":18},{"translation":[0.22934437500000002,-0.5401987500000001,0.005756874999999995],"name":"magazine","children":[18]},{"rotation":[0,0.7071067811865475,0,0.7071067811865476],"translation":[-0.005376250000000016,0.8433312500000001,0.195415],"name":"m4a4","children":[0,1,2,3,4,5,6,7,8,9,10,11,12,13,14,15,16,17,19]}],"bufferViews":[{"buffer":0,"byteOffset":0,"byteLength":960,"target":34962,"byteStride":12},{"buffer":0,"byteOffset":960,"byteLength":960,"target":34962,"byteStride":12},{"buffer":0,"byteOffset":1920,"byteLength":640,"target":34962,"byteStride":8},{"buffer":0,"byteOffset":2560,"byteLength":240,"target":34963},{"buffer":0,"byteOffset":2800,"byteLength":480,"target":34962,"byteStride":12},{"buffer":0,"byteOffset":3280,"byteLength":480,"target":34962,"byteStride":12},{"buffer":0,"byteOffset":3760,"byteLength":320,"target":34962,"byteStride":8},{"buffer":0,"byteOffset":4080,"byteLength":120,"target":34963},{"buffer":0,"byteOffset":4200,"byteLength":672,"target":34962,"byteStride":12},{"buffer":0,"byteOffset":4872,"byteLength":672,"target":34962,"byteStride":12},{"buffer":0,"byteOffset":5544,"byteLength":448,"target":34962,"byteStride":8},{"buffer":0,"byteOffset":5992,"byteLength":168,"target":34963},{"buffer":0,"byteOffset":6160,"byteLength":1416,"target":34962,"byteStride":12},{"buffer":0,"byteOffset":7576,"byteLength":1416,"target":34962,"byteStride":12},{"buffer":0,"byteOffset":8992,"byteLength":944,"target":34962,"byteStride":8},{"buffer":0,"byteOffset":9936,"byteLength":336,"target":34963},{"buffer":0,"byteOffset":10272,"byteLength":288,"target":34962,"byteStride":12},{"buffer":0,"byteOffset":10560,"byteLength":288,"target":34962,"byteStride":12},{"buffer":0,"byteOffset":10848,"byteLength":192,"target":34962,"byteStride":8},{"buffer":0,"byteOffset":11040,"byteLength":72,"target":34963},{"buffer":0,"byteOffset":11112,"byteLength":288,"target":34962,"byteStride":12},{"buffer":0,"byteOffset":11400,"byteLength":288,"target":34962,"byteStride":12},{"buffer":0,"byteOffset":11688,"byteLength":192,"target":34962,"byteStride":8},{"buffer":0,"byteOffset":11880,"byteLength":72,"target":34963},{"buffer":0,"byteOffset":11952,"byteLength":288,"target":34962,"byteStride":12},{"buffer":0,"byteOffset":12240,"byteLength":288,"target":34962,"byteStride":12},{"buffer":0,"byteOffset":12528,"byteLength":192,"target":34962,"byteStride":8},{"buffer":0,"byteOffset":12720,"byteLength":72,"target":34963},{"buffer":0,"byteOffset":12792,"byteLength":672,"target":34962,"byteStride":12},{"buffer":0,"byteOffset":13464,"byteLength":672,"target":34962,"byteStride":12},{"buffer":0,"byteOffset":14136,"byteLength":448,"target":34962,"byteStride":8},{"buffer":0,"byteOffset":14584,"byteLength":168,"target":34963},{"buffer":0,"byteOffset":14752,"byteLength":768,"target":34962,"byteStride":12},{"buffer":0,"byteOffset":15520,"byteLength":768,"target":34962,"byteStride":12},{"buffer":0,"byteOffset":16288,"byteLength":512,"target":34962,"byteStride":8},{"buffer":0,"byteOffset":16800,"byteLength":192,"target":34963},{"buffer":0,"byteOffset":16992,"byteLength":768,"target":34962,"byteStride":12},{"buffer":0,"byteOffset":17760,"byteLength":768,"target":34962,"byteStride":12},{"buffer":0,"byteOffset":18528,"byteLength":512,"target":34962,"byteStride":8},{"buffer":0,"byteOffset":19040,"byteLength":192,"target":34963},{"buffer":0,"byteOffset":19232,"byteLength":480,"target":34962,"byteStride":12},{"buffer":0,"byteOffset":19712,"byteLength":480,"target":34962,"byteStride":12},{"buffer":0,"byteOffset":20192,"byteLength":320,"target":34962,"byteStride":8},{"buffer":0,"byteOffset":20512,"byteLength":120,"target":34963},{"buffer":0,"byteOffset":20632,"byteLength":672,"target":34962,"byteStride":12},{"buffer":0,"byteOffset":21304,"byteLength":672,"target":34962,"byteStride":12},{"buffer":0,"byteOffset":21976,"byteLength":448,"target":34962,"byteStride":8},{"buffer":0,"byteOffset":22424,"byteLength":168,"target":34963},{"buffer":0,"byteOffset":22592,"byteLength":288,"target":34962,"byteStride":12},{"buffer":0,"byteOffset":22880,"byteLength":288,"target":34962,"byteStride":12},{"buffer":0,"byteOffset":23168,"byteLength":192,"target":34962,"byteStride":8},{"buffer":0,"byteOffset":23360,"byteLength":72,"target":34963},{"buffer":0,"byteOffset":23432,"byteLength":288,"target":34962,"byteStride":12},{"buffer":0,"byteOffset":23720,"byteLength":288,"target":34962,"byteStride":12},{"buffer":0,"byteOffset":24008,"byteLength":192,"target":34962,"byteStride":8},{"buffer":0,"byteOffset":24200,"byteLength":72,"target":34963},{"buffer":0,"byteOffset":24272,"byteLength":288,"target":34962,"byteStride":12},{"buffer":0,"byteOffset":24560,"byteLength":288,"target":34962,"byteStride":12},{"buffer":0,"byteOffset":24848,"byteLength":192,"target":34962,"byteStride":8},{"buffer":0,"byteOffset":25040,"byteLength":72,"target":34963},{"buffer":0,"byteOffset":25112,"byteLength":288,"target":34962,"byteStride":12},{"buffer":0,"byteOffset":25400,"byteLength":288,"target":34962,"byteStride":12},{"buffer":0,"byteOffset":25688,"byteLength":192,"target":34962,"byteStride":8},{"buffer":0,"byteOffset":25880,"byteLength":72,"target":34963},{"buffer":0,"byteOffset":25952,"byteLength":576,"target":34962,"byteStride":12},{"buffer":0,"byteOffset":26528,"byteLength":576,"target":34962,"byteStride":12},{"buffer":0,"byteOffset":27104,"byteLength":384,"target":34962,"byteStride":8},{"buffer":0,"byteOffset":27488,"byteLength":144,"target":34963},{"buffer":0,"byteOffset":27632,"byteLength":288,"target":34962,"byteStride":12},{"buffer":0,"byteOffset":27920,"byteLength":288,"target":34962,"byteStride":12},{"buffer":0,"byteOffset":28208,"byteLength":192,"target":34962,"byteStride":8},{"buffer":0,"byteOffset":28400,"byteLength":72,"target":34963},{"buffer":0,"byteOffset":28472,"byteLength":480,"target":34962,"byteStride":12},{"buffer":0,"byteOffset":28952,"byteLength":480,"target":34962,"byteStride":12},{"buffer":0,"byteOffset":29432,"byteLength":320,"target":34962,"byteStride":8},{"buffer":0,"byteOffset":29752,"byteLength":120,"target":34963}],"buffers":[{"byteLength":29872,"uri":"data:application/octet-stream;base64,"}],"accessors":[{"bufferView":0,"componentType":5126,"count":80,"max":[0.46875,0.28125,0.046875],"min":[0.078125,0.046875,-0.046875],"type":"VEC3"},{"bufferView":1,"componentType":5126,"count":80,"max":[1,1,1],"min":[-1,-1,-1],"type":"VEC3"},{"bufferView":2,"componentType":5126,"count":80,"max":[0.501953125,0.4921875],"min":[0.1328125,0.046875],"type":"VEC2"},{"bufferView":3,"componentType":5123,"count":120,"max":[79],"min":[0],"type":"SCALAR"},{"bufferView":4,"componentType":5126,"count":40,"max":[0.08845187723636627,0.08437500149011612,0.015625],"min":[0.02812499925494194,-0.05815562605857849,-0.015625],"type":"VEC3"},{"bufferView":5,"componentType":5126,"count":40,"max":[1,1,1],"min":[-1,-1,-1],"type":"VEC3"},{"bufferView":6,"componentType":5126,"count":40,"max":[0.49609375,0.510643720626831],"min":[0.078125,0.0703125],"type":"VEC2"},{"bufferView":7,"componentType":5123,"count":60,"max":[39],"min":[0],"type":"SCALAR"},{"bufferView":8,"componentType":5126,"count":56,"max":[0.1543656289577484,0.3125,0.078125],"min":[-0.125,-0.28125,-0.078125],"type":"VEC3"},{"bufferView":9,"componentType":5126,"count":56,"max":[1,1,1],"min":[-1,-0.9889190793037415,-1],"type":"VEC3"},{"bufferView":10,"componentType":5126,"count":56,"max":[0.4375,0.484375],"min":[0.0001179687533294782,0.296875],"type":"VEC2"},{"bufferView":11,"componentType":5123,"count":84,"max":[55],"min":[0],"type":"SCALAR"},{"bufferView":12,"componentType":5126,"count":118,"max":[1.5,0.25,0.171875],"min":[0.4375,-0.1875,-0.171875],"type":"VEC3"},{"bufferView":13,"componentType":5126,"count":118,"max":[1,1,1],"min":[-1,-0.9992689490318298,-1],"type":"VEC3"},{"bufferView":14,"componentType":5126,"count":118,"max":[0.5002734661102295,0.49609375],"min":[0,0],"type":"VEC2"},{"bufferView":15,"componentType":5123,"count":168,"max":[117],"min":[0],"type":"SCALAR"},{"bufferView":16,"componentType":5126,"count":24,"max":[0.1875,0.21875,0.109375],"min":[-0.1875,0,-0.109375],"type":"VEC3"},{"bufferView":17,"componentType":5126,"count":24,"max":[1,1,1],"min":[-1,-1,-1],"type":"VEC3"},{"bufferView":18,"componentType":5126,"count":24,"max":[0.44921875,0.45703125],"min":[0,0],"type":"VEC2"},{"bufferView":19,"componentType":5123,"count":36,"max":[23],"min":[0],"type":"SCALAR"},{"bufferView":20,"componentType":5126,"count":24,"max":[0.20720374584197998,0.030982499942183495,0.125],"min":[-0.203125,-0.0625,-0.125],"type":"VEC3"},{"bufferView":21,"componentType":5126,"count":24,"max":[1,0.9971615076065063,1],"min":[-1,-0.9971615076065063,-1],"type":"VEC3"},{"bufferView":22,"componentType":5126,"count":24,"max":[0.4921875,0.5051506161689758],"min":[0,0.09375],"type":"VEC2"},{"bufferView":23,"componentType":5123,"count":36,"max":[23],"min":[0],"type":"SCALAR"},{"bufferView":24,"componentType":5126,"count":24,"max":[1.375,0.234375,0.09375],"min":[1.0625,0.005208124872297049,-0.09375],"type":"VEC3"},{"bufferView":25,"componentType":5126,"count":24,"max":[1,1,1],"min":[-1,-0.9994449019432068,-1],"type":"VEC3"},{"bufferView":26,"componentType":5126,"count":24,"max":[0.453125,0.46875],"min":[0.0546875,0.1640625],"type":"VEC2"},{"bufferView":27,"componentType":5123,"count":36,"max":[23],"min":[0],"type":"SCALAR"},{"bufferView":28,"componentType":5126,"count":56,"max":[1.375,0.1875,0.140625],"min":[0.75,-0.3125,-0.140625],"type":"VEC3"},{"bufferView":29,"componentType":5126,"count":56,"max":[1,1,1],"min":[-1,-0.9805806875228882,-1],"type":"VEC3"},{"bufferView":30,"componentType":5126,"count":56,"max":[0.359375,0.4296875],"min":[0.00045312498696148396,0.00012421607971191406],"type":"VEC2"},{"bufferView":31,"componentType":5123,"count":84,"max":[55],"min":[0],"type":"SCALAR"},{"bufferView":32,"componentType":5126,"count":64,"max":[1.125,0.265625,0.203125],"min":[0,-0.140625,-0.203125],"type":"VEC3"},{"bufferView":33,"componentType":5126,"count":64,"max":[1,0.9647636413574219,0.9647636413574219],"min":[-1,-0.9647636413574219,-0.9647636413574219],"type":"VEC3"},{"bufferView":34,"componentType":5126,"count":64,"max":[0.37890625,0.35546875],"min":[0,0],"type":"VEC2"},{"bufferView":35,"componentType":5123,"count":96,"max":[63],"min":[0],"type":"SCALAR"},{"bufferView":36,"componentType":5126,"count":64,"max":[0,0.296875,0.234375],"min":[-0.125,-0.171875,-0.234375],"type":"VEC3"},{"bufferView":37,"componentType":5126,"count":64,"max":[1,0.983189046382904,0.9656161665916443],"min":[-1,-0.983189046382904,-0.9656161665916443],"type":"VEC3"},{"bufferView":38,"componentType":5126,"count":64,"max":[0.4541015625,0.484375],"min":[0.203125,0.1796875],"type":"VEC2"},{"bufferView":39,"componentType":5123,"count":96,"max":[63],"min":[0],"type":"SCALAR"},{"bufferView":40,"componentType":5126,"count":40,"max":[0.9375,0.125,0.109375],"min":[0,0.0625,-0.109375],"type":"VEC3"},{"bufferView":41,"componentType":5126,"count":40,"max":[1,1,1],"min":[-1,-1,-1],"type":"VEC3"},{"bufferView":42,"componentType":5126,"count":40,"max":[0.5234375,0.484375],"min":[0,0.109375],"type":"VEC2"},{"bufferView":43,"componentType":5123,"count":60,"max":[39],"min":[0],"type":"SCALAR"},{"bufferView":44,"componentType":5126,"count":56,"max":[0.5,0.875,0.171875],"min":[0.375,0.8125,-0.171875],"type":"VEC3"},{"bufferView":45,"componentType":5126,"count":56,"max":[1,1,0.9747326970100403],"min":[-1,-1,-0.9747326970100403],"type":"VEC3"},{"bufferView":46,"componentType":5126,"count":56,"max":[0.5,0.4921875],"min":[0.171875,0.1015625],"type":"VEC2"},{"bufferView":47,"componentType":5123,"count":84,"max":[55],"min":[0],"type":"SCALAR"},{"bufferView":48,"componentType":5126,"count":24,"max":[0.6875,0.9375,0.0625],"min":[0.5625,0.8125,-0.0625],"type":"VEC3"},{"bufferView":49,"componentType":5126,"count":24,"max":[1,1,1],"min":[-1,-1,-1],"type":"VEC3"},{"bufferView":50,"componentType":5126,"count":24,"max":[0.484375,0.3828125],"min":[0.4609375,0],"type":"VEC2"},{"bufferView":51,"componentType":5123,"count":36,"max":[23],"min":[0],"type":"SCALAR"},{"bufferView":52,"componentType":5126,"count":24,"max":[0.6875,1,-0.0625],"min":[0.5625,0.875,-0.109375],"type":"VEC3"},{"bufferView":53,"componentType":5126,"count":24,"max":[1,1,1],"min":[-1,-1,-0.9922778606414795],"type":"VEC3"},{"bufferView":54,"componentType":5126,"count":24,"max":[0.5,0.5078125],"min":[0.046875,0.0703125],"type":"VEC2"},{"bufferView":55,"componentType":5123,"count":36,"max":[23],"min":[0],"type":"SCALAR"},{"bufferView":56,"componentType":5126,"count":24,"max":[0.6875,1,-0.515625],"min":[0.5625,0.875,-0.5625],"type":"VEC3"},{"bufferView":57,"componentType":5126,"count":24,"max":[1,1,0.9922778606414795],"min":[-1,-1,-1],"type":"VEC3"},{"bufferView":58,"componentType":5126,"count":24,"max":[0.5,0.5078125],"min":[0.046875,0.0703125],"type":"VEC2"},{"bufferView":59,"componentType":5123,"count":36,"max":[23],"min":[0],"type":"SCALAR"},{"bufferView":60,"componentType":5126,"count":24,"max":[0.03125,0.03125,0.015625],"min":[-0.03125,-0.03125,-0.015625],"type":"VEC3"},{"bufferView":61,"componentType":5126,"count":24,"max":[1,1,1],"min":[-1,-1,-1],"type":"VEC3"},{"bufferView":62,"componentType":5126,"count":24,"max":[0.5,0.5],"min":[0.109375,0.1328125],"type":"VEC2"},{"bufferView":63,"componentType":5123,"count":36,"max":[23],"min":[0],"type":"SCALAR"},{"bufferView":64,"componentType":5126,"count":48,"max":[2.875,1,0.046875],"min":[2.609375,0.6875,-0.046875],"type":"VEC3"},{"bufferView":65,"componentType":5126,"count":48,"max":[1,1,1],"min":[-1,-1,-1],"type":"VEC3"},{"bufferView":66,"componentType":5126,"count":48,"max":[0.5078125,0.4995419383049011],"min":[0.015625,0],"type":"VEC2"},{"bufferView":67,"componentType":5123,"count":72,"max":[47],"min":[0],"type":"SCALAR"},{"bufferView":68,"componentType":5126,"count":24,"max":[0.34375,0.09375,0.09375],"min":[-0.34375,-0.09375,-0.09375],"type":"VEC3"},{"bufferView":69,"componentType":5126,"count":24,"max":[1,1,1],"min":[-1,-1,-1],"type":"VEC3"},{"bufferView":70,"componentType":5126,"count":24,"max":[0.9375,0.9375],"min":[0,0],"type":"VEC2"},{"bufferView":71,"componentType":5123,"count":36,"max":[23],"min":[0],"type":"SCALAR"},{"bufferView":72,"componentType":5126,"count":40,"max":[0.24062499403953552,0.7634956240653992,0.078125],"min":[-0.13437500596046448,-0.09375,-0.078125],"type":"VEC3"},{"bufferView":73,"componentType":5126,"count":40,"max":[1,0.9907991886138916,1],"min":[-1,-1,-1],"type":"VEC3"},{"bufferView":74,"componentType":5126,"count":40,"max":[0.515625,0.8757062554359436],"min":[0,0],"type":"VEC2"},{"bufferView":75,"componentType":5123,"count":60,"max":[39],"min":[0],"type":"SCALAR"}],"materials":[{"pbrMetallicRoughness":{"metallicFactor":0,"roughnessFactor":1,"baseColorTexture":{"index":0}},"alphaMode":"MASK","alphaCutoff":0.05,"doubleSided":true},{"pbrMetallicRoughness":{"metallicFactor":0,"roughnessFactor":1,"baseColorTexture":{"index":1}},"alphaMode":"MASK","alphaCutoff":0.05,"doubleSided":true},{"pbrMetallicRoughness":{"metallicFactor":0,"roughnessFactor":1,"baseColorTexture":{"index":2}},"alphaMode":"MASK","alphaCutoff":0.05,"doubleSided":true}],"textures":[{"sampler":0,"source":0,"name":"m4a4"},{"sampler":1,"source":1,"name":"cube"},{"sampler":2,"source":2,"name":"magazine"}],"samplers":[{"magFilter":9728,"minFilter":9728,"wrapS":10497,"wrapT":10497},{"magFilter":9728,"minFilter":9728,"wrapS":10497,"wrapT":10497},{"magFilter":9728,"minFilter":9728,"wrapS":10497,"wrapT":10497}],"images":[{"mimeType":"image/png","uri":"data:image/png;base64,"},{"mimeType":"image/png","uri":"data:image/png;base64,"},{"mimeType":"image/png","uri":"data:image/png;base64,"}],"meshes":[{"primitives":[{"mode":4,"attributes":{"POSITION":0,"NORMAL":1,"TEXCOORD_0":2},"indices":3,"material":0}]},{"primitives":[{"mode":4,"attributes":{"POSITION":4,"NORMAL":5,"TEXCOORD_0":6},"indices":7,"material":0}]},{"primitives":[{"mode":4,"attributes":{"POSITION":8,"NORMAL":9,"TEXCOORD_0":10},"indices":11,"material":0}]},{"primitives":[{"mode":4,"attributes":{"POSITION":12,"NORMAL":13,"TEXCOORD_0":14},"indices":15,"material":0}]},{"primitives":[{"mode":4,"attributes":{"POSITION":16,"NORMAL":17,"TEXCOORD_0":18},"indices":19,"material":0}]},{"primitives":[{"mode":4,"attributes":{"POSITION":20,"NORMAL":21,"TEXCOORD_0":22},"indices":23,"material":0}]},{"primitives":[{"mode":4,"attributes":{"POSITION":24,"NORMAL":25,"TEXCOORD_0":26},"indices":27,"material":0}]},{"primitives":[{"mode":4,"attributes":{"POSITION":28,"NORMAL":29,"TEXCOORD_0":30},"indices":31,"material":0}]},{"primitives":[{"mode":4,"attributes":{"POSITION":32,"NORMAL":33,"TEXCOORD_0":34},"indices":35,"material":0}]},{"primitives":[{"mode":4,"attributes":{"POSITION":36,"NORMAL":37,"TEXCOORD_0":38},"indices":39,"material":0}]},{"primitives":[{"mode":4,"attributes":{"POSITION":40,"NORMAL":41,"TEXCOORD_0":42},"indices":43,"material":0}]},{"primitives":[{"mode":4,"attributes":{"POSITION":44,"NORMAL":45,"TEXCOORD_0":46},"indices":47,"material":0}]},{"primitives":[{"mode":4,"attributes":{"POSITION":48,"NORMAL":49,"TEXCOORD_0":50},"indices":51,"material":0}]},{"primitives":[{"mode":4,"attributes":{"POSITION":52,"NORMAL":53,"TEXCOORD_0":54},"indices":55,"material":0}]},{"primitives":[{"mode":4,"attributes":{"POSITION":56,"NORMAL":57,"TEXCOORD_0":58},"indices":59,"material":0}]},{"primitives":[{"mode":4,"attributes":{"POSITION":60,"NORMAL":61,"TEXCOORD_0":62},"indices":63,"material":0}]},{"primitives":[{"mode":4,"attributes":{"POSITION":64,"NORMAL":65,"TEXCOORD_0":66},"indices":67,"material":0}]},{"primitives":[{"mode":4,"attributes":{"POSITION":68,"NORMAL":69,"TEXCOORD_0":70},"indices":71,"material":1}]},{"primitives":[{"mode":4,"attributes":{"POSITION":72,"NORMAL":73,"TEXCOORD_0":74},"indices":75,"material":2}]}]}