{"asset":{"version":"2.0","generator":"Blockbench 4.12.6 glTF exporter"},"scenes":[{"nodes":[15],"name":"blockbench_export"}],"scene":0,"nodes":[{"rotation":[-0.19509032201612825,0,0,0.9807852804032304],"name":"cube","mesh":0},{"rotation":[-0.19509032201612825,0,0,0.9807852804032304],"name":"cube","mesh":1},{"rotation":[-0.19509032201612825,0,0,0.9807852804032304],"name":"cube","mesh":2},{"rotation":[-0.19509032201612825,0,0,0.9807852804032304],"translation":[-1,0,0],"name":"cube","mesh":3},{"translation":[0,0.5523005233899282,-0.1233401677751402],"name":"bone3","children":[0,1,2,3]},{"rotation":[-0.19509032201612825,0,0,0.9807852804032304],"translation":[0.24584361546960945,0.1075259821937456,-0.1306715642511],"name":"cube","mesh":4},{"rotation":[-0.19509032201612825,0,0,0.9807852804032304],"translation":[0.24584361546960945,0.1075259821937456,-0.1306715642511],"name":"cube","mesh":5},{"rotation":[-0.19509032201612825,0,0,0.9807852804032304],"translation":[-2.004156384530391,0.2626390907029333,-0.7361176176436518],"name":"cube","mesh":6},{"rotation":[-0.19509032201612825,0,0,0.9807852804032304],"translation":[-0.9416563845303906,0.12238654479822447,-0.33977554838119334],"name":"cube","mesh":7},{"rotation":[0,-0.7071067811865475,0,0.7071067811865476],"translation":[0.0031249999999999993,0.4441319602322074,0.2541563845303906],"name":"bone4","children":[5,6,7,8]},{"translation":[-0.0625,0,0.3125],"name":"cube","mesh":8},{"rotation":[0,-0.3826834323650898,0,0.9238795325112867],"translation":[-0.21875,0.875,0.21875],"name":"cube","mesh":9},{"rotation":[0,-0.3826834323650898,0,0.9238795325112867],"translation":[-0.21875,0.625,0.21875],"name":"cube","mesh":10},{"rotation":[0,-0.3826834323650898,0,0.9238795325112867],"translation":[-0.21875,0.625,0.21875],"name":"cube","mesh":11},{"name":"root3","children":[4,9,10,11,12,13]},{"children":[14]}],"bufferViews":[{"buffer":0,"byteOffset":0,"byteLength":288,"target":34962,"byteStride":12},{"buffer":0,"byteOffset":288,"byteLength":288,"target":34962,"byteStride":12},{"buffer":0,"byteOffset":576,"byteLength":192,"target":34962,"byteStride":8},{"buffer":0,"byteOffset":768,"byteLength":72,"target":34963},{"buffer":0,"byteOffset":840,"byteLength":288,"target":34962,"byteStride":12},{"buffer":0,"byteOffset":1128,"byteLength":288,"target":34962,"byteStride":12},{"buffer":0,"byteOffset":1416,"byteLength":192,"target":34962,"byteStride":8},{"buffer":0,"byteOffset":1608,"byteLength":72,"target":34963},{"buffer":0,"byteOffset":1680,"byteLength":288,"target":34962,"byteStride":12},{"buffer":0,"byteOffset":1968,"byteLength":288,"target":34962,"byteStride":12},{"buffer":0,"byteOffset":2256,"byteLength":192,"target":34962,"byteStride":8},{"buffer":0,"byteOffset":2448,"byteLength":72,"target":34963},{"buffer":0,"byteOffset":2520,"byteLength":240,"target":34962,"byteStride":12},{"buffer":0,"byteOffset":2760,"byteLength":240,"target":34962,"byteStride":12},{"buffer":0,"byteOffset":3000,"byteLength":160,"target":34962,"byteStride":8},{"buffer":0,"byteOffset":3160,"byteLength":60,"target":34963},{"buffer":0,"byteOffset":3220,"byteLength":288,"target":34962,"byteStride":12},{"buffer":0,"byteOffset":3508,"byteLength":288,"target":34962,"byteStride":12},{"buffer":0,"byteOffset":3796,"byteLength":192,"target":34962,"byteStride":8},{"buffer":0,"byteOffset":3988,"byteLength":72,"target":34963},{"buffer":0,"byteOffset":4060,"byteLength":288,"target":34962,"byteStride":12},{"buffer":0,"byteOffset":4348,"byteLength":288,"target":34962,"byteStride":12},{"buffer":0,"byteOffset":4636,"byteLength":192,"target":34962,"byteStride":8},{"buffer":0,"byteOffset":4828,"byteLength":72,"target":34963},{"buffer":0,"byteOffset":4900,"byteLength":288,"target":34962,"byteStride":12},{"buffer":0,"byteOffset":5188,"byteLength":288,"target":34962,"byteStride":12},{"buffer":0,"byteOffset":5476,"byteLength":192,"target":34962,"byteStride":8},{"buffer":0,"byteOffset":5668,"byteLength":72,"target":34963},{"buffer":0,"byteOffset":5740,"byteLength":240,"target":34962,"byteStride":12},{"buffer":0,"byteOffset":5980,"byteLength":240,"target":34962,"byteStride":12},{"buffer":0,"byteOffset":6220,"byteLength":160,"target":34962,"byteStride":8},{"buffer":0,"byteOffset":6380,"byteLength":60,"target":34963},{"buffer":0,"byteOffset":6440,"byteLength":288,"target":34962,"byteStride":12},{"buffer":0,"byteOffset":6728,"byteLength":288,"target":34962,"byteStride":12},{"buffer":0,"byteOffset":7016,"byteLength":192,"target":34962,"byteStride":8},{"buffer":0,"byteOffset":7208,"byteLength":72,"target":34963},{"buffer":0,"byteOffset":7280,"byteLength":288,"target":34962,"byteStride":12},{"buffer":0,"byteOffset":7568,"byteLength":288,"target":34962,"byteStride":12},{"buffer":0,"byteOffset":7856,"byteLength":192,"target":34962,"byteStride":8},{"buffer":0,"byteOffset":8048,"byteLength":72,"target":34963},{"buffer":0,"byteOffset":8120,"byteLength":288,"target":34962,"byteStride":12},{"buffer":0,"byteOffset":8408,"byteLength":288,"target":34962,"byteStride":12},{"buffer":0,"byteOffset":8696,"byteLength":192,"target":34962,"byteStride":8},{"buffer":0,"byteOffset":8888,"byteLength":72,"target":34963},{"buffer":0,"byteOffset":8960,"byteLength":288,"target":34962,"byteStride":12},{"buffer":0,"byteOffset":9248,"byteLength":288,"target":34962,"byteStride":12},{"buffer":0,"byteOffset":9536,"byteLength":192,"target":34962,"byteStride":8},{"buffer":0,"byteOffset":9728,"byteLength":72,"target":34963}],"buffers":[{"byteLength":9800,"uri":"data:application/octet-stream;base64,"}],"accessors":[{"bufferView":0,"componentType":5126,"count":24,"max":[-0.12437500059604645,0.18812499940395355,0.5318750143051147],"min":[-0.5006250143051147,-0.0006249999860301614,0.18687500059604645],"type":"VEC3"},{"bufferView":1,"componentType":5126,"count":24,"max":[1,1,1],"min":[-1,-1,-1],"type":"VEC3"},{"bufferView":2,"componentType":5126,"count":24,"max":[0.859250009059906,0.148312509059906],"min":[0.687624990940094,0.086062490940094],"type":"VEC2"},{"bufferView":3,"componentType":5123,"count":36,"max":[23],"min":[0],"type":"SCALAR"},{"bufferView":4,"componentType":5126,"count":24,"max":[-0.0625,0,0.3125],"min":[-0.5,-0.1875,-0.25],"type":"VEC3"},{"bufferView":5,"componentType":5126,"count":24,"max":[1,1,1],"min":[-1,-1,-1],"type":"VEC3"},{"bufferView":6,"componentType":5126,"count":24,"max":[0.796750009059906,0.593625009059906],"min":[0.546999990940094,0.500124990940094],"type":"VEC2"},{"bufferView":7,"componentType":5123,"count":36,"max":[23],"min":[0],"type":"SCALAR"},{"bufferView":8,"componentType":5126,"count":24,"max":[0.25,-0.1875,-0.0625],"min":[-0.5,-0.375,-0.6875],"type":"VEC3"},{"bufferView":9,"componentType":5126,"count":24,"max":[1,1,1],"min":[-1,-1,-1],"type":"VEC3"},{"bufferView":10,"componentType":5126,"count":24,"max":[0.343625009059906,0.304562509059906],"min":[0.0001250000059371814,0.203249990940094],"type":"VEC2"},{"bufferView":11,"componentType":5123,"count":36,"max":[23],"min":[0],"type":"SCALAR"},{"bufferView":12,"componentType":5126,"count":20,"max":[1.1875,-0.28125,-0.6875],"min":[0.5,-0.28125,-0.875],"type":"VEC3"},{"bufferView":13,"componentType":5126,"count":20,"max":[1,1,0],"min":[0,0,0],"type":"VEC3"},{"bufferView":14,"componentType":5126,"count":20,"max":[0.7733169198036194,0.17965459823608398],"min":[0,0],"type":"VEC2"},{"bufferView":15,"componentType":5123,"count":30,"max":[19],"min":[0],"type":"SCALAR"},{"bufferView":16,"componentType":5126,"count":24,"max":[-2.7755575615628914e-17,0,0.375],"min":[-0.4375,-0.1875,-0.1875],"type":"VEC3"},{"bufferView":17,"componentType":5126,"count":24,"max":[1,1,1],"min":[-1,-1,-1],"type":"VEC3"},{"bufferView":18,"componentType":5126,"count":24,"max":[0.507687509059906,0.695187509059906],"min":[0.257937490940094,0.601687490940094],"type":"VEC2"},{"bufferView":19,"componentType":5123,"count":36,"max":[23],"min":[0],"type":"SCALAR"},{"bufferView":20,"componentType":5126,"count":24,"max":[0.0006249999860301614,0.18812499940395355,0.5318750143051147],"min":[-0.37562501430511475,-0.0006249999860301614,0.21812500059604645],"type":"VEC3"},{"bufferView":21,"componentType":5126,"count":24,"max":[1,1,1],"min":[-1,-1,-1],"type":"VEC3"},{"bufferView":22,"componentType":5126,"count":24,"max":[0.413937509059906,0.765500009059906],"min":[0.2423125058412552,0.703249990940094],"type":"VEC2"},{"bufferView":23,"componentType":5123,"count":36,"max":[23],"min":[0],"type":"SCALAR"},{"bufferView":24,"componentType":5126,"count":24,"max":[2.25,-0.5625,0.4375],"min":[1.5,-0.75,-0.1875],"type":"VEC3"},{"bufferView":25,"componentType":5126,"count":24,"max":[1,1,1],"min":[-1,-1,-1],"type":"VEC3"},{"bufferView":26,"componentType":5126,"count":24,"max":[0.343625009059906,0.304562509059906],"min":[0.0001250000059371814,0.203249990940094],"type":"VEC2"},{"bufferView":27,"componentType":5123,"count":36,"max":[23],"min":[0],"type":"SCALAR"},{"bufferView":28,"componentType":5126,"count":20,"max":[1.1875,-0.375,-0.5],"min":[0.5,-0.375,-0.6875],"type":"VEC3"},{"bufferView":29,"componentType":5126,"count":20,"max":[1,1,0],"min":[0,0,0],"type":"VEC3"},{"bufferView":30,"componentType":5126,"count":20,"max":[0.7733169198036194,0.17965459823608398],"min":[0,0],"type":"VEC2"},{"bufferView":31,"componentType":5123,"count":30,"max":[19],"min":[0],"type":"SCALAR"},{"bufferView":32,"componentType":5126,"count":24,"max":[-0.25,1,0.1875],"min":[-0.4375,0,0],"type":"VEC3"},{"bufferView":33,"componentType":5126,"count":24,"max":[1,1,1],"min":[-1,-1,-1],"type":"VEC3"},{"bufferView":34,"componentType":5126,"count":24,"max":[0.749875009059906,0.453000009059906],"min":[0.656374990940094,0.304812490940094],"type":"VEC2"},{"bufferView":35,"componentType":5123,"count":36,"max":[23],"min":[0],"type":"SCALAR"},{"bufferView":36,"componentType":5126,"count":24,"max":[0.15625,0.0625,0.21875],"min":[-0.15625,-0.25,-0.34375],"type":"VEC3"},{"bufferView":37,"componentType":5126,"count":24,"max":[1,1,1],"min":[-1,-1,-1],"type":"VEC3"},{"bufferView":38,"componentType":5126,"count":24,"max":[0.874875009059906,0.296750009059906],"min":[0.656374990940094,0.187624990940094],"type":"VEC2"},{"bufferView":39,"componentType":5123,"count":36,"max":[23],"min":[0],"type":"SCALAR"},{"bufferView":40,"componentType":5126,"count":24,"max":[0.15625,0,-0.15625],"min":[-0.15625,-0.3125,-0.71875],"type":"VEC3"},{"bufferView":41,"componentType":5126,"count":24,"max":[1,1,1],"min":[-1,-1,-1],"type":"VEC3"},{"bufferView":42,"componentType":5126,"count":24,"max":[0.874875009059906,0.296750009059906],"min":[0.656374990940094,0.187624990940094],"type":"VEC2"},{"bufferView":43,"componentType":5123,"count":36,"max":[23],"min":[0],"type":"SCALAR"},{"bufferView":44,"componentType":5126,"count":24,"max":[0.15625,-0.3125,-0.59375],"min":[-0.15625,-0.625,-1.15625],"type":"VEC3"},{"bufferView":45,"componentType":5126,"count":24,"max":[1,1,1],"min":[-1,-1,-1],"type":"VEC3"},{"bufferView":46,"componentType":5126,"count":24,"max":[0.874875009059906,0.296750009059906],"min":[0.656374990940094,0.187624990940094],"type":"VEC2"},{"bufferView":47,"componentType":5123,"count":36,"max":[23],"min":[0],"type":"SCALAR"}],"materials":[{"pbrMetallicRoughness":{"metallicFactor":0,"roughnessFactor":1,"baseColorTexture":{"index":0}},"alphaMode":"MASK","alphaCutoff":0.05,"doubleSided":true}],"textures":[{"sampler":0,"source":0,"name":"roof_hay"}],"samplers":[{"magFilter":9728,"minFilter":9728,"wrapS":33071,"wrapT":33071}],"images":[{"mimeType":"image/png","uri":"data:image/png;base64,"}],"meshes":[{"primitives":[{"mode":4,"attributes":{"POSITION":0,"NORMAL":1,"TEXCOORD_0":2},"indices":3,"material":0}]},{"primitives":[{"mode":4,"attributes":{"POSITION":4,"NORMAL":5,"TEXCOORD_0":6},"indices":7,"material":0}]},{"primitives":[{"mode":4,"attributes":{"POSITION":8,"NORMAL":9,"TEXCOORD_0":10},"indices":11,"material":0}]},{"primitives":[{"mode":4,"attributes":{"POSITION":12,"NORMAL":13,"TEXCOORD_0":14},"indices":15,"material":0}]},{"primitives":[{"mode":4,"attributes":{"POSITION":16,"NORMAL":17,"TEXCOORD_0":18},"indices":19,"material":0}]},{"primitives":[{"mode":4,"attributes":{"POSITION":20,"NORMAL":21,"TEXCOORD_0":22},"indices":23,"material":0}]},{"primitives":[{"mode":4,"attributes":{"POSITION":24,"NORMAL":25,"TEXCOORD_0":26},"indices":27,"material":0}]},{"primitives":[{"mode":4,"attributes":{"POSITION":28,"NORMAL":29,"TEXCOORD_0":30},"indices":31,"material":0}]},{"primitives":[{"mode":4,"attributes":{"POSITION":32,"NORMAL":33,"TEXCOORD_0":34},"indices":35,"material":0}]},{"primitives":[{"mode":4,"attributes":{"POSITION":36,"NORMAL":37,"TEXCOORD_0":38},"indices":39,"material":0}]},{"primitives":[{"mode":4,"attributes":{"POSITION":40,"NORMAL":41,"TEXCOORD_0":42},"indices":43,"material":0}]},{"primitives":[{"mode":4,"attributes":{"POSITION":44,"NORMAL":45,"TEXCOORD_0":46},"indices":47,"material":0}]}]}