{
  "accessors": [
    {
      "bufferView": 0,
      "byteOffset": 0,
      "componentType": 5126,
      "normalized": false,
      "count": 44,
      "type": "VEC3",
      "max": [
        0.9375,
        0.5,
        0.5
      ],
      "min": [
        -0.0625,
        -0.5,
        -0.5
      ]
    },
    {
      "bufferView": 1,
      "byteOffset": 0,
      "componentType": 5126,
      "normalized": false,
      "count": 44,
      "type": "VEC3",
      "max": [
        1.0,
        1.0,
        1.0
      ],
      "min": [
        -1.0,
        -1.0,
        -1.0
      ]
    },
    {
      "bufferView": 2,
      "byteOffset": 0,
      "componentType": 5126,
      "normalized": false,
      "count": 44,
      "type": "VEC2",
      "max": [
        0.75,
        0.75
      ],
      "min": [
        0.0,
        0.0
      ]
    },
    {
      "bufferView": 3,
      "byteOffset": 0,
      "componentType": 5123,
      "normalized": false,
      "count": 24,
      "type": "SCALAR",
      "max": [
        15.0
      ],
      "min": [
        0.0
      ]
    },
    {
      "bufferView": 4,
      "byteOffset": 0,
      "componentType": 5123,
      "normalized": false,
      "count": 12,
      "type": "SCALAR",
      "max": [
        23.0
      ],
      "min": [
        16.0
      ]
    },
    {
      "bufferView": 5,
      "byteOffset": 0,
      "componentType": 5123,
      "normalized": false,
      "count": 30,
      "type": "SCALAR",
      "max": [
        43.0
      ],
      "min": [
        24.0
      ]
    }
  ],
  "asset": {
    "generator": "pygltflib@v1.16.5",
    "version": "2.0"
  },
  "bufferViews": [
    {
      "buffer": 0,
      "byteOffset": 0,
      "byteLength": 528,
      "byteStride": 12,
      "target": 34962
    },
    {
      "buffer": 0,
      "byteOffset": 528,
      "byteLength": 528,
      "byteStride": 12,
      "target": 34962
    },
    {
      "buffer": 0,
      "byteOffset": 1056,
      "byteLength": 352,
      "byteStride": 8,
      "target": 34962
    },
    {
      "buffer": 0,
      "byteOffset": 1408,
      "byteLength": 48,
      "target": 34963
    },
    {
      "buffer": 0,
      "byteOffset": 1456,
      "byteLength": 24,
      "target": 34963
    },
    {
      "buffer": 0,
      "byteOffset": 1480,
      "byteLength": 60,
      "target": 34963
    }
  ],
  "buffers": [
    {
      "uri": "data:application/octet-stream;base64,",
      "byteLength": 1540
    }
  ],
  "images": [
    {
      "uri": "data:image/png;base64,",
      "mimeType": "image/png"
    },
    {
      "uri": "data:image/png;base64,",
      "mimeType": "image/png"
    }
  ],
  "materials": [
    {
      "pbrMetallicRoughness": {
        "baseColorFactor": [
          1.0,
          1.0,
          1.0,
          1.0
        ],
        "metallicFactor": 0.0,
        "roughnessFactor": 1.0,
        "baseColorTexture": {
          "index": 0,
          "texCoord": 0
        }
      },
      "emissiveFactor": [
        0.0,
        0.0,
        0.0
      ],
      "alphaMode": "MASK",
      "alphaCutoff": 0.05,
      "doubleSided": true
    },
    {
      "pbrMetallicRoughness": {
        "baseColorFactor": [
          1.0,
          1.0,
          1.0,
          1.0
        ],
        "metallicFactor": 0.0,
        "roughnessFactor": 1.0,
        "baseColorTexture": {
          "index": 1,
          "texCoord": 0
        }
      },
      "emissiveFactor": [
        0.0,
        0.0,
        0.0
      ],
      "alphaMode": "MASK",
      "alphaCutoff": 0.05,
      "doubleSided": true
    }
  ],
  "meshes": [
    {
      "primitives": [
        {
          "attributes": {
            "POSITION": 0,
            "NORMAL": 1,
            "TEXCOORD_0": 2
          },
          "indices": 3,
          "mode": 4,
          "material": 0
        },
        {
          "attributes": {
            "POSITION": 0,
            "NORMAL": 1,
            "TEXCOORD_0": 2
          },
          "indices": 4,
          "mode": 4,
          "material": 1
        },
        {
          "attributes": {
            "POSITION": 0,
            "NORMAL": 1,
            "TEXCOORD_0": 2
          },
          "indices": 5,
          "mode": 4,
          "material": 0
        }
      ]
    }
  ],
  "nodes": [
    {
      "mesh": 0,
      "translation": [
        -0.4375,
        0.5,
        0.0
      ],
      "name": "cube"
    },
    {
      "children": [
        0
      ]
    },
    {
      "extras": {
        "addedBy": "rotate_gltf_180Y"
      },
      "rotation": [
        0.0,
        1.0,
        0.0,
        0.0
      ],
      "children": [
        1
      ],
      "name": "RotationWrapper_180deg_Y"
    }
  ],
  "samplers": [
    {
      "magFilter": 9728,
      "minFilter": 9728,
      "wrapS": 33071,
      "wrapT": 33071
    },
    {
      "magFilter": 9728,
      "minFilter": 9728,
      "wrapS": 33071,
      "wrapT": 33071
    }
  ],
  "scene": 0,
  "scenes": [
    {
      "name": "blockbench_export",
      "nodes": [
        2
      ]
    }
  ],
  "textures": [
    {
      "sampler": 0,
      "source": 0
    },
    {
      "sampler": 1,
      "source": 1
    }
  ]
}