{"asset":{"version":"2.0","generator":"Blockbench 5.0.7 glTF exporter"},"scenes":[{"nodes":[21],"name":"blockbench_export"}],"scene":0,"nodes":[{"translation":[0.030625000000000013,-0.03125,-0.03125],"name":"cube","mesh":0},{"translation":[0.030625000000000013,-0.03125,0.03125],"name":"cube","mesh":1},{"translation":[0.032187500000000036,0.03125,0.03125],"name":"cube","mesh":2},{"translation":[0.030625000000000013,-0.03125,0.03125],"name":"cube","mesh":3},{"translation":[0.032187500000000036,-0.03125,0.03125],"name":"cube","mesh":4},{"rotation":[-0.17364817766693033,0,0,0.984807753012208],"translation":[0.375625,0.46875,-0.28125],"name":"group3","children":[0,1,2,3,4]},{"translation":[0.00015625000000002442,0,0],"name":"cube","mesh":5},{"translation":[0.00015625000000002442,-0.46984624999999997,-0.141489375],"name":"cube","mesh":6},{"translation":[0.00015625000000002442,0,0],"name":"cube","mesh":7},{"translation":[0.00015625000000002442,0,0],"name":"cube","mesh":8},{"translation":[0.00015625000000002442,0,0],"name":"cube","mesh":9},{"rotation":[0.12904204131376232,-0.02264406848342188,0.1284208468188297,0.9830277126502742],"translation":[0.318213125,0.774488125,-0.0320825],"name":"group4","children":[6,7,8,9,10]},{"translation":[0.375,0.3125,0],"name":"cube","mesh":10},{"translation":[0.390625,0.4375,0],"name":"cube","mesh":11},{"translation":[0.390625,0.3125,0],"name":"cube","mesh":12},{"translation":[0.3890625,0.375,0.15625],"name":"cube","mesh":13},{"translation":[0.3890625,0.375,-0.15625],"name":"cube","mesh":14},{"translation":[0,0.0625,0.125],"name":"group2","children":[5,11,12,13,14,15,16]},{"name":"cube","mesh":15},{"translation":[0,0.125,0],"name":"cube","mesh":16},{"translation":[0,0.625,0],"name":"cube","mesh":17},{"rotation":[0,0.7071067811865475,0,0.7071067811865476],"name":"group","children":[17,18,19,20]}],"bufferViews":[{"buffer":0,"byteOffset":0,"byteLength":240,"target":34962,"byteStride":12},{"buffer":0,"byteOffset":240,"byteLength":240,"target":34962,"byteStride":12},{"buffer":0,"byteOffset":480,"byteLength":160,"target":34962,"byteStride":8},{"buffer":0,"byteOffset":640,"byteLength":60,"target":34963},{"buffer":0,"byteOffset":700,"byteLength":288,"target":34962,"byteStride":12},{"buffer":0,"byteOffset":988,"byteLength":288,"target":34962,"byteStride":12},{"buffer":0,"byteOffset":1276,"byteLength":192,"target":34962,"byteStride":8},{"buffer":0,"byteOffset":1468,"byteLength":72,"target":34963},{"buffer":0,"byteOffset":1540,"byteLength":240,"target":34962,"byteStride":12},{"buffer":0,"byteOffset":1780,"byteLength":240,"target":34962,"byteStride":12},{"buffer":0,"byteOffset":2020,"byteLength":160,"target":34962,"byteStride":8},{"buffer":0,"byteOffset":2180,"byteLength":60,"target":34963},{"buffer":0,"byteOffset":2240,"byteLength":240,"target":34962,"byteStride":12},{"buffer":0,"byteOffset":2480,"byteLength":240,"target":34962,"byteStride":12},{"buffer":0,"byteOffset":2720,"byteLength":160,"target":34962,"byteStride":8},{"buffer":0,"byteOffset":2880,"byteLength":60,"target":34963},{"buffer":0,"byteOffset":2940,"byteLength":240,"target":34962,"byteStride":12},{"buffer":0,"byteOffset":3180,"byteLength":240,"target":34962,"byteStride":12},{"buffer":0,"byteOffset":3420,"byteLength":160,"target":34962,"byteStride":8},{"buffer":0,"byteOffset":3580,"byteLength":60,"target":34963},{"buffer":0,"byteOffset":3640,"byteLength":240,"target":34962,"byteStride":12},{"buffer":0,"byteOffset":3880,"byteLength":240,"target":34962,"byteStride":12},{"buffer":0,"byteOffset":4120,"byteLength":160,"target":34962,"byteStride":8},{"buffer":0,"byteOffset":4280,"byteLength":60,"target":34963},{"buffer":0,"byteOffset":4340,"byteLength":288,"target":34962,"byteStride":12},{"buffer":0,"byteOffset":4628,"byteLength":288,"target":34962,"byteStride":12},{"buffer":0,"byteOffset":4916,"byteLength":192,"target":34962,"byteStride":8},{"buffer":0,"byteOffset":5108,"byteLength":72,"target":34963},{"buffer":0,"byteOffset":5180,"byteLength":240,"target":34962,"byteStride":12},{"buffer":0,"byteOffset":5420,"byteLength":240,"target":34962,"byteStride":12},{"buffer":0,"byteOffset":5660,"byteLength":160,"target":34962,"byteStride":8},{"buffer":0,"byteOffset":5820,"byteLength":60,"target":34963},{"buffer":0,"byteOffset":5880,"byteLength":240,"target":34962,"byteStride":12},{"buffer":0,"byteOffset":6120,"byteLength":240,"target":34962,"byteStride":12},{"buffer":0,"byteOffset":6360,"byteLength":160,"target":34962,"byteStride":8},{"buffer":0,"byteOffset":6520,"byteLength":60,"target":34963},{"buffer":0,"byteOffset":6580,"byteLength":240,"target":34962,"byteStride":12},{"buffer":0,"byteOffset":6820,"byteLength":240,"target":34962,"byteStride":12},{"buffer":0,"byteOffset":7060,"byteLength":160,"target":34962,"byteStride":8},{"buffer":0,"byteOffset":7220,"byteLength":60,"target":34963},{"buffer":0,"byteOffset":7280,"byteLength":288,"target":34962,"byteStride":12},{"buffer":0,"byteOffset":7568,"byteLength":288,"target":34962,"byteStride":12},{"buffer":0,"byteOffset":7856,"byteLength":192,"target":34962,"byteStride":8},{"buffer":0,"byteOffset":8048,"byteLength":72,"target":34963},{"buffer":0,"byteOffset":8120,"byteLength":240,"target":34962,"byteStride":12},{"buffer":0,"byteOffset":8360,"byteLength":240,"target":34962,"byteStride":12},{"buffer":0,"byteOffset":8600,"byteLength":160,"target":34962,"byteStride":8},{"buffer":0,"byteOffset":8760,"byteLength":60,"target":34963},{"buffer":0,"byteOffset":8820,"byteLength":240,"target":34962,"byteStride":12},{"buffer":0,"byteOffset":9060,"byteLength":240,"target":34962,"byteStride":12},{"buffer":0,"byteOffset":9300,"byteLength":160,"target":34962,"byteStride":8},{"buffer":0,"byteOffset":9460,"byteLength":60,"target":34963},{"buffer":0,"byteOffset":9520,"byteLength":240,"target":34962,"byteStride":12},{"buffer":0,"byteOffset":9760,"byteLength":240,"target":34962,"byteStride":12},{"buffer":0,"byteOffset":10000,"byteLength":160,"target":34962,"byteStride":8},{"buffer":0,"byteOffset":10160,"byteLength":60,"target":34963},{"buffer":0,"byteOffset":10220,"byteLength":240,"target":34962,"byteStride":12},{"buffer":0,"byteOffset":10460,"byteLength":240,"target":34962,"byteStride":12},{"buffer":0,"byteOffset":10700,"byteLength":160,"target":34962,"byteStride":8},{"buffer":0,"byteOffset":10860,"byteLength":60,"target":34963},{"buffer":0,"byteOffset":10920,"byteLength":288,"target":34962,"byteStride":12},{"buffer":0,"byteOffset":11208,"byteLength":288,"target":34962,"byteStride":12},{"buffer":0,"byteOffset":11496,"byteLength":192,"target":34962,"byteStride":8},{"buffer":0,"byteOffset":11688,"byteLength":72,"target":34963},{"buffer":0,"byteOffset":11760,"byteLength":480,"target":34962,"byteStride":12},{"buffer":0,"byteOffset":12240,"byteLength":480,"target":34962,"byteStride":12},{"buffer":0,"byteOffset":12720,"byteLength":320,"target":34962,"byteStride":8},{"buffer":0,"byteOffset":13040,"byteLength":120,"target":34963},{"buffer":0,"byteOffset":13160,"byteLength":768,"target":34962,"byteStride":12},{"buffer":0,"byteOffset":13928,"byteLength":768,"target":34962,"byteStride":12},{"buffer":0,"byteOffset":14696,"byteLength":512,"target":34962,"byteStride":8},{"buffer":0,"byteOffset":15208,"byteLength":192,"target":34963}],"buffers":[{"byteLength":15400,"uri":"data:application/octet-stream;base64,"}],"accessors":[{"bufferView":0,"componentType":5126,"count":20,"max":[-0.03125,0.09375,0],"min":[-0.03125,-0.03125,-0.1875],"type":"VEC3"},{"bufferView":1,"componentType":5126,"count":20,"max":[1,0,0],"min":[-1,0,0],"type":"VEC3"},{"bufferView":2,"componentType":5126,"count":20,"max":[0.37505000829696655,0.46875],"min":[0.09375,0.1875],"type":"VEC2"},{"bufferView":3,"componentType":5123,"count":30,"max":[19],"min":[0],"type":"SCALAR"},{"bufferView":4,"componentType":5126,"count":24,"max":[0,0.0625,0],"min":[-0.0625,0,-0.0625],"type":"VEC3"},{"bufferView":5,"componentType":5126,"count":24,"max":[1,1,1],"min":[-1,-1,-1],"type":"VEC3"},{"bufferView":6,"componentType":5126,"count":24,"max":[0.40625,0.40625],"min":[0.09375,0.09375],"type":"VEC2"},{"bufferView":7,"componentType":5123,"count":36,"max":[23],"min":[0],"type":"SCALAR"},{"bufferView":8,"componentType":5126,"count":20,"max":[-0.03125,0.1875,0.03125],"min":[-0.03125,0,-0.09375],"type":"VEC3"},{"bufferView":9,"componentType":5126,"count":20,"max":[1,0,0],"min":[-1,0,0],"type":"VEC3"},{"bufferView":10,"componentType":5126,"count":20,"max":[0.37505000829696655,0.46875],"min":[0.09375,0.1875],"type":"VEC2"},{"bufferView":11,"componentType":5123,"count":30,"max":[19],"min":[0],"type":"SCALAR"},{"bufferView":12,"componentType":5126,"count":20,"max":[-0.03125,0.09375,0.1875],"min":[-0.03125,-0.03125,0],"type":"VEC3"},{"bufferView":13,"componentType":5126,"count":20,"max":[1,0,0],"min":[-1,0,0],"type":"VEC3"},{"bufferView":14,"componentType":5126,"count":20,"max":[0.37505000829696655,0.46875],"min":[0.09375,0.1875],"type":"VEC2"},{"bufferView":15,"componentType":5123,"count":30,"max":[19],"min":[0],"type":"SCALAR"},{"bufferView":16,"componentType":5126,"count":20,"max":[-0.03125,0,0.03125],"min":[-0.03125,-0.1875,-0.09375],"type":"VEC3"},{"bufferView":17,"componentType":5126,"count":20,"max":[1,0,0],"min":[-1,0,0],"type":"VEC3"},{"bufferView":18,"componentType":5126,"count":20,"max":[0.37505000829696655,0.46875],"min":[0.09375,0.1875],"type":"VEC2"},{"bufferView":19,"componentType":5123,"count":30,"max":[19],"min":[0],"type":"SCALAR"},{"bufferView":20,"componentType":5126,"count":20,"max":[-0.0007812500116415322,0.0625,0.21875],"min":[-0.0007812500116415322,-0.0625,0.03125],"type":"VEC3"},{"bufferView":21,"componentType":5126,"count":20,"max":[1,0,0],"min":[-1,0,0],"type":"VEC3"},{"bufferView":22,"componentType":5126,"count":20,"max":[0.37505000829696655,0.46875],"min":[0.09375,0.1875],"type":"VEC2"},{"bufferView":23,"componentType":5123,"count":30,"max":[19],"min":[0],"type":"SCALAR"},{"bufferView":24,"componentType":5126,"count":24,"max":[0.03046875074505806,0.501096248626709,0.17273937165737152],"min":[-0.03203124925494194,0.438596248626709,0.11023937165737152],"type":"VEC3"},{"bufferView":25,"componentType":5126,"count":24,"max":[1,1,1],"min":[-1,-1,-1],"type":"VEC3"},{"bufferView":26,"componentType":5126,"count":24,"max":[0.40625,0.40625],"min":[0.09375,0.09375],"type":"VEC2"},{"bufferView":27,"componentType":5123,"count":36,"max":[23],"min":[0],"type":"SCALAR"},{"bufferView":28,"componentType":5126,"count":20,"max":[0.0007812500116415322,0.21875,0.0625],"min":[0.0007812500116415322,0.03125,-0.0625],"type":"VEC3"},{"bufferView":29,"componentType":5126,"count":20,"max":[1,0,0],"min":[-1,0,0],"type":"VEC3"},{"bufferView":30,"componentType":5126,"count":20,"max":[0.37505000829696655,0.46875],"min":[0.09375,0.1875],"type":"VEC2"},{"bufferView":31,"componentType":5123,"count":30,"max":[19],"min":[0],"type":"SCALAR"},{"bufferView":32,"componentType":5126,"count":20,"max":[-0.0007812500116415322,0.0625,-0.03125],"min":[-0.0007812500116415322,-0.0625,-0.21875],"type":"VEC3"},{"bufferView":33,"componentType":5126,"count":20,"max":[1,0,0],"min":[-1,0,0],"type":"VEC3"},{"bufferView":34,"componentType":5126,"count":20,"max":[0.37505000829696655,0.46875],"min":[0.09375,0.1875],"type":"VEC2"},{"bufferView":35,"componentType":5123,"count":30,"max":[19],"min":[0],"type":"SCALAR"},{"bufferView":36,"componentType":5126,"count":20,"max":[0.0007812500116415322,-0.03125,0.0625],"min":[0.0007812500116415322,-0.21875,-0.0625],"type":"VEC3"},{"bufferView":37,"componentType":5126,"count":20,"max":[1,0,0],"min":[-1,0,0],"type":"VEC3"},{"bufferView":38,"componentType":5126,"count":20,"max":[0.37505000829696655,0.46875],"min":[0.09375,0.1875],"type":"VEC2"},{"bufferView":39,"componentType":5123,"count":30,"max":[19],"min":[0],"type":"SCALAR"},{"bufferView":40,"componentType":5126,"count":24,"max":[0.0625,0.125,0.0625],"min":[-0.0625,0,-0.0625],"type":"VEC3"},{"bufferView":41,"componentType":5126,"count":24,"max":[1,1,1],"min":[-1,-1,-1],"type":"VEC3"},{"bufferView":42,"componentType":5126,"count":24,"max":[0.375,0.375],"min":[0,0],"type":"VEC2"},{"bufferView":43,"componentType":5123,"count":36,"max":[23],"min":[0],"type":"SCALAR"},{"bufferView":44,"componentType":5126,"count":20,"max":[0,0.25,0.125],"min":[0,-0.0625,-0.125],"type":"VEC3"},{"bufferView":45,"componentType":5126,"count":20,"max":[1,0,0],"min":[-1,0,0],"type":"VEC3"},{"bufferView":46,"componentType":5126,"count":20,"max":[0.37505000829696655,0.53125],"min":[0,0],"type":"VEC2"},{"bufferView":47,"componentType":5123,"count":30,"max":[19],"min":[0],"type":"SCALAR"},{"bufferView":48,"componentType":5126,"count":20,"max":[0,0.0625,0.125],"min":[0,-0.25,-0.125],"type":"VEC3"},{"bufferView":49,"componentType":5126,"count":20,"max":[1,0,0],"min":[-1,0,0],"type":"VEC3"},{"bufferView":50,"componentType":5126,"count":20,"max":[0.37505000829696655,0.53125],"min":[0,0],"type":"VEC2"},{"bufferView":51,"componentType":5123,"count":30,"max":[19],"min":[0],"type":"SCALAR"},{"bufferView":52,"componentType":5126,"count":20,"max":[0,0.125,0.15625],"min":[0,-0.125,-0.15625],"type":"VEC3"},{"bufferView":53,"componentType":5126,"count":20,"max":[1,0,0],"min":[-1,0,0],"type":"VEC3"},{"bufferView":54,"componentType":5126,"count":20,"max":[0.37505000829696655,0.53125],"min":[0,0],"type":"VEC2"},{"bufferView":55,"componentType":5123,"count":30,"max":[19],"min":[0],"type":"SCALAR"},{"bufferView":56,"componentType":5126,"count":20,"max":[0,0.125,0.15625],"min":[0,-0.125,-0.15625],"type":"VEC3"},{"bufferView":57,"componentType":5126,"count":20,"max":[1,0,0],"min":[-1,0,0],"type":"VEC3"},{"bufferView":58,"componentType":5126,"count":20,"max":[0.37505000829696655,0.53125],"min":[0,0],"type":"VEC2"},{"bufferView":59,"componentType":5123,"count":30,"max":[19],"min":[0],"type":"SCALAR"},{"bufferView":60,"componentType":5126,"count":24,"max":[0.34375,0.125,0.34375],"min":[-0.34375,0,-0.34375],"type":"VEC3"},{"bufferView":61,"componentType":5126,"count":24,"max":[0.9701424837112427,1,0.9701424837112427],"min":[-0.9701424837112427,-1,-0.9701424837112427],"type":"VEC3"},{"bufferView":62,"componentType":5126,"count":24,"max":[0.765625,0.59375],"min":[0.1875,0],"type":"VEC2"},{"bufferView":63,"componentType":5123,"count":36,"max":[23],"min":[0],"type":"SCALAR"},{"bufferView":64,"componentType":5126,"count":40,"max":[0.375,0.5,0.375],"min":[-0.375,0,-0.375],"type":"VEC3"},{"bufferView":65,"componentType":5126,"count":40,"max":[0.9980525970458984,1,0.9980525970458984],"min":[-0.9980525970458984,-1,-0.9980525970458984],"type":"VEC3"},{"bufferView":66,"componentType":5126,"count":40,"max":[0.71875,0.6640625],"min":[0,0],"type":"VEC2"},{"bufferView":67,"componentType":5123,"count":60,"max":[39],"min":[0],"type":"SCALAR"},{"bufferView":68,"componentType":5126,"count":64,"max":[0.3125,0.25,0.3125],"min":[-0.3125,0,-0.3125],"type":"VEC3"},{"bufferView":69,"componentType":5126,"count":64,"max":[1,1,1],"min":[-1,-1,-1],"type":"VEC3"},{"bufferView":70,"componentType":5126,"count":64,"max":[0.687261700630188,0.609375],"min":[0.0002382812526775524,0.1875],"type":"VEC2"},{"bufferView":71,"componentType":5123,"count":96,"max":[63],"min":[0],"type":"SCALAR"}],"materials":[{"pbrMetallicRoughness":{"metallicFactor":0,"roughnessFactor":1,"baseColorTexture":{"index":0}},"alphaMode":"MASK","alphaCutoff":0.05,"doubleSided":true},{"pbrMetallicRoughness":{"metallicFactor":0,"roughnessFactor":1,"baseColorTexture":{"index":1}},"alphaMode":"MASK","alphaCutoff":0.05,"doubleSided":true}],"textures":[{"sampler":0,"source":0,"name":"rooty-egg-flowers"},{"sampler":1,"source":1,"name":"rooty-egg"}],"samplers":[{"magFilter":9728,"minFilter":9728,"wrapS":33071,"wrapT":33071},{"magFilter":9728,"minFilter":9728,"wrapS":33071,"wrapT":33071}],"images":[{"mimeType":"image/png","uri":"data:image/png;base64,"},{"mimeType":"image/png","uri":"data:image/png;base64,"}],"meshes":[{"primitives":[{"mode":4,"attributes":{"POSITION":0,"NORMAL":1,"TEXCOORD_0":2},"indices":3,"material":0}]},{"primitives":[{"mode":4,"attributes":{"POSITION":4,"NORMAL":5,"TEXCOORD_0":6},"indices":7,"material":0}]},{"primitives":[{"mode":4,"attributes":{"POSITION":8,"NORMAL":9,"TEXCOORD_0":10},"indices":11,"material":0}]},{"primitives":[{"mode":4,"attributes":{"POSITION":12,"NORMAL":13,"TEXCOORD_0":14},"indices":15,"material":0}]},{"primitives":[{"mode":4,"attributes":{"POSITION":16,"NORMAL":17,"TEXCOORD_0":18},"indices":19,"material":0}]},{"primitives":[{"mode":4,"attributes":{"POSITION":20,"NORMAL":21,"TEXCOORD_0":22},"indices":23,"material":0}]},{"primitives":[{"mode":4,"attributes":{"POSITION":24,"NORMAL":25,"TEXCOORD_0":26},"indices":27,"material":0}]},{"primitives":[{"mode":4,"attributes":{"POSITION":28,"NORMAL":29,"TEXCOORD_0":30},"indices":31,"material":0}]},{"primitives":[{"mode":4,"attributes":{"POSITION":32,"NORMAL":33,"TEXCOORD_0":34},"indices":35,"material":0}]},{"primitives":[{"mode":4,"attributes":{"POSITION":36,"NORMAL":37,"TEXCOORD_0":38},"indices":39,"material":0}]},{"primitives":[{"mode":4,"attributes":{"POSITION":40,"NORMAL":41,"TEXCOORD_0":42},"indices":43,"material":0}]},{"primitives":[{"mode":4,"attributes":{"POSITION":44,"NORMAL":45,"TEXCOORD_0":46},"indices":47,"material":0}]},{"primitives":[{"mode":4,"attributes":{"POSITION":48,"NORMAL":49,"TEXCOORD_0":50},"indices":51,"material":0}]},{"primitives":[{"mode":4,"attributes":{"POSITION":52,"NORMAL":53,"TEXCOORD_0":54},"indices":55,"material":0}]},{"primitives":[{"mode":4,"attributes":{"POSITION":56,"NORMAL":57,"TEXCOORD_0":58},"indices":59,"material":0}]},{"primitives":[{"mode":4,"attributes":{"POSITION":60,"NORMAL":61,"TEXCOORD_0":62},"indices":63,"material":1}]},{"primitives":[{"mode":4,"attributes":{"POSITION":64,"NORMAL":65,"TEXCOORD_0":66},"indices":67,"material":1}]},{"primitives":[{"mode":4,"attributes":{"POSITION":68,"NORMAL":69,"TEXCOORD_0":70},"indices":71,"material":1}]}]}