{"asset":{"version":"2.0","generator":"Blockbench 5.0.7 glTF exporter"},"scenes":[{"nodes":[17],"name":"blockbench_export"}],"scene":0,"nodes":[{"translation":[0,0.625,0],"name":"cube","mesh":0},{"translation":[0,0.125,0],"name":"cube","mesh":1},{"name":"cube","mesh":2},{"rotation":[0,0,-0.19509032201612825,0.9807852804032304],"name":"cube","mesh":3},{"rotation":[0,0,-0.19509032201612825,0.9807852804032304],"translation":[-0.070903125,-0.57947625,-0.0625],"name":"cube","mesh":4},{"rotation":[0,0,-0.19509032201612825,0.9807852804032304],"name":"cube","mesh":5},{"translation":[0,0.375,-0.375],"name":"group2","children":[3,4,5]},{"rotation":[0.19509032201612825,0,0,0.9807852804032304],"name":"cube","mesh":6},{"rotation":[0,0,0.19509032201612825,0.9807852804032304],"translation":[0.375,0,-0.375],"name":"cube","mesh":7},{"rotation":[-0.19509032201612825,0,0,0.9807852804032304],"translation":[0.75,0,0],"name":"cube","mesh":8},{"rotation":[0.19509032201612825,0,0,0.9807852804032304],"name":"cube","mesh":9},{"rotation":[0.19509032201612825,0,0,0.9807852804032304],"translation":[0.0625,-0.57947625,-0.070903125],"name":"cube","mesh":10},{"rotation":[0,0,0.19509032201612825,0.9807852804032304],"translation":[0.445903125,-0.57947625,-0.3125],"name":"cube","mesh":11},{"rotation":[0,0,0.19509032201612825,0.9807852804032304],"translation":[0.375,0,-0.375],"name":"cube","mesh":12},{"rotation":[-0.19509032201612825,0,0,0.9807852804032304],"translation":[0.6875,-0.57947625,0.070903125],"name":"cube","mesh":13},{"rotation":[-0.19509032201612825,0,0,0.9807852804032304],"translation":[0.75,0,0],"name":"cube","mesh":14},{"translation":[-0.375,0.375,0],"name":"group3","children":[7,8,9,10,11,12,13,14,15]},{"name":"group","children":[0,1,2,6,16]}],"bufferViews":[{"buffer":0,"byteOffset":0,"byteLength":768,"target":34962,"byteStride":12},{"buffer":0,"byteOffset":768,"byteLength":768,"target":34962,"byteStride":12},{"buffer":0,"byteOffset":1536,"byteLength":512,"target":34962,"byteStride":8},{"buffer":0,"byteOffset":2048,"byteLength":192,"target":34963},{"buffer":0,"byteOffset":2240,"byteLength":480,"target":34962,"byteStride":12},{"buffer":0,"byteOffset":2720,"byteLength":480,"target":34962,"byteStride":12},{"buffer":0,"byteOffset":3200,"byteLength":320,"target":34962,"byteStride":8},{"buffer":0,"byteOffset":3520,"byteLength":120,"target":34963},{"buffer":0,"byteOffset":3640,"byteLength":288,"target":34962,"byteStride":12},{"buffer":0,"byteOffset":3928,"byteLength":288,"target":34962,"byteStride":12},{"buffer":0,"byteOffset":4216,"byteLength":192,"target":34962,"byteStride":8},{"buffer":0,"byteOffset":4408,"byteLength":72,"target":34963},{"buffer":0,"byteOffset":4480,"byteLength":288,"target":34962,"byteStride":12},{"buffer":0,"byteOffset":4768,"byteLength":288,"target":34962,"byteStride":12},{"buffer":0,"byteOffset":5056,"byteLength":192,"target":34962,"byteStride":8},{"buffer":0,"byteOffset":5248,"byteLength":72,"target":34963},{"buffer":0,"byteOffset":5320,"byteLength":240,"target":34962,"byteStride":12},{"buffer":0,"byteOffset":5560,"byteLength":240,"target":34962,"byteStride":12},{"buffer":0,"byteOffset":5800,"byteLength":160,"target":34962,"byteStride":8},{"buffer":0,"byteOffset":5960,"byteLength":60,"target":34963},{"buffer":0,"byteOffset":6020,"byteLength":240,"target":34962,"byteStride":12},{"buffer":0,"byteOffset":6260,"byteLength":240,"target":34962,"byteStride":12},{"buffer":0,"byteOffset":6500,"byteLength":160,"target":34962,"byteStride":8},{"buffer":0,"byteOffset":6660,"byteLength":60,"target":34963},{"buffer":0,"byteOffset":6720,"byteLength":288,"target":34962,"byteStride":12},{"buffer":0,"byteOffset":7008,"byteLength":288,"target":34962,"byteStride":12},{"buffer":0,"byteOffset":7296,"byteLength":192,"target":34962,"byteStride":8},{"buffer":0,"byteOffset":7488,"byteLength":72,"target":34963},{"buffer":0,"byteOffset":7560,"byteLength":288,"target":34962,"byteStride":12},{"buffer":0,"byteOffset":7848,"byteLength":288,"target":34962,"byteStride":12},{"buffer":0,"byteOffset":8136,"byteLength":192,"target":34962,"byteStride":8},{"buffer":0,"byteOffset":8328,"byteLength":72,"target":34963},{"buffer":0,"byteOffset":8400,"byteLength":288,"target":34962,"byteStride":12},{"buffer":0,"byteOffset":8688,"byteLength":288,"target":34962,"byteStride":12},{"buffer":0,"byteOffset":8976,"byteLength":192,"target":34962,"byteStride":8},{"buffer":0,"byteOffset":9168,"byteLength":72,"target":34963},{"buffer":0,"byteOffset":9240,"byteLength":240,"target":34962,"byteStride":12},{"buffer":0,"byteOffset":9480,"byteLength":240,"target":34962,"byteStride":12},{"buffer":0,"byteOffset":9720,"byteLength":160,"target":34962,"byteStride":8},{"buffer":0,"byteOffset":9880,"byteLength":60,"target":34963},{"buffer":0,"byteOffset":9940,"byteLength":240,"target":34962,"byteStride":12},{"buffer":0,"byteOffset":10180,"byteLength":240,"target":34962,"byteStride":12},{"buffer":0,"byteOffset":10420,"byteLength":160,"target":34962,"byteStride":8},{"buffer":0,"byteOffset":10580,"byteLength":60,"target":34963},{"buffer":0,"byteOffset":10640,"byteLength":240,"target":34962,"byteStride":12},{"buffer":0,"byteOffset":10880,"byteLength":240,"target":34962,"byteStride":12},{"buffer":0,"byteOffset":11120,"byteLength":160,"target":34962,"byteStride":8},{"buffer":0,"byteOffset":11280,"byteLength":60,"target":34963},{"buffer":0,"byteOffset":11340,"byteLength":240,"target":34962,"byteStride":12},{"buffer":0,"byteOffset":11580,"byteLength":240,"target":34962,"byteStride":12},{"buffer":0,"byteOffset":11820,"byteLength":160,"target":34962,"byteStride":8},{"buffer":0,"byteOffset":11980,"byteLength":60,"target":34963},{"buffer":0,"byteOffset":12040,"byteLength":240,"target":34962,"byteStride":12},{"buffer":0,"byteOffset":12280,"byteLength":240,"target":34962,"byteStride":12},{"buffer":0,"byteOffset":12520,"byteLength":160,"target":34962,"byteStride":8},{"buffer":0,"byteOffset":12680,"byteLength":60,"target":34963},{"buffer":0,"byteOffset":12740,"byteLength":240,"target":34962,"byteStride":12},{"buffer":0,"byteOffset":12980,"byteLength":240,"target":34962,"byteStride":12},{"buffer":0,"byteOffset":13220,"byteLength":160,"target":34962,"byteStride":8},{"buffer":0,"byteOffset":13380,"byteLength":60,"target":34963}],"buffers":[{"byteLength":13440,"uri":"data:application/octet-stream;base64,"}],"accessors":[{"bufferView":0,"componentType":5126,"count":64,"max":[0.3125,0.25,0.3125],"min":[-0.3125,0,-0.3125],"type":"VEC3"},{"bufferView":1,"componentType":5126,"count":64,"max":[1,1,1],"min":[-1,-1,-1],"type":"VEC3"},{"bufferView":2,"componentType":5126,"count":64,"max":[0.687261700630188,0.609375],"min":[0.0002382812526775524,0.1875],"type":"VEC2"},{"bufferView":3,"componentType":5123,"count":96,"max":[63],"min":[0],"type":"SCALAR"},{"bufferView":4,"componentType":5126,"count":40,"max":[0.375,0.5,0.375],"min":[-0.375,0,-0.375],"type":"VEC3"},{"bufferView":5,"componentType":5126,"count":40,"max":[0.9980525970458984,1,0.9980525970458984],"min":[-0.9980525970458984,-1,-0.9980525970458984],"type":"VEC3"},{"bufferView":6,"componentType":5126,"count":40,"max":[0.71875,0.6640625],"min":[0,0],"type":"VEC2"},{"bufferView":7,"componentType":5123,"count":60,"max":[39],"min":[0],"type":"SCALAR"},{"bufferView":8,"componentType":5126,"count":24,"max":[0.34375,0.125,0.34375],"min":[-0.34375,0,-0.34375],"type":"VEC3"},{"bufferView":9,"componentType":5126,"count":24,"max":[0.9701424837112427,1,0.9701424837112427],"min":[-0.9701424837112427,-1,-0.9701424837112427],"type":"VEC3"},{"bufferView":10,"componentType":5126,"count":24,"max":[0.765625,0.59375],"min":[0.1875,0],"type":"VEC2"},{"bufferView":11,"componentType":5123,"count":36,"max":[23],"min":[0],"type":"SCALAR"},{"bufferView":12,"componentType":5126,"count":24,"max":[0.15625,0.15625,0.0625],"min":[-0.15625,-0.15625,-0.0625],"type":"VEC3"},{"bufferView":13,"componentType":5126,"count":24,"max":[1,1,1],"min":[-1,-1,-1],"type":"VEC3"},{"bufferView":14,"componentType":5126,"count":24,"max":[0.71875,0.59375],"min":[0,0.4375],"type":"VEC2"},{"bufferView":15,"componentType":5123,"count":36,"max":[23],"min":[0],"type":"SCALAR"},{"bufferView":16,"componentType":5126,"count":20,"max":[0.125,0.96875,0.0625],"min":[-0.4375,0.59375,0.0625],"type":"VEC3"},{"bufferView":17,"componentType":5126,"count":20,"max":[1,0,0],"min":[0,0,-1],"type":"VEC3"},{"bufferView":18,"componentType":5126,"count":20,"max":[0.90625,0.8125],"min":[0,0],"type":"VEC2"},{"bufferView":19,"componentType":5123,"count":30,"max":[19],"min":[0],"type":"SCALAR"},{"bufferView":20,"componentType":5126,"count":20,"max":[0.28125,-0.03125,0],"min":[-0.28125,-0.40625,0],"type":"VEC3"},{"bufferView":21,"componentType":5126,"count":20,"max":[1,0,0],"min":[0,0,-1],"type":"VEC3"},{"bufferView":22,"componentType":5126,"count":20,"max":[0.90625,0.8125],"min":[0,0],"type":"VEC2"},{"bufferView":23,"componentType":5123,"count":30,"max":[19],"min":[0],"type":"SCALAR"},{"bufferView":24,"componentType":5126,"count":24,"max":[0.0625,0.15625,0.15625],"min":[-0.0625,-0.15625,-0.15625],"type":"VEC3"},{"bufferView":25,"componentType":5126,"count":24,"max":[1,1,1],"min":[-1,-1,-1],"type":"VEC3"},{"bufferView":26,"componentType":5126,"count":24,"max":[0.71875,0.59375],"min":[0,0.4375],"type":"VEC2"},{"bufferView":27,"componentType":5123,"count":36,"max":[23],"min":[0],"type":"SCALAR"},{"bufferView":28,"componentType":5126,"count":24,"max":[0.15625,0.15625,0.8125],"min":[-0.15625,-0.15625,0.6875],"type":"VEC3"},{"bufferView":29,"componentType":5126,"count":24,"max":[1,1,1],"min":[-1,-1,-1],"type":"VEC3"},{"bufferView":30,"componentType":5126,"count":24,"max":[0.71875,0.59375],"min":[0,0.4375],"type":"VEC2"},{"bufferView":31,"componentType":5123,"count":36,"max":[23],"min":[0],"type":"SCALAR"},{"bufferView":32,"componentType":5126,"count":24,"max":[0.0625,0.15625,0.15625],"min":[-0.0625,-0.15625,-0.15625],"type":"VEC3"},{"bufferView":33,"componentType":5126,"count":24,"max":[1,1,1],"min":[-1,-1,-1],"type":"VEC3"},{"bufferView":34,"componentType":5126,"count":24,"max":[0.71875,0.59375],"min":[0,0.4375],"type":"VEC2"},{"bufferView":35,"componentType":5123,"count":36,"max":[23],"min":[0],"type":"SCALAR"},{"bufferView":36,"componentType":5126,"count":20,"max":[0,-0.03125,0.28125],"min":[0,-0.40625,-0.28125],"type":"VEC3"},{"bufferView":37,"componentType":5126,"count":20,"max":[1,0,0],"min":[-1,0,0],"type":"VEC3"},{"bufferView":38,"componentType":5126,"count":20,"max":[0.90625,0.8125],"min":[0,0],"type":"VEC2"},{"bufferView":39,"componentType":5123,"count":30,"max":[19],"min":[0],"type":"SCALAR"},{"bufferView":40,"componentType":5126,"count":20,"max":[-0.0625,0.96875,0.125],"min":[-0.0625,0.59375,-0.4375],"type":"VEC3"},{"bufferView":41,"componentType":5126,"count":20,"max":[1,0,0],"min":[-1,0,0],"type":"VEC3"},{"bufferView":42,"componentType":5126,"count":20,"max":[0.90625,0.8125],"min":[0,0],"type":"VEC2"},{"bufferView":43,"componentType":5123,"count":30,"max":[19],"min":[0],"type":"SCALAR"},{"bufferView":44,"componentType":5126,"count":20,"max":[0.4375,0.96875,0.6875],"min":[-0.125,0.59375,0.6875],"type":"VEC3"},{"bufferView":45,"componentType":5126,"count":20,"max":[1,0,0],"min":[0,0,-1],"type":"VEC3"},{"bufferView":46,"componentType":5126,"count":20,"max":[0.90625,0.8125],"min":[0,0],"type":"VEC2"},{"bufferView":47,"componentType":5123,"count":30,"max":[19],"min":[0],"type":"SCALAR"},{"bufferView":48,"componentType":5126,"count":20,"max":[0.28125,-0.03125,0.75],"min":[-0.28125,-0.40625,0.75],"type":"VEC3"},{"bufferView":49,"componentType":5126,"count":20,"max":[1,0,0],"min":[0,0,-1],"type":"VEC3"},{"bufferView":50,"componentType":5126,"count":20,"max":[0.90625,0.8125],"min":[0,0],"type":"VEC2"},{"bufferView":51,"componentType":5123,"count":30,"max":[19],"min":[0],"type":"SCALAR"},{"bufferView":52,"componentType":5126,"count":20,"max":[0.0625,0.96875,0.4375],"min":[0.0625,0.59375,-0.125],"type":"VEC3"},{"bufferView":53,"componentType":5126,"count":20,"max":[1,0,0],"min":[-1,0,0],"type":"VEC3"},{"bufferView":54,"componentType":5126,"count":20,"max":[0.9063000082969666,0.8125],"min":[0,0],"type":"VEC2"},{"bufferView":55,"componentType":5123,"count":30,"max":[19],"min":[0],"type":"SCALAR"},{"bufferView":56,"componentType":5126,"count":20,"max":[0,-0.03125,0.28125],"min":[0,-0.40625,-0.28125],"type":"VEC3"},{"bufferView":57,"componentType":5126,"count":20,"max":[1,0,0],"min":[-1,0,0],"type":"VEC3"},{"bufferView":58,"componentType":5126,"count":20,"max":[0.9063000082969666,0.8125],"min":[0,0],"type":"VEC2"},{"bufferView":59,"componentType":5123,"count":30,"max":[19],"min":[0],"type":"SCALAR"}],"materials":[{"pbrMetallicRoughness":{"metallicFactor":0,"roughnessFactor":1,"baseColorTexture":{"index":0}},"alphaMode":"MASK","alphaCutoff":0.05,"doubleSided":true},{"pbrMetallicRoughness":{"metallicFactor":0,"roughnessFactor":1,"baseColorTexture":{"index":1}},"alphaMode":"MASK","alphaCutoff":0.05,"doubleSided":true}],"textures":[{"sampler":0,"source":0,"name":"rune-egg"},{"sampler":1,"source":1,"name":"rune-egg-stuff"}],"samplers":[{"magFilter":9728,"minFilter":9728,"wrapS":33071,"wrapT":33071},{"magFilter":9728,"minFilter":9728,"wrapS":33071,"wrapT":33071}],"images":[{"mimeType":"image/png","uri":"data:image/png;base64,"},{"mimeType":"image/png","uri":"data:image/png;base64,"}],"meshes":[{"primitives":[{"mode":4,"attributes":{"POSITION":0,"NORMAL":1,"TEXCOORD_0":2},"indices":3,"material":0}]},{"primitives":[{"mode":4,"attributes":{"POSITION":4,"NORMAL":5,"TEXCOORD_0":6},"indices":7,"material":0}]},{"primitives":[{"mode":4,"attributes":{"POSITION":8,"NORMAL":9,"TEXCOORD_0":10},"indices":11,"material":0}]},{"primitives":[{"mode":4,"attributes":{"POSITION":12,"NORMAL":13,"TEXCOORD_0":14},"indices":15,"material":1}]},{"primitives":[{"mode":4,"attributes":{"POSITION":16,"NORMAL":17,"TEXCOORD_0":18},"indices":19,"material":1}]},{"primitives":[{"mode":4,"attributes":{"POSITION":20,"NORMAL":21,"TEXCOORD_0":22},"indices":23,"material":1}]},{"primitives":[{"mode":4,"attributes":{"POSITION":24,"NORMAL":25,"TEXCOORD_0":26},"indices":27,"material":1}]},{"primitives":[{"mode":4,"attributes":{"POSITION":28,"NORMAL":29,"TEXCOORD_0":30},"indices":31,"material":1}]},{"primitives":[{"mode":4,"attributes":{"POSITION":32,"NORMAL":33,"TEXCOORD_0":34},"indices":35,"material":1}]},{"primitives":[{"mode":4,"attributes":{"POSITION":36,"NORMAL":37,"TEXCOORD_0":38},"indices":39,"material":1}]},{"primitives":[{"mode":4,"attributes":{"POSITION":40,"NORMAL":41,"TEXCOORD_0":42},"indices":43,"material":1}]},{"primitives":[{"mode":4,"attributes":{"POSITION":44,"NORMAL":45,"TEXCOORD_0":46},"indices":47,"material":1}]},{"primitives":[{"mode":4,"attributes":{"POSITION":48,"NORMAL":49,"TEXCOORD_0":50},"indices":51,"material":1}]},{"primitives":[{"mode":4,"attributes":{"POSITION":52,"NORMAL":53,"TEXCOORD_0":54},"indices":55,"material":1}]},{"primitives":[{"mode":4,"attributes":{"POSITION":56,"NORMAL":57,"TEXCOORD_0":58},"indices":59,"material":1}]}]}