{"asset":{"version":"2.0","generator":"Blockbench 5.0.7 glTF exporter"},"scenes":[{"nodes":[22],"name":"blockbench_export"}],"scene":0,"nodes":[{"translation":[-0.0625,0,0.34375],"name":"cube","mesh":0},{"translation":[-0.0625,0,0.34375],"name":"cube","mesh":1},{"rotation":[0,0,-0.13052619222005157,0.9914448613738104],"translation":[-0.3125,0.125,-0.40625],"name":"cube","mesh":2},{"rotation":[0,0,-0.13052619222005157,0.9914448613738104],"translation":[-0.3125,0.125,-0.40625],"name":"cube","mesh":3},{"rotation":[0,0,-0.13052619222005157,0.9914448613738104],"translation":[-0.3125,0.125,-0.40625],"name":"cube","mesh":4},{"translation":[0.0625,0,0.34375],"name":"cube","mesh":5},{"rotation":[0,0,0.13052619222005157,0.9914448613738104],"translation":[0.3125,0.125,-0.40625],"name":"cube","mesh":6},{"rotation":[0,0,0.13052619222005157,0.9914448613738104],"translation":[0.3125,0.125,0.40625],"name":"cube","mesh":7},{"translation":[0.0625,0,-0.34375],"name":"cube","mesh":8},{"rotation":[0,0,-0.13052619222005157,0.9914448613738104],"translation":[-0.3125,0.125,0.40625],"name":"cube","mesh":9},{"rotation":[0,0,-0.13052619222005157,0.9914448613738104],"translation":[-0.3125,0.125,0.40625],"name":"cube","mesh":10},{"rotation":[0,0,-0.13052619222005157,0.9914448613738104],"translation":[-0.3125,0.125,0.40625],"name":"cube","mesh":11},{"translation":[-0.0625,0,-0.34375],"name":"cube","mesh":12},{"translation":[-0.0625,0,-0.34375],"name":"cube","mesh":13},{"rotation":[0,0,0.13052619222005157,0.9914448613738104],"translation":[0.3125,0.125,0.40625],"name":"cube","mesh":14},{"rotation":[0,0,0.13052619222005157,0.9914448613738104],"translation":[0.3125,0.125,0.40625],"name":"cube","mesh":15},{"rotation":[0,0,0.13052619222005157,0.9914448613738104],"translation":[0.3125,0.125,-0.40625],"name":"cube","mesh":16},{"rotation":[0,0,0.13052619222005157,0.9914448613738104],"translation":[0.3125,0.125,-0.40625],"name":"cube","mesh":17},{"translation":[0,0.00625,0],"name":"group2","children":[0,1,2,3,4,5,6,7,8,9,10,11,12,13,14,15,16,17]},{"translation":[0,0.625,0],"name":"cube","mesh":18},{"translation":[0,0.125,0],"name":"cube","mesh":19},{"name":"cube","mesh":20},{"name":"group","children":[18,19,20,21]}],"bufferViews":[{"buffer":0,"byteOffset":0,"byteLength":288,"target":34962,"byteStride":12},{"buffer":0,"byteOffset":288,"byteLength":288,"target":34962,"byteStride":12},{"buffer":0,"byteOffset":576,"byteLength":192,"target":34962,"byteStride":8},{"buffer":0,"byteOffset":768,"byteLength":72,"target":34963},{"buffer":0,"byteOffset":840,"byteLength":288,"target":34962,"byteStride":12},{"buffer":0,"byteOffset":1128,"byteLength":288,"target":34962,"byteStride":12},{"buffer":0,"byteOffset":1416,"byteLength":192,"target":34962,"byteStride":8},{"buffer":0,"byteOffset":1608,"byteLength":72,"target":34963},{"buffer":0,"byteOffset":1680,"byteLength":288,"target":34962,"byteStride":12},{"buffer":0,"byteOffset":1968,"byteLength":288,"target":34962,"byteStride":12},{"buffer":0,"byteOffset":2256,"byteLength":192,"target":34962,"byteStride":8},{"buffer":0,"byteOffset":2448,"byteLength":72,"target":34963},{"buffer":0,"byteOffset":2520,"byteLength":480,"target":34962,"byteStride":12},{"buffer":0,"byteOffset":3000,"byteLength":480,"target":34962,"byteStride":12},{"buffer":0,"byteOffset":3480,"byteLength":320,"target":34962,"byteStride":8},{"buffer":0,"byteOffset":3800,"byteLength":120,"target":34963},{"buffer":0,"byteOffset":3920,"byteLength":216,"target":34962,"byteStride":12},{"buffer":0,"byteOffset":4136,"byteLength":216,"target":34962,"byteStride":12},{"buffer":0,"byteOffset":4352,"byteLength":144,"target":34962,"byteStride":8},{"buffer":0,"byteOffset":4496,"byteLength":48,"target":34963},{"buffer":0,"byteOffset":4544,"byteLength":288,"target":34962,"byteStride":12},{"buffer":0,"byteOffset":4832,"byteLength":288,"target":34962,"byteStride":12},{"buffer":0,"byteOffset":5120,"byteLength":192,"target":34962,"byteStride":8},{"buffer":0,"byteOffset":5312,"byteLength":72,"target":34963},{"buffer":0,"byteOffset":5384,"byteLength":288,"target":34962,"byteStride":12},{"buffer":0,"byteOffset":5672,"byteLength":288,"target":34962,"byteStride":12},{"buffer":0,"byteOffset":5960,"byteLength":192,"target":34962,"byteStride":8},{"buffer":0,"byteOffset":6152,"byteLength":72,"target":34963},{"buffer":0,"byteOffset":6224,"byteLength":288,"target":34962,"byteStride":12},{"buffer":0,"byteOffset":6512,"byteLength":288,"target":34962,"byteStride":12},{"buffer":0,"byteOffset":6800,"byteLength":192,"target":34962,"byteStride":8},{"buffer":0,"byteOffset":6992,"byteLength":72,"target":34963},{"buffer":0,"byteOffset":7064,"byteLength":288,"target":34962,"byteStride":12},{"buffer":0,"byteOffset":7352,"byteLength":288,"target":34962,"byteStride":12},{"buffer":0,"byteOffset":7640,"byteLength":192,"target":34962,"byteStride":8},{"buffer":0,"byteOffset":7832,"byteLength":72,"target":34963},{"buffer":0,"byteOffset":7904,"byteLength":216,"target":34962,"byteStride":12},{"buffer":0,"byteOffset":8120,"byteLength":216,"target":34962,"byteStride":12},{"buffer":0,"byteOffset":8336,"byteLength":144,"target":34962,"byteStride":8},{"buffer":0,"byteOffset":8480,"byteLength":48,"target":34963},{"buffer":0,"byteOffset":8528,"byteLength":480,"target":34962,"byteStride":12},{"buffer":0,"byteOffset":9008,"byteLength":480,"target":34962,"byteStride":12},{"buffer":0,"byteOffset":9488,"byteLength":320,"target":34962,"byteStride":8},{"buffer":0,"byteOffset":9808,"byteLength":120,"target":34963},{"buffer":0,"byteOffset":9928,"byteLength":288,"target":34962,"byteStride":12},{"buffer":0,"byteOffset":10216,"byteLength":288,"target":34962,"byteStride":12},{"buffer":0,"byteOffset":10504,"byteLength":192,"target":34962,"byteStride":8},{"buffer":0,"byteOffset":10696,"byteLength":72,"target":34963},{"buffer":0,"byteOffset":10768,"byteLength":288,"target":34962,"byteStride":12},{"buffer":0,"byteOffset":11056,"byteLength":288,"target":34962,"byteStride":12},{"buffer":0,"byteOffset":11344,"byteLength":192,"target":34962,"byteStride":8},{"buffer":0,"byteOffset":11536,"byteLength":72,"target":34963},{"buffer":0,"byteOffset":11608,"byteLength":288,"target":34962,"byteStride":12},{"buffer":0,"byteOffset":11896,"byteLength":288,"target":34962,"byteStride":12},{"buffer":0,"byteOffset":12184,"byteLength":192,"target":34962,"byteStride":8},{"buffer":0,"byteOffset":12376,"byteLength":72,"target":34963},{"buffer":0,"byteOffset":12448,"byteLength":216,"target":34962,"byteStride":12},{"buffer":0,"byteOffset":12664,"byteLength":216,"target":34962,"byteStride":12},{"buffer":0,"byteOffset":12880,"byteLength":144,"target":34962,"byteStride":8},{"buffer":0,"byteOffset":13024,"byteLength":48,"target":34963},{"buffer":0,"byteOffset":13072,"byteLength":480,"target":34962,"byteStride":12},{"buffer":0,"byteOffset":13552,"byteLength":480,"target":34962,"byteStride":12},{"buffer":0,"byteOffset":14032,"byteLength":320,"target":34962,"byteStride":8},{"buffer":0,"byteOffset":14352,"byteLength":120,"target":34963},{"buffer":0,"byteOffset":14472,"byteLength":216,"target":34962,"byteStride":12},{"buffer":0,"byteOffset":14688,"byteLength":216,"target":34962,"byteStride":12},{"buffer":0,"byteOffset":14904,"byteLength":144,"target":34962,"byteStride":8},{"buffer":0,"byteOffset":15048,"byteLength":48,"target":34963},{"buffer":0,"byteOffset":15096,"byteLength":480,"target":34962,"byteStride":12},{"buffer":0,"byteOffset":15576,"byteLength":480,"target":34962,"byteStride":12},{"buffer":0,"byteOffset":16056,"byteLength":320,"target":34962,"byteStride":8},{"buffer":0,"byteOffset":16376,"byteLength":120,"target":34963},{"buffer":0,"byteOffset":16496,"byteLength":768,"target":34962,"byteStride":12},{"buffer":0,"byteOffset":17264,"byteLength":768,"target":34962,"byteStride":12},{"buffer":0,"byteOffset":18032,"byteLength":512,"target":34962,"byteStride":8},{"buffer":0,"byteOffset":18544,"byteLength":192,"target":34963},{"buffer":0,"byteOffset":18736,"byteLength":480,"target":34962,"byteStride":12},{"buffer":0,"byteOffset":19216,"byteLength":480,"target":34962,"byteStride":12},{"buffer":0,"byteOffset":19696,"byteLength":320,"target":34962,"byteStride":8},{"buffer":0,"byteOffset":20016,"byteLength":120,"target":34963},{"buffer":0,"byteOffset":20136,"byteLength":288,"target":34962,"byteStride":12},{"buffer":0,"byteOffset":20424,"byteLength":288,"target":34962,"byteStride":12},{"buffer":0,"byteOffset":20712,"byteLength":192,"target":34962,"byteStride":8},{"buffer":0,"byteOffset":20904,"byteLength":72,"target":34963}],"buffers":[{"byteLength":20976,"uri":"data:application/octet-stream;base64,"}],"accessors":[{"bufferView":0,"componentType":5126,"count":24,"max":[0.125,0.1875,-0.6875],"min":[0,5.204170427930421e-18,-0.8125],"type":"VEC3"},{"bufferView":1,"componentType":5126,"count":24,"max":[1,1,1],"min":[-1,-1,-1],"type":"VEC3"},{"bufferView":2,"componentType":5126,"count":24,"max":[0.625,0.625],"min":[0.1875,0],"type":"VEC2"},{"bufferView":3,"componentType":5123,"count":36,"max":[23],"min":[0],"type":"SCALAR"},{"bufferView":4,"componentType":5126,"count":24,"max":[0,0.25,-0.6875],"min":[-0.125,-8.673617379884035e-18,-0.875],"type":"VEC3"},{"bufferView":5,"componentType":5126,"count":24,"max":[1,1,1],"min":[-1,-1,-1],"type":"VEC3"},{"bufferView":6,"componentType":5126,"count":24,"max":[0.40625,0.625],"min":[0,0.21875],"type":"VEC2"},{"bufferView":7,"componentType":5123,"count":36,"max":[23],"min":[0],"type":"SCALAR"},{"bufferView":8,"componentType":5126,"count":24,"max":[0.15625,0.125,0.078125],"min":[-0.03125,-0.0625,-0.078125],"type":"VEC3"},{"bufferView":9,"componentType":5126,"count":24,"max":[1,1,1],"min":[-1,-1,-1],"type":"VEC3"},{"bufferView":10,"componentType":5126,"count":24,"max":[0.53125,0.515625],"min":[0,0],"type":"VEC2"},{"bufferView":11,"componentType":5123,"count":36,"max":[23],"min":[0],"type":"SCALAR"},{"bufferView":12,"componentType":5126,"count":40,"max":[-0.03125,0.3125,0.078125],"min":[-0.15625,-0.0625,-0.078125],"type":"VEC3"},{"bufferView":13,"componentType":5126,"count":40,"max":[1,1,1],"min":[-1,-1,-1],"type":"VEC3"},{"bufferView":14,"componentType":5126,"count":40,"max":[0.40625,0.65625],"min":[0,0],"type":"VEC2"},{"bufferView":15,"componentType":5123,"count":60,"max":[39],"min":[0],"type":"SCALAR"},{"bufferView":16,"componentType":5126,"count":18,"max":[-0.15625,0.3125,0.078125],"min":[-0.28125,0.25,-0.078125],"type":"VEC3"},{"bufferView":17,"componentType":5126,"count":18,"max":[1,1,1],"min":[-0.4472135901451111,-0.8944271802902222,-1],"type":"VEC3"},{"bufferView":18,"componentType":5126,"count":18,"max":[0.65625,0.46875],"min":[0.5625,0],"type":"VEC2"},{"bufferView":19,"componentType":5123,"count":24,"max":[17],"min":[0],"type":"SCALAR"},{"bufferView":20,"componentType":5126,"count":24,"max":[0.125,0.25,-0.6875],"min":[0,-8.673617379884035e-18,-0.875],"type":"VEC3"},{"bufferView":21,"componentType":5126,"count":24,"max":[1,1,1],"min":[-1,-1,-1],"type":"VEC3"},{"bufferView":22,"componentType":5126,"count":24,"max":[0.40625,0.625],"min":[0,0.21875],"type":"VEC2"},{"bufferView":23,"componentType":5123,"count":36,"max":[23],"min":[0],"type":"SCALAR"},{"bufferView":24,"componentType":5126,"count":24,"max":[0.03125,0.125,0.078125],"min":[-0.15625,-0.0625,-0.078125],"type":"VEC3"},{"bufferView":25,"componentType":5126,"count":24,"max":[1,1,1],"min":[-1,-1,-1],"type":"VEC3"},{"bufferView":26,"componentType":5126,"count":24,"max":[0.53125,0.515625],"min":[0,0],"type":"VEC2"},{"bufferView":27,"componentType":5123,"count":36,"max":[23],"min":[0],"type":"SCALAR"},{"bufferView":28,"componentType":5126,"count":24,"max":[0.03125,0.125,0.078125],"min":[-0.15625,-0.0625,-0.078125],"type":"VEC3"},{"bufferView":29,"componentType":5126,"count":24,"max":[1,1,1],"min":[-1,-1,-1],"type":"VEC3"},{"bufferView":30,"componentType":5126,"count":24,"max":[0.53125,0.515625],"min":[0,0],"type":"VEC2"},{"bufferView":31,"componentType":5123,"count":36,"max":[23],"min":[0],"type":"SCALAR"},{"bufferView":32,"componentType":5126,"count":24,"max":[0.125,0.25,0.875],"min":[0,-8.673617379884035e-18,0.6875],"type":"VEC3"},{"bufferView":33,"componentType":5126,"count":24,"max":[1,1,1],"min":[-1,-1,-1],"type":"VEC3"},{"bufferView":34,"componentType":5126,"count":24,"max":[0.40625,0.625],"min":[0,0.21875],"type":"VEC2"},{"bufferView":35,"componentType":5123,"count":36,"max":[23],"min":[0],"type":"SCALAR"},{"bufferView":36,"componentType":5126,"count":18,"max":[-0.15625,0.3125,0.078125],"min":[-0.28125,0.25,-0.078125],"type":"VEC3"},{"bufferView":37,"componentType":5126,"count":18,"max":[1,1,1],"min":[-0.4472135901451111,-0.8944271802902222,-1],"type":"VEC3"},{"bufferView":38,"componentType":5126,"count":18,"max":[0.65625,0.46875],"min":[0.5625,0],"type":"VEC2"},{"bufferView":39,"componentType":5123,"count":24,"max":[17],"min":[0],"type":"SCALAR"},{"bufferView":40,"componentType":5126,"count":40,"max":[-0.03125,0.3125,0.078125],"min":[-0.15625,-0.0625,-0.078125],"type":"VEC3"},{"bufferView":41,"componentType":5126,"count":40,"max":[1,1,1],"min":[-1,-1,-1],"type":"VEC3"},{"bufferView":42,"componentType":5126,"count":40,"max":[0.40625,0.65625],"min":[0,0],"type":"VEC2"},{"bufferView":43,"componentType":5123,"count":60,"max":[39],"min":[0],"type":"SCALAR"},{"bufferView":44,"componentType":5126,"count":24,"max":[0.15625,0.125,0.078125],"min":[-0.03125,-0.0625,-0.078125],"type":"VEC3"},{"bufferView":45,"componentType":5126,"count":24,"max":[1,1,1],"min":[-1,-1,-1],"type":"VEC3"},{"bufferView":46,"componentType":5126,"count":24,"max":[0.53125,0.515625],"min":[0,0],"type":"VEC2"},{"bufferView":47,"componentType":5123,"count":36,"max":[23],"min":[0],"type":"SCALAR"},{"bufferView":48,"componentType":5126,"count":24,"max":[0,0.25,0.875],"min":[-0.125,-8.673617379884035e-18,0.6875],"type":"VEC3"},{"bufferView":49,"componentType":5126,"count":24,"max":[1,1,1],"min":[-1,-1,-1],"type":"VEC3"},{"bufferView":50,"componentType":5126,"count":24,"max":[0.40625,0.625],"min":[0,0.21875],"type":"VEC2"},{"bufferView":51,"componentType":5123,"count":36,"max":[23],"min":[0],"type":"SCALAR"},{"bufferView":52,"componentType":5126,"count":24,"max":[0.125,0.1875,0.8125],"min":[0,5.204170427930421e-18,0.6875],"type":"VEC3"},{"bufferView":53,"componentType":5126,"count":24,"max":[1,1,1],"min":[-1,-1,-1],"type":"VEC3"},{"bufferView":54,"componentType":5126,"count":24,"max":[0.625,0.625],"min":[0.1875,0],"type":"VEC2"},{"bufferView":55,"componentType":5123,"count":36,"max":[23],"min":[0],"type":"SCALAR"},{"bufferView":56,"componentType":5126,"count":18,"max":[0.28125,0.3125,0.078125],"min":[0.15625,0.25,-0.078125],"type":"VEC3"},{"bufferView":57,"componentType":5126,"count":18,"max":[0.4472135901451111,1,1],"min":[-1,-0.8944271802902222,-1],"type":"VEC3"},{"bufferView":58,"componentType":5126,"count":18,"max":[0.65625,0.46875],"min":[0.5625,0],"type":"VEC2"},{"bufferView":59,"componentType":5123,"count":24,"max":[17],"min":[0],"type":"SCALAR"},{"bufferView":60,"componentType":5126,"count":40,"max":[0.15625,0.3125,0.078125],"min":[0.03125,-0.0625,-0.078125],"type":"VEC3"},{"bufferView":61,"componentType":5126,"count":40,"max":[1,1,1],"min":[-1,-1,-1],"type":"VEC3"},{"bufferView":62,"componentType":5126,"count":40,"max":[0.40625,0.65625],"min":[0,0],"type":"VEC2"},{"bufferView":63,"componentType":5123,"count":60,"max":[39],"min":[0],"type":"SCALAR"},{"bufferView":64,"componentType":5126,"count":18,"max":[0.28125,0.3125,0.078125],"min":[0.15625,0.25,-0.078125],"type":"VEC3"},{"bufferView":65,"componentType":5126,"count":18,"max":[0.4472135901451111,1,1],"min":[-1,-0.8944271802902222,-1],"type":"VEC3"},{"bufferView":66,"componentType":5126,"count":18,"max":[0.65625,0.46875],"min":[0.5625,0],"type":"VEC2"},{"bufferView":67,"componentType":5123,"count":24,"max":[17],"min":[0],"type":"SCALAR"},{"bufferView":68,"componentType":5126,"count":40,"max":[0.15625,0.3125,0.078125],"min":[0.03125,-0.0625,-0.078125],"type":"VEC3"},{"bufferView":69,"componentType":5126,"count":40,"max":[1,1,1],"min":[-1,-1,-1],"type":"VEC3"},{"bufferView":70,"componentType":5126,"count":40,"max":[0.40625,0.65625],"min":[0,0],"type":"VEC2"},{"bufferView":71,"componentType":5123,"count":60,"max":[39],"min":[0],"type":"SCALAR"},{"bufferView":72,"componentType":5126,"count":64,"max":[0.3125,0.25,0.3125],"min":[-0.3125,0,-0.3125],"type":"VEC3"},{"bufferView":73,"componentType":5126,"count":64,"max":[1,1,1],"min":[-1,-1,-1],"type":"VEC3"},{"bufferView":74,"componentType":5126,"count":64,"max":[0.687261700630188,0.609375],"min":[0.0002382812526775524,0.1875],"type":"VEC2"},{"bufferView":75,"componentType":5123,"count":96,"max":[63],"min":[0],"type":"SCALAR"},{"bufferView":76,"componentType":5126,"count":40,"max":[0.375,0.5,0.375],"min":[-0.375,0,-0.375],"type":"VEC3"},{"bufferView":77,"componentType":5126,"count":40,"max":[0.9980525970458984,1,0.9980525970458984],"min":[-0.9980525970458984,-1,-0.9980525970458984],"type":"VEC3"},{"bufferView":78,"componentType":5126,"count":40,"max":[0.71875,0.6640625],"min":[0,0],"type":"VEC2"},{"bufferView":79,"componentType":5123,"count":60,"max":[39],"min":[0],"type":"SCALAR"},{"bufferView":80,"componentType":5126,"count":24,"max":[0.34375,0.125,0.34375],"min":[-0.34375,0,-0.34375],"type":"VEC3"},{"bufferView":81,"componentType":5126,"count":24,"max":[0.9701424837112427,1,0.9701424837112427],"min":[-0.9701424837112427,-1,-0.9701424837112427],"type":"VEC3"},{"bufferView":82,"componentType":5126,"count":24,"max":[0.765625,0.59375],"min":[0.1875,0],"type":"VEC2"},{"bufferView":83,"componentType":5123,"count":36,"max":[23],"min":[0],"type":"SCALAR"}],"materials":[{"pbrMetallicRoughness":{"metallicFactor":0,"roughnessFactor":1,"baseColorTexture":{"index":0}},"alphaMode":"MASK","alphaCutoff":0.05,"doubleSided":true},{"pbrMetallicRoughness":{"metallicFactor":0,"roughnessFactor":1,"baseColorTexture":{"index":1}},"alphaMode":"MASK","alphaCutoff":0.05,"doubleSided":true}],"textures":[{"sampler":0,"source":0,"name":"taurian-egg-stuff"},{"sampler":1,"source":1,"name":"taurian-egg"}],"samplers":[{"magFilter":9728,"minFilter":9728,"wrapS":33071,"wrapT":33071},{"magFilter":9728,"minFilter":9728,"wrapS":33071,"wrapT":33071}],"images":[{"mimeType":"image/png","uri":"data:image/png;base64,"},{"mimeType":"image/png","uri":"data:image/png;base64,"}],"meshes":[{"primitives":[{"mode":4,"attributes":{"POSITION":0,"NORMAL":1,"TEXCOORD_0":2},"indices":3,"material":0}]},{"primitives":[{"mode":4,"attributes":{"POSITION":4,"NORMAL":5,"TEXCOORD_0":6},"indices":7,"material":0}]},{"primitives":[{"mode":4,"attributes":{"POSITION":8,"NORMAL":9,"TEXCOORD_0":10},"indices":11,"material":0}]},{"primitives":[{"mode":4,"attributes":{"POSITION":12,"NORMAL":13,"TEXCOORD_0":14},"indices":15,"material":0}]},{"primitives":[{"mode":4,"attributes":{"POSITION":16,"NORMAL":17,"TEXCOORD_0":18},"indices":19,"material":0}]},{"primitives":[{"mode":4,"attributes":{"POSITION":20,"NORMAL":21,"TEXCOORD_0":22},"indices":23,"material":0}]},{"primitives":[{"mode":4,"attributes":{"POSITION":24,"NORMAL":25,"TEXCOORD_0":26},"indices":27,"material":0}]},{"primitives":[{"mode":4,"attributes":{"POSITION":28,"NORMAL":29,"TEXCOORD_0":30},"indices":31,"material":0}]},{"primitives":[{"mode":4,"attributes":{"POSITION":32,"NORMAL":33,"TEXCOORD_0":34},"indices":35,"material":0}]},{"primitives":[{"mode":4,"attributes":{"POSITION":36,"NORMAL":37,"TEXCOORD_0":38},"indices":39,"material":0}]},{"primitives":[{"mode":4,"attributes":{"POSITION":40,"NORMAL":41,"TEXCOORD_0":42},"indices":43,"material":0}]},{"primitives":[{"mode":4,"attributes":{"POSITION":44,"NORMAL":45,"TEXCOORD_0":46},"indices":47,"material":0}]},{"primitives":[{"mode":4,"attributes":{"POSITION":48,"NORMAL":49,"TEXCOORD_0":50},"indices":51,"material":0}]},{"primitives":[{"mode":4,"attributes":{"POSITION":52,"NORMAL":53,"TEXCOORD_0":54},"indices":55,"material":0}]},{"primitives":[{"mode":4,"attributes":{"POSITION":56,"NORMAL":57,"TEXCOORD_0":58},"indices":59,"material":0}]},{"primitives":[{"mode":4,"attributes":{"POSITION":60,"NORMAL":61,"TEXCOORD_0":62},"indices":63,"material":0}]},{"primitives":[{"mode":4,"attributes":{"POSITION":64,"NORMAL":65,"TEXCOORD_0":66},"indices":67,"material":0}]},{"primitives":[{"mode":4,"attributes":{"POSITION":68,"NORMAL":69,"TEXCOORD_0":70},"indices":71,"material":0}]},{"primitives":[{"mode":4,"attributes":{"POSITION":72,"NORMAL":73,"TEXCOORD_0":74},"indices":75,"material":1}]},{"primitives":[{"mode":4,"attributes":{"POSITION":76,"NORMAL":77,"TEXCOORD_0":78},"indices":79,"material":1}]},{"primitives":[{"mode":4,"attributes":{"POSITION":80,"NORMAL":81,"TEXCOORD_0":82},"indices":83,"material":1}]}]}