{"asset":{"version":"2.0","generator":"Blockbench 5.0.7 glTF exporter"},"scenes":[{"nodes":[24],"name":"blockbench_export"}],"scene":0,"nodes":[{"translation":[0,0.625,0],"name":"cube","mesh":0},{"translation":[0,0.125,0],"name":"cube","mesh":1},{"name":"cube","mesh":2},{"name":"cube","mesh":3},{"rotation":[0.10677504808749178,0.19393076609539744,-0.02123888775035823,0.9749558229554268],"translation":[-0.32121875,0.492658125,-0.333121875],"name":"cube","mesh":4},{"rotation":[0.12854324011819698,-0.17216261820227569,0.022665622568813607,0.9763825776135199],"translation":[0.25,0.625,-0.390625],"name":"cube","mesh":5},{"rotation":[-0.03328327251361809,0.025342053068450096,0.09259237260686032,0.9948249376910958],"translation":[-0.20399875,0.14012625,-0.3081975],"name":"cube","mesh":6},{"rotation":[0.06643566065084426,0.06352136111611242,-0.29259594482560236,0.951808254191702],"translation":[-0.04895125,0.716440625,-0.288261875],"name":"cube","mesh":7},{"rotation":[0.03328327251361809,-0.025342053068450096,0.09259237260686032,0.9948249376910958],"translation":[-0.20399875,0.14012625,0.3081975],"name":"cube","mesh":8},{"rotation":[-0.10677504808749178,-0.19393076609539744,-0.02123888775035823,0.9749558229554268],"translation":[-0.32121875,0.492658125,0.333121875],"name":"cube","mesh":9},{"rotation":[-0.06643566065084426,-0.06352136111611242,-0.29259594482560236,0.951808254191702],"translation":[-0.04895125,0.716440625,0.288261875],"name":"cube","mesh":10},{"rotation":[-0.12854324011819698,0.17216261820227569,0.022665622568813607,0.9763825776135199],"translation":[0.25,0.625,0.390625],"name":"cube","mesh":11},{"name":"cube","mesh":12},{"name":"cube","mesh":13},{"name":"cube","mesh":14},{"rotation":[0.29905467453064216,0.014616835765724652,0.09074694725639827,0.9497987372686985],"translation":[0.288261875,0.716440625,-0.04895125],"name":"cube","mesh":15},{"rotation":[0.29905467453064216,-0.014616835765724652,-0.09074694725639827,0.9497987372686985],"translation":[-0.288261875,0.716440625,-0.04895125],"name":"cube","mesh":16},{"rotation":[-0.09415769522262457,0.01870549515664147,-0.03741791461165051,0.9946780044554235],"translation":[0.3081975,0.14012625,-0.20399875],"name":"cube","mesh":17},{"rotation":[0.09415769522262457,-0.01870549515664147,-0.03741791461165051,0.9946780044554235],"translation":[0.3081975,0.14012625,0.20399875],"name":"cube","mesh":18},{"rotation":[0.09415769522262457,0.01870549515664147,0.03741791461165051,0.9946780044554235],"translation":[-0.3081975,0.14012625,0.20399875],"name":"cube","mesh":19},{"rotation":[-0.09415769522262457,-0.01870549515664147,0.03741791461165051,0.9946780044554235],"translation":[-0.3081975,0.14012625,-0.20399875],"name":"cube","mesh":20},{"translation":[0,0,0.0625],"name":"cube","mesh":21},{"rotation":[0.0982903831283502,0.3557078051630836,0.11255952026999683,0.9225732016090278],"translation":[-0.158345625,0.881884375,0.17064875],"name":"cube","mesh":22},{"rotation":[-0.0982903831283502,0.3557078051630836,-0.11255952026999683,0.9225732016090278],"translation":[0.158345625,0.881884375,-0.17064875],"name":"cube","mesh":23},{"name":"group","children":[0,1,2,3,4,5,6,7,8,9,10,11,12,13,14,15,16,17,18,19,20,21,22,23]}],"bufferViews":[{"buffer":0,"byteOffset":0,"byteLength":768,"target":34962,"byteStride":12},{"buffer":0,"byteOffset":768,"byteLength":768,"target":34962,"byteStride":12},{"buffer":0,"byteOffset":1536,"byteLength":512,"target":34962,"byteStride":8},{"buffer":0,"byteOffset":2048,"byteLength":192,"target":34963},{"buffer":0,"byteOffset":2240,"byteLength":480,"target":34962,"byteStride":12},{"buffer":0,"byteOffset":2720,"byteLength":480,"target":34962,"byteStride":12},{"buffer":0,"byteOffset":3200,"byteLength":320,"target":34962,"byteStride":8},{"buffer":0,"byteOffset":3520,"byteLength":120,"target":34963},{"buffer":0,"byteOffset":3640,"byteLength":288,"target":34962,"byteStride":12},{"buffer":0,"byteOffset":3928,"byteLength":288,"target":34962,"byteStride":12},{"buffer":0,"byteOffset":4216,"byteLength":192,"target":34962,"byteStride":8},{"buffer":0,"byteOffset":4408,"byteLength":72,"target":34963},{"buffer":0,"byteOffset":4480,"byteLength":768,"target":34962,"byteStride":12},{"buffer":0,"byteOffset":5248,"byteLength":768,"target":34962,"byteStride":12},{"buffer":0,"byteOffset":6016,"byteLength":512,"target":34962,"byteStride":8},{"buffer":0,"byteOffset":6528,"byteLength":192,"target":34963},{"buffer":0,"byteOffset":6720,"byteLength":768,"target":34962,"byteStride":12},{"buffer":0,"byteOffset":7488,"byteLength":768,"target":34962,"byteStride":12},{"buffer":0,"byteOffset":8256,"byteLength":512,"target":34962,"byteStride":8},{"buffer":0,"byteOffset":8768,"byteLength":192,"target":34963},{"buffer":0,"byteOffset":8960,"byteLength":768,"target":34962,"byteStride":12},{"buffer":0,"byteOffset":9728,"byteLength":768,"target":34962,"byteStride":12},{"buffer":0,"byteOffset":10496,"byteLength":512,"target":34962,"byteStride":8},{"buffer":0,"byteOffset":11008,"byteLength":192,"target":34963},{"buffer":0,"byteOffset":11200,"byteLength":768,"target":34962,"byteStride":12},{"buffer":0,"byteOffset":11968,"byteLength":768,"target":34962,"byteStride":12},{"buffer":0,"byteOffset":12736,"byteLength":512,"target":34962,"byteStride":8},{"buffer":0,"byteOffset":13248,"byteLength":192,"target":34963},{"buffer":0,"byteOffset":13440,"byteLength":768,"target":34962,"byteStride":12},{"buffer":0,"byteOffset":14208,"byteLength":768,"target":34962,"byteStride":12},{"buffer":0,"byteOffset":14976,"byteLength":512,"target":34962,"byteStride":8},{"buffer":0,"byteOffset":15488,"byteLength":192,"target":34963},{"buffer":0,"byteOffset":15680,"byteLength":768,"target":34962,"byteStride":12},{"buffer":0,"byteOffset":16448,"byteLength":768,"target":34962,"byteStride":12},{"buffer":0,"byteOffset":17216,"byteLength":512,"target":34962,"byteStride":8},{"buffer":0,"byteOffset":17728,"byteLength":192,"target":34963},{"buffer":0,"byteOffset":17920,"byteLength":768,"target":34962,"byteStride":12},{"buffer":0,"byteOffset":18688,"byteLength":768,"target":34962,"byteStride":12},{"buffer":0,"byteOffset":19456,"byteLength":512,"target":34962,"byteStride":8},{"buffer":0,"byteOffset":19968,"byteLength":192,"target":34963},{"buffer":0,"byteOffset":20160,"byteLength":768,"target":34962,"byteStride":12},{"buffer":0,"byteOffset":20928,"byteLength":768,"target":34962,"byteStride":12},{"buffer":0,"byteOffset":21696,"byteLength":512,"target":34962,"byteStride":8},{"buffer":0,"byteOffset":22208,"byteLength":192,"target":34963},{"buffer":0,"byteOffset":22400,"byteLength":768,"target":34962,"byteStride":12},{"buffer":0,"byteOffset":23168,"byteLength":768,"target":34962,"byteStride":12},{"buffer":0,"byteOffset":23936,"byteLength":512,"target":34962,"byteStride":8},{"buffer":0,"byteOffset":24448,"byteLength":192,"target":34963},{"buffer":0,"byteOffset":24640,"byteLength":768,"target":34962,"byteStride":12},{"buffer":0,"byteOffset":25408,"byteLength":768,"target":34962,"byteStride":12},{"buffer":0,"byteOffset":26176,"byteLength":512,"target":34962,"byteStride":8},{"buffer":0,"byteOffset":26688,"byteLength":192,"target":34963},{"buffer":0,"byteOffset":26880,"byteLength":768,"target":34962,"byteStride":12},{"buffer":0,"byteOffset":27648,"byteLength":768,"target":34962,"byteStride":12},{"buffer":0,"byteOffset":28416,"byteLength":512,"target":34962,"byteStride":8},{"buffer":0,"byteOffset":28928,"byteLength":192,"target":34963},{"buffer":0,"byteOffset":29120,"byteLength":768,"target":34962,"byteStride":12},{"buffer":0,"byteOffset":29888,"byteLength":768,"target":34962,"byteStride":12},{"buffer":0,"byteOffset":30656,"byteLength":512,"target":34962,"byteStride":8},{"buffer":0,"byteOffset":31168,"byteLength":192,"target":34963},{"buffer":0,"byteOffset":31360,"byteLength":768,"target":34962,"byteStride":12},{"buffer":0,"byteOffset":32128,"byteLength":768,"target":34962,"byteStride":12},{"buffer":0,"byteOffset":32896,"byteLength":512,"target":34962,"byteStride":8},{"buffer":0,"byteOffset":33408,"byteLength":192,"target":34963},{"buffer":0,"byteOffset":33600,"byteLength":768,"target":34962,"byteStride":12},{"buffer":0,"byteOffset":34368,"byteLength":768,"target":34962,"byteStride":12},{"buffer":0,"byteOffset":35136,"byteLength":512,"target":34962,"byteStride":8},{"buffer":0,"byteOffset":35648,"byteLength":192,"target":34963},{"buffer":0,"byteOffset":35840,"byteLength":768,"target":34962,"byteStride":12},{"buffer":0,"byteOffset":36608,"byteLength":768,"target":34962,"byteStride":12},{"buffer":0,"byteOffset":37376,"byteLength":512,"target":34962,"byteStride":8},{"buffer":0,"byteOffset":37888,"byteLength":192,"target":34963},{"buffer":0,"byteOffset":38080,"byteLength":768,"target":34962,"byteStride":12},{"buffer":0,"byteOffset":38848,"byteLength":768,"target":34962,"byteStride":12},{"buffer":0,"byteOffset":39616,"byteLength":512,"target":34962,"byteStride":8},{"buffer":0,"byteOffset":40128,"byteLength":192,"target":34963},{"buffer":0,"byteOffset":40320,"byteLength":768,"target":34962,"byteStride":12},{"buffer":0,"byteOffset":41088,"byteLength":768,"target":34962,"byteStride":12},{"buffer":0,"byteOffset":41856,"byteLength":512,"target":34962,"byteStride":8},{"buffer":0,"byteOffset":42368,"byteLength":192,"target":34963},{"buffer":0,"byteOffset":42560,"byteLength":768,"target":34962,"byteStride":12},{"buffer":0,"byteOffset":43328,"byteLength":768,"target":34962,"byteStride":12},{"buffer":0,"byteOffset":44096,"byteLength":512,"target":34962,"byteStride":8},{"buffer":0,"byteOffset":44608,"byteLength":192,"target":34963},{"buffer":0,"byteOffset":44800,"byteLength":768,"target":34962,"byteStride":12},{"buffer":0,"byteOffset":45568,"byteLength":768,"target":34962,"byteStride":12},{"buffer":0,"byteOffset":46336,"byteLength":512,"target":34962,"byteStride":8},{"buffer":0,"byteOffset":46848,"byteLength":192,"target":34963},{"buffer":0,"byteOffset":47040,"byteLength":768,"target":34962,"byteStride":12},{"buffer":0,"byteOffset":47808,"byteLength":768,"target":34962,"byteStride":12},{"buffer":0,"byteOffset":48576,"byteLength":512,"target":34962,"byteStride":8},{"buffer":0,"byteOffset":49088,"byteLength":192,"target":34963},{"buffer":0,"byteOffset":49280,"byteLength":768,"target":34962,"byteStride":12},{"buffer":0,"byteOffset":50048,"byteLength":768,"target":34962,"byteStride":12},{"buffer":0,"byteOffset":50816,"byteLength":512,"target":34962,"byteStride":8},{"buffer":0,"byteOffset":51328,"byteLength":192,"target":34963}],"buffers":[{"byteLength":51520,"uri":"data:application/octet-stream;base64,"}],"accessors":[{"bufferView":0,"componentType":5126,"count":64,"max":[0.3125,0.25,0.3125],"min":[-0.3125,0,-0.3125],"type":"VEC3"},{"bufferView":1,"componentType":5126,"count":64,"max":[1,1,1],"min":[-1,-1,-1],"type":"VEC3"},{"bufferView":2,"componentType":5126,"count":64,"max":[0.687261700630188,0.609375],"min":[0.0002382812526775524,0.1875],"type":"VEC2"},{"bufferView":3,"componentType":5123,"count":96,"max":[63],"min":[0],"type":"SCALAR"},{"bufferView":4,"componentType":5126,"count":40,"max":[0.375,0.5,0.375],"min":[-0.375,0,-0.375],"type":"VEC3"},{"bufferView":5,"componentType":5126,"count":40,"max":[0.9980525970458984,1,0.9980525970458984],"min":[-0.9980525970458984,-1,-0.9980525970458984],"type":"VEC3"},{"bufferView":6,"componentType":5126,"count":40,"max":[0.71875,0.6640625],"min":[0,0],"type":"VEC2"},{"bufferView":7,"componentType":5123,"count":60,"max":[39],"min":[0],"type":"SCALAR"},{"bufferView":8,"componentType":5126,"count":24,"max":[0.34375,0.125,0.34375],"min":[-0.34375,0,-0.34375],"type":"VEC3"},{"bufferView":9,"componentType":5126,"count":24,"max":[0.9701424837112427,1,0.9701424837112427],"min":[-0.9701424837112427,-1,-0.9701424837112427],"type":"VEC3"},{"bufferView":10,"componentType":5126,"count":24,"max":[0.765625,0.59375],"min":[0.1875,0],"type":"VEC2"},{"bufferView":11,"componentType":5123,"count":36,"max":[23],"min":[0],"type":"SCALAR"},{"bufferView":12,"componentType":5126,"count":64,"max":[0.125,0.5,-0.359375],"min":[-0.125,0.25,-0.421875],"type":"VEC3"},{"bufferView":13,"componentType":5126,"count":64,"max":[0.9486833214759827,0.9486833214759827,1],"min":[-0.9486833214759827,-0.9486833214759827,-1],"type":"VEC3"},{"bufferView":14,"componentType":5126,"count":64,"max":[0.5625,0.5625],"min":[0,0],"type":"VEC2"},{"bufferView":15,"componentType":5123,"count":96,"max":[63],"min":[0],"type":"SCALAR"},{"bufferView":16,"componentType":5126,"count":64,"max":[0.09375,0.1875,0.015625],"min":[-0.09375,-0.1875,-0.046875],"type":"VEC3"},{"bufferView":17,"componentType":5126,"count":64,"max":[1,0.8944271802902222,1],"min":[-1,-0.8944271802902222,-1],"type":"VEC3"},{"bufferView":18,"componentType":5126,"count":64,"max":[0.5,0.515625],"min":[0,0],"type":"VEC2"},{"bufferView":19,"componentType":5123,"count":96,"max":[63],"min":[0],"type":"SCALAR"},{"bufferView":20,"componentType":5126,"count":64,"max":[0.140625,0.03125,0.07187499850988388],"min":[-0.046875,-0.15625,0.00937500037252903],"type":"VEC3"},{"bufferView":21,"componentType":5126,"count":64,"max":[1,1,1],"min":[-1,-1,-1],"type":"VEC3"},{"bufferView":22,"componentType":5126,"count":64,"max":[0.5,0.46875],"min":[0.09375,0],"type":"VEC2"},{"bufferView":23,"componentType":5123,"count":96,"max":[63],"min":[0],"type":"SCALAR"},{"bufferView":24,"componentType":5126,"count":64,"max":[0.09375,0.09375,0],"min":[-0.09375,-0.09375,-0.0625],"type":"VEC3"},{"bufferView":25,"componentType":5126,"count":64,"max":[1,1,1],"min":[-1,-1,-1],"type":"VEC3"},{"bufferView":26,"componentType":5126,"count":64,"max":[0.5,0.46875],"min":[0.09375,0],"type":"VEC2"},{"bufferView":27,"componentType":5123,"count":96,"max":[63],"min":[0],"type":"SCALAR"},{"bufferView":28,"componentType":5126,"count":64,"max":[0.09375,0.234375,0.015625],"min":[-0.09375,-0.140625,-0.046875],"type":"VEC3"},{"bufferView":29,"componentType":5126,"count":64,"max":[1,0.8944271802902222,1],"min":[-1,-0.8944271802902222,-1],"type":"VEC3"},{"bufferView":30,"componentType":5126,"count":64,"max":[0.5,0.515625],"min":[0,0],"type":"VEC2"},{"bufferView":31,"componentType":5123,"count":96,"max":[63],"min":[0],"type":"SCALAR"},{"bufferView":32,"componentType":5126,"count":64,"max":[0.09375,0.09375,0.0625],"min":[-0.09375,-0.09375,0],"type":"VEC3"},{"bufferView":33,"componentType":5126,"count":64,"max":[1,1,1],"min":[-1,-1,-1],"type":"VEC3"},{"bufferView":34,"componentType":5126,"count":64,"max":[0.5,0.46875],"min":[0.09375,0],"type":"VEC2"},{"bufferView":35,"componentType":5123,"count":96,"max":[63],"min":[0],"type":"SCALAR"},{"bufferView":36,"componentType":5126,"count":64,"max":[0.09375,0.1875,0.046875],"min":[-0.09375,-0.1875,-0.015625],"type":"VEC3"},{"bufferView":37,"componentType":5126,"count":64,"max":[1,0.8944271802902222,1],"min":[-1,-0.8944271802902222,-1],"type":"VEC3"},{"bufferView":38,"componentType":5126,"count":64,"max":[0.5,0.515625],"min":[0,0],"type":"VEC2"},{"bufferView":39,"componentType":5123,"count":96,"max":[63],"min":[0],"type":"SCALAR"},{"bufferView":40,"componentType":5126,"count":64,"max":[0.09375,0.234375,0.046875],"min":[-0.09375,-0.140625,-0.015625],"type":"VEC3"},{"bufferView":41,"componentType":5126,"count":64,"max":[1,0.8944271802902222,1],"min":[-1,-0.8944271802902222,-1],"type":"VEC3"},{"bufferView":42,"componentType":5126,"count":64,"max":[0.5,0.515625],"min":[0,0],"type":"VEC2"},{"bufferView":43,"componentType":5123,"count":96,"max":[63],"min":[0],"type":"SCALAR"},{"bufferView":44,"componentType":5126,"count":64,"max":[0.140625,0.03125,-0.00937500037252903],"min":[-0.046875,-0.15625,-0.07187499850988388],"type":"VEC3"},{"bufferView":45,"componentType":5126,"count":64,"max":[1,1,1],"min":[-1,-1,-1],"type":"VEC3"},{"bufferView":46,"componentType":5126,"count":64,"max":[0.5,0.46875],"min":[0.09375,0],"type":"VEC2"},{"bufferView":47,"componentType":5123,"count":96,"max":[63],"min":[0],"type":"SCALAR"},{"bufferView":48,"componentType":5126,"count":64,"max":[0.125,0.5,0.421875],"min":[-0.125,0.25,0.359375],"type":"VEC3"},{"bufferView":49,"componentType":5126,"count":64,"max":[0.9486833214759827,0.9486833214759827,1],"min":[-0.9486833214759827,-0.9486833214759827,-1],"type":"VEC3"},{"bufferView":50,"componentType":5126,"count":64,"max":[0.5625,0.5625],"min":[0,0],"type":"VEC2"},{"bufferView":51,"componentType":5123,"count":96,"max":[63],"min":[0],"type":"SCALAR"},{"bufferView":52,"componentType":5126,"count":64,"max":[-0.359375,0.5,0.125],"min":[-0.421875,0.25,-0.125],"type":"VEC3"},{"bufferView":53,"componentType":5126,"count":64,"max":[1,0.9486833214759827,0.9486833214759827],"min":[-1,-0.9486833214759827,-0.9486833214759827],"type":"VEC3"},{"bufferView":54,"componentType":5126,"count":64,"max":[0.5625,0.5625],"min":[0,0],"type":"VEC2"},{"bufferView":55,"componentType":5123,"count":96,"max":[63],"min":[0],"type":"SCALAR"},{"bufferView":56,"componentType":5126,"count":64,"max":[0.421875,0.5,0.125],"min":[0.359375,0.25,-0.125],"type":"VEC3"},{"bufferView":57,"componentType":5126,"count":64,"max":[1,0.9486833214759827,0.9486833214759827],"min":[-1,-0.9486833214759827,-0.9486833214759827],"type":"VEC3"},{"bufferView":58,"componentType":5126,"count":64,"max":[0.5625,0.5625],"min":[0,0],"type":"VEC2"},{"bufferView":59,"componentType":5123,"count":96,"max":[63],"min":[0],"type":"SCALAR"},{"bufferView":60,"componentType":5126,"count":64,"max":[0.0625,0.234375,0.09375],"min":[0,-0.140625,-0.09375],"type":"VEC3"},{"bufferView":61,"componentType":5126,"count":64,"max":[1,0.8944271802902222,1],"min":[-1,-0.8944271802902222,-1],"type":"VEC3"},{"bufferView":62,"componentType":5126,"count":64,"max":[0.5,0.515625],"min":[0,0],"type":"VEC2"},{"bufferView":63,"componentType":5123,"count":96,"max":[63],"min":[0],"type":"SCALAR"},{"bufferView":64,"componentType":5126,"count":64,"max":[0,0.234375,0.09375],"min":[-0.0625,-0.140625,-0.09375],"type":"VEC3"},{"bufferView":65,"componentType":5126,"count":64,"max":[1,0.8944271802902222,1],"min":[-1,-0.8944271802902222,-1],"type":"VEC3"},{"bufferView":66,"componentType":5126,"count":64,"max":[0.5,0.515625],"min":[0,0],"type":"VEC2"},{"bufferView":67,"componentType":5123,"count":96,"max":[63],"min":[0],"type":"SCALAR"},{"bufferView":68,"componentType":5126,"count":64,"max":[0.0625,0.09375,0.09375],"min":[0,-0.09375,-0.09375],"type":"VEC3"},{"bufferView":69,"componentType":5126,"count":64,"max":[1,1,1],"min":[-1,-1,-1],"type":"VEC3"},{"bufferView":70,"componentType":5126,"count":64,"max":[0.5,0.46875],"min":[0.09375,0],"type":"VEC2"},{"bufferView":71,"componentType":5123,"count":96,"max":[63],"min":[0],"type":"SCALAR"},{"bufferView":72,"componentType":5126,"count":64,"max":[0.0625,0.28125,0.09375],"min":[0,0.09375,-0.09375],"type":"VEC3"},{"bufferView":73,"componentType":5126,"count":64,"max":[1,1,1],"min":[-1,-1,-1],"type":"VEC3"},{"bufferView":74,"componentType":5126,"count":64,"max":[0.5,0.46875],"min":[0.09375,0],"type":"VEC2"},{"bufferView":75,"componentType":5123,"count":96,"max":[63],"min":[0],"type":"SCALAR"},{"bufferView":76,"componentType":5126,"count":64,"max":[0,0.28125,0.09375],"min":[-0.0625,0.09375,-0.09375],"type":"VEC3"},{"bufferView":77,"componentType":5126,"count":64,"max":[1,1,1],"min":[-1,-1,-1],"type":"VEC3"},{"bufferView":78,"componentType":5126,"count":64,"max":[0.5,0.46875],"min":[0.09375,0],"type":"VEC2"},{"bufferView":79,"componentType":5123,"count":96,"max":[63],"min":[0],"type":"SCALAR"},{"bufferView":80,"componentType":5126,"count":64,"max":[0,0.09375,0.09375],"min":[-0.0625,-0.09375,-0.09375],"type":"VEC3"},{"bufferView":81,"componentType":5126,"count":64,"max":[1,1,1],"min":[-1,-1,-1],"type":"VEC3"},{"bufferView":82,"componentType":5126,"count":64,"max":[0.5,0.46875],"min":[0.09375,0],"type":"VEC2"},{"bufferView":83,"componentType":5123,"count":96,"max":[63],"min":[0],"type":"SCALAR"},{"bufferView":84,"componentType":5126,"count":64,"max":[0.125,0.921875,0.0625],"min":[-0.125,0.859375,-0.1875],"type":"VEC3"},{"bufferView":85,"componentType":5126,"count":64,"max":[0.9486833214759827,1,0.9486833214759827],"min":[-0.9486833214759827,-1,-0.9486833214759827],"type":"VEC3"},{"bufferView":86,"componentType":5126,"count":64,"max":[0.5625,0.5625],"min":[0,0],"type":"VEC2"},{"bufferView":87,"componentType":5123,"count":96,"max":[63],"min":[0],"type":"SCALAR"},{"bufferView":88,"componentType":5126,"count":64,"max":[0.09375,0.03125,0.09375],"min":[-0.09375,-0.03125,-0.09375],"type":"VEC3"},{"bufferView":89,"componentType":5126,"count":64,"max":[1,1,1],"min":[-1,-1,-1],"type":"VEC3"},{"bufferView":90,"componentType":5126,"count":64,"max":[0.5,0.46875],"min":[0.09375,0],"type":"VEC2"},{"bufferView":91,"componentType":5123,"count":96,"max":[63],"min":[0],"type":"SCALAR"},{"bufferView":92,"componentType":5126,"count":64,"max":[0.09375,0.03125,0.09375],"min":[-0.09375,-0.03125,-0.09375],"type":"VEC3"},{"bufferView":93,"componentType":5126,"count":64,"max":[1,1,1],"min":[-1,-1,-1],"type":"VEC3"},{"bufferView":94,"componentType":5126,"count":64,"max":[0.5,0.46875],"min":[0.09375,0],"type":"VEC2"},{"bufferView":95,"componentType":5123,"count":96,"max":[63],"min":[0],"type":"SCALAR"}],"materials":[{"pbrMetallicRoughness":{"metallicFactor":0,"roughnessFactor":1,"baseColorTexture":{"index":0}},"alphaMode":"MASK","alphaCutoff":0.05,"doubleSided":true},{"pbrMetallicRoughness":{"metallicFactor":0,"roughnessFactor":1,"baseColorTexture":{"index":1}},"alphaMode":"MASK","alphaCutoff":0.05,"doubleSided":true}],"textures":[{"sampler":0,"source":0,"name":"dark-crystal-egg"},{"sampler":1,"source":1,"name":"crystals"}],"samplers":[{"magFilter":9728,"minFilter":9728,"wrapS":33071,"wrapT":33071},{"magFilter":9728,"minFilter":9728,"wrapS":33071,"wrapT":33071}],"images":[{"mimeType":"image/png","uri":"data:image/png;base64,"},{"mimeType":"image/png","uri":"data:image/png;base64,"}],"meshes":[{"primitives":[{"mode":4,"attributes":{"POSITION":0,"NORMAL":1,"TEXCOORD_0":2},"indices":3,"material":0}]},{"primitives":[{"mode":4,"attributes":{"POSITION":4,"NORMAL":5,"TEXCOORD_0":6},"indices":7,"material":0}]},{"primitives":[{"mode":4,"attributes":{"POSITION":8,"NORMAL":9,"TEXCOORD_0":10},"indices":11,"material":0}]},{"primitives":[{"mode":4,"attributes":{"POSITION":12,"NORMAL":13,"TEXCOORD_0":14},"indices":15,"material":1}]},{"primitives":[{"mode":4,"attributes":{"POSITION":16,"NORMAL":17,"TEXCOORD_0":18},"indices":19,"material":1}]},{"primitives":[{"mode":4,"attributes":{"POSITION":20,"NORMAL":21,"TEXCOORD_0":22},"indices":23,"material":1}]},{"primitives":[{"mode":4,"attributes":{"POSITION":24,"NORMAL":25,"TEXCOORD_0":26},"indices":27,"material":1}]},{"primitives":[{"mode":4,"attributes":{"POSITION":28,"NORMAL":29,"TEXCOORD_0":30},"indices":31,"material":1}]},{"primitives":[{"mode":4,"attributes":{"POSITION":32,"NORMAL":33,"TEXCOORD_0":34},"indices":35,"material":1}]},{"primitives":[{"mode":4,"attributes":{"POSITION":36,"NORMAL":37,"TEXCOORD_0":38},"indices":39,"material":1}]},{"primitives":[{"mode":4,"attributes":{"POSITION":40,"NORMAL":41,"TEXCOORD_0":42},"indices":43,"material":1}]},{"primitives":[{"mode":4,"attributes":{"POSITION":44,"NORMAL":45,"TEXCOORD_0":46},"indices":47,"material":1}]},{"primitives":[{"mode":4,"attributes":{"POSITION":48,"NORMAL":49,"TEXCOORD_0":50},"indices":51,"material":1}]},{"primitives":[{"mode":4,"attributes":{"POSITION":52,"NORMAL":53,"TEXCOORD_0":54},"indices":55,"material":1}]},{"primitives":[{"mode":4,"attributes":{"POSITION":56,"NORMAL":57,"TEXCOORD_0":58},"indices":59,"material":1}]},{"primitives":[{"mode":4,"attributes":{"POSITION":60,"NORMAL":61,"TEXCOORD_0":62},"indices":63,"material":1}]},{"primitives":[{"mode":4,"attributes":{"POSITION":64,"NORMAL":65,"TEXCOORD_0":66},"indices":67,"material":1}]},{"primitives":[{"mode":4,"attributes":{"POSITION":68,"NORMAL":69,"TEXCOORD_0":70},"indices":71,"material":1}]},{"primitives":[{"mode":4,"attributes":{"POSITION":72,"NORMAL":73,"TEXCOORD_0":74},"indices":75,"material":1}]},{"primitives":[{"mode":4,"attributes":{"POSITION":76,"NORMAL":77,"TEXCOORD_0":78},"indices":79,"material":1}]},{"primitives":[{"mode":4,"attributes":{"POSITION":80,"NORMAL":81,"TEXCOORD_0":82},"indices":83,"material":1}]},{"primitives":[{"mode":4,"attributes":{"POSITION":84,"NORMAL":85,"TEXCOORD_0":86},"indices":87,"material":1}]},{"primitives":[{"mode":4,"attributes":{"POSITION":88,"NORMAL":89,"TEXCOORD_0":90},"indices":91,"material":1}]},{"primitives":[{"mode":4,"attributes":{"POSITION":92,"NORMAL":93,"TEXCOORD_0":94},"indices":95,"material":1}]}]}