{"asset":{"version":"2.0","generator":"Blockbench 5.0.3 glTF exporter"},"scenes":[{"nodes":[13],"name":"blockbench_export"}],"scene":0,"nodes":[{"translation":[-0.0625,-0.25,-0.0625],"name":"cube","mesh":0},{"translation":[-0.34375,0.7812500000000004,-0.0625],"name":"cube","mesh":1},{"rotation":[0.0928967129054668,0.9146987161934033,0.04269033333183485,-0.39099104179701594],"translation":[0.04293375,0.1862443749999998,-0.02813625],"name":"bone11","children":[1]},{"rotation":[0,0,0.3420201433256687,0.9396926207859084],"translation":[0.03265120800011471,0.47525118156777113,0.056716875000000014],"name":"cube","mesh":2},{"rotation":[-0.0928967129054668,0.9146987161934033,-0.04269033333183485,-0.39099104179701594],"translation":[-0.050433125,0.12122687500000007,0.095259375],"name":"bone14","children":[3]},{"translation":[0.34375,0.78125,0.0625],"name":"cube","mesh":3},{"rotation":[-0.0612671838072615,-0.3980593077844679,0.13924028968100502,0.904658643580012],"translation":[0.100180625,-0.71875,0.046875],"name":"bone8","children":[5]},{"rotation":[0,0,-0.21643961393810288,0.9762960071199334],"translation":[-0.184895489511556,0.2909903431714653,0],"name":"cube","mesh":4},{"rotation":[-0.01420997826993381,0.12975036858272365,0.3593373343608409,0.9240344141343765],"translation":[-0.0508775,1.379169375,0],"name":"bone","children":[7]},{"rotation":[0,0,0.043619387365336,0.9990482215818578],"translation":[0.19425562500000002,0.8703025000000002,0],"name":"cube","mesh":5},{"rotation":[0.12265449964846552,-0.044642586970855824,-0.3390941135865684,0.9316534201490776],"translation":[0.0508775,1.379169375,0],"name":"bone3","children":[9]},{"translation":[-0.34375,0.78125,-0.0625],"name":"cube","mesh":6},{"rotation":[0.0612671838072615,-0.3980593077844679,-0.13924028968100502,0.904658643580012],"translation":[-0.100180625,-0.71875,-0.046875],"name":"bone5","children":[11]},{"translation":[0,3.0625,0],"name":"root","children":[0,2,4,6,8,10,12]}],"bufferViews":[{"buffer":0,"byteOffset":0,"byteLength":2400,"target":34962,"byteStride":12},{"buffer":0,"byteOffset":2400,"byteLength":2400,"target":34962,"byteStride":12},{"buffer":0,"byteOffset":4800,"byteLength":1600,"target":34962,"byteStride":8},{"buffer":0,"byteOffset":6400,"byteLength":600,"target":34963},{"buffer":0,"byteOffset":7000,"byteLength":1584,"target":34962,"byteStride":12},{"buffer":0,"byteOffset":8584,"byteLength":1584,"target":34962,"byteStride":12},{"buffer":0,"byteOffset":10168,"byteLength":1056,"target":34962,"byteStride":8},{"buffer":0,"byteOffset":11224,"byteLength":396,"target":34963},{"buffer":0,"byteOffset":11620,"byteLength":1584,"target":34962,"byteStride":12},{"buffer":0,"byteOffset":13204,"byteLength":1584,"target":34962,"byteStride":12},{"buffer":0,"byteOffset":14788,"byteLength":1056,"target":34962,"byteStride":8},{"buffer":0,"byteOffset":15844,"byteLength":396,"target":34963},{"buffer":0,"byteOffset":16240,"byteLength":1584,"target":34962,"byteStride":12},{"buffer":0,"byteOffset":17824,"byteLength":1584,"target":34962,"byteStride":12},{"buffer":0,"byteOffset":19408,"byteLength":1056,"target":34962,"byteStride":8},{"buffer":0,"byteOffset":20464,"byteLength":396,"target":34963},{"buffer":0,"byteOffset":20860,"byteLength":1536,"target":34962,"byteStride":12},{"buffer":0,"byteOffset":22396,"byteLength":1536,"target":34962,"byteStride":12},{"buffer":0,"byteOffset":23932,"byteLength":1024,"target":34962,"byteStride":8},{"buffer":0,"byteOffset":24956,"byteLength":384,"target":34963},{"buffer":0,"byteOffset":25340,"byteLength":1536,"target":34962,"byteStride":12},{"buffer":0,"byteOffset":26876,"byteLength":1536,"target":34962,"byteStride":12},{"buffer":0,"byteOffset":28412,"byteLength":1024,"target":34962,"byteStride":8},{"buffer":0,"byteOffset":29436,"byteLength":384,"target":34963},{"buffer":0,"byteOffset":29820,"byteLength":1584,"target":34962,"byteStride":12},{"buffer":0,"byteOffset":31404,"byteLength":1584,"target":34962,"byteStride":12},{"buffer":0,"byteOffset":32988,"byteLength":1056,"target":34962,"byteStride":8},{"buffer":0,"byteOffset":34044,"byteLength":396,"target":34963},{"buffer":0,"byteOffset":34440,"byteLength":784},{"buffer":0,"byteOffset":35224,"byteLength":3136},{"buffer":0,"byteOffset":38360,"byteLength":784},{"buffer":0,"byteOffset":39144,"byteLength":3136},{"buffer":0,"byteOffset":42280,"byteLength":784},{"buffer":0,"byteOffset":43064,"byteLength":3136},{"buffer":0,"byteOffset":46200,"byteLength":784},{"buffer":0,"byteOffset":46984,"byteLength":3136},{"buffer":0,"byteOffset":50120,"byteLength":784},{"buffer":0,"byteOffset":50904,"byteLength":3136},{"buffer":0,"byteOffset":54040,"byteLength":784},{"buffer":0,"byteOffset":54824,"byteLength":3136}],"buffers":[{"byteLength":57960,"uri":"data:application/octet-stream;base64,"}],"accessors":[{"bufferView":0,"componentType":5126,"count":200,"max":[0.9244194030761719,1.75,0.625],"min":[-0.9144033789634705,-2.8125,-0.7307079434394836],"type":"VEC3"},{"bufferView":1,"componentType":5126,"count":200,"max":[1,1,1],"min":[-1,-1,-1],"type":"VEC3"},{"bufferView":2,"componentType":5126,"count":200,"max":[0.84375,0.84375],"min":[0,0],"type":"VEC2"},{"bufferView":3,"componentType":5123,"count":300,"max":[199],"min":[0],"type":"SCALAR"},{"bufferView":4,"componentType":5126,"count":132,"max":[0.3125,0.2390110343694687,0.3931064307689667],"min":[-1.5611733198165894,-0.90625,-0.23767392337322235],"type":"VEC3"},{"bufferView":5,"componentType":5126,"count":132,"max":[1,1,1],"min":[-1,-1,-1],"type":"VEC3"},{"bufferView":6,"componentType":5126,"count":132,"max":[0.875,0.859375],"min":[0,0],"type":"VEC2"},{"bufferView":7,"componentType":5123,"count":198,"max":[131],"min":[0],"type":"SCALAR"},{"bufferView":8,"componentType":5126,"count":132,"max":[1.7491602897644043,-0.07767302542924881,0.24345630407333374],"min":[-0.3869073987007141,-1.225916862487793,-0.3873234987258911],"type":"VEC3"},{"bufferView":9,"componentType":5126,"count":132,"max":[1,1,1],"min":[-1,-1,-1],"type":"VEC3"},{"bufferView":10,"componentType":5126,"count":132,"max":[0.875,0.859375],"min":[0,0],"type":"VEC2"},{"bufferView":11,"componentType":5123,"count":198,"max":[131],"min":[0],"type":"SCALAR"},{"bufferView":12,"componentType":5126,"count":132,"max":[1.6543899774551392,0.13225394487380981,0.2576763331890106],"min":[-0.3125,-0.90625,-0.41390329599380493],"type":"VEC3"},{"bufferView":13,"componentType":5126,"count":132,"max":[1,1,1],"min":[-1,-1,-1],"type":"VEC3"},{"bufferView":14,"componentType":5126,"count":132,"max":[0.875,0.859375],"min":[0,0],"type":"VEC2"},{"bufferView":15,"componentType":5123,"count":198,"max":[131],"min":[0],"type":"SCALAR"},{"bufferView":16,"componentType":5126,"count":128,"max":[0.49145209789276123,1.1305184364318848,0.6295532584190369],"min":[-0.62247633934021,-0.28185129165649414,-0.5649545788764954],"type":"VEC3"},{"bufferView":17,"componentType":5126,"count":128,"max":[1,1,1],"min":[-1,-1,-1],"type":"VEC3"},{"bufferView":18,"componentType":5126,"count":128,"max":[0.828125,0.828125],"min":[0,0],"type":"VEC2"},{"bufferView":19,"componentType":5123,"count":192,"max":[127],"min":[0],"type":"SCALAR"},{"bufferView":20,"componentType":5126,"count":128,"max":[0.25,0.35140353441238403,0.6584724187850952],"min":[-0.893266499042511,-0.9204932451248169,-0.645684003829956],"type":"VEC3"},{"bufferView":21,"componentType":5126,"count":128,"max":[1,0.9961947202682495,1],"min":[-0.9961947202682495,-0.9961947202682495,-1],"type":"VEC3"},{"bufferView":22,"componentType":5126,"count":128,"max":[0.859375,0.859375],"min":[0,0],"type":"VEC2"},{"bufferView":23,"componentType":5123,"count":192,"max":[127],"min":[0],"type":"SCALAR"},{"bufferView":24,"componentType":5126,"count":132,"max":[0.3125,0.13225394487380981,0.41390329599380493],"min":[-1.6543899774551392,-0.90625,-0.2576763331890106],"type":"VEC3"},{"bufferView":25,"componentType":5126,"count":132,"max":[1,1,1],"min":[-1,-1,-1],"type":"VEC3"},{"bufferView":26,"componentType":5126,"count":132,"max":[0.875,0.859375],"min":[0,0],"type":"VEC2"},{"bufferView":27,"componentType":5123,"count":198,"max":[131],"min":[0],"type":"SCALAR"},{"bufferView":28,"componentType":5126,"count":196,"max":[5.983333110809326],"min":[0],"type":"SCALAR"},{"bufferView":29,"componentType":5126,"count":196,"max":[0.10336808115243912,0.9157063961029053,0.052557311952114105,-0.38989198207855225],"min":[0.08240951597690582,0.9135385751724243,0.03280803561210632,-0.39194294810295105],"type":"VEC4"},{"bufferView":30,"componentType":5126,"count":196,"max":[5.983333110809326],"min":[0],"type":"SCALAR"},{"bufferView":31,"componentType":5126,"count":196,"max":[-0.08240951597690582,0.9157063961029053,-0.03280803561210632,-0.38989198207855225],"min":[-0.10336808115243912,0.9135385751724243,-0.052557311952114105,-0.39194294810295105],"type":"VEC4"},{"bufferView":32,"componentType":5126,"count":196,"max":[5.983333110809326],"min":[0],"type":"SCALAR"},{"bufferView":33,"componentType":5126,"count":196,"max":[-0.05142126604914665,-0.3965718150138855,0.14967463910579681,0.906234622001648],"min":[-0.07112190872430801,-0.39960402250289917,0.12879648804664612,0.9030211567878723],"type":"VEC4"},{"bufferView":34,"componentType":5126,"count":196,"max":[5.983333110809326],"min":[0],"type":"SCALAR"},{"bufferView":35,"componentType":5126,"count":196,"max":[-0.005841210950165987,0.13288259506225586,0.3681888282299042,0.927198052406311],"min":[-0.0225510336458683,0.1265859305858612,0.3504437208175659,0.9207509756088257],"type":"VEC4"},{"bufferView":36,"componentType":5126,"count":196,"max":[5.983333110809326],"min":[0],"type":"SCALAR"},{"bufferView":37,"componentType":5126,"count":196,"max":[0.13082100450992584,-0.041187722235918045,-0.3306759297847748,0.9353395104408264],"min":[0.11448737978935242,-0.048193708062171936,-0.3474867641925812,0.9278629422187805],"type":"VEC4"},{"bufferView":38,"componentType":5126,"count":196,"max":[5.983333110809326],"min":[0],"type":"SCALAR"},{"bufferView":39,"componentType":5126,"count":196,"max":[0.07112190872430801,-0.3965718150138855,-0.12879648804664612,0.906234622001648],"min":[0.05142126604914665,-0.39960402250289917,-0.14967463910579681,0.9030211567878723],"type":"VEC4"}],"materials":[{"pbrMetallicRoughness":{"metallicFactor":0,"roughnessFactor":1,"baseColorTexture":{"index":0}},"alphaMode":"MASK","alphaCutoff":0.05,"doubleSided":true}],"textures":[{"sampler":0,"source":0,"name":"medium_dead_tree"}],"samplers":[{"magFilter":9728,"minFilter":9728,"wrapS":33071,"wrapT":33071}],"images":[{"mimeType":"image/png","uri":"data:image/png;base64,"}],"meshes":[{"primitives":[{"mode":4,"attributes":{"POSITION":0,"NORMAL":1,"TEXCOORD_0":2},"indices":3,"material":0}]},{"primitives":[{"mode":4,"attributes":{"POSITION":4,"NORMAL":5,"TEXCOORD_0":6},"indices":7,"material":0}]},{"primitives":[{"mode":4,"attributes":{"POSITION":8,"NORMAL":9,"TEXCOORD_0":10},"indices":11,"material":0}]},{"primitives":[{"mode":4,"attributes":{"POSITION":12,"NORMAL":13,"TEXCOORD_0":14},"indices":15,"material":0}]},{"primitives":[{"mode":4,"attributes":{"POSITION":16,"NORMAL":17,"TEXCOORD_0":18},"indices":19,"material":0}]},{"primitives":[{"mode":4,"attributes":{"POSITION":20,"NORMAL":21,"TEXCOORD_0":22},"indices":23,"material":0}]},{"primitives":[{"mode":4,"attributes":{"POSITION":24,"NORMAL":25,"TEXCOORD_0":26},"indices":27,"material":0}]}],"animations":[{"name":"idle","samplers":[{"input":28,"output":29,"interpolation":"LINEAR"},{"input":30,"output":31,"interpolation":"LINEAR"},{"input":32,"output":33,"interpolation":"LINEAR"},{"input":34,"output":35,"interpolation":"LINEAR"},{"input":36,"output":37,"interpolation":"LINEAR"},{"input":38,"output":39,"interpolation":"LINEAR"}],"channels":[{"sampler":0,"target":{"node":2,"path":"rotation"}},{"sampler":1,"target":{"node":4,"path":"rotation"}},{"sampler":2,"target":{"node":6,"path":"rotation"}},{"sampler":3,"target":{"node":8,"path":"rotation"}},{"sampler":4,"target":{"node":10,"path":"rotation"}},{"sampler":5,"target":{"node":12,"path":"rotation"}}]}]}