{"asset":{"version":"2.0","generator":"Blockbench 5.0.3 glTF exporter"},"scenes":[{"nodes":[24],"name":"blockbench_export"}],"scene":0,"nodes":[{"rotation":[0.5,0.4999999999999999,-0.5,0.5000000000000001],"translation":[0,0.375,-0.9375],"name":"plane","mesh":0},{"rotation":[0.15412450461980437,-0.3502745124129302,-0.37208941429679865,0.8456375528545603],"translation":[0.17976625000000002,-0.00459,0.10164125],"name":"bone19","children":[0]},{"rotation":[0.5,-0.4999999999999999,0.5,0.5000000000000001],"translation":[0,0.375,-0.9375],"name":"plane","mesh":1},{"rotation":[0.15412450461980437,0.3502745124129302,0.37208941429679865,0.8456375528545603],"translation":[0.07023375,-0.00459,0.10164125],"name":"bone14","children":[2]},{"rotation":[-0.5,-0.4999999999999999,-0.5,0.5000000000000001],"translation":[0,0.375,0.9375],"name":"plane","mesh":2},{"rotation":[-0.15412450461980437,0.3502745124129302,-0.37208941429679865,0.8456375528545603],"translation":[0.17976625000000002,-0.00459,-0.10164125],"name":"bone18","children":[4]},{"rotation":[-0.5,0.4999999999999999,0.5,0.5000000000000001],"translation":[0,0.375,0.9375],"name":"plane","mesh":3},{"rotation":[-0.15412450461980437,-0.3502745124129302,0.37208941429679865,0.8456375528545603],"translation":[0.07023375,-0.00459,-0.10164125],"name":"bone16","children":[6]},{"rotation":[0.5,0.4999999999999999,-0.5,0.5000000000000001],"translation":[0,0.3125,-0.9375],"name":"plane","mesh":4},{"rotation":[0,0,-0.2798290140309921,0.9600498543859287],"translation":[0.453125,0,0],"name":"bone4","children":[8]},{"rotation":[0.5,-0.4999999999999999,0.5,0.5000000000000001],"translation":[0.00160875,0.308610625,-0.9375000000000001],"name":"plane","mesh":5},{"rotation":[-0.19786899339406003,-0.6788577623134476,0.19786899339406003,0.6788577623134477],"translation":[0.125,0.002415625,-0.3314125],"name":"bone2","children":[10]},{"rotation":[0.5,-0.4999999999999999,0.5,0.5000000000000001],"translation":[-0.11610312499999999,0.04271625000000001,-0.937735],"name":"plane","mesh":6},{"rotation":[-0.2585283196576866,-0.8869704106699033,0.1070859215934615,0.36739516045739495],"translation":[0.12483375,0.289915625,-0.00016625],"name":"bone22","children":[12]},{"rotation":[0,0,0.414693242656239,0.9099612708765432],"translation":[-0.353355625,1.2029718749999998,-0.6875],"name":"cube","mesh":7},{"rotation":[0.2585283196576866,0.8869704106699033,0.1070859215934615,0.36739516045739495],"translation":[0.12483375,0.289915625,-0.00016625],"name":"bone28","children":[14]},{"rotation":[0.5,0.4999999999999999,-0.5,0.5000000000000001],"translation":[0.12743000000000002,0.049931875000000014,-0.9375],"name":"plane","mesh":8},{"rotation":[-0.2585283196576866,0.8869704106699033,-0.1070859215934615,0.36739516045739495],"translation":[0.12483375,0.289915625,-0.00016625],"name":"bone31","children":[16]},{"rotation":[-0.5,0.4999999999999999,0.5,0.5000000000000001],"translation":[-0.11610312499999999,0.04271625000000001,0.937735],"name":"plane","mesh":9},{"rotation":[0.10708592159346143,0.3673951604573949,0.25852831965768663,0.8869704106699035],"translation":[0.12483375,0.289915625,-0.00016625],"name":"bone25","children":[18]},{"rotation":[-0.5,0.4999999999999999,0.5,0.5000000000000001],"translation":[-0.000304375,0.31724,0.9375],"name":"plane","mesh":10},{"rotation":[0.19786899339406003,0.6788577623134476,0.19786899339406003,0.6788577623134477],"translation":[0.125,-0.003834375,0.3251625],"name":"bone11","children":[20]},{"rotation":[0.5,-0.4999999999999999,0.5,0.5000000000000001],"translation":[0,0.3125,-0.9375],"name":"plane","mesh":11},{"rotation":[0,0,0.2798290140309921,0.9600498543859287],"translation":[-0.203125,0,0],"name":"bone8","children":[22]},{"translation":[-0.125,0,0],"name":"root","children":[1,3,5,7,9,11,13,15,17,19,21,23]}],"bufferViews":[{"buffer":0,"byteOffset":0,"byteLength":96,"target":34962,"byteStride":12},{"buffer":0,"byteOffset":96,"byteLength":96,"target":34962,"byteStride":12},{"buffer":0,"byteOffset":192,"byteLength":64,"target":34962,"byteStride":8},{"buffer":0,"byteOffset":256,"byteLength":24,"target":34963},{"buffer":0,"byteOffset":280,"byteLength":96,"target":34962,"byteStride":12},{"buffer":0,"byteOffset":376,"byteLength":96,"target":34962,"byteStride":12},{"buffer":0,"byteOffset":472,"byteLength":64,"target":34962,"byteStride":8},{"buffer":0,"byteOffset":536,"byteLength":24,"target":34963},{"buffer":0,"byteOffset":560,"byteLength":96,"target":34962,"byteStride":12},{"buffer":0,"byteOffset":656,"byteLength":96,"target":34962,"byteStride":12},{"buffer":0,"byteOffset":752,"byteLength":64,"target":34962,"byteStride":8},{"buffer":0,"byteOffset":816,"byteLength":24,"target":34963},{"buffer":0,"byteOffset":840,"byteLength":96,"target":34962,"byteStride":12},{"buffer":0,"byteOffset":936,"byteLength":96,"target":34962,"byteStride":12},{"buffer":0,"byteOffset":1032,"byteLength":64,"target":34962,"byteStride":8},{"buffer":0,"byteOffset":1096,"byteLength":24,"target":34963},{"buffer":0,"byteOffset":1120,"byteLength":144,"target":34962,"byteStride":12},{"buffer":0,"byteOffset":1264,"byteLength":144,"target":34962,"byteStride":12},{"buffer":0,"byteOffset":1408,"byteLength":96,"target":34962,"byteStride":8},{"buffer":0,"byteOffset":1504,"byteLength":36,"target":34963},{"buffer":0,"byteOffset":1540,"byteLength":144,"target":34962,"byteStride":12},{"buffer":0,"byteOffset":1684,"byteLength":144,"target":34962,"byteStride":12},{"buffer":0,"byteOffset":1828,"byteLength":96,"target":34962,"byteStride":8},{"buffer":0,"byteOffset":1924,"byteLength":36,"target":34963},{"buffer":0,"byteOffset":1960,"byteLength":144,"target":34962,"byteStride":12},{"buffer":0,"byteOffset":2104,"byteLength":144,"target":34962,"byteStride":12},{"buffer":0,"byteOffset":2248,"byteLength":96,"target":34962,"byteStride":8},{"buffer":0,"byteOffset":2344,"byteLength":36,"target":34963},{"buffer":0,"byteOffset":2380,"byteLength":144,"target":34962,"byteStride":12},{"buffer":0,"byteOffset":2524,"byteLength":144,"target":34962,"byteStride":12},{"buffer":0,"byteOffset":2668,"byteLength":96,"target":34962,"byteStride":8},{"buffer":0,"byteOffset":2764,"byteLength":36,"target":34963},{"buffer":0,"byteOffset":2800,"byteLength":144,"target":34962,"byteStride":12},{"buffer":0,"byteOffset":2944,"byteLength":144,"target":34962,"byteStride":12},{"buffer":0,"byteOffset":3088,"byteLength":96,"target":34962,"byteStride":8},{"buffer":0,"byteOffset":3184,"byteLength":36,"target":34963},{"buffer":0,"byteOffset":3220,"byteLength":144,"target":34962,"byteStride":12},{"buffer":0,"byteOffset":3364,"byteLength":144,"target":34962,"byteStride":12},{"buffer":0,"byteOffset":3508,"byteLength":96,"target":34962,"byteStride":8},{"buffer":0,"byteOffset":3604,"byteLength":36,"target":34963},{"buffer":0,"byteOffset":3640,"byteLength":144,"target":34962,"byteStride":12},{"buffer":0,"byteOffset":3784,"byteLength":144,"target":34962,"byteStride":12},{"buffer":0,"byteOffset":3928,"byteLength":96,"target":34962,"byteStride":8},{"buffer":0,"byteOffset":4024,"byteLength":36,"target":34963},{"buffer":0,"byteOffset":4060,"byteLength":144,"target":34962,"byteStride":12},{"buffer":0,"byteOffset":4204,"byteLength":144,"target":34962,"byteStride":12},{"buffer":0,"byteOffset":4348,"byteLength":96,"target":34962,"byteStride":8},{"buffer":0,"byteOffset":4444,"byteLength":36,"target":34963},{"buffer":0,"byteOffset":4480,"byteLength":784},{"buffer":0,"byteOffset":5264,"byteLength":3136},{"buffer":0,"byteOffset":8400,"byteLength":784},{"buffer":0,"byteOffset":9184,"byteLength":3136},{"buffer":0,"byteOffset":12320,"byteLength":784},{"buffer":0,"byteOffset":13104,"byteLength":3136},{"buffer":0,"byteOffset":16240,"byteLength":784},{"buffer":0,"byteOffset":17024,"byteLength":3136},{"buffer":0,"byteOffset":20160,"byteLength":784},{"buffer":0,"byteOffset":20944,"byteLength":3136},{"buffer":0,"byteOffset":24080,"byteLength":784},{"buffer":0,"byteOffset":24864,"byteLength":3136},{"buffer":0,"byteOffset":28000,"byteLength":784},{"buffer":0,"byteOffset":28784,"byteLength":3136},{"buffer":0,"byteOffset":31920,"byteLength":784},{"buffer":0,"byteOffset":32704,"byteLength":3136},{"buffer":0,"byteOffset":35840,"byteLength":784},{"buffer":0,"byteOffset":36624,"byteLength":3136},{"buffer":0,"byteOffset":39760,"byteLength":784},{"buffer":0,"byteOffset":40544,"byteLength":3136},{"buffer":0,"byteOffset":43680,"byteLength":784},{"buffer":0,"byteOffset":44464,"byteLength":3136},{"buffer":0,"byteOffset":47600,"byteLength":784},{"buffer":0,"byteOffset":48384,"byteLength":3136}],"buffers":[{"byteLength":51520,"uri":"data:application/octet-stream;base64,"}],"accessors":[{"bufferView":0,"componentType":5126,"count":8,"max":[-0.53125,0.3003943860530853,0.375],"min":[-1.34375,0,-0.4611368775367737],"type":"VEC3"},{"bufferView":1,"componentType":5126,"count":8,"max":[0,-0.2756378650665283,0],"min":[0,-1,-0.9612615704536438],"type":"VEC3"},{"bufferView":2,"componentType":5126,"count":8,"max":[0.84375,0.96875],"min":[0,0],"type":"VEC2"},{"bufferView":3,"componentType":5123,"count":12,"max":[7],"min":[0],"type":"SCALAR"},{"bufferView":4,"componentType":5126,"count":8,"max":[1.34375,0.3003943860530853,0.375],"min":[0.53125,0,-0.4611368775367737],"type":"VEC3"},{"bufferView":5,"componentType":5126,"count":8,"max":[0,-0.2756378650665283,0],"min":[0,-1,-0.9612615704536438],"type":"VEC3"},{"bufferView":6,"componentType":5126,"count":8,"max":[0.84375,0.96875],"min":[0,0],"type":"VEC2"},{"bufferView":7,"componentType":5123,"count":12,"max":[7],"min":[0],"type":"SCALAR"},{"bufferView":8,"componentType":5126,"count":8,"max":[-0.53125,0.3003943860530853,0.4611368775367737],"min":[-1.34375,0,-0.375],"type":"VEC3"},{"bufferView":9,"componentType":5126,"count":8,"max":[0,-0.2756378650665283,0.9612615704536438],"min":[0,-1,0],"type":"VEC3"},{"bufferView":10,"componentType":5126,"count":8,"max":[0.84375,0.96875],"min":[0,0],"type":"VEC2"},{"bufferView":11,"componentType":5123,"count":12,"max":[7],"min":[0],"type":"SCALAR"},{"bufferView":12,"componentType":5126,"count":8,"max":[1.34375,0.3003943860530853,0.4611368775367737],"min":[0.53125,0,-0.375],"type":"VEC3"},{"bufferView":13,"componentType":5126,"count":8,"max":[0,-0.2756378650665283,0.9612615704536438],"min":[0,-1,0],"type":"VEC3"},{"bufferView":14,"componentType":5126,"count":8,"max":[0.84375,0.96875],"min":[0,0],"type":"VEC2"},{"bufferView":15,"componentType":5123,"count":12,"max":[7],"min":[0],"type":"SCALAR"},{"bufferView":16,"componentType":5126,"count":12,"max":[-0.53125,0.7633293867111206,0.375],"min":[-1.34375,0,-1.092143177986145],"type":"VEC3"},{"bufferView":17,"componentType":5126,"count":12,"max":[0,-0.1908101886510849,0],"min":[0,-1,-0.9816269278526306],"type":"VEC3"},{"bufferView":18,"componentType":5126,"count":12,"max":[0.84375,0.96875],"min":[0,0],"type":"VEC2"},{"bufferView":19,"componentType":5123,"count":18,"max":[11],"min":[0],"type":"SCALAR"},{"bufferView":20,"componentType":5126,"count":12,"max":[1.34375,0.7633293867111206,0.375],"min":[0.53125,0,-1.092143177986145],"type":"VEC3"},{"bufferView":21,"componentType":5126,"count":12,"max":[0,-0.1908101886510849,0],"min":[0,-1,-0.9816269278526306],"type":"VEC3"},{"bufferView":22,"componentType":5126,"count":12,"max":[0.84375,0.96875],"min":[0,0],"type":"VEC2"},{"bufferView":23,"componentType":5123,"count":18,"max":[11],"min":[0],"type":"SCALAR"},{"bufferView":24,"componentType":5126,"count":12,"max":[1.34375,0.46137624979019165,0.375],"min":[0.53125,0,-1.3578062057495117],"type":"VEC3"},{"bufferView":25,"componentType":5126,"count":12,"max":[0,-0.6560593843460083,0],"min":[0,-1,-0.7547093033790588],"type":"VEC3"},{"bufferView":26,"componentType":5126,"count":12,"max":[0.84375,0.96875],"min":[0,0],"type":"VEC2"},{"bufferView":27,"componentType":5123,"count":18,"max":[11],"min":[0],"type":"SCALAR"},{"bufferView":28,"componentType":5126,"count":12,"max":[0,0.3125,1.09375],"min":[-1.0050755739212036,-1.1725281476974487,0.28125],"type":"VEC3"},{"bufferView":29,"componentType":5126,"count":12,"max":[1,0,0],"min":[0.6560589075088501,-0.7547096610069275,0],"type":"VEC3"},{"bufferView":30,"componentType":5126,"count":12,"max":[0.84375,0.96875],"min":[0,0],"type":"VEC2"},{"bufferView":31,"componentType":5123,"count":18,"max":[11],"min":[0],"type":"SCALAR"},{"bufferView":32,"componentType":5126,"count":12,"max":[-0.53125,0.46137624979019165,0.375],"min":[-1.34375,0,-1.3578062057495117],"type":"VEC3"},{"bufferView":33,"componentType":5126,"count":12,"max":[0,-0.6560593843460083,0],"min":[0,-1,-0.7547093033790588],"type":"VEC3"},{"bufferView":34,"componentType":5126,"count":12,"max":[0.84375,0.96875],"min":[0,0],"type":"VEC2"},{"bufferView":35,"componentType":5123,"count":18,"max":[11],"min":[0],"type":"SCALAR"},{"bufferView":36,"componentType":5126,"count":12,"max":[1.34375,0.46137624979019165,1.3578062057495117],"min":[0.53125,0,-0.375],"type":"VEC3"},{"bufferView":37,"componentType":5126,"count":12,"max":[0,-0.6560593843460083,0.7547093033790588],"min":[0,-1,0],"type":"VEC3"},{"bufferView":38,"componentType":5126,"count":12,"max":[0.84375,0.96875],"min":[0,0],"type":"VEC2"},{"bufferView":39,"componentType":5123,"count":18,"max":[11],"min":[0],"type":"SCALAR"},{"bufferView":40,"componentType":5126,"count":12,"max":[1.34375,0.7633293867111206,1.092143177986145],"min":[0.53125,0,-0.375],"type":"VEC3"},{"bufferView":41,"componentType":5126,"count":12,"max":[0,-0.1908101886510849,0.9816269278526306],"min":[0,-1,0],"type":"VEC3"},{"bufferView":42,"componentType":5126,"count":12,"max":[0.84375,0.96875],"min":[0,0],"type":"VEC2"},{"bufferView":43,"componentType":5123,"count":18,"max":[11],"min":[0],"type":"SCALAR"},{"bufferView":44,"componentType":5126,"count":12,"max":[1.34375,0.7633293867111206,0.375],"min":[0.53125,0,-1.092143177986145],"type":"VEC3"},{"bufferView":45,"componentType":5126,"count":12,"max":[0,-0.1908101886510849,0],"min":[0,-1,-0.9816269278526306],"type":"VEC3"},{"bufferView":46,"componentType":5126,"count":12,"max":[0.84375,0.96875],"min":[0,0],"type":"VEC2"},{"bufferView":47,"componentType":5123,"count":18,"max":[11],"min":[0],"type":"SCALAR"},{"bufferView":48,"componentType":5126,"count":196,"max":[5.983333110809326],"min":[0],"type":"SCALAR"},{"bufferView":49,"componentType":5126,"count":196,"max":[0.1631843000650406,-0.3463204503059387,-0.3624618649482727,0.8498379588127136],"min":[0.1450885683298111,-0.3542829155921936,-0.3816905617713928,0.8413771390914917],"type":"VEC4"},{"bufferView":50,"componentType":5126,"count":196,"max":[5.983333110809326],"min":[0],"type":"SCALAR"},{"bufferView":51,"componentType":5126,"count":196,"max":[0.1631843000650406,0.3542829155921936,0.3816905617713928,0.8498379588127136],"min":[0.1450885683298111,0.3463204503059387,0.3624618649482727,0.8413771390914917],"type":"VEC4"},{"bufferView":52,"componentType":5126,"count":196,"max":[5.983333110809326],"min":[0],"type":"SCALAR"},{"bufferView":53,"componentType":5126,"count":196,"max":[-0.1450885683298111,0.3542829155921936,-0.3624618649482727,0.8498379588127136],"min":[-0.1631843000650406,0.3463204503059387,-0.3816905617713928,0.8413771390914917],"type":"VEC4"},{"bufferView":54,"componentType":5126,"count":196,"max":[5.983333110809326],"min":[0],"type":"SCALAR"},{"bufferView":55,"componentType":5126,"count":196,"max":[-0.1450885683298111,-0.3463204503059387,0.3816905617713928,0.8498379588127136],"min":[-0.1631843000650406,-0.3542829155921936,0.3624618649482727,0.8413771390914917],"type":"VEC4"},{"bufferView":56,"componentType":5126,"count":196,"max":[5.983333110809326],"min":[0],"type":"SCALAR"},{"bufferView":57,"componentType":5126,"count":196,"max":[0.0083773760125041,0.0024462221190333366,-0.27143529057502747,0.9624369144439697],"min":[-0.0083773760125041,-0.0024462221190333366,-0.2881907820701599,0.9575531482696533],"type":"VEC4"},{"bufferView":58,"componentType":5126,"count":196,"max":[5.983333110809326],"min":[0],"type":"SCALAR"},{"bufferView":59,"componentType":5126,"count":196,"max":[-0.1874433010816574,-0.6758183240890503,0.20829428732395172,0.6818958520889282],"min":[-0.20829428732395172,-0.6818962693214417,0.1874433010816574,0.6758182048797607],"type":"VEC4"},{"bufferView":60,"componentType":5126,"count":196,"max":[5.983333110809326],"min":[0],"type":"SCALAR"},{"bufferView":61,"componentType":5126,"count":196,"max":[-0.2484348863363266,-0.8839996457099915,0.11658431589603424,0.3701901137828827],"min":[-0.2686034142971039,-0.8898782730102539,0.09760410338640213,0.364657461643219],"type":"VEC4"},{"bufferView":62,"componentType":5126,"count":196,"max":[5.983333110809326],"min":[0],"type":"SCALAR"},{"bufferView":63,"componentType":5126,"count":196,"max":[0.2686034142971039,0.8898782730102539,0.11658431589603424,0.3701901137828827],"min":[0.2484348863363266,0.8839996457099915,0.09760410338640213,0.364657461643219],"type":"VEC4"},{"bufferView":64,"componentType":5126,"count":196,"max":[5.983333110809326],"min":[0],"type":"SCALAR"},{"bufferView":65,"componentType":5126,"count":196,"max":[-0.2484348863363266,0.8898782730102539,-0.09760410338640213,0.3701901137828827],"min":[-0.2686034142971039,0.8839996457099915,-0.11658431589603424,0.364657461643219],"type":"VEC4"},{"bufferView":66,"componentType":5126,"count":196,"max":[5.983333110809326],"min":[0],"type":"SCALAR"},{"bufferView":67,"componentType":5126,"count":196,"max":[0.11658431589603424,0.3701901137828827,0.2686034142971039,0.8898782730102539],"min":[0.09760410338640213,0.364657461643219,0.2484348863363266,0.8839996457099915],"type":"VEC4"},{"bufferView":68,"componentType":5126,"count":196,"max":[5.983333110809326],"min":[0],"type":"SCALAR"},{"bufferView":69,"componentType":5126,"count":196,"max":[0.20829428732395172,0.6818958520889282,0.20829537510871887,0.6818958520889282],"min":[0.18744230270385742,0.6758183240890503,0.1874433010816574,0.6758183240890503],"type":"VEC4"},{"bufferView":70,"componentType":5126,"count":196,"max":[5.983333110809326],"min":[0],"type":"SCALAR"},{"bufferView":71,"componentType":5126,"count":196,"max":[0.0083773760125041,0.0024462221190333366,0.2881907820701599,0.9624369144439697],"min":[-0.0083773760125041,-0.0024462221190333366,0.27143529057502747,0.9575531482696533],"type":"VEC4"}],"materials":[{"pbrMetallicRoughness":{"metallicFactor":0,"roughnessFactor":1,"baseColorTexture":{"index":0}},"alphaMode":"MASK","alphaCutoff":0.05,"doubleSided":true}],"textures":[{"sampler":0,"source":0,"name":"forest_fern"}],"samplers":[{"magFilter":9728,"minFilter":9728,"wrapS":33071,"wrapT":33071}],"images":[{"mimeType":"image/png","uri":"data:image/png;base64,"}],"meshes":[{"primitives":[{"mode":4,"attributes":{"POSITION":0,"NORMAL":1,"TEXCOORD_0":2},"indices":3,"material":0}]},{"primitives":[{"mode":4,"attributes":{"POSITION":4,"NORMAL":5,"TEXCOORD_0":6},"indices":7,"material":0}]},{"primitives":[{"mode":4,"attributes":{"POSITION":8,"NORMAL":9,"TEXCOORD_0":10},"indices":11,"material":0}]},{"primitives":[{"mode":4,"attributes":{"POSITION":12,"NORMAL":13,"TEXCOORD_0":14},"indices":15,"material":0}]},{"primitives":[{"mode":4,"attributes":{"POSITION":16,"NORMAL":17,"TEXCOORD_0":18},"indices":19,"material":0}]},{"primitives":[{"mode":4,"attributes":{"POSITION":20,"NORMAL":21,"TEXCOORD_0":22},"indices":23,"material":0}]},{"primitives":[{"mode":4,"attributes":{"POSITION":24,"NORMAL":25,"TEXCOORD_0":26},"indices":27,"material":0}]},{"primitives":[{"mode":4,"attributes":{"POSITION":28,"NORMAL":29,"TEXCOORD_0":30},"indices":31,"material":0}]},{"primitives":[{"mode":4,"attributes":{"POSITION":32,"NORMAL":33,"TEXCOORD_0":34},"indices":35,"material":0}]},{"primitives":[{"mode":4,"attributes":{"POSITION":36,"NORMAL":37,"TEXCOORD_0":38},"indices":39,"material":0}]},{"primitives":[{"mode":4,"attributes":{"POSITION":40,"NORMAL":41,"TEXCOORD_0":42},"indices":43,"material":0}]},{"primitives":[{"mode":4,"attributes":{"POSITION":44,"NORMAL":45,"TEXCOORD_0":46},"indices":47,"material":0}]}],"animations":[{"name":"idle","samplers":[{"input":48,"output":49,"interpolation":"LINEAR"},{"input":50,"output":51,"interpolation":"LINEAR"},{"input":52,"output":53,"interpolation":"LINEAR"},{"input":54,"output":55,"interpolation":"LINEAR"},{"input":56,"output":57,"interpolation":"LINEAR"},{"input":58,"output":59,"interpolation":"LINEAR"},{"input":60,"output":61,"interpolation":"LINEAR"},{"input":62,"output":63,"interpolation":"LINEAR"},{"input":64,"output":65,"interpolation":"LINEAR"},{"input":66,"output":67,"interpolation":"LINEAR"},{"input":68,"output":69,"interpolation":"LINEAR"},{"input":70,"output":71,"interpolation":"LINEAR"}],"channels":[{"sampler":0,"target":{"node":1,"path":"rotation"}},{"sampler":1,"target":{"node":3,"path":"rotation"}},{"sampler":2,"target":{"node":5,"path":"rotation"}},{"sampler":3,"target":{"node":7,"path":"rotation"}},{"sampler":4,"target":{"node":9,"path":"rotation"}},{"sampler":5,"target":{"node":11,"path":"rotation"}},{"sampler":6,"target":{"node":13,"path":"rotation"}},{"sampler":7,"target":{"node":15,"path":"rotation"}},{"sampler":8,"target":{"node":17,"path":"rotation"}},{"sampler":9,"target":{"node":19,"path":"rotation"}},{"sampler":10,"target":{"node":21,"path":"rotation"}},{"sampler":11,"target":{"node":23,"path":"rotation"}}]}]}