{"asset":{"version":"2.0","generator":"Blockbench 5.0.3 glTF exporter"},"scenes":[{"nodes":[21],"name":"blockbench_export"}],"scene":0,"nodes":[{"rotation":[-0.7071067811865476,-4.329780281177466e-17,0.7071067811865475,4.329780281177467e-17],"translation":[0.142238125,1.663346875,0.00097125],"name":"cube","mesh":0},{"rotation":[-0.7071067811865476,-4.329780281177466e-17,0.7071067811865475,4.329780281177467e-17],"translation":[-0.124719375,-0.43798562500000005,0.0009712499999999999],"name":"cube","mesh":1},{"rotation":[0.21028344760416678,-0.11622213240040136,-0.8285139977825428,0.5058041548686587],"translation":[-0.0549175,1.5388325,-0.0625],"name":"bone","children":[1]},{"rotation":[-0.7071067811865476,-4.329780281177466e-17,0.7071067811865475,4.329780281177467e-17],"translation":[0.129970625,-0.4473631250000001,-0.00390625],"name":"cube","mesh":2},{"rotation":[0.4258232548050826,-0.2259358739907556,-0.7866136523792685,0.3858322153498675],"translation":[0.0122675,2.11071,0.0048775],"name":"bone5","children":[3]},{"translation":[0.0625,-0.71875,0.0625],"name":"cube","mesh":3},{"rotation":[-0.4258232548050826,-0.2259358739907556,0.7866136523792685,0.3858322153498675],"translation":[-0.0122675,2.11071,-0.0048775],"name":"bone7","children":[5]},{"translation":[0.06249999999999999,-0.71875,0.0625],"name":"cube","mesh":4},{"rotation":[-0.8652307604873344,-0.30478053236755537,0.3806968853262637,0.11642353584709549],"translation":[0.034543125,2.341080625,-0.02265125],"name":"bone6","children":[7]},{"translation":[-0.06249999999999999,-0.71875,-0.0625],"name":"cube","mesh":5},{"rotation":[0.8652307604873344,-0.30478053236755537,-0.3806968853262637,0.11642353584709549],"translation":[-0.034543125,2.341080625,0.02265125],"name":"bone8","children":[9]},{"translation":[0.06249999999999999,-0.71875,-0.0625],"name":"cube","mesh":6},{"rotation":[0.9439061231894526,0.1663999465744323,-0.16716579625642994,0.23110146028841472],"translation":[0.034543125,2.528580625,0.02265125],"name":"bone9","children":[11]},{"translation":[0.06249999999999999,-0.71875,-0.0625],"name":"cube","mesh":7},{"rotation":[0.38966599126092166,0.24328736510625915,0.8212777984906263,0.3383407320153561],"translation":[0.0549175,1.6013325,-0.0625],"name":"bone3","children":[13]},{"translation":[-0.06249999999999999,-0.71875,0.0625],"name":"cube","mesh":8},{"rotation":[-0.35810775597079403,0.2048678310276482,-0.8187977410151087,0.3991970268327962],"translation":[-0.0549175,1.6638325,0.0625],"name":"bone4","children":[15]},{"rotation":[0,-0.7071067811865475,0,0.7071067811865476],"translation":[-0.047054375,-0.719235625,-0.03222125],"name":"cube","mesh":9},{"rotation":[-0.22414384903374646,-0.12940952180867277,0.8365162998103143,0.48296292896789517],"translation":[0.0549175,1.5388325,0.0625],"name":"bone2","children":[17]},{"rotation":[0.6532814824381882,-0.27059805007309845,0.2705980500730985,0.6532814824381883],"translation":[-0.015489375,-0.00010937500000007816,-0.0004337500000000001],"name":"cube","mesh":10},{"translation":[0.0013975,2.809830625,-0.013175],"name":"bone10","children":[19]},{"name":"root","children":[0,2,4,6,8,10,12,14,16,18,20]}],"bufferViews":[{"buffer":0,"byteOffset":0,"byteLength":960,"target":34962,"byteStride":12},{"buffer":0,"byteOffset":960,"byteLength":960,"target":34962,"byteStride":12},{"buffer":0,"byteOffset":1920,"byteLength":640,"target":34962,"byteStride":8},{"buffer":0,"byteOffset":2560,"byteLength":240,"target":34963},{"buffer":0,"byteOffset":2800,"byteLength":768,"target":34962,"byteStride":12},{"buffer":0,"byteOffset":3568,"byteLength":768,"target":34962,"byteStride":12},{"buffer":0,"byteOffset":4336,"byteLength":512,"target":34962,"byteStride":8},{"buffer":0,"byteOffset":4848,"byteLength":192,"target":34963},{"buffer":0,"byteOffset":5040,"byteLength":720,"target":34962,"byteStride":12},{"buffer":0,"byteOffset":5760,"byteLength":720,"target":34962,"byteStride":12},{"buffer":0,"byteOffset":6480,"byteLength":480,"target":34962,"byteStride":8},{"buffer":0,"byteOffset":6960,"byteLength":180,"target":34963},{"buffer":0,"byteOffset":7140,"byteLength":672,"target":34962,"byteStride":12},{"buffer":0,"byteOffset":7812,"byteLength":672,"target":34962,"byteStride":12},{"buffer":0,"byteOffset":8484,"byteLength":448,"target":34962,"byteStride":8},{"buffer":0,"byteOffset":8932,"byteLength":168,"target":34963},{"buffer":0,"byteOffset":9100,"byteLength":768,"target":34962,"byteStride":12},{"buffer":0,"byteOffset":9868,"byteLength":768,"target":34962,"byteStride":12},{"buffer":0,"byteOffset":10636,"byteLength":512,"target":34962,"byteStride":8},{"buffer":0,"byteOffset":11148,"byteLength":192,"target":34963},{"buffer":0,"byteOffset":11340,"byteLength":768,"target":34962,"byteStride":12},{"buffer":0,"byteOffset":12108,"byteLength":768,"target":34962,"byteStride":12},{"buffer":0,"byteOffset":12876,"byteLength":512,"target":34962,"byteStride":8},{"buffer":0,"byteOffset":13388,"byteLength":192,"target":34963},{"buffer":0,"byteOffset":13580,"byteLength":720,"target":34962,"byteStride":12},{"buffer":0,"byteOffset":14300,"byteLength":720,"target":34962,"byteStride":12},{"buffer":0,"byteOffset":15020,"byteLength":480,"target":34962,"byteStride":8},{"buffer":0,"byteOffset":15500,"byteLength":180,"target":34963},{"buffer":0,"byteOffset":15680,"byteLength":768,"target":34962,"byteStride":12},{"buffer":0,"byteOffset":16448,"byteLength":768,"target":34962,"byteStride":12},{"buffer":0,"byteOffset":17216,"byteLength":512,"target":34962,"byteStride":8},{"buffer":0,"byteOffset":17728,"byteLength":192,"target":34963},{"buffer":0,"byteOffset":17920,"byteLength":720,"target":34962,"byteStride":12},{"buffer":0,"byteOffset":18640,"byteLength":720,"target":34962,"byteStride":12},{"buffer":0,"byteOffset":19360,"byteLength":480,"target":34962,"byteStride":8},{"buffer":0,"byteOffset":19840,"byteLength":180,"target":34963},{"buffer":0,"byteOffset":20020,"byteLength":768,"target":34962,"byteStride":12},{"buffer":0,"byteOffset":20788,"byteLength":768,"target":34962,"byteStride":12},{"buffer":0,"byteOffset":21556,"byteLength":512,"target":34962,"byteStride":8},{"buffer":0,"byteOffset":22068,"byteLength":192,"target":34963},{"buffer":0,"byteOffset":22260,"byteLength":96,"target":34962,"byteStride":12},{"buffer":0,"byteOffset":22356,"byteLength":96,"target":34962,"byteStride":12},{"buffer":0,"byteOffset":22452,"byteLength":64,"target":34962,"byteStride":8},{"buffer":0,"byteOffset":22516,"byteLength":24,"target":34963},{"buffer":0,"byteOffset":22540,"byteLength":784},{"buffer":0,"byteOffset":23324,"byteLength":3136},{"buffer":0,"byteOffset":26460,"byteLength":784},{"buffer":0,"byteOffset":27244,"byteLength":3136},{"buffer":0,"byteOffset":30380,"byteLength":784},{"buffer":0,"byteOffset":31164,"byteLength":3136},{"buffer":0,"byteOffset":34300,"byteLength":784},{"buffer":0,"byteOffset":35084,"byteLength":3136},{"buffer":0,"byteOffset":38220,"byteLength":784},{"buffer":0,"byteOffset":39004,"byteLength":3136},{"buffer":0,"byteOffset":42140,"byteLength":784},{"buffer":0,"byteOffset":42924,"byteLength":3136},{"buffer":0,"byteOffset":46060,"byteLength":784},{"buffer":0,"byteOffset":46844,"byteLength":3136},{"buffer":0,"byteOffset":49980,"byteLength":784},{"buffer":0,"byteOffset":50764,"byteLength":3136},{"buffer":0,"byteOffset":53900,"byteLength":784},{"buffer":0,"byteOffset":54684,"byteLength":3136},{"buffer":0,"byteOffset":57820,"byteLength":784},{"buffer":0,"byteOffset":58604,"byteLength":3136}],"buffers":[{"byteLength":61740,"uri":"data:application/octet-stream;base64,"}],"accessors":[{"bufferView":0,"componentType":5126,"count":80,"max":[0.1259712427854538,1.6633468866348267,0.5400018692016602],"min":[-0.1240287497639656,-1.1491531133651733,-0.22750186920166016],"type":"VEC3"},{"bufferView":1,"componentType":5126,"count":80,"max":[1,1,1],"min":[-1,-1,-1],"type":"VEC3"},{"bufferView":2,"componentType":5126,"count":80,"max":[0.734375,0.6875],"min":[0,0],"type":"VEC2"},{"bufferView":3,"componentType":5123,"count":120,"max":[79],"min":[0],"type":"SCALAR"},{"bufferView":4,"componentType":5126,"count":64,"max":[0.5466681122779846,0.6104249954223633,0.09375],"min":[-0.5456968545913696,-0.4692356288433075,-0.34375],"type":"VEC3"},{"bufferView":5,"componentType":5126,"count":64,"max":[1,1,1],"min":[-1,-1,-1],"type":"VEC3"},{"bufferView":6,"componentType":5126,"count":64,"max":[0.6875,0.75],"min":[0,0],"type":"VEC2"},{"bufferView":7,"componentType":5123,"count":96,"max":[63],"min":[0],"type":"SCALAR"},{"bufferView":8,"componentType":5126,"count":60,"max":[0.5466506481170654,0.6548818945884705,0.5117200016975403],"min":[-0.5520612597465515,-0.47861313819885254,-0.22750186920166016],"type":"VEC3"},{"bufferView":9,"componentType":5126,"count":60,"max":[1,1,1],"min":[-1,-1,-1],"type":"VEC3"},{"bufferView":10,"componentType":5126,"count":60,"max":[0.734375,0.75],"min":[0,0],"type":"VEC2"},{"bufferView":11,"componentType":5123,"count":90,"max":[59],"min":[0],"type":"SCALAR"},{"bufferView":12,"componentType":5126,"count":56,"max":[0.09375,0.75,0.483196884393692],"min":[-0.21903061866760254,-0.3296606242656708,-0.6091681122779846],"type":"VEC3"},{"bufferView":13,"componentType":5126,"count":56,"max":[1,1,1],"min":[-1,-1,-1],"type":"VEC3"},{"bufferView":14,"componentType":5126,"count":56,"max":[0.59375,0.75],"min":[0,0],"type":"VEC2"},{"bufferView":15,"componentType":5123,"count":84,"max":[55],"min":[0],"type":"SCALAR"},{"bufferView":16,"componentType":5126,"count":64,"max":[0.16082000732421875,0.7597662210464478,0.483196884393692],"min":[-0.27667999267578125,-0.3296606242656708,-0.6091687679290771],"type":"VEC3"},{"bufferView":17,"componentType":5126,"count":64,"max":[1,1,1],"min":[-1,-1,-1],"type":"VEC3"},{"bufferView":18,"componentType":5126,"count":64,"max":[0.6875,0.75],"min":[0,0],"type":"VEC2"},{"bufferView":19,"componentType":5123,"count":96,"max":[63],"min":[0],"type":"SCALAR"},{"bufferView":20,"componentType":5126,"count":64,"max":[0.27667999267578125,0.7597662210464478,0.6091687679290771],"min":[-0.16082000732421875,-0.3296606242656708,-0.483196884393692],"type":"VEC3"},{"bufferView":21,"componentType":5126,"count":64,"max":[1,1,1],"min":[-1,-1,-1],"type":"VEC3"},{"bufferView":22,"componentType":5126,"count":64,"max":[0.6875,0.75],"min":[0,0],"type":"VEC2"},{"bufferView":23,"componentType":5123,"count":96,"max":[63],"min":[0],"type":"SCALAR"},{"bufferView":24,"componentType":5126,"count":60,"max":[0.09375,0.6972662210464478,0.6091687679290771],"min":[-0.3260537385940552,-0.3296606242656708,-0.483196884393692],"type":"VEC3"},{"bufferView":25,"componentType":5126,"count":60,"max":[1,1,1],"min":[-1,-1,-1],"type":"VEC3"},{"bufferView":26,"componentType":5126,"count":60,"max":[0.6875,0.75],"min":[0,0],"type":"VEC2"},{"bufferView":27,"componentType":5123,"count":90,"max":[59],"min":[0],"type":"SCALAR"},{"bufferView":28,"componentType":5126,"count":64,"max":[0.14044561982154846,0.75,0.6091681122779846],"min":[-0.29705438017845154,-0.3296606242656708,-0.483196884393692],"type":"VEC3"},{"bufferView":29,"componentType":5126,"count":64,"max":[1,1,1],"min":[-1,-1,-1],"type":"VEC3"},{"bufferView":30,"componentType":5126,"count":64,"max":[0.6875,0.75],"min":[0,0],"type":"VEC2"},{"bufferView":31,"componentType":5123,"count":96,"max":[63],"min":[0],"type":"SCALAR"},{"bufferView":32,"componentType":5126,"count":60,"max":[0.28153061866760254,0.75,0.483196884393692],"min":[-0.15596938133239746,-0.3291749954223633,-0.6081968545913696],"type":"VEC3"},{"bufferView":33,"componentType":5126,"count":60,"max":[1,1,1],"min":[-1,-1,-1],"type":"VEC3"},{"bufferView":34,"componentType":5126,"count":60,"max":[0.6875,0.75],"min":[0,0],"type":"VEC2"},{"bufferView":35,"componentType":5123,"count":90,"max":[59],"min":[0],"type":"SCALAR"},{"bufferView":36,"componentType":5126,"count":64,"max":[0.5779181122779846,0.7504855990409851,0.15625],"min":[-0.5144468545913696,-0.3291749954223633,-0.28125],"type":"VEC3"},{"bufferView":37,"componentType":5126,"count":64,"max":[1,1,1],"min":[-1,-1,-1],"type":"VEC3"},{"bufferView":38,"componentType":5126,"count":64,"max":[0.6875,0.75],"min":[0,0],"type":"VEC2"},{"bufferView":39,"componentType":5123,"count":96,"max":[63],"min":[0],"type":"SCALAR"},{"bufferView":40,"componentType":5126,"count":8,"max":[0.1715606302022934,0.1565643697977066,0],"min":[-0.1409393697977066,-0.1559356302022934,-1.25],"type":"VEC3"},{"bufferView":41,"componentType":5126,"count":8,"max":[1,1,0],"min":[0,0,0],"type":"VEC3"},{"bufferView":42,"componentType":5126,"count":8,"max":[0.3046875,0.936718761920929],"min":[0,0.858593761920929],"type":"VEC2"},{"bufferView":43,"componentType":5123,"count":12,"max":[7],"min":[0],"type":"SCALAR"},{"bufferView":44,"componentType":5126,"count":196,"max":[5.983333110809326],"min":[0],"type":"SCALAR"},{"bufferView":45,"componentType":5126,"count":196,"max":[0.2151116132736206,-0.10826276987791061,-0.8233326077461243,0.5143354535102844],"min":[0.20551219582557678,-0.1242179423570633,-0.8336222171783447,0.4972268342971802],"type":"VEC4"},{"bufferView":46,"componentType":5126,"count":196,"max":[5.983333110809326],"min":[0],"type":"SCALAR"},{"bufferView":47,"componentType":5126,"count":196,"max":[0.4304708242416382,-0.2167803794145584,-0.7817659974098206,0.3954288065433502],"min":[0.4212172329425812,-0.23510979115962982,-0.7914170622825623,0.37622034549713135],"type":"VEC4"},{"bufferView":48,"componentType":5126,"count":196,"max":[5.983333110809326],"min":[0],"type":"SCALAR"},{"bufferView":49,"componentType":5126,"count":196,"max":[-0.4212172329425812,-0.2167803794145584,0.7914170622825623,0.39542436599731445],"min":[-0.4304708242416382,-0.23510979115962982,0.7817659974098206,0.3762158453464508],"type":"VEC4"},{"bufferView":50,"componentType":5126,"count":196,"max":[5.983333110809326],"min":[0],"type":"SCALAR"},{"bufferView":51,"componentType":5126,"count":196,"max":[-0.8618008494377136,-0.29478514194488525,0.3839150369167328,0.12585508823394775],"min":[-0.8686018586158752,-0.3147531747817993,0.3775317370891571,0.1070132628083229],"type":"VEC4"},{"bufferView":52,"componentType":5126,"count":196,"max":[5.983333110809326],"min":[0],"type":"SCALAR"},{"bufferView":53,"componentType":5126,"count":196,"max":[0.8686018586158752,-0.29478514194488525,-0.3775317370891571,0.12585508823394775],"min":[0.8618008494377136,-0.3147531747817993,-0.3839150369167328,0.1070132628083229],"type":"VEC4"},{"bufferView":54,"componentType":5126,"count":196,"max":[5.983333110809326],"min":[0],"type":"SCALAR"},{"bufferView":55,"componentType":5126,"count":196,"max":[0.9468589425086975,0.17566105723381042,-0.16399990022182465,0.2397766262292862],"min":[0.9408225417137146,0.15709376335144043,-0.17020227015018463,0.22239114344120026],"type":"VEC4"},{"bufferView":56,"componentType":5126,"count":196,"max":[5.983333110809326],"min":[0],"type":"SCALAR"},{"bufferView":57,"componentType":5126,"count":196,"max":[0.3941066861152649,0.2524445652961731,0.8257893919944763,0.34799787402153015],"min":[0.3852750062942505,0.23414090275764465,0.8167136907577515,0.32867133617401123],"type":"VEC4"},{"bufferView":58,"componentType":5126,"count":196,"max":[5.983333110809326],"min":[0],"type":"SCALAR"},{"bufferView":59,"componentType":5126,"count":196,"max":[-0.3535698652267456,0.21377815306186676,-0.8139696717262268,0.40861913561820984],"min":[-0.3626987338066101,0.19597944617271423,-0.8235686421394348,0.389751136302948],"type":"VEC4"},{"bufferView":60,"componentType":5126,"count":196,"max":[5.983333110809326],"min":[0],"type":"SCALAR"},{"bufferView":61,"componentType":5126,"count":196,"max":[-0.2194821536540985,-0.12130069732666016,0.8415101766586304,0.4916544258594513],"min":[-0.22886618971824646,-0.1375536024570465,0.8314498662948608,0.47422856092453003],"type":"VEC4"},{"bufferView":62,"componentType":5126,"count":196,"max":[5.983333110809326],"min":[0],"type":"SCALAR"},{"bufferView":63,"componentType":5126,"count":196,"max":[0.00872520636767149,0.000058618745242711157,0.008726369589567184,1],"min":[-0.00872520636767149,-0.000058618745242711157,-0.008726369589567184,0.9999405145645142],"type":"VEC4"}],"materials":[{"pbrMetallicRoughness":{"metallicFactor":0,"roughnessFactor":1,"baseColorTexture":{"index":0}},"alphaMode":"MASK","alphaCutoff":0.05,"doubleSided":true}],"textures":[{"sampler":0,"source":0,"name":"pine_tree_small"}],"samplers":[{"magFilter":9728,"minFilter":9728,"wrapS":33071,"wrapT":33071}],"images":[{"mimeType":"image/png","uri":"data:image/png;base64,"}],"meshes":[{"primitives":[{"mode":4,"attributes":{"POSITION":0,"NORMAL":1,"TEXCOORD_0":2},"indices":3,"material":0}]},{"primitives":[{"mode":4,"attributes":{"POSITION":4,"NORMAL":5,"TEXCOORD_0":6},"indices":7,"material":0}]},{"primitives":[{"mode":4,"attributes":{"POSITION":8,"NORMAL":9,"TEXCOORD_0":10},"indices":11,"material":0}]},{"primitives":[{"mode":4,"attributes":{"POSITION":12,"NORMAL":13,"TEXCOORD_0":14},"indices":15,"material":0}]},{"primitives":[{"mode":4,"attributes":{"POSITION":16,"NORMAL":17,"TEXCOORD_0":18},"indices":19,"material":0}]},{"primitives":[{"mode":4,"attributes":{"POSITION":20,"NORMAL":21,"TEXCOORD_0":22},"indices":23,"material":0}]},{"primitives":[{"mode":4,"attributes":{"POSITION":24,"NORMAL":25,"TEXCOORD_0":26},"indices":27,"material":0}]},{"primitives":[{"mode":4,"attributes":{"POSITION":28,"NORMAL":29,"TEXCOORD_0":30},"indices":31,"material":0}]},{"primitives":[{"mode":4,"attributes":{"POSITION":32,"NORMAL":33,"TEXCOORD_0":34},"indices":35,"material":0}]},{"primitives":[{"mode":4,"attributes":{"POSITION":36,"NORMAL":37,"TEXCOORD_0":38},"indices":39,"material":0}]},{"primitives":[{"mode":4,"attributes":{"POSITION":40,"NORMAL":41,"TEXCOORD_0":42},"indices":43,"material":0}]}],"animations":[{"name":"idle","samplers":[{"input":44,"output":45,"interpolation":"LINEAR"},{"input":46,"output":47,"interpolation":"LINEAR"},{"input":48,"output":49,"interpolation":"LINEAR"},{"input":50,"output":51,"interpolation":"LINEAR"},{"input":52,"output":53,"interpolation":"LINEAR"},{"input":54,"output":55,"interpolation":"LINEAR"},{"input":56,"output":57,"interpolation":"LINEAR"},{"input":58,"output":59,"interpolation":"LINEAR"},{"input":60,"output":61,"interpolation":"LINEAR"},{"input":62,"output":63,"interpolation":"LINEAR"}],"channels":[{"sampler":0,"target":{"node":2,"path":"rotation"}},{"sampler":1,"target":{"node":4,"path":"rotation"}},{"sampler":2,"target":{"node":6,"path":"rotation"}},{"sampler":3,"target":{"node":8,"path":"rotation"}},{"sampler":4,"target":{"node":10,"path":"rotation"}},{"sampler":5,"target":{"node":12,"path":"rotation"}},{"sampler":6,"target":{"node":14,"path":"rotation"}},{"sampler":7,"target":{"node":16,"path":"rotation"}},{"sampler":8,"target":{"node":18,"path":"rotation"}},{"sampler":9,"target":{"node":20,"path":"rotation"}}]}]}