{"asset":{"version":"2.0","generator":"Blockbench 5.0.3 glTF exporter"},"scenes":[{"nodes":[17],"name":"blockbench_export"}],"scene":0,"nodes":[{"translation":[-0.0625,0,-0.0625],"name":"cube","mesh":0},{"rotation":[0,-0.13052619222005157,0,0.9914448613738104],"translation":[-0.015421875000000002,0.540716875,0],"name":"cube","mesh":1},{"rotation":[0,0,0.3624380382837016,0.9320078692827986],"translation":[-0.023621875,0.292899375,0],"name":"bone","children":[1]},{"rotation":[0,-0.13052619222005157,0,0.9914448613738104],"translation":[0,0.53125,0],"name":"cube","mesh":2},{"rotation":[-0.25628239463035496,-0.6590290844890921,0.25628239463035496,0.6590290844890923],"translation":[0,0.28946,-0.042611875],"name":"bone5","children":[3]},{"rotation":[0,-0.13052619222005157,0,0.9914448613738104],"translation":[0,0.53125,0],"name":"cube","mesh":3},{"rotation":[-0.47928404847078077,-0.7898355641901553,0.19852592221737597,0.32716057315883573],"translation":[-0.01460875,0.207528125,0.01460875],"name":"bone9","children":[5]},{"rotation":[0,0.13052619222005157,0,0.9914448613738104],"translation":[0,0.53125,0],"name":"cube","mesh":4},{"rotation":[-0.47928404847078077,0.7898355641901553,-0.19852592221737597,0.32716057315883573],"translation":[0.01460875,0.207528125,0.01460875],"name":"bone11","children":[7]},{"rotation":[0,-0.13052619222005157,0,0.9914448613738104],"translation":[0,0.53125,0],"name":"cube","mesh":5},{"rotation":[0.47928404847078077,-0.7898355641901553,-0.19852592221737597,0.32716057315883573],"translation":[0.01460875,0.207528125,-0.01460875],"name":"bone13","children":[9]},{"rotation":[0,0.13052619222005157,0,0.9914448613738104],"translation":[0,0.53125,0],"name":"cube","mesh":6},{"rotation":[0.47928404847078077,0.7898355641901553,0.19852592221737597,0.32716057315883573],"translation":[-0.01460875,0.207528125,-0.01460875],"name":"bone15","children":[11]},{"rotation":[0,0.13052619222005157,0,0.9914448613738104],"translation":[0,0.53125,0],"name":"cube","mesh":7},{"rotation":[0.25628239463035496,0.6590290844890921,0.25628239463035496,0.6590290844890923],"translation":[0,0.28946,0.042611875],"name":"bone7","children":[13]},{"rotation":[0,0.13052619222005157,0,0.9914448613738104],"translation":[0.010480625,0.5408875,0.002764375],"name":"cube","mesh":8},{"rotation":[0,0,-0.3624380382837016,0.9320078692827986],"translation":[0.023621875,0.292899375,0],"name":"bone3","children":[15]},{"name":"root","children":[0,2,4,6,8,10,12,14,16]}],"bufferViews":[{"buffer":0,"byteOffset":0,"byteLength":1440,"target":34962,"byteStride":12},{"buffer":0,"byteOffset":1440,"byteLength":1440,"target":34962,"byteStride":12},{"buffer":0,"byteOffset":2880,"byteLength":960,"target":34962,"byteStride":8},{"buffer":0,"byteOffset":3840,"byteLength":360,"target":34963},{"buffer":0,"byteOffset":4200,"byteLength":1464,"target":34962,"byteStride":12},{"buffer":0,"byteOffset":5664,"byteLength":1464,"target":34962,"byteStride":12},{"buffer":0,"byteOffset":7128,"byteLength":976,"target":34962,"byteStride":8},{"buffer":0,"byteOffset":8104,"byteLength":348,"target":34963},{"buffer":0,"byteOffset":8452,"byteLength":1464,"target":34962,"byteStride":12},{"buffer":0,"byteOffset":9916,"byteLength":1464,"target":34962,"byteStride":12},{"buffer":0,"byteOffset":11380,"byteLength":976,"target":34962,"byteStride":8},{"buffer":0,"byteOffset":12356,"byteLength":348,"target":34963},{"buffer":0,"byteOffset":12704,"byteLength":1464,"target":34962,"byteStride":12},{"buffer":0,"byteOffset":14168,"byteLength":1464,"target":34962,"byteStride":12},{"buffer":0,"byteOffset":15632,"byteLength":976,"target":34962,"byteStride":8},{"buffer":0,"byteOffset":16608,"byteLength":348,"target":34963},{"buffer":0,"byteOffset":16956,"byteLength":1464,"target":34962,"byteStride":12},{"buffer":0,"byteOffset":18420,"byteLength":1464,"target":34962,"byteStride":12},{"buffer":0,"byteOffset":19884,"byteLength":976,"target":34962,"byteStride":8},{"buffer":0,"byteOffset":20860,"byteLength":348,"target":34963},{"buffer":0,"byteOffset":21208,"byteLength":1464,"target":34962,"byteStride":12},{"buffer":0,"byteOffset":22672,"byteLength":1464,"target":34962,"byteStride":12},{"buffer":0,"byteOffset":24136,"byteLength":976,"target":34962,"byteStride":8},{"buffer":0,"byteOffset":25112,"byteLength":348,"target":34963},{"buffer":0,"byteOffset":25460,"byteLength":1464,"target":34962,"byteStride":12},{"buffer":0,"byteOffset":26924,"byteLength":1464,"target":34962,"byteStride":12},{"buffer":0,"byteOffset":28388,"byteLength":976,"target":34962,"byteStride":8},{"buffer":0,"byteOffset":29364,"byteLength":348,"target":34963},{"buffer":0,"byteOffset":29712,"byteLength":1464,"target":34962,"byteStride":12},{"buffer":0,"byteOffset":31176,"byteLength":1464,"target":34962,"byteStride":12},{"buffer":0,"byteOffset":32640,"byteLength":976,"target":34962,"byteStride":8},{"buffer":0,"byteOffset":33616,"byteLength":348,"target":34963},{"buffer":0,"byteOffset":33964,"byteLength":1464,"target":34962,"byteStride":12},{"buffer":0,"byteOffset":35428,"byteLength":1464,"target":34962,"byteStride":12},{"buffer":0,"byteOffset":36892,"byteLength":976,"target":34962,"byteStride":8},{"buffer":0,"byteOffset":37868,"byteLength":348,"target":34963},{"buffer":0,"byteOffset":38216,"byteLength":784},{"buffer":0,"byteOffset":39000,"byteLength":3136},{"buffer":0,"byteOffset":42136,"byteLength":784},{"buffer":0,"byteOffset":42920,"byteLength":3136},{"buffer":0,"byteOffset":46056,"byteLength":784},{"buffer":0,"byteOffset":46840,"byteLength":3136},{"buffer":0,"byteOffset":49976,"byteLength":784},{"buffer":0,"byteOffset":50760,"byteLength":3136},{"buffer":0,"byteOffset":53896,"byteLength":784},{"buffer":0,"byteOffset":54680,"byteLength":3136},{"buffer":0,"byteOffset":57816,"byteLength":784},{"buffer":0,"byteOffset":58600,"byteLength":3136},{"buffer":0,"byteOffset":61736,"byteLength":784},{"buffer":0,"byteOffset":62520,"byteLength":3136},{"buffer":0,"byteOffset":65656,"byteLength":784},{"buffer":0,"byteOffset":66440,"byteLength":3136}],"buffers":[{"byteLength":69576,"uri":"data:application/octet-stream;base64,"}],"accessors":[{"bufferView":0,"componentType":5126,"count":120,"max":[0.27856916189193726,0.3125,0.27856916189193726],"min":[-0.15356917679309845,0,-0.15356917679309845],"type":"VEC3"},{"bufferView":1,"componentType":5126,"count":120,"max":[1,1,1],"min":[-1,-1,-1],"type":"VEC3"},{"bufferView":2,"componentType":5126,"count":120,"max":[0.59375,1],"min":[0,0],"type":"VEC2"},{"bufferView":3,"componentType":5123,"count":180,"max":[119],"min":[0],"type":"SCALAR"},{"bufferView":4,"componentType":5126,"count":122,"max":[1.78166700948168e-7,0.4946819543838501,0.33351248502731323],"min":[-0.3356713354587555,-0.53125,-0.24356965720653534],"type":"VEC3"},{"bufferView":5,"componentType":5126,"count":122,"max":[1,0.5434932708740234,0.04330677166581154],"min":[-0.2588261067867279,-0.000005120597961649764,-0.9659239053726196],"type":"VEC3"},{"bufferView":6,"componentType":5126,"count":122,"max":[1,1],"min":[0,0],"type":"VEC2"},{"bufferView":7,"componentType":5123,"count":174,"max":[121],"min":[0],"type":"SCALAR"},{"bufferView":8,"componentType":5126,"count":122,"max":[1.78166700948168e-7,0.4946819543838501,0.33351248502731323],"min":[-0.3356713354587555,-0.53125,-0.24356965720653534],"type":"VEC3"},{"bufferView":9,"componentType":5126,"count":122,"max":[1,0.5434932708740234,0.04330677166581154],"min":[-0.2588261067867279,-0.000005120597961649764,-0.9659239053726196],"type":"VEC3"},{"bufferView":10,"componentType":5126,"count":122,"max":[1,1],"min":[0,0],"type":"VEC2"},{"bufferView":11,"componentType":5123,"count":174,"max":[121],"min":[0],"type":"SCALAR"},{"bufferView":12,"componentType":5126,"count":122,"max":[1.78166700948168e-7,0.4946819543838501,0.33351248502731323],"min":[-0.3356713354587555,-0.53125,-0.24356965720653534],"type":"VEC3"},{"bufferView":13,"componentType":5126,"count":122,"max":[1,0.5434932708740234,0.04330677166581154],"min":[-0.2588261067867279,-0.000005120597961649764,-0.9659239053726196],"type":"VEC3"},{"bufferView":14,"componentType":5126,"count":122,"max":[1,1],"min":[0,0],"type":"VEC2"},{"bufferView":15,"componentType":5123,"count":174,"max":[121],"min":[0],"type":"SCALAR"},{"bufferView":16,"componentType":5126,"count":122,"max":[0.3356713354587555,0.4946819543838501,0.33351248502731323],"min":[-1.78166700948168e-7,-0.53125,-0.24356965720653534],"type":"VEC3"},{"bufferView":17,"componentType":5126,"count":122,"max":[1,0.5434932708740234,0.04330677166581154],"min":[-1,-0.000005120597961649764,-0.9659239053726196],"type":"VEC3"},{"bufferView":18,"componentType":5126,"count":122,"max":[1,1],"min":[0,0],"type":"VEC2"},{"bufferView":19,"componentType":5123,"count":174,"max":[121],"min":[0],"type":"SCALAR"},{"bufferView":20,"componentType":5126,"count":122,"max":[0.3356713354587555,0.4946819543838501,0.24356965720653534],"min":[-1.78166700948168e-7,-0.53125,-0.33351248502731323],"type":"VEC3"},{"bufferView":21,"componentType":5126,"count":122,"max":[1,0.5434932708740234,0.9659239053726196],"min":[-1,-0.000005120597961649764,-0.04330677166581154],"type":"VEC3"},{"bufferView":22,"componentType":5126,"count":122,"max":[1,1],"min":[0,0],"type":"VEC2"},{"bufferView":23,"componentType":5123,"count":174,"max":[121],"min":[0],"type":"SCALAR"},{"bufferView":24,"componentType":5126,"count":122,"max":[1.78166700948168e-7,0.4946819543838501,0.24356965720653534],"min":[-0.3356713354587555,-0.53125,-0.33351248502731323],"type":"VEC3"},{"bufferView":25,"componentType":5126,"count":122,"max":[1,0.5434932708740234,0.9659239053726196],"min":[-0.2588261067867279,-0.000005120597961649764,-0.04330677166581154],"type":"VEC3"},{"bufferView":26,"componentType":5126,"count":122,"max":[1,1],"min":[0,0],"type":"VEC2"},{"bufferView":27,"componentType":5123,"count":174,"max":[121],"min":[0],"type":"SCALAR"},{"bufferView":28,"componentType":5126,"count":122,"max":[1.78166700948168e-7,0.4946819543838501,0.24356965720653534],"min":[-0.3356713354587555,-0.53125,-0.33351248502731323],"type":"VEC3"},{"bufferView":29,"componentType":5126,"count":122,"max":[1,0.5434932708740234,0.9659239053726196],"min":[-0.2588261067867279,-0.000005120597961649764,-0.04330677166581154],"type":"VEC3"},{"bufferView":30,"componentType":5126,"count":122,"max":[1,1],"min":[0,0],"type":"VEC2"},{"bufferView":31,"componentType":5123,"count":174,"max":[121],"min":[0],"type":"SCALAR"},{"bufferView":32,"componentType":5126,"count":122,"max":[0.3356713354587555,0.4946819543838501,0.33351248502731323],"min":[-1.78166700948168e-7,-0.53125,-0.24356965720653534],"type":"VEC3"},{"bufferView":33,"componentType":5126,"count":122,"max":[1,0.5434932708740234,0.04330677166581154],"min":[-1,-0.000005120597961649764,-0.9659239053726196],"type":"VEC3"},{"bufferView":34,"componentType":5126,"count":122,"max":[1,1],"min":[0,0],"type":"VEC2"},{"bufferView":35,"componentType":5123,"count":174,"max":[121],"min":[0],"type":"SCALAR"},{"bufferView":36,"componentType":5126,"count":196,"max":[5.983333110809326],"min":[0],"type":"SCALAR"},{"bufferView":37,"componentType":5126,"count":196,"max":[0.008132923394441605,0.003165901405736804,0.37055039405822754,0.9351174235343933],"min":[-0.008132923394441605,-0.003165901405736804,0.35428428649902344,0.928791880607605],"type":"VEC4"},{"bufferView":38,"componentType":5126,"count":196,"max":[5.983333110809326],"min":[0],"type":"SCALAR"},{"bufferView":39,"componentType":5126,"count":196,"max":[-0.24616116285324097,-0.6550925970077515,0.26640310883522034,0.6629642248153687],"min":[-0.26640310883522034,-0.6629648208618164,0.24616116285324097,0.6550923585891724],"type":"VEC4"},{"bufferView":40,"componentType":5126,"count":196,"max":[5.983333110809326],"min":[0],"type":"SCALAR"},{"bufferView":41,"componentType":5126,"count":196,"max":[-0.47028714418411255,-0.7843584418296814,0.20699210464954376,0.3323139548301697],"min":[-0.48824697732925415,-0.7952567338943481,0.19009046256542206,0.3220578134059906],"type":"VEC4"},{"bufferView":42,"componentType":5126,"count":196,"max":[5.983333110809326],"min":[0],"type":"SCALAR"},{"bufferView":43,"componentType":5126,"count":196,"max":[-0.47028714418411255,0.7952567338943481,-0.19009046256542206,0.3323139548301697],"min":[-0.48824697732925415,0.7843584418296814,-0.20699210464954376,0.3220578134059906],"type":"VEC4"},{"bufferView":44,"componentType":5126,"count":196,"max":[5.983333110809326],"min":[0],"type":"SCALAR"},{"bufferView":45,"componentType":5126,"count":196,"max":[0.48824697732925415,-0.7843584418296814,-0.19009046256542206,0.3323139548301697],"min":[0.47028714418411255,-0.7952567338943481,-0.20699210464954376,0.3220578134059906],"type":"VEC4"},{"bufferView":46,"componentType":5126,"count":196,"max":[5.983333110809326],"min":[0],"type":"SCALAR"},{"bufferView":47,"componentType":5126,"count":196,"max":[0.48824697732925415,0.7952567338943481,0.20699210464954376,0.3323139548301697],"min":[0.47028714418411255,0.7843584418296814,0.19009046256542206,0.3220578134059906],"type":"VEC4"},{"bufferView":48,"componentType":5126,"count":196,"max":[5.983333110809326],"min":[0],"type":"SCALAR"},{"bufferView":49,"componentType":5126,"count":196,"max":[0.26640310883522034,0.6629642248153687,0.2664041817188263,0.6629642248153687],"min":[0.24616020917892456,0.6550925970077515,0.24616116285324097,0.6550925970077515],"type":"VEC4"},{"bufferView":50,"componentType":5126,"count":196,"max":[5.983333110809326],"min":[0],"type":"SCALAR"},{"bufferView":51,"componentType":5126,"count":196,"max":[0.008132923394441605,0.003165901405736804,-0.35428428649902344,0.9351174235343933],"min":[-0.008132923394441605,-0.003165901405736804,-0.37055039405822754,0.928791880607605],"type":"VEC4"}],"materials":[{"pbrMetallicRoughness":{"metallicFactor":0,"roughnessFactor":1,"baseColorTexture":{"index":0}},"alphaMode":"MASK","alphaCutoff":0.05,"doubleSided":true}],"textures":[{"sampler":0,"source":0,"name":"banana_plant"}],"samplers":[{"magFilter":9728,"minFilter":9728,"wrapS":33071,"wrapT":33071}],"images":[{"mimeType":"image/png","uri":"data:image/png;base64,"}],"meshes":[{"primitives":[{"mode":4,"attributes":{"POSITION":0,"NORMAL":1,"TEXCOORD_0":2},"indices":3,"material":0}]},{"primitives":[{"mode":4,"attributes":{"POSITION":4,"NORMAL":5,"TEXCOORD_0":6},"indices":7,"material":0}]},{"primitives":[{"mode":4,"attributes":{"POSITION":8,"NORMAL":9,"TEXCOORD_0":10},"indices":11,"material":0}]},{"primitives":[{"mode":4,"attributes":{"POSITION":12,"NORMAL":13,"TEXCOORD_0":14},"indices":15,"material":0}]},{"primitives":[{"mode":4,"attributes":{"POSITION":16,"NORMAL":17,"TEXCOORD_0":18},"indices":19,"material":0}]},{"primitives":[{"mode":4,"attributes":{"POSITION":20,"NORMAL":21,"TEXCOORD_0":22},"indices":23,"material":0}]},{"primitives":[{"mode":4,"attributes":{"POSITION":24,"NORMAL":25,"TEXCOORD_0":26},"indices":27,"material":0}]},{"primitives":[{"mode":4,"attributes":{"POSITION":28,"NORMAL":29,"TEXCOORD_0":30},"indices":31,"material":0}]},{"primitives":[{"mode":4,"attributes":{"POSITION":32,"NORMAL":33,"TEXCOORD_0":34},"indices":35,"material":0}]}],"animations":[{"name":"idle","samplers":[{"input":36,"output":37,"interpolation":"LINEAR"},{"input":38,"output":39,"interpolation":"LINEAR"},{"input":40,"output":41,"interpolation":"LINEAR"},{"input":42,"output":43,"interpolation":"LINEAR"},{"input":44,"output":45,"interpolation":"LINEAR"},{"input":46,"output":47,"interpolation":"LINEAR"},{"input":48,"output":49,"interpolation":"LINEAR"},{"input":50,"output":51,"interpolation":"LINEAR"}],"channels":[{"sampler":0,"target":{"node":2,"path":"rotation"}},{"sampler":1,"target":{"node":4,"path":"rotation"}},{"sampler":2,"target":{"node":6,"path":"rotation"}},{"sampler":3,"target":{"node":8,"path":"rotation"}},{"sampler":4,"target":{"node":10,"path":"rotation"}},{"sampler":5,"target":{"node":12,"path":"rotation"}},{"sampler":6,"target":{"node":14,"path":"rotation"}},{"sampler":7,"target":{"node":16,"path":"rotation"}}]}]}