{"asset":{"version":"2.0","generator":"Blockbench 5.0.3 glTF exporter"},"scenes":[{"nodes":[24],"name":"blockbench_export"}],"scene":0,"nodes":[{"name":"cube","mesh":0},{"rotation":[0,-0.9238795325112867,0,0.38268343236508984],"translation":[0,0.046875,0],"name":"Fern5","children":[0]},{"name":"cube","mesh":1},{"rotation":[0,0.9238795325112867,0,0.38268343236508984],"translation":[0,0.046875,0],"name":"Fern6","children":[2]},{"name":"cube","mesh":2},{"rotation":[0,0.3826834323650898,0,0.9238795325112867],"translation":[0,0.046875,0],"name":"Fern7","children":[4]},{"name":"cube","mesh":3},{"rotation":[0,-0.3826834323650898,0,0.9238795325112867],"translation":[0,0.046875,0],"name":"Fern8","children":[6]},{"rotation":[0.08583150021741917,0.015135292037919641,-0.1729873190227778,0.9810602753973201],"translation":[0,0.065118125,0.005696875],"name":"cube","mesh":4},{"rotation":[-0.25881904510252074,0,0,0.9659258262890683],"translation":[0,0.015625,0],"name":"Fern","children":[8]},{"rotation":[0.08583150021741917,-0.015135292037919641,0.1729873190227778,0.9810602753973201],"translation":[0,0.065118125,0.005696875],"name":"cube","mesh":5},{"rotation":[-0.1830127018922193,0.6830127018922193,0.18301270189221933,0.6830127018922194],"name":"Fern2","children":[10]},{"rotation":[0.08583150021741917,-0.015135292037919641,0.1729873190227778,0.9810602753973201],"translation":[0,0.065118125,0.005696875],"name":"cube","mesh":6},{"rotation":[5.914589856893349e-17,0.9659258262890683,0.25881904510252074,1.5848095757158825e-17],"name":"Fern3","children":[12]},{"rotation":[0.08583150021741917,-0.015135292037919641,0.1729873190227778,0.9810602753973201],"translation":[0,0.065118125,0.005696875],"name":"cube","mesh":7},{"rotation":[-0.1830127018922193,-0.6830127018922193,-0.18301270189221933,0.6830127018922194],"name":"Fern4","children":[14]},{"rotation":[0,0,0.17364817766693033,0.984807753012208],"name":"cube","mesh":8},{"rotation":[-0.573576436351046,0,0,0.8191520442889918],"name":"Fern9","children":[16]},{"rotation":[0,0,0.17364817766693033,0.984807753012208],"name":"cube","mesh":9},{"rotation":[-0.4055797876726388,0.5792279653395691,0.40557978767263886,0.5792279653395692],"name":"Fern10","children":[18]},{"rotation":[0,0,0.17364817766693033,0.984807753012208],"name":"cube","mesh":10},{"rotation":[5.015859645267623e-17,0.8191520442889917,0.5735764363510462,3.512142734218271e-17],"name":"Fern11","children":[20]},{"rotation":[0,0,0.17364817766693033,0.984807753012208],"name":"cube","mesh":11},{"rotation":[-0.4055797876726388,-0.5792279653395691,-0.40557978767263886,0.5792279653395692],"name":"Fern12","children":[22]},{"name":"Fern-1","children":[1,3,5,7,9,11,13,15,17,19,21,23]}],"bufferViews":[{"buffer":0,"byteOffset":0,"byteLength":288,"target":34962,"byteStride":12},{"buffer":0,"byteOffset":288,"byteLength":288,"target":34962,"byteStride":12},{"buffer":0,"byteOffset":576,"byteLength":192,"target":34962,"byteStride":8},{"buffer":0,"byteOffset":768,"byteLength":72,"target":34963},{"buffer":0,"byteOffset":840,"byteLength":288,"target":34962,"byteStride":12},{"buffer":0,"byteOffset":1128,"byteLength":288,"target":34962,"byteStride":12},{"buffer":0,"byteOffset":1416,"byteLength":192,"target":34962,"byteStride":8},{"buffer":0,"byteOffset":1608,"byteLength":72,"target":34963},{"buffer":0,"byteOffset":1680,"byteLength":288,"target":34962,"byteStride":12},{"buffer":0,"byteOffset":1968,"byteLength":288,"target":34962,"byteStride":12},{"buffer":0,"byteOffset":2256,"byteLength":192,"target":34962,"byteStride":8},{"buffer":0,"byteOffset":2448,"byteLength":72,"target":34963},{"buffer":0,"byteOffset":2520,"byteLength":288,"target":34962,"byteStride":12},{"buffer":0,"byteOffset":2808,"byteLength":288,"target":34962,"byteStride":12},{"buffer":0,"byteOffset":3096,"byteLength":192,"target":34962,"byteStride":8},{"buffer":0,"byteOffset":3288,"byteLength":72,"target":34963},{"buffer":0,"byteOffset":3360,"byteLength":576,"target":34962,"byteStride":12},{"buffer":0,"byteOffset":3936,"byteLength":576,"target":34962,"byteStride":12},{"buffer":0,"byteOffset":4512,"byteLength":384,"target":34962,"byteStride":8},{"buffer":0,"byteOffset":4896,"byteLength":144,"target":34963},{"buffer":0,"byteOffset":5040,"byteLength":576,"target":34962,"byteStride":12},{"buffer":0,"byteOffset":5616,"byteLength":576,"target":34962,"byteStride":12},{"buffer":0,"byteOffset":6192,"byteLength":384,"target":34962,"byteStride":8},{"buffer":0,"byteOffset":6576,"byteLength":144,"target":34963},{"buffer":0,"byteOffset":6720,"byteLength":576,"target":34962,"byteStride":12},{"buffer":0,"byteOffset":7296,"byteLength":576,"target":34962,"byteStride":12},{"buffer":0,"byteOffset":7872,"byteLength":384,"target":34962,"byteStride":8},{"buffer":0,"byteOffset":8256,"byteLength":144,"target":34963},{"buffer":0,"byteOffset":8400,"byteLength":576,"target":34962,"byteStride":12},{"buffer":0,"byteOffset":8976,"byteLength":576,"target":34962,"byteStride":12},{"buffer":0,"byteOffset":9552,"byteLength":384,"target":34962,"byteStride":8},{"buffer":0,"byteOffset":9936,"byteLength":144,"target":34963},{"buffer":0,"byteOffset":10080,"byteLength":576,"target":34962,"byteStride":12},{"buffer":0,"byteOffset":10656,"byteLength":576,"target":34962,"byteStride":12},{"buffer":0,"byteOffset":11232,"byteLength":384,"target":34962,"byteStride":8},{"buffer":0,"byteOffset":11616,"byteLength":144,"target":34963},{"buffer":0,"byteOffset":11760,"byteLength":576,"target":34962,"byteStride":12},{"buffer":0,"byteOffset":12336,"byteLength":576,"target":34962,"byteStride":12},{"buffer":0,"byteOffset":12912,"byteLength":384,"target":34962,"byteStride":8},{"buffer":0,"byteOffset":13296,"byteLength":144,"target":34963},{"buffer":0,"byteOffset":13440,"byteLength":576,"target":34962,"byteStride":12},{"buffer":0,"byteOffset":14016,"byteLength":576,"target":34962,"byteStride":12},{"buffer":0,"byteOffset":14592,"byteLength":384,"target":34962,"byteStride":8},{"buffer":0,"byteOffset":14976,"byteLength":144,"target":34963},{"buffer":0,"byteOffset":15120,"byteLength":576,"target":34962,"byteStride":12},{"buffer":0,"byteOffset":15696,"byteLength":576,"target":34962,"byteStride":12},{"buffer":0,"byteOffset":16272,"byteLength":384,"target":34962,"byteStride":8},{"buffer":0,"byteOffset":16656,"byteLength":144,"target":34963},{"buffer":0,"byteOffset":16800,"byteLength":784},{"buffer":0,"byteOffset":17584,"byteLength":3136},{"buffer":0,"byteOffset":20720,"byteLength":784},{"buffer":0,"byteOffset":21504,"byteLength":3136},{"buffer":0,"byteOffset":24640,"byteLength":784},{"buffer":0,"byteOffset":25424,"byteLength":3136},{"buffer":0,"byteOffset":28560,"byteLength":784},{"buffer":0,"byteOffset":29344,"byteLength":3136},{"buffer":0,"byteOffset":32480,"byteLength":784},{"buffer":0,"byteOffset":33264,"byteLength":3136},{"buffer":0,"byteOffset":36400,"byteLength":784},{"buffer":0,"byteOffset":37184,"byteLength":3136},{"buffer":0,"byteOffset":40320,"byteLength":784},{"buffer":0,"byteOffset":41104,"byteLength":3136},{"buffer":0,"byteOffset":44240,"byteLength":784},{"buffer":0,"byteOffset":45024,"byteLength":3136}],"buffers":[{"byteLength":48160,"uri":"data:application/octet-stream;base64,"}],"accessors":[{"bufferView":0,"componentType":5126,"count":24,"max":[0.5,0,1.5],"min":[-0.5,0,0],"type":"VEC3"},{"bufferView":1,"componentType":5126,"count":24,"max":[0,1,0],"min":[0,-1,0],"type":"VEC3"},{"bufferView":2,"componentType":5126,"count":24,"max":[0.4453125,0.5625],"min":[0.1953125,0.375],"type":"VEC2"},{"bufferView":3,"componentType":5123,"count":36,"max":[23],"min":[0],"type":"SCALAR"},{"bufferView":4,"componentType":5126,"count":24,"max":[0.5,0,1.5],"min":[-0.5,0,0],"type":"VEC3"},{"bufferView":5,"componentType":5126,"count":24,"max":[0,1,0],"min":[0,-1,0],"type":"VEC3"},{"bufferView":6,"componentType":5126,"count":24,"max":[0.4453125,0.5625],"min":[0.1953125,0.375],"type":"VEC2"},{"bufferView":7,"componentType":5123,"count":36,"max":[23],"min":[0],"type":"SCALAR"},{"bufferView":8,"componentType":5126,"count":24,"max":[0.5,0,1.5],"min":[-0.5,0,0],"type":"VEC3"},{"bufferView":9,"componentType":5126,"count":24,"max":[0,1,0],"min":[0,-1,0],"type":"VEC3"},{"bufferView":10,"componentType":5126,"count":24,"max":[0.4453125,0.5625],"min":[0.1953125,0.375],"type":"VEC2"},{"bufferView":11,"componentType":5123,"count":36,"max":[23],"min":[0],"type":"SCALAR"},{"bufferView":12,"componentType":5126,"count":24,"max":[0.5,0,1.5],"min":[-0.5,0,0],"type":"VEC3"},{"bufferView":13,"componentType":5126,"count":24,"max":[0,1,0],"min":[0,-1,0],"type":"VEC3"},{"bufferView":14,"componentType":5126,"count":24,"max":[0.4453125,0.5625],"min":[0.1953125,0.375],"type":"VEC2"},{"bufferView":15,"componentType":5123,"count":36,"max":[23],"min":[0],"type":"SCALAR"},{"bufferView":16,"componentType":5126,"count":48,"max":[0.5824968814849854,0.03759562596678734,1.3976444005966187],"min":[-0.3967075049877167,-0.5480587482452393,0.0056968750432133675],"type":"VEC3"},{"bufferView":17,"componentType":5126,"count":48,"max":[0.6427878737449646,1,0.6040241122245789],"min":[-0.6427872776985168,-1,-0.6040238738059998],"type":"VEC3"},{"bufferView":18,"componentType":5126,"count":48,"max":[0.4453125,0.5625],"min":[0.1953125,0.375],"type":"VEC2"},{"bufferView":19,"componentType":5123,"count":72,"max":[47],"min":[0],"type":"SCALAR"},{"bufferView":20,"componentType":5126,"count":48,"max":[0.3967075049877167,0.03759562596678734,1.3976444005966187],"min":[-0.5824968814849854,-0.5480587482452393,0.0056968750432133675],"type":"VEC3"},{"bufferView":21,"componentType":5126,"count":48,"max":[0.6427872776985168,1,0.6040232181549072],"min":[-0.6427878737449646,-1,-0.6040229797363281],"type":"VEC3"},{"bufferView":22,"componentType":5126,"count":48,"max":[0.4453125,0.5625],"min":[0.1953125,0.375],"type":"VEC2"},{"bufferView":23,"componentType":5123,"count":72,"max":[47],"min":[0],"type":"SCALAR"},{"bufferView":24,"componentType":5126,"count":48,"max":[0.3967075049877167,0.03759562596678734,1.3976444005966187],"min":[-0.5824968814849854,-0.5480587482452393,0.0056968750432133675],"type":"VEC3"},{"bufferView":25,"componentType":5126,"count":48,"max":[0.6427872776985168,1,0.6040232181549072],"min":[-0.6427878737449646,-1,-0.6040229797363281],"type":"VEC3"},{"bufferView":26,"componentType":5126,"count":48,"max":[0.4453125,0.5625],"min":[0.1953125,0.375],"type":"VEC2"},{"bufferView":27,"componentType":5123,"count":72,"max":[47],"min":[0],"type":"SCALAR"},{"bufferView":28,"componentType":5126,"count":48,"max":[0.3967075049877167,0.03759562596678734,1.3976444005966187],"min":[-0.5824968814849854,-0.5480587482452393,0.0056968750432133675],"type":"VEC3"},{"bufferView":29,"componentType":5126,"count":48,"max":[0.6427872776985168,1,0.6040232181549072],"min":[-0.6427878737449646,-1,-0.6040229797363281],"type":"VEC3"},{"bufferView":30,"componentType":5126,"count":48,"max":[0.4453125,0.5625],"min":[0.1953125,0.375],"type":"VEC2"},{"bufferView":31,"componentType":5123,"count":72,"max":[47],"min":[0],"type":"SCALAR"},{"bufferView":32,"componentType":5126,"count":48,"max":[0.3935999870300293,0.029061874374747276,0.9381668567657471],"min":[-0.7203481197357178,-0.9267950057983398,0],"type":"VEC3"},{"bufferView":33,"componentType":5126,"count":48,"max":[0.6427872776985168,1,0.9361168146133423],"min":[-0.6427872776985168,-1,-0.9361168146133423],"type":"VEC3"},{"bufferView":34,"componentType":5126,"count":48,"max":[0.4453125,0.5625],"min":[0.1953125,0.375],"type":"VEC2"},{"bufferView":35,"componentType":5123,"count":72,"max":[47],"min":[0],"type":"SCALAR"},{"bufferView":36,"componentType":5126,"count":48,"max":[0.3935999870300293,0.029061874374747276,0.9381668567657471],"min":[-0.7203481197357178,-0.9267950057983398,0],"type":"VEC3"},{"bufferView":37,"componentType":5126,"count":48,"max":[0.6427872776985168,1,0.9361168146133423],"min":[-0.6427872776985168,-1,-0.9361168146133423],"type":"VEC3"},{"bufferView":38,"componentType":5126,"count":48,"max":[0.4453125,0.5625],"min":[0.1953125,0.375],"type":"VEC2"},{"bufferView":39,"componentType":5123,"count":72,"max":[47],"min":[0],"type":"SCALAR"},{"bufferView":40,"componentType":5126,"count":48,"max":[0.3935999870300293,0.029061874374747276,0.9381668567657471],"min":[-0.7203481197357178,-0.9267950057983398,0],"type":"VEC3"},{"bufferView":41,"componentType":5126,"count":48,"max":[0.6427872776985168,1,0.9361168146133423],"min":[-0.6427872776985168,-1,-0.9361168146133423],"type":"VEC3"},{"bufferView":42,"componentType":5126,"count":48,"max":[0.4453125,0.5625],"min":[0.1953125,0.375],"type":"VEC2"},{"bufferView":43,"componentType":5123,"count":72,"max":[47],"min":[0],"type":"SCALAR"},{"bufferView":44,"componentType":5126,"count":48,"max":[0.3935999870300293,0.029061874374747276,0.9381668567657471],"min":[-0.7203481197357178,-0.9267950057983398,0],"type":"VEC3"},{"bufferView":45,"componentType":5126,"count":48,"max":[0.6427872776985168,1,0.9361168146133423],"min":[-0.6427872776985168,-1,-0.9361168146133423],"type":"VEC3"},{"bufferView":46,"componentType":5126,"count":48,"max":[0.4453125,0.5625],"min":[0.1953125,0.375],"type":"VEC2"},{"bufferView":47,"componentType":5123,"count":72,"max":[47],"min":[0],"type":"SCALAR"},{"bufferView":48,"componentType":5126,"count":196,"max":[5.983333110809326],"min":[0],"type":"SCALAR"},{"bufferView":49,"componentType":5126,"count":196,"max":[-0.2503812909126282,0.0023105640430003405,0.008442962542176247,0.9681472778320312],"min":[-0.2672370970249176,-0.0023105640430003405,-0.008442962542176247,0.963630735874176],"type":"VEC4"},{"bufferView":50,"componentType":5126,"count":196,"max":[5.983333110809326],"min":[0],"type":"SCALAR"},{"bufferView":51,"componentType":5126,"count":196,"max":[-0.1725018173456192,0.6857427358627319,0.1934814602136612,0.6857427358627319],"min":[-0.1934814602136612,0.6801212430000305,0.1725018173456192,0.6801212430000305],"type":"VEC4"},{"bufferView":52,"componentType":5126,"count":196,"max":[5.983333110809326],"min":[0],"type":"SCALAR"},{"bufferView":53,"componentType":5126,"count":196,"max":[0.008442962542176247,0.9681472778320312,0.2672370970249176,0.0023105640430003405],"min":[-0.008442962542176247,0.963630735874176,0.2503812909126282,-0.0023105640430003405],"type":"VEC4"},{"bufferView":54,"componentType":5126,"count":196,"max":[5.983333110809326],"min":[0],"type":"SCALAR"},{"bufferView":55,"componentType":5126,"count":196,"max":[-0.1725018173456192,-0.6801215410232544,-0.1725018173456192,0.6857427358627319],"min":[-0.19348041713237762,-0.6857427358627319,-0.19348041713237762,0.6801215410232544],"type":"VEC4"},{"bufferView":56,"componentType":5126,"count":196,"max":[5.983333110809326],"min":[0],"type":"SCALAR"},{"bufferView":57,"componentType":5126,"count":196,"max":[-0.566407322883606,0.005049349740147591,0.007179109379649162,0.8241254091262817],"min":[-0.5807018280029297,-0.005049349740147591,-0.007179109379649162,0.8141162395477295],"type":"VEC4"},{"bufferView":58,"componentType":5126,"count":196,"max":[5.983333110809326],"min":[0],"type":"SCALAR"},{"bufferView":59,"componentType":5126,"count":196,"max":[-0.3966365158557892,0.5853883028030396,0.4144282639026642,0.5853883028030396],"min":[-0.4144282639026642,0.5729303956031799,0.3966365158557892,0.5729303956031799],"type":"VEC4"},{"bufferView":60,"componentType":5126,"count":196,"max":[5.983333110809326],"min":[0],"type":"SCALAR"},{"bufferView":61,"componentType":5126,"count":196,"max":[0.007179109379649162,0.8241254091262817,0.5807018280029297,0.005049349740147591],"min":[-0.007179109379649162,0.8141162395477295,0.566407322883606,-0.005049349740147591],"type":"VEC4"},{"bufferView":62,"componentType":5126,"count":196,"max":[5.983333110809326],"min":[0],"type":"SCALAR"},{"bufferView":63,"componentType":5126,"count":196,"max":[-0.3966365158557892,-0.5729309916496277,-0.3966365158557892,0.5853883028030396],"min":[-0.41442739963531494,-0.5853883028030396,-0.41442739963531494,0.5729309916496277],"type":"VEC4"}],"materials":[{"pbrMetallicRoughness":{"metallicFactor":0,"roughnessFactor":1,"baseColorTexture":{"index":0}},"alphaMode":"MASK","alphaCutoff":0.05,"doubleSided":true}],"textures":[{"sampler":0,"source":0,"name":"Fern.png"}],"samplers":[{"magFilter":9728,"minFilter":9728,"wrapS":33071,"wrapT":33071}],"images":[{"mimeType":"image/png","uri":"data:image/png;base64,"}],"meshes":[{"primitives":[{"mode":4,"attributes":{"POSITION":0,"NORMAL":1,"TEXCOORD_0":2},"indices":3,"material":0}]},{"primitives":[{"mode":4,"attributes":{"POSITION":4,"NORMAL":5,"TEXCOORD_0":6},"indices":7,"material":0}]},{"primitives":[{"mode":4,"attributes":{"POSITION":8,"NORMAL":9,"TEXCOORD_0":10},"indices":11,"material":0}]},{"primitives":[{"mode":4,"attributes":{"POSITION":12,"NORMAL":13,"TEXCOORD_0":14},"indices":15,"material":0}]},{"primitives":[{"mode":4,"attributes":{"POSITION":16,"NORMAL":17,"TEXCOORD_0":18},"indices":19,"material":0}]},{"primitives":[{"mode":4,"attributes":{"POSITION":20,"NORMAL":21,"TEXCOORD_0":22},"indices":23,"material":0}]},{"primitives":[{"mode":4,"attributes":{"POSITION":24,"NORMAL":25,"TEXCOORD_0":26},"indices":27,"material":0}]},{"primitives":[{"mode":4,"attributes":{"POSITION":28,"NORMAL":29,"TEXCOORD_0":30},"indices":31,"material":0}]},{"primitives":[{"mode":4,"attributes":{"POSITION":32,"NORMAL":33,"TEXCOORD_0":34},"indices":35,"material":0}]},{"primitives":[{"mode":4,"attributes":{"POSITION":36,"NORMAL":37,"TEXCOORD_0":38},"indices":39,"material":0}]},{"primitives":[{"mode":4,"attributes":{"POSITION":40,"NORMAL":41,"TEXCOORD_0":42},"indices":43,"material":0}]},{"primitives":[{"mode":4,"attributes":{"POSITION":44,"NORMAL":45,"TEXCOORD_0":46},"indices":47,"material":0}]}],"animations":[{"name":"idle","samplers":[{"input":48,"output":49,"interpolation":"LINEAR"},{"input":50,"output":51,"interpolation":"LINEAR"},{"input":52,"output":53,"interpolation":"LINEAR"},{"input":54,"output":55,"interpolation":"LINEAR"},{"input":56,"output":57,"interpolation":"LINEAR"},{"input":58,"output":59,"interpolation":"LINEAR"},{"input":60,"output":61,"interpolation":"LINEAR"},{"input":62,"output":63,"interpolation":"LINEAR"}],"channels":[{"sampler":0,"target":{"node":9,"path":"rotation"}},{"sampler":1,"target":{"node":11,"path":"rotation"}},{"sampler":2,"target":{"node":13,"path":"rotation"}},{"sampler":3,"target":{"node":15,"path":"rotation"}},{"sampler":4,"target":{"node":17,"path":"rotation"}},{"sampler":5,"target":{"node":19,"path":"rotation"}},{"sampler":6,"target":{"node":21,"path":"rotation"}},{"sampler":7,"target":{"node":23,"path":"rotation"}}]}]}