{"asset":{"version":"2.0","generator":"Blockbench 4.12.6 glTF exporter"},"scenes":[{"nodes":[118],"name":"blockbench_export"}],"scene":0,"nodes":[{"translation":[0,0.4453125,0],"name":"torso"},{"name":"hair-0001-extra"},{"translation":[0.109375,0.015625,0.390625],"name":"hair-0001","children":[1]},{"name":"hair-0002-extra"},{"translation":[0.109375,0.015625,0.390625],"name":"hair-0002","children":[3]},{"translation":[0.109375,0.015625,0.390625],"name":"hair-0003"},{"translation":[0.109375,-0.15234375,-0.015625],"name":"hair-0004-extra"},{"translation":[0,0.19921875,0],"name":"hair-0004","children":[6]},{"translation":[0.125,0.01953125,0.21875],"name":"hair-0005-extra"},{"translation":[-0.015625,0.02734375,-0.234375],"name":"hair-0005","children":[8]},{"translation":[0.125,0.01953125,0.21875],"name":"hair-0006-extra"},{"translation":[-0.015625,0.02734375,-0.234375],"name":"hair-0006","children":[10]},{"translation":[0.125,0.01953125,0.21875],"name":"hair-0007-extra"},{"translation":[-0.015625,0.02734375,-0.234375],"name":"hair-0007","children":[12]},{"translation":[0.125,0.01953125,0.21875],"name":"hair-0008-extra"},{"translation":[-0.015625,0.02734375,-0.234375],"name":"hair-0008","children":[14]},{"translation":[0.109375,-0.15234375,-0.015625],"name":"hair-0009-extra"},{"translation":[0,0.19921875,0],"name":"hair-0009","children":[16]},{"translation":[0.125,0.01953125,0.21875],"name":"hair-0010-extra"},{"translation":[-0.015625,0.02734375,-0.234375],"name":"hair-0010","children":[18]},{"translation":[0.109375,0,0.005937500000000012],"name":"eye-right"},{"translation":[0.078125,0,0.005625000000000019],"name":"pupil-right"},{"translation":[-0.109375,0,0.005937500000000012],"name":"eye-left"},{"translation":[-0.078125,0,0.005625000000000019],"name":"pupil-left"},{"translation":[0,0.15234375,-0.209375],"name":"eyes","children":[20,21,22,23]},{"name":"closed-mouth"},{"translation":[0,0.015625,0.0625],"name":"closed-smile"},{"translation":[0.015625,0.015625,0.0625],"name":"closed-smile2"},{"translation":[0,0.015625,0.0625],"name":"closed-teeth-smile"},{"rotation":[0,0,-1,6.123233995736766e-17],"translation":[0,0.015625,0.0625],"name":"closed-frown"},{"translation":[-0.015625,0,0.0625],"name":"open-smile"},{"translation":[0,0,0.0625],"name":"open-frown"},{"translation":[0,0,0.0625],"name":"shocked"},{"translation":[0,0.04296875,-0.2046875],"name":"mouths","children":[25,26,27,28,29,30,31,32]},{"name":"brow"},{"translation":[0.225,0,0],"name":"brow2"},{"translation":[-0.1125,0.19921875,-0.21],"name":"brows","children":[34,35]},{"translation":[0,0.04296875,0],"name":"head","children":[2,4,5,7,9,11,13,15,17,19,24,33,36]},{"translation":[0,0.4375,0],"name":"neck","children":[37]},{"translation":[-0.0234375,-0.359375,0.01171875],"name":"hand-left"},{"translation":[-0.234375,0,0],"name":"arm-left","children":[39]},{"translation":[0.0234375,-0.359375,0.01171875],"name":"hand-right"},{"translation":[0.234375,0,0],"name":"arm-right","children":[41]},{"translation":[0,0.390625,-0.003125],"name":"arms","children":[40,42]},{"translation":[0,0.5546875,0],"name":"upper","children":[0,38,43]},{"translation":[0.0023443749999999958,-0.37119625,0.0234375],"name":"foot-right"},{"translation":[0.103124375,-0.027241249999999995,0],"name":"leg-right","children":[45]},{"translation":[-0.002345,-0.37119625,0.0234375],"name":"foot-left"},{"translation":[-0.10312375,-0.027241249999999995,0],"name":"leg-left","children":[47]},{"translation":[0,0.5234375,0],"name":"lower","children":[46,48]},{"translation":[0,-0.609375,0],"name":"third-person","children":[44,49]},{"translation":[0,0.609375,0],"name":"root","children":[50]},{"translation":[0,0.4453125,0],"name":"torso"},{"name":"hair-0001-extra"},{"translation":[0.109375,0.015625,0.390625],"name":"hair-0001","children":[53]},{"name":"hair-0002-extra"},{"translation":[0.109375,0.015625,0.390625],"name":"hair-0002","children":[55]},{"translation":[0.109375,0.015625,0.390625],"name":"hair-0003"},{"translation":[0.109375,-0.15234375,-0.015625],"name":"hair-0004-extra"},{"translation":[0,0.19921875,0],"name":"hair-0004","children":[58]},{"translation":[0.125,0.01953125,0.21875],"name":"hair-0005-extra"},{"translation":[-0.015625,0.02734375,-0.234375],"name":"hair-0005","children":[60]},{"translation":[0.125,0.01953125,0.21875],"name":"hair-0006-extra"},{"translation":[-0.015625,0.02734375,-0.234375],"name":"hair-0006","children":[62]},{"translation":[0.125,0.01953125,0.21875],"name":"hair-0007-extra"},{"translation":[-0.015625,0.02734375,-0.234375],"name":"hair-0007","children":[64]},{"translation":[0.125,0.01953125,0.21875],"name":"hair-0008-extra"},{"translation":[-0.015625,0.02734375,-0.234375],"name":"hair-0008","children":[66]},{"translation":[0.109375,-0.15234375,-0.015625],"name":"hair-0009-extra"},{"translation":[0,0.19921875,0],"name":"hair-0009","children":[68]},{"translation":[0.125,0.01953125,0.21875],"name":"hair-0010-extra"},{"translation":[-0.015625,0.02734375,-0.234375],"name":"hair-0010","children":[70]},{"translation":[0.109375,0,0.005937500000000012],"name":"eye-right"},{"translation":[0.078125,0,0.005625000000000019],"name":"pupil-right"},{"translation":[-0.109375,0,0.005937500000000012],"name":"eye-left"},{"translation":[-0.078125,0,0.005625000000000019],"name":"pupil-left"},{"translation":[0,0.15234375,-0.209375],"name":"eyes","children":[72,73,74,75]},{"name":"closed-mouth"},{"translation":[0,0.015625,0.0625],"name":"closed-smile"},{"translation":[0.015625,0.015625,0.0625],"name":"closed-smile2"},{"translation":[0,0.015625,0.0625],"name":"closed-teeth-smile"},{"rotation":[0,0,-1,6.123233995736766e-17],"translation":[0,0.015625,0.0625],"name":"closed-frown"},{"translation":[-0.015625,0,0.0625],"name":"open-smile"},{"translation":[0,0,0.0625],"name":"open-frown"},{"translation":[0,0,0.0625],"name":"shocked"},{"translation":[0,0.04296875,-0.2046875],"name":"mouths","children":[77,78,79,80,81,82,83,84]},{"name":"brow"},{"translation":[0.225,0,0],"name":"brow2"},{"translation":[-0.1125,0.19921875,-0.21],"name":"brows","children":[86,87]},{"translation":[0,0.04296875,0],"name":"head","children":[54,56,57,59,61,63,65,67,69,71,76,85,88]},{"translation":[0,0.4375,0],"name":"neck","children":[89]},{"translation":[-0.0234375,-0.359375,0.01171875],"name":"hand-left"},{"translation":[-0.234375,0,0],"name":"arm-left","children":[91]},{"translation":[0.0234375,-0.359375,0.01171875],"name":"hand-right"},{"translation":[0.234375,0,0],"name":"arm-right","children":[93]},{"translation":[0,0.390625,-0.003125],"name":"arms","children":[92,94]},{"translation":[0,0.5546875,0],"name":"upper","children":[52,90,95]},{"translation":[0.0023443749999999958,-0.37119625,0.0234375],"name":"foot-right"},{"translation":[0.103124375,-0.027241249999999995,0],"name":"leg-right","children":[97]},{"translation":[-0.002345,-0.37119625,0.0234375],"name":"foot-left"},{"translation":[-0.10312375,-0.027241249999999995,0],"name":"leg-left","children":[99]},{"translation":[0,0.5234375,0],"name":"lower","children":[98,100]},{"translation":[0,-0.609375,0],"name":"third-person","children":[96,101]},{"translation":[0,0.609375,0],"name":"root","children":[102]},{"translation":[-0.09375,0,0],"name":"cube","mesh":0},{"name":"cube","mesh":1},{"translation":[-2.859375,0,0],"name":"right","children":[104,105]},{"translation":[0.375,0,0],"name":"cube","mesh":2},{"translation":[1.125,0,0],"name":"cube","mesh":3},{"translation":[-0.375,0,0],"name":"cube","mesh":4},{"translation":[-1.125,0,0],"name":"cube","mesh":5},{"translation":[1.875,0,0],"name":"cube","mesh":6},{"translation":[-1.875,0,0],"name":"cube","mesh":7},{"translation":[-0.140625,0,0],"name":"center","children":[107,108,109,110,111,112]},{"name":"cube","mesh":8},{"translation":[-0.09375,0,0],"name":"cube","mesh":9},{"translation":[2.953125,0,0],"name":"left","children":[114,115]},{"name":"voleyball_net","children":[106,113,116]},{"children":[51,103,117]}],"bufferViews":[{"buffer":0,"byteOffset":0,"byteLength":288,"target":34962,"byteStride":12},{"buffer":0,"byteOffset":288,"byteLength":288,"target":34962,"byteStride":12},{"buffer":0,"byteOffset":576,"byteLength":192,"target":34962,"byteStride":8},{"buffer":0,"byteOffset":768,"byteLength":72,"target":34963},{"buffer":0,"byteOffset":840,"byteLength":240,"target":34962,"byteStride":12},{"buffer":0,"byteOffset":1080,"byteLength":240,"target":34962,"byteStride":12},{"buffer":0,"byteOffset":1320,"byteLength":160,"target":34962,"byteStride":8},{"buffer":0,"byteOffset":1480,"byteLength":60,"target":34963},{"buffer":0,"byteOffset":1540,"byteLength":240,"target":34962,"byteStride":12},{"buffer":0,"byteOffset":1780,"byteLength":240,"target":34962,"byteStride":12},{"buffer":0,"byteOffset":2020,"byteLength":160,"target":34962,"byteStride":8},{"buffer":0,"byteOffset":2180,"byteLength":60,"target":34963},{"buffer":0,"byteOffset":2240,"byteLength":240,"target":34962,"byteStride":12},{"buffer":0,"byteOffset":2480,"byteLength":240,"target":34962,"byteStride":12},{"buffer":0,"byteOffset":2720,"byteLength":160,"target":34962,"byteStride":8},{"buffer":0,"byteOffset":2880,"byteLength":60,"target":34963},{"buffer":0,"byteOffset":2940,"byteLength":240,"target":34962,"byteStride":12},{"buffer":0,"byteOffset":3180,"byteLength":240,"target":34962,"byteStride":12},{"buffer":0,"byteOffset":3420,"byteLength":160,"target":34962,"byteStride":8},{"buffer":0,"byteOffset":3580,"byteLength":60,"target":34963},{"buffer":0,"byteOffset":3640,"byteLength":240,"target":34962,"byteStride":12},{"buffer":0,"byteOffset":3880,"byteLength":240,"target":34962,"byteStride":12},{"buffer":0,"byteOffset":4120,"byteLength":160,"target":34962,"byteStride":8},{"buffer":0,"byteOffset":4280,"byteLength":60,"target":34963},{"buffer":0,"byteOffset":4340,"byteLength":240,"target":34962,"byteStride":12},{"buffer":0,"byteOffset":4580,"byteLength":240,"target":34962,"byteStride":12},{"buffer":0,"byteOffset":4820,"byteLength":160,"target":34962,"byteStride":8},{"buffer":0,"byteOffset":4980,"byteLength":60,"target":34963},{"buffer":0,"byteOffset":5040,"byteLength":240,"target":34962,"byteStride":12},{"buffer":0,"byteOffset":5280,"byteLength":240,"target":34962,"byteStride":12},{"buffer":0,"byteOffset":5520,"byteLength":160,"target":34962,"byteStride":8},{"buffer":0,"byteOffset":5680,"byteLength":60,"target":34963},{"buffer":0,"byteOffset":5740,"byteLength":288,"target":34962,"byteStride":12},{"buffer":0,"byteOffset":6028,"byteLength":288,"target":34962,"byteStride":12},{"buffer":0,"byteOffset":6316,"byteLength":192,"target":34962,"byteStride":8},{"buffer":0,"byteOffset":6508,"byteLength":72,"target":34963},{"buffer":0,"byteOffset":6580,"byteLength":240,"target":34962,"byteStride":12},{"buffer":0,"byteOffset":6820,"byteLength":240,"target":34962,"byteStride":12},{"buffer":0,"byteOffset":7060,"byteLength":160,"target":34962,"byteStride":8},{"buffer":0,"byteOffset":7220,"byteLength":60,"target":34963}],"buffers":[{"byteLength":7280,"uri":"data:application/octet-stream;base64,"}],"accessors":[{"bufferView":0,"componentType":5126,"count":24,"max":[0.046875,1.5,0.046875],"min":[-0.046875,0,-0.046875],"type":"VEC3"},{"bufferView":1,"componentType":5126,"count":24,"max":[1,1,1],"min":[-1,-1,-1],"type":"VEC3"},{"bufferView":2,"componentType":5126,"count":24,"max":[0.2734375,0.515625],"min":[0.09375,0.265625],"type":"VEC2"},{"bufferView":3,"componentType":5123,"count":36,"max":[23],"min":[0],"type":"SCALAR"},{"bufferView":4,"componentType":5126,"count":20,"max":[0.609375,1.453125,0],"min":[-0.046875,0.703125,0],"type":"VEC3"},{"bufferView":5,"componentType":5126,"count":20,"max":[1,0,0],"min":[0,0,-1],"type":"VEC3"},{"bufferView":6,"componentType":5126,"count":20,"max":[0.3984375,0.390625],"min":[0.25,0],"type":"VEC2"},{"bufferView":7,"componentType":5123,"count":30,"max":[19],"min":[0],"type":"SCALAR"},{"bufferView":8,"componentType":5126,"count":20,"max":[0.515625,1.453125,0],"min":[-0.234375,0.703125,0],"type":"VEC3"},{"bufferView":9,"componentType":5126,"count":20,"max":[1,0,0],"min":[0,0,-1],"type":"VEC3"},{"bufferView":10,"componentType":5126,"count":20,"max":[0.4140625,0.390625],"min":[0,0],"type":"VEC2"},{"bufferView":11,"componentType":5123,"count":30,"max":[19],"min":[0],"type":"SCALAR"},{"bufferView":12,"componentType":5126,"count":20,"max":[0.515625,1.453125,0],"min":[-0.234375,0.703125,0],"type":"VEC3"},{"bufferView":13,"componentType":5126,"count":20,"max":[1,0,0],"min":[0,0,-1],"type":"VEC3"},{"bufferView":14,"componentType":5126,"count":20,"max":[0.4140625,0.390625],"min":[0,0],"type":"VEC2"},{"bufferView":15,"componentType":5123,"count":30,"max":[19],"min":[0],"type":"SCALAR"},{"bufferView":16,"componentType":5126,"count":20,"max":[0.515625,1.453125,0],"min":[-0.234375,0.703125,0],"type":"VEC3"},{"bufferView":17,"componentType":5126,"count":20,"max":[1,0,0],"min":[0,0,-1],"type":"VEC3"},{"bufferView":18,"componentType":5126,"count":20,"max":[0.4140625,0.390625],"min":[0,0],"type":"VEC2"},{"bufferView":19,"componentType":5123,"count":30,"max":[19],"min":[0],"type":"SCALAR"},{"bufferView":20,"componentType":5126,"count":20,"max":[0.515625,1.453125,0],"min":[-0.234375,0.703125,0],"type":"VEC3"},{"bufferView":21,"componentType":5126,"count":20,"max":[1,0,0],"min":[0,0,-1],"type":"VEC3"},{"bufferView":22,"componentType":5126,"count":20,"max":[0.4140625,0.390625],"min":[0,0],"type":"VEC2"},{"bufferView":23,"componentType":5123,"count":30,"max":[19],"min":[0],"type":"SCALAR"},{"bufferView":24,"componentType":5126,"count":20,"max":[0.515625,1.453125,0],"min":[-0.234375,0.703125,0],"type":"VEC3"},{"bufferView":25,"componentType":5126,"count":20,"max":[1,0,0],"min":[0,0,-1],"type":"VEC3"},{"bufferView":26,"componentType":5126,"count":20,"max":[0.4140625,0.390625],"min":[0,0],"type":"VEC2"},{"bufferView":27,"componentType":5123,"count":30,"max":[19],"min":[0],"type":"SCALAR"},{"bufferView":28,"componentType":5126,"count":20,"max":[0.515625,1.453125,0],"min":[-0.234375,0.703125,0],"type":"VEC3"},{"bufferView":29,"componentType":5126,"count":20,"max":[1,0,0],"min":[0,0,-1],"type":"VEC3"},{"bufferView":30,"componentType":5126,"count":20,"max":[0.4140625,0.390625],"min":[0,0],"type":"VEC2"},{"bufferView":31,"componentType":5123,"count":30,"max":[19],"min":[0],"type":"SCALAR"},{"bufferView":32,"componentType":5126,"count":24,"max":[0.046875,1.5,0.046875],"min":[-0.046875,0,-0.046875],"type":"VEC3"},{"bufferView":33,"componentType":5126,"count":24,"max":[1,1,1],"min":[-1,-1,-1],"type":"VEC3"},{"bufferView":34,"componentType":5126,"count":24,"max":[0.2265625,0.515625],"min":[0,0.265625],"type":"VEC2"},{"bufferView":35,"componentType":5123,"count":36,"max":[23],"min":[0],"type":"SCALAR"},{"bufferView":36,"componentType":5126,"count":20,"max":[0.046875,1.453125,0],"min":[-0.609375,0.703125,0],"type":"VEC3"},{"bufferView":37,"componentType":5126,"count":20,"max":[1,0,0],"min":[0,0,-1],"type":"VEC3"},{"bufferView":38,"componentType":5126,"count":20,"max":[0.3984375,0.390625],"min":[0.1328125,0],"type":"VEC2"},{"bufferView":39,"componentType":5123,"count":30,"max":[19],"min":[0],"type":"SCALAR"}],"materials":[{"pbrMetallicRoughness":{"metallicFactor":0,"roughnessFactor":1,"baseColorTexture":{"index":0}},"alphaMode":"MASK","alphaCutoff":0.05,"doubleSided":true}],"textures":[{"sampler":0,"source":0,"name":"voleyball_net"}],"samplers":[{"magFilter":9728,"minFilter":9728,"wrapS":33071,"wrapT":33071}],"images":[{"mimeType":"image/png","uri":"data:image/png;base64,"}],"meshes":[{"primitives":[{"mode":4,"attributes":{"POSITION":0,"NORMAL":1,"TEXCOORD_0":2},"indices":3,"material":0}]},{"primitives":[{"mode":4,"attributes":{"POSITION":4,"NORMAL":5,"TEXCOORD_0":6},"indices":7,"material":0}]},{"primitives":[{"mode":4,"attributes":{"POSITION":8,"NORMAL":9,"TEXCOORD_0":10},"indices":11,"material":0}]},{"primitives":[{"mode":4,"attributes":{"POSITION":12,"NORMAL":13,"TEXCOORD_0":14},"indices":15,"material":0}]},{"primitives":[{"mode":4,"attributes":{"POSITION":16,"NORMAL":17,"TEXCOORD_0":18},"indices":19,"material":0}]},{"primitives":[{"mode":4,"attributes":{"POSITION":20,"NORMAL":21,"TEXCOORD_0":22},"indices":23,"material":0}]},{"primitives":[{"mode":4,"attributes":{"POSITION":24,"NORMAL":25,"TEXCOORD_0":26},"indices":27,"material":0}]},{"primitives":[{"mode":4,"attributes":{"POSITION":28,"NORMAL":29,"TEXCOORD_0":30},"indices":31,"material":0}]},{"primitives":[{"mode":4,"attributes":{"POSITION":32,"NORMAL":33,"TEXCOORD_0":34},"indices":35,"material":0}]},{"primitives":[{"mode":4,"attributes":{"POSITION":36,"NORMAL":37,"TEXCOORD_0":38},"indices":39,"material":0}]}]}