{"asset":{"version":"2.0","generator":"Blockbench 4.12.6 glTF exporter"},"scenes":[{"nodes":[4],"name":"blockbench_export"}],"scene":0,"nodes":[{"translation":[0,0.125,-1.0625],"name":"cuboid","mesh":0},{"translation":[-0.625,-0.0625,-1.0625],"name":"cuboid","mesh":1},{"translation":[0.625,0.1875,0],"name":"lid","children":[1]},{"translation":[0,0.375,0.0625],"name":"coffin_2","children":[0,2]},{"children":[3]}],"bufferViews":[{"buffer":0,"byteOffset":0,"byteLength":480,"target":34962,"byteStride":12},{"buffer":0,"byteOffset":480,"byteLength":480,"target":34962,"byteStride":12},{"buffer":0,"byteOffset":960,"byteLength":320,"target":34962,"byteStride":8},{"buffer":0,"byteOffset":1280,"byteLength":120,"target":34963},{"buffer":0,"byteOffset":1400,"byteLength":480,"target":34962,"byteStride":12},{"buffer":0,"byteOffset":1880,"byteLength":480,"target":34962,"byteStride":12},{"buffer":0,"byteOffset":2360,"byteLength":320,"target":34962,"byteStride":8},{"buffer":0,"byteOffset":2680,"byteLength":120,"target":34963},{"buffer":0,"byteOffset":2800,"byteLength":232},{"buffer":0,"byteOffset":3032,"byteLength":928}],"buffers":[{"byteLength":3960,"uri":"data:application/octet-stream;base64,"}],"accessors":[{"bufferView":0,"componentType":5126,"count":40,"max":[0.75,0.0625,2.125],"min":[-0.75,-0.5,-0.25],"type":"VEC3"},{"bufferView":1,"componentType":5126,"count":40,"max":[0.9881088137626648,1,1],"min":[-0.9881088137626648,-1,-1],"type":"VEC3"},{"bufferView":2,"componentType":5126,"count":40,"max":[0.8125,0.5390625],"min":[0,0],"type":"VEC2"},{"bufferView":3,"componentType":5123,"count":60,"max":[39],"min":[0],"type":"SCALAR"},{"bufferView":4,"componentType":5126,"count":40,"max":[0.75,0.25,2.125],"min":[-0.75,0.0625,-0.25],"type":"VEC3"},{"bufferView":5,"componentType":5126,"count":40,"max":[0.9881088137626648,1,1],"min":[-0.9881088137626648,-1,-1],"type":"VEC3"},{"bufferView":6,"componentType":5126,"count":40,"max":[0.8203125,0.6015625],"min":[0,0],"type":"VEC2"},{"bufferView":7,"componentType":5123,"count":60,"max":[39],"min":[0],"type":"SCALAR"},{"bufferView":8,"componentType":5126,"count":58,"max":[1.375],"min":[0],"type":"SCALAR"},{"bufferView":9,"componentType":5126,"count":58,"max":[0,0,0,1],"min":[0,0,-0.7660444378852844,0.6427876353263855],"type":"VEC4"}],"materials":[{"pbrMetallicRoughness":{"metallicFactor":0,"roughnessFactor":1,"baseColorTexture":{"index":0}},"alphaMode":"MASK","alphaCutoff":0.05,"doubleSided":true}],"textures":[{"sampler":0,"source":0,"name":"coffin"}],"samplers":[{"magFilter":9728,"minFilter":9728,"wrapS":33071,"wrapT":33071}],"images":[{"mimeType":"image/png","uri":"data:image/png;base64,"}],"meshes":[{"primitives":[{"mode":4,"attributes":{"POSITION":0,"NORMAL":1,"TEXCOORD_0":2},"indices":3,"material":0}]},{"primitives":[{"mode":4,"attributes":{"POSITION":4,"NORMAL":5,"TEXCOORD_0":6},"indices":7,"material":0}]}],"animations":[{"name":"interact","samplers":[{"input":8,"output":9,"interpolation":"LINEAR"}],"channels":[{"sampler":0,"target":{"node":2,"path":"rotation"}}]}]}