{"asset":{"version":"2.0","generator":"Blockbench 4.12.6 glTF exporter"},"scenes":[{"nodes":[24],"name":"blockbench_export"}],"scene":0,"nodes":[{"name":"cube","mesh":0},{"name":"cube","mesh":1},{"rotation":[0,0,0.19509032201612825,0.9807852804032304],"translation":[-0.4375,1.03125,0],"name":"cube","mesh":2},{"translation":[0,-0.5625,0],"name":"cube","mesh":3},{"rotation":[0,0,-0.19509032201612825,0.9807852804032304],"translation":[0.4375,1.03125,0],"name":"cube","mesh":4},{"rotation":[0,0,0.19509032201612825,0.9807852804032304],"translation":[-0.4375,1.03125,0],"name":"cube","mesh":5},{"rotation":[0,0,-0.19509032201612825,0.9807852804032304],"translation":[0.4375,1.03125,0],"name":"cube","mesh":6},{"translation":[0,0.6875,0],"name":"cube","mesh":7},{"translation":[0,-0.16338629382706693,0],"name":"cube","mesh":8},{"translation":[0,-0.10088629382706693,0],"name":"cube","mesh":9},{"translation":[0,-0.03838629382706693,0],"name":"cube","mesh":10},{"rotation":[0.15262601473290208,-0.03158968183950192,0.0812220298665692,0.984434037146413],"translation":[0.1875,1.154034265432333,0.11631485767634074],"name":"cube","mesh":11},{"rotation":[0.15262601473290208,-0.03158968183950192,0.0812220298665692,0.984434037146413],"translation":[0.19531249999999997,1.2118467654323328,-0.06181014232365925],"name":"cube","mesh":12},{"rotation":[0.15262601473290208,-0.03158968183950192,0.0812220298665692,0.984434037146413],"translation":[0.19531249999999997,1.2118467654323333,-0.06181014232365925],"name":"cube","mesh":13},{"rotation":[0.19509032201612825,0,0,0.9807852804032304],"name":"cube","mesh":14},{"rotation":[-0.19509032201612825,0,0,0.9807852804032304],"name":"cube","mesh":15},{"rotation":[0,0,0.19509032201612825,0.9807852804032304],"name":"cube","mesh":16},{"rotation":[0,0,-0.19509032201612825,0.9807852804032304],"name":"cube","mesh":17},{"rotation":[0,-0.19509032201612825,0,0.9807852804032304],"translation":[-0.42798494156391087,0.39911370617293307,-0.3603354290456362],"name":"cube","mesh":18},{"rotation":[0,-0.19509032201612825,0,0.9807852804032304],"translation":[0.42798494156391087,0.39911370617293307,0.3603354290456362],"name":"cube","mesh":19},{"rotation":[0,0.19509032201612825,0,0.9807852804032304],"translation":[-0.42798494156391087,0.39911370617293307,0.3603354290456362],"name":"cube","mesh":20},{"rotation":[0,0.19509032201612825,0,0.9807852804032304],"translation":[0.42798494156391087,0.39911370617293307,-0.3603354290456362],"name":"cube","mesh":21},{"translation":[0,1.225886293827067,0],"name":"head","children":[8,9,10,11,12,13,14,15,16,17,18,19,20,21]},{"name":"scarecrow","children":[0,1,2,3,4,5,6,7,22]},{"children":[23]}],"bufferViews":[{"buffer":0,"byteOffset":0,"byteLength":288,"target":34962,"byteStride":12},{"buffer":0,"byteOffset":288,"byteLength":288,"target":34962,"byteStride":12},{"buffer":0,"byteOffset":576,"byteLength":192,"target":34962,"byteStride":8},{"buffer":0,"byteOffset":768,"byteLength":72,"target":34963},{"buffer":0,"byteOffset":840,"byteLength":288,"target":34962,"byteStride":12},{"buffer":0,"byteOffset":1128,"byteLength":288,"target":34962,"byteStride":12},{"buffer":0,"byteOffset":1416,"byteLength":192,"target":34962,"byteStride":8},{"buffer":0,"byteOffset":1608,"byteLength":72,"target":34963},{"buffer":0,"byteOffset":1680,"byteLength":288,"target":34962,"byteStride":12},{"buffer":0,"byteOffset":1968,"byteLength":288,"target":34962,"byteStride":12},{"buffer":0,"byteOffset":2256,"byteLength":192,"target":34962,"byteStride":8},{"buffer":0,"byteOffset":2448,"byteLength":72,"target":34963},{"buffer":0,"byteOffset":2520,"byteLength":288,"target":34962,"byteStride":12},{"buffer":0,"byteOffset":2808,"byteLength":288,"target":34962,"byteStride":12},{"buffer":0,"byteOffset":3096,"byteLength":192,"target":34962,"byteStride":8},{"buffer":0,"byteOffset":3288,"byteLength":72,"target":34963},{"buffer":0,"byteOffset":3360,"byteLength":288,"target":34962,"byteStride":12},{"buffer":0,"byteOffset":3648,"byteLength":288,"target":34962,"byteStride":12},{"buffer":0,"byteOffset":3936,"byteLength":192,"target":34962,"byteStride":8},{"buffer":0,"byteOffset":4128,"byteLength":72,"target":34963},{"buffer":0,"byteOffset":4200,"byteLength":288,"target":34962,"byteStride":12},{"buffer":0,"byteOffset":4488,"byteLength":288,"target":34962,"byteStride":12},{"buffer":0,"byteOffset":4776,"byteLength":192,"target":34962,"byteStride":8},{"buffer":0,"byteOffset":4968,"byteLength":72,"target":34963},{"buffer":0,"byteOffset":5040,"byteLength":288,"target":34962,"byteStride":12},{"buffer":0,"byteOffset":5328,"byteLength":288,"target":34962,"byteStride":12},{"buffer":0,"byteOffset":5616,"byteLength":192,"target":34962,"byteStride":8},{"buffer":0,"byteOffset":5808,"byteLength":72,"target":34963},{"buffer":0,"byteOffset":5880,"byteLength":288,"target":34962,"byteStride":12},{"buffer":0,"byteOffset":6168,"byteLength":288,"target":34962,"byteStride":12},{"buffer":0,"byteOffset":6456,"byteLength":192,"target":34962,"byteStride":8},{"buffer":0,"byteOffset":6648,"byteLength":72,"target":34963},{"buffer":0,"byteOffset":6720,"byteLength":288,"target":34962,"byteStride":12},{"buffer":0,"byteOffset":7008,"byteLength":288,"target":34962,"byteStride":12},{"buffer":0,"byteOffset":7296,"byteLength":192,"target":34962,"byteStride":8},{"buffer":0,"byteOffset":7488,"byteLength":72,"target":34963},{"buffer":0,"byteOffset":7560,"byteLength":288,"target":34962,"byteStride":12},{"buffer":0,"byteOffset":7848,"byteLength":288,"target":34962,"byteStride":12},{"buffer":0,"byteOffset":8136,"byteLength":192,"target":34962,"byteStride":8},{"buffer":0,"byteOffset":8328,"byteLength":72,"target":34963},{"buffer":0,"byteOffset":8400,"byteLength":288,"target":34962,"byteStride":12},{"buffer":0,"byteOffset":8688,"byteLength":288,"target":34962,"byteStride":12},{"buffer":0,"byteOffset":8976,"byteLength":192,"target":34962,"byteStride":8},{"buffer":0,"byteOffset":9168,"byteLength":72,"target":34963},{"buffer":0,"byteOffset":9240,"byteLength":288,"target":34962,"byteStride":12},{"buffer":0,"byteOffset":9528,"byteLength":288,"target":34962,"byteStride":12},{"buffer":0,"byteOffset":9816,"byteLength":192,"target":34962,"byteStride":8},{"buffer":0,"byteOffset":10008,"byteLength":72,"target":34963},{"buffer":0,"byteOffset":10080,"byteLength":288,"target":34962,"byteStride":12},{"buffer":0,"byteOffset":10368,"byteLength":288,"target":34962,"byteStride":12},{"buffer":0,"byteOffset":10656,"byteLength":192,"target":34962,"byteStride":8},{"buffer":0,"byteOffset":10848,"byteLength":72,"target":34963},{"buffer":0,"byteOffset":10920,"byteLength":288,"target":34962,"byteStride":12},{"buffer":0,"byteOffset":11208,"byteLength":288,"target":34962,"byteStride":12},{"buffer":0,"byteOffset":11496,"byteLength":192,"target":34962,"byteStride":8},{"buffer":0,"byteOffset":11688,"byteLength":72,"target":34963},{"buffer":0,"byteOffset":11760,"byteLength":240,"target":34962,"byteStride":12},{"buffer":0,"byteOffset":12000,"byteLength":240,"target":34962,"byteStride":12},{"buffer":0,"byteOffset":12240,"byteLength":160,"target":34962,"byteStride":8},{"buffer":0,"byteOffset":12400,"byteLength":60,"target":34963},{"buffer":0,"byteOffset":12460,"byteLength":240,"target":34962,"byteStride":12},{"buffer":0,"byteOffset":12700,"byteLength":240,"target":34962,"byteStride":12},{"buffer":0,"byteOffset":12940,"byteLength":160,"target":34962,"byteStride":8},{"buffer":0,"byteOffset":13100,"byteLength":60,"target":34963},{"buffer":0,"byteOffset":13160,"byteLength":240,"target":34962,"byteStride":12},{"buffer":0,"byteOffset":13400,"byteLength":240,"target":34962,"byteStride":12},{"buffer":0,"byteOffset":13640,"byteLength":160,"target":34962,"byteStride":8},{"buffer":0,"byteOffset":13800,"byteLength":60,"target":34963},{"buffer":0,"byteOffset":13860,"byteLength":240,"target":34962,"byteStride":12},{"buffer":0,"byteOffset":14100,"byteLength":240,"target":34962,"byteStride":12},{"buffer":0,"byteOffset":14340,"byteLength":160,"target":34962,"byteStride":8},{"buffer":0,"byteOffset":14500,"byteLength":60,"target":34963},{"buffer":0,"byteOffset":14560,"byteLength":240,"target":34962,"byteStride":12},{"buffer":0,"byteOffset":14800,"byteLength":240,"target":34962,"byteStride":12},{"buffer":0,"byteOffset":15040,"byteLength":160,"target":34962,"byteStride":8},{"buffer":0,"byteOffset":15200,"byteLength":60,"target":34963},{"buffer":0,"byteOffset":15260,"byteLength":240,"target":34962,"byteStride":12},{"buffer":0,"byteOffset":15500,"byteLength":240,"target":34962,"byteStride":12},{"buffer":0,"byteOffset":15740,"byteLength":160,"target":34962,"byteStride":8},{"buffer":0,"byteOffset":15900,"byteLength":60,"target":34963},{"buffer":0,"byteOffset":15960,"byteLength":240,"target":34962,"byteStride":12},{"buffer":0,"byteOffset":16200,"byteLength":240,"target":34962,"byteStride":12},{"buffer":0,"byteOffset":16440,"byteLength":160,"target":34962,"byteStride":8},{"buffer":0,"byteOffset":16600,"byteLength":60,"target":34963},{"buffer":0,"byteOffset":16660,"byteLength":240,"target":34962,"byteStride":12},{"buffer":0,"byteOffset":16900,"byteLength":240,"target":34962,"byteStride":12},{"buffer":0,"byteOffset":17140,"byteLength":160,"target":34962,"byteStride":8},{"buffer":0,"byteOffset":17300,"byteLength":60,"target":34963}],"buffers":[{"byteLength":17360,"uri":"data:application/octet-stream;base64,"}],"accessors":[{"bufferView":0,"componentType":5126,"count":24,"max":[0.09375,1.375,0.09375],"min":[-0.09375,0,-0.09375],"type":"VEC3"},{"bufferView":1,"componentType":5126,"count":24,"max":[1,1,1],"min":[-1,-1,-1],"type":"VEC3"},{"bufferView":2,"componentType":5126,"count":24,"max":[0.5234375,0.515625],"min":[0.0546875,0],"type":"VEC2"},{"bufferView":3,"componentType":5123,"count":36,"max":[23],"min":[0],"type":"SCALAR"},{"bufferView":4,"componentType":5126,"count":24,"max":[0.3125,0.9375,0.3125],"min":[-0.3125,0.375,-0.3125],"type":"VEC3"},{"bufferView":5,"componentType":5126,"count":24,"max":[1,1,1],"min":[-1,-1,-1],"type":"VEC3"},{"bufferView":6,"componentType":5126,"count":24,"max":[0.3671875,0.4140625],"min":[0,0],"type":"VEC2"},{"bufferView":7,"componentType":5123,"count":36,"max":[23],"min":[0],"type":"SCALAR"},{"bufferView":8,"componentType":5126,"count":24,"max":[0.25,0.09375,0.09375],"min":[-0.25,-0.09375,-0.09375],"type":"VEC3"},{"bufferView":9,"componentType":5126,"count":24,"max":[1,1,1],"min":[-1,-1,-1],"type":"VEC3"},{"bufferView":10,"componentType":5126,"count":24,"max":[0.5234375,0.5234375],"min":[0.375,0.3359375],"type":"VEC2"},{"bufferView":11,"componentType":5123,"count":36,"max":[23],"min":[0],"type":"SCALAR"},{"bufferView":12,"componentType":5126,"count":24,"max":[0.3125,0.9375,0.3125],"min":[-0.3125,0.8125,-0.3125],"type":"VEC3"},{"bufferView":13,"componentType":5126,"count":24,"max":[1,1,1],"min":[-1,-1,-1],"type":"VEC3"},{"bufferView":14,"componentType":5126,"count":24,"max":[0.5546875,0.5],"min":[0.0546875,0],"type":"VEC2"},{"bufferView":15,"componentType":5123,"count":36,"max":[23],"min":[0],"type":"SCALAR"},{"bufferView":16,"componentType":5126,"count":24,"max":[0.25,0.09375,0.09375],"min":[-0.25,-0.09375,-0.09375],"type":"VEC3"},{"bufferView":17,"componentType":5126,"count":24,"max":[1,1,1],"min":[-1,-1,-1],"type":"VEC3"},{"bufferView":18,"componentType":5126,"count":24,"max":[0.5234375,0.5234375],"min":[0.375,0.3359375],"type":"VEC2"},{"bufferView":19,"componentType":5123,"count":36,"max":[23],"min":[0],"type":"SCALAR"},{"bufferView":20,"componentType":5126,"count":24,"max":[0.265625,0.109375,0.109375],"min":[-0.265625,-0.109375,-0.109375],"type":"VEC3"},{"bufferView":21,"componentType":5126,"count":24,"max":[1,1,1],"min":[-1,-1,-1],"type":"VEC3"},{"bufferView":22,"componentType":5126,"count":24,"max":[0.6875,0.53125],"min":[0.5390625,0.34375],"type":"VEC2"},{"bufferView":23,"componentType":5123,"count":36,"max":[23],"min":[0],"type":"SCALAR"},{"bufferView":24,"componentType":5126,"count":24,"max":[0.265625,0.109375,0.109375],"min":[-0.265625,-0.109375,-0.109375],"type":"VEC3"},{"bufferView":25,"componentType":5126,"count":24,"max":[1,1,1],"min":[-1,-1,-1],"type":"VEC3"},{"bufferView":26,"componentType":5126,"count":24,"max":[0.6875,0.53125],"min":[0.5390625,0.34375],"type":"VEC2"},{"bufferView":27,"componentType":5123,"count":36,"max":[23],"min":[0],"type":"SCALAR"},{"bufferView":28,"componentType":5126,"count":24,"max":[0.25,0.625,0.25],"min":[-0.25,0.25,-0.25],"type":"VEC3"},{"bufferView":29,"componentType":5126,"count":24,"max":[1,1,1],"min":[-1,-1,-1],"type":"VEC3"},{"bufferView":30,"componentType":5126,"count":24,"max":[0.46875,0.46875],"min":[0.0859375,0.046875],"type":"VEC2"},{"bufferView":31,"componentType":5123,"count":36,"max":[23],"min":[0],"type":"SCALAR"},{"bufferView":32,"componentType":5126,"count":24,"max":[0.3125,0.875,0.3125],"min":[-0.3125,0.25,-0.3125],"type":"VEC3"},{"bufferView":33,"componentType":5126,"count":24,"max":[1,1,1],"min":[-1,-1,-1],"type":"VEC3"},{"bufferView":34,"componentType":5126,"count":24,"max":[0.3359375,0.3359375],"min":[0,0.0859375],"type":"VEC2"},{"bufferView":35,"componentType":5123,"count":36,"max":[23],"min":[0],"type":"SCALAR"},{"bufferView":36,"componentType":5126,"count":24,"max":[0.4375,0.875,0.4375],"min":[-0.4375,0.8125,-0.4375],"type":"VEC3"},{"bufferView":37,"componentType":5126,"count":24,"max":[1,1,1],"min":[-1,-1,-1],"type":"VEC3"},{"bufferView":38,"componentType":5126,"count":24,"max":[0.609375,0.40625],"min":[0,0],"type":"VEC2"},{"bufferView":39,"componentType":5123,"count":36,"max":[23],"min":[0],"type":"SCALAR"},{"bufferView":40,"componentType":5126,"count":24,"max":[0.3125,1.125,0.3125],"min":[-0.3125,0.8125,-0.3125],"type":"VEC3"},{"bufferView":41,"componentType":5126,"count":24,"max":[1,1,1],"min":[-1,-1,-1],"type":"VEC3"},{"bufferView":42,"componentType":5126,"count":24,"max":[0.484375,0.4375],"min":[0,0],"type":"VEC2"},{"bufferView":43,"componentType":5123,"count":36,"max":[23],"min":[0],"type":"SCALAR"},{"bufferView":44,"componentType":5126,"count":24,"max":[0,0.171875,0.1875],"min":[-0.375,-0.265625,-0.1875],"type":"VEC3"},{"bufferView":45,"componentType":5126,"count":24,"max":[1,1,1],"min":[-1,-1,-1],"type":"VEC3"},{"bufferView":46,"componentType":5126,"count":24,"max":[0.4921875,0.5],"min":[0,0.15625],"type":"VEC2"},{"bufferView":47,"componentType":5123,"count":36,"max":[23],"min":[0],"type":"SCALAR"},{"bufferView":48,"componentType":5126,"count":24,"max":[0.25,0.171875,0.187562495470047],"min":[-2.7755575615628914e-17,-0.015625,0.1875],"type":"VEC3"},{"bufferView":49,"componentType":5126,"count":24,"max":[1,1,1],"min":[-1,-1,-1],"type":"VEC3"},{"bufferView":50,"componentType":5126,"count":24,"max":[0.5390625,0.5234375],"min":[0.0546875,0],"type":"VEC2"},{"bufferView":51,"componentType":5123,"count":36,"max":[23],"min":[0],"type":"SCALAR"},{"bufferView":52,"componentType":5126,"count":24,"max":[0.25,-0.015625,0.187562495470047],"min":[0.125,-0.140625,0.1875],"type":"VEC3"},{"bufferView":53,"componentType":5126,"count":24,"max":[1,1,1],"min":[-1,-1,-1],"type":"VEC3"},{"bufferView":54,"componentType":5126,"count":24,"max":[0.546875,0.5234375],"min":[0.0859375,0.1796875],"type":"VEC2"},{"bufferView":55,"componentType":5123,"count":36,"max":[23],"min":[0],"type":"SCALAR"},{"bufferView":56,"componentType":5126,"count":20,"max":[0.3125,-0.039567943662405014,-0.3218579888343811],"min":[-0.3125,-0.2270679473876953,-0.3218579888343811],"type":"VEC3"},{"bufferView":57,"componentType":5126,"count":20,"max":[1,0,0],"min":[0,0,-1],"type":"VEC3"},{"bufferView":58,"componentType":5126,"count":20,"max":[0.578125,0.4765625],"min":[0.25,0.2578125],"type":"VEC2"},{"bufferView":59,"componentType":5123,"count":30,"max":[19],"min":[0],"type":"SCALAR"},{"bufferView":60,"componentType":5126,"count":20,"max":[0.3125,-0.039567943662405014,0.3218579888343811],"min":[-0.3125,-0.2270679473876953,0.3218579888343811],"type":"VEC3"},{"bufferView":61,"componentType":5126,"count":20,"max":[1,0,1],"min":[0,0,0],"type":"VEC3"},{"bufferView":62,"componentType":5126,"count":20,"max":[0.578125,0.4765625],"min":[0.25,0.2578125],"type":"VEC2"},{"bufferView":63,"componentType":5123,"count":30,"max":[19],"min":[0],"type":"SCALAR"},{"bufferView":64,"componentType":5126,"count":20,"max":[0.3218579888343811,-0.039567943662405014,0.3125],"min":[0.3218579888343811,-0.2270679473876953,-0.3125],"type":"VEC3"},{"bufferView":65,"componentType":5126,"count":20,"max":[1,0,0],"min":[1,0,0],"type":"VEC3"},{"bufferView":66,"componentType":5126,"count":20,"max":[0.578125,0.4765625],"min":[0.25,0.2578125],"type":"VEC2"},{"bufferView":67,"componentType":5123,"count":30,"max":[19],"min":[0],"type":"SCALAR"},{"bufferView":68,"componentType":5126,"count":20,"max":[-0.3218579888343811,-0.039567943662405014,0.3125],"min":[-0.3218579888343811,-0.2270679473876953,-0.3125],"type":"VEC3"},{"bufferView":69,"componentType":5126,"count":20,"max":[1,0,0],"min":[-1,0,0],"type":"VEC3"},{"bufferView":70,"componentType":5126,"count":20,"max":[0.578125,0.4765625],"min":[0.25,0.2578125],"type":"VEC2"},{"bufferView":71,"componentType":5123,"count":30,"max":[19],"min":[0],"type":"SCALAR"},{"bufferView":72,"componentType":5126,"count":20,"max":[0.125,0.3125,0],"min":[-0.125,-0.3125,0],"type":"VEC3"},{"bufferView":73,"componentType":5126,"count":20,"max":[1,0,0],"min":[0,0,-1],"type":"VEC3"},{"bufferView":74,"componentType":5126,"count":20,"max":[0.8984375,0.25],"min":[0.6796875,0],"type":"VEC2"},{"bufferView":75,"componentType":5123,"count":30,"max":[19],"min":[0],"type":"SCALAR"},{"bufferView":76,"componentType":5126,"count":20,"max":[0.125,0.3125,0],"min":[-0.125,-0.3125,0],"type":"VEC3"},{"bufferView":77,"componentType":5126,"count":20,"max":[1,0,0],"min":[0,0,-1],"type":"VEC3"},{"bufferView":78,"componentType":5126,"count":20,"max":[0.8984375,0.25],"min":[0.6796875,0],"type":"VEC2"},{"bufferView":79,"componentType":5123,"count":30,"max":[19],"min":[0],"type":"SCALAR"},{"bufferView":80,"componentType":5126,"count":20,"max":[0.125,0.3125,0],"min":[-0.125,-0.3125,0],"type":"VEC3"},{"bufferView":81,"componentType":5126,"count":20,"max":[1,0,0],"min":[0,0,-1],"type":"VEC3"},{"bufferView":82,"componentType":5126,"count":20,"max":[0.8984375,0.25],"min":[0.6796875,0],"type":"VEC2"},{"bufferView":83,"componentType":5123,"count":30,"max":[19],"min":[0],"type":"SCALAR"},{"bufferView":84,"componentType":5126,"count":20,"max":[0.125,0.3125,0],"min":[-0.125,-0.3125,0],"type":"VEC3"},{"bufferView":85,"componentType":5126,"count":20,"max":[1,0,0],"min":[0,0,-1],"type":"VEC3"},{"bufferView":86,"componentType":5126,"count":20,"max":[0.8984375,0.25],"min":[0.6796875,0],"type":"VEC2"},{"bufferView":87,"componentType":5123,"count":30,"max":[19],"min":[0],"type":"SCALAR"}],"materials":[{"pbrMetallicRoughness":{"metallicFactor":0,"roughnessFactor":1,"baseColorTexture":{"index":0}},"alphaMode":"MASK","alphaCutoff":0.05,"doubleSided":true}],"textures":[{"sampler":0,"source":0,"name":"scarecrow_wheat"}],"samplers":[{"magFilter":9728,"minFilter":9728,"wrapS":33071,"wrapT":33071}],"images":[{"mimeType":"image/png","uri":"data:image/png;base64,"}],"meshes":[{"primitives":[{"mode":4,"attributes":{"POSITION":0,"NORMAL":1,"TEXCOORD_0":2},"indices":3,"material":0}]},{"primitives":[{"mode":4,"attributes":{"POSITION":4,"NORMAL":5,"TEXCOORD_0":6},"indices":7,"material":0}]},{"primitives":[{"mode":4,"attributes":{"POSITION":8,"NORMAL":9,"TEXCOORD_0":10},"indices":11,"material":0}]},{"primitives":[{"mode":4,"attributes":{"POSITION":12,"NORMAL":13,"TEXCOORD_0":14},"indices":15,"material":0}]},{"primitives":[{"mode":4,"attributes":{"POSITION":16,"NORMAL":17,"TEXCOORD_0":18},"indices":19,"material":0}]},{"primitives":[{"mode":4,"attributes":{"POSITION":20,"NORMAL":21,"TEXCOORD_0":22},"indices":23,"material":0}]},{"primitives":[{"mode":4,"attributes":{"POSITION":24,"NORMAL":25,"TEXCOORD_0":26},"indices":27,"material":0}]},{"primitives":[{"mode":4,"attributes":{"POSITION":28,"NORMAL":29,"TEXCOORD_0":30},"indices":31,"material":0}]},{"primitives":[{"mode":4,"attributes":{"POSITION":32,"NORMAL":33,"TEXCOORD_0":34},"indices":35,"material":0}]},{"primitives":[{"mode":4,"attributes":{"POSITION":36,"NORMAL":37,"TEXCOORD_0":38},"indices":39,"material":0}]},{"primitives":[{"mode":4,"attributes":{"POSITION":40,"NORMAL":41,"TEXCOORD_0":42},"indices":43,"material":0}]},{"primitives":[{"mode":4,"attributes":{"POSITION":44,"NORMAL":45,"TEXCOORD_0":46},"indices":47,"material":0}]},{"primitives":[{"mode":4,"attributes":{"POSITION":48,"NORMAL":49,"TEXCOORD_0":50},"indices":51,"material":0}]},{"primitives":[{"mode":4,"attributes":{"POSITION":52,"NORMAL":53,"TEXCOORD_0":54},"indices":55,"material":0}]},{"primitives":[{"mode":4,"attributes":{"POSITION":56,"NORMAL":57,"TEXCOORD_0":58},"indices":59,"material":0}]},{"primitives":[{"mode":4,"attributes":{"POSITION":60,"NORMAL":61,"TEXCOORD_0":62},"indices":63,"material":0}]},{"primitives":[{"mode":4,"attributes":{"POSITION":64,"NORMAL":65,"TEXCOORD_0":66},"indices":67,"material":0}]},{"primitives":[{"mode":4,"attributes":{"POSITION":68,"NORMAL":69,"TEXCOORD_0":70},"indices":71,"material":0}]},{"primitives":[{"mode":4,"attributes":{"POSITION":72,"NORMAL":73,"TEXCOORD_0":74},"indices":75,"material":0}]},{"primitives":[{"mode":4,"attributes":{"POSITION":76,"NORMAL":77,"TEXCOORD_0":78},"indices":79,"material":0}]},{"primitives":[{"mode":4,"attributes":{"POSITION":80,"NORMAL":81,"TEXCOORD_0":82},"indices":83,"material":0}]},{"primitives":[{"mode":4,"attributes":{"POSITION":84,"NORMAL":85,"TEXCOORD_0":86},"indices":87,"material":0}]}]}