{"asset":{"version":"2.0","generator":"Blockbench 5.0.3 glTF exporter"},"scenes":[{"nodes":[12],"name":"blockbench_export"}],"scene":0,"nodes":[{"translation":[0,-0.125,-0.125],"name":"cube","mesh":0},{"rotation":[0.12278780396897171,-0.6963642403200191,0.12278780396897321,0.696364240320019],"translation":[0.04375000000000001,-0.125,-0.0625],"name":"cube","mesh":1},{"rotation":[0,0.21643961393810288,0,0.9762960071199334],"translation":[-0.09375,-0.125,-0.125],"name":"fin","children":[1]},{"rotation":[0.09330109785058088,0.5291368199903751,-0.14645338762528495,0.8305784346607054],"translation":[-0.043750000000000115,-0.125,-0.0625],"name":"cube","mesh":2},{"translation":[0.09375,-0.125,-0.125],"name":"fin2","children":[3]},{"name":"cube","mesh":3},{"translation":[0,0.125,0.03125],"name":"top_fin","children":[5]},{"translation":[0,0,0.0625],"name":"cube","mesh":4},{"translation":[0,0,0.0625],"name":"cube","mesh":5},{"translation":[0,-0.03125,0.4375],"name":"tail","children":[7,8]},{"translation":[0,-0.1171875,-0.34375],"name":"cube","mesh":6},{"translation":[0,-0.0078125,-0.21875],"name":"head","children":[10]},{"translation":[0,0.25,-0.0625],"name":"bass","children":[0,2,4,6,9,11]}],"bufferViews":[{"buffer":0,"byteOffset":0,"byteLength":288,"target":34962,"byteStride":12},{"buffer":0,"byteOffset":288,"byteLength":288,"target":34962,"byteStride":12},{"buffer":0,"byteOffset":576,"byteLength":192,"target":34962,"byteStride":8},{"buffer":0,"byteOffset":768,"byteLength":72,"target":34963},{"buffer":0,"byteOffset":840,"byteLength":240,"target":34962,"byteStride":12},{"buffer":0,"byteOffset":1080,"byteLength":240,"target":34962,"byteStride":12},{"buffer":0,"byteOffset":1320,"byteLength":160,"target":34962,"byteStride":8},{"buffer":0,"byteOffset":1480,"byteLength":60,"target":34963},{"buffer":0,"byteOffset":1540,"byteLength":240,"target":34962,"byteStride":12},{"buffer":0,"byteOffset":1780,"byteLength":240,"target":34962,"byteStride":12},{"buffer":0,"byteOffset":2020,"byteLength":160,"target":34962,"byteStride":8},{"buffer":0,"byteOffset":2180,"byteLength":60,"target":34963},{"buffer":0,"byteOffset":2240,"byteLength":240,"target":34962,"byteStride":12},{"buffer":0,"byteOffset":2480,"byteLength":240,"target":34962,"byteStride":12},{"buffer":0,"byteOffset":2720,"byteLength":160,"target":34962,"byteStride":8},{"buffer":0,"byteOffset":2880,"byteLength":60,"target":34963},{"buffer":0,"byteOffset":2940,"byteLength":240,"target":34962,"byteStride":12},{"buffer":0,"byteOffset":3180,"byteLength":240,"target":34962,"byteStride":12},{"buffer":0,"byteOffset":3420,"byteLength":160,"target":34962,"byteStride":8},{"buffer":0,"byteOffset":3580,"byteLength":60,"target":34963},{"buffer":0,"byteOffset":3640,"byteLength":288,"target":34962,"byteStride":12},{"buffer":0,"byteOffset":3928,"byteLength":288,"target":34962,"byteStride":12},{"buffer":0,"byteOffset":4216,"byteLength":192,"target":34962,"byteStride":8},{"buffer":0,"byteOffset":4408,"byteLength":72,"target":34963},{"buffer":0,"byteOffset":4480,"byteLength":288,"target":34962,"byteStride":12},{"buffer":0,"byteOffset":4768,"byteLength":288,"target":34962,"byteStride":12},{"buffer":0,"byteOffset":5056,"byteLength":192,"target":34962,"byteStride":8},{"buffer":0,"byteOffset":5248,"byteLength":72,"target":34963},{"buffer":0,"byteOffset":5320,"byteLength":308},{"buffer":0,"byteOffset":5628,"byteLength":1232},{"buffer":0,"byteOffset":6860,"byteLength":308},{"buffer":0,"byteOffset":7168,"byteLength":924},{"buffer":0,"byteOffset":8092,"byteLength":308},{"buffer":0,"byteOffset":8400,"byteLength":1232},{"buffer":0,"byteOffset":9632,"byteLength":308},{"buffer":0,"byteOffset":9940,"byteLength":1232},{"buffer":0,"byteOffset":11172,"byteLength":308},{"buffer":0,"byteOffset":11480,"byteLength":1232},{"buffer":0,"byteOffset":12712,"byteLength":184},{"buffer":0,"byteOffset":12896,"byteLength":736},{"buffer":0,"byteOffset":13632,"byteLength":184},{"buffer":0,"byteOffset":13816,"byteLength":552},{"buffer":0,"byteOffset":14368,"byteLength":184},{"buffer":0,"byteOffset":14552,"byteLength":736},{"buffer":0,"byteOffset":15288,"byteLength":184},{"buffer":0,"byteOffset":15472,"byteLength":736},{"buffer":0,"byteOffset":16208,"byteLength":184},{"buffer":0,"byteOffset":16392,"byteLength":736},{"buffer":0,"byteOffset":17128,"byteLength":184},{"buffer":0,"byteOffset":17312,"byteLength":736},{"buffer":0,"byteOffset":18048,"byteLength":184},{"buffer":0,"byteOffset":18232,"byteLength":736}],"buffers":[{"byteLength":18968,"uri":"data:application/octet-stream;base64,"}],"accessors":[{"bufferView":0,"componentType":5126,"count":24,"max":[0.09375,0.3125,0.5625],"min":[-0.09375,-0.0625,-0.125],"type":"VEC3"},{"bufferView":1,"componentType":5126,"count":24,"max":[1,1,1],"min":[-1,-1,-1],"type":"VEC3"},{"bufferView":2,"componentType":5126,"count":24,"max":[0.46875,0.78125],"min":[0,0],"type":"VEC2"},{"bufferView":3,"componentType":5123,"count":36,"max":[23],"min":[0],"type":"SCALAR"},{"bufferView":4,"componentType":5126,"count":20,"max":[0.09375,0.125,0.25],"min":[-0.09375,0.125,0],"type":"VEC3"},{"bufferView":5,"componentType":5126,"count":20,"max":[1,1,0],"min":[0,0,0],"type":"VEC3"},{"bufferView":6,"componentType":5126,"count":20,"max":[0.6875,0.3125],"min":[0,0],"type":"VEC2"},{"bufferView":7,"componentType":5123,"count":30,"max":[19],"min":[0],"type":"SCALAR"},{"bufferView":8,"componentType":5126,"count":20,"max":[0.09375,0.125,0.25],"min":[-0.09375,0.125,0],"type":"VEC3"},{"bufferView":9,"componentType":5126,"count":20,"max":[1,1,0],"min":[0,0,0],"type":"VEC3"},{"bufferView":10,"componentType":5126,"count":20,"max":[0.6875,0.3125],"min":[0,0],"type":"VEC2"},{"bufferView":11,"componentType":5123,"count":30,"max":[19],"min":[0],"type":"SCALAR"},{"bufferView":12,"componentType":5126,"count":20,"max":[0,0.3125,0.46875],"min":[0,0,-0.34375],"type":"VEC3"},{"bufferView":13,"componentType":5126,"count":20,"max":[1,0,0],"min":[-1,0,0],"type":"VEC3"},{"bufferView":14,"componentType":5126,"count":20,"max":[0.78125,0.40625],"min":[0,0],"type":"VEC2"},{"bufferView":15,"componentType":5123,"count":30,"max":[19],"min":[0],"type":"SCALAR"},{"bufferView":16,"componentType":5126,"count":20,"max":[0,0.25,0.375],"min":[0,-0.1875,0],"type":"VEC3"},{"bufferView":17,"componentType":5126,"count":20,"max":[1,0,0],"min":[-1,0,0],"type":"VEC3"},{"bufferView":18,"componentType":5126,"count":20,"max":[0.5625,0.40625],"min":[0,0],"type":"VEC2"},{"bufferView":19,"componentType":5123,"count":30,"max":[19],"min":[0],"type":"SCALAR"},{"bufferView":20,"componentType":5126,"count":24,"max":[0.046875,0.15625,0.125],"min":[-0.046875,-0.09375,-0.0625],"type":"VEC3"},{"bufferView":21,"componentType":5126,"count":24,"max":[1,1,1],"min":[-1,-1,-1],"type":"VEC3"},{"bufferView":22,"componentType":5126,"count":24,"max":[0.8125,0.84375],"min":[0.375,0.34375],"type":"VEC2"},{"bufferView":23,"componentType":5123,"count":36,"max":[23],"min":[0],"type":"SCALAR"},{"bufferView":24,"componentType":5126,"count":24,"max":[0.0625,0.2487500011920929,0.3125],"min":[-0.0625,-0.016875000670552254,0.125],"type":"VEC3"},{"bufferView":25,"componentType":5126,"count":24,"max":[1,1,1],"min":[-1,-1,-1],"type":"VEC3"},{"bufferView":26,"componentType":5126,"count":24,"max":[0.8125,0.90625],"min":[0,0.1875],"type":"VEC2"},{"bufferView":27,"componentType":5123,"count":36,"max":[23],"min":[0],"type":"SCALAR"},{"bufferView":28,"componentType":5126,"count":77,"max":[2],"min":[0],"type":"SCALAR"},{"bufferView":29,"componentType":5126,"count":77,"max":[0.017809173092246056,0,0,1],"min":[-0.017809173092246056,0,0,0.9998413920402527],"type":"VEC4"},{"bufferView":30,"componentType":5126,"count":77,"max":[2],"min":[0],"type":"SCALAR"},{"bufferView":31,"componentType":5126,"count":77,"max":[0,0.3125,-0.0625],"min":[0,0.25,-0.0625],"type":"VEC3"},{"bufferView":32,"componentType":5126,"count":77,"max":[2],"min":[0],"type":"SCALAR"},{"bufferView":33,"componentType":5126,"count":77,"max":[0.1687415987253189,0.23313254117965698,0.19289164245128632,0.9762960076332092],"min":[-0.20917552709579468,0.19086526334285736,-0.0028423534240573645,0.9489145874977112],"type":"VEC4"},{"bufferView":34,"componentType":5126,"count":77,"max":[2],"min":[0],"type":"SCALAR"},{"bufferView":35,"componentType":5126,"count":77,"max":[0.194150909781456,0.02126799337565899,0,1],"min":[-0.19426409900188446,-0.02211712673306465,-0.19509032368659973,0.9756917357444763],"type":"VEC4"},{"bufferView":36,"componentType":5126,"count":77,"max":[2],"min":[0],"type":"SCALAR"},{"bufferView":37,"componentType":5126,"count":77,"max":[0,0.19509032368659973,0,1],"min":[0,-0.19509032368659973,0,0.9807852506637573],"type":"VEC4"},{"bufferView":38,"componentType":5126,"count":46,"max":[1],"min":[0],"type":"SCALAR"},{"bufferView":39,"componentType":5126,"count":46,"max":[0.005899077281355858,0.1736481785774231,0.08715574443340302,0.9961947202682495],"min":[-0.005899077281355858,-0.1736481785774231,-0.08715574443340302,0.9848077297210693],"type":"VEC4"},{"bufferView":40,"componentType":5126,"count":46,"max":[1],"min":[0],"type":"SCALAR"},{"bufferView":41,"componentType":5126,"count":46,"max":[0.06377777457237244,0.25,-0.0625],"min":[-0.06377777457237244,0.25,-0.0625],"type":"VEC3"},{"bufferView":42,"componentType":5126,"count":46,"max":[1],"min":[0],"type":"SCALAR"},{"bufferView":43,"componentType":5126,"count":46,"max":[0.37361231446266174,0.2378813773393631,0.196316659450531,0.9597198963165283],"min":[-0.37361231446266174,0.17888228595256805,-0.19554248452186584,0.901979923248291],"type":"VEC4"},{"bufferView":44,"componentType":5126,"count":46,"max":[1],"min":[0],"type":"SCALAR"},{"bufferView":45,"componentType":5126,"count":46,"max":[0.3826834261417389,0.029587343335151672,0.19509032368659973,0.9807852506637573],"min":[-0.3826834261417389,-0.029587343335151672,-0.19509032368659973,0.9238795042037964],"type":"VEC4"},{"bufferView":46,"componentType":5126,"count":46,"max":[1],"min":[0],"type":"SCALAR"},{"bufferView":47,"componentType":5126,"count":46,"max":[0,0,0.13317899405956268,1],"min":[0,0,-0.13317899405956268,0.9910920262336731],"type":"VEC4"},{"bufferView":48,"componentType":5126,"count":46,"max":[1],"min":[0],"type":"SCALAR"},{"bufferView":49,"componentType":5126,"count":46,"max":[0,0.2853910028934479,0,1],"min":[0,-0.2853910028934479,0,0.9584111571311951],"type":"VEC4"},{"bufferView":50,"componentType":5126,"count":46,"max":[1],"min":[0],"type":"SCALAR"},{"bufferView":51,"componentType":5126,"count":46,"max":[0,0.08893293142318726,0,1],"min":[0,-0.08893293142318726,0,0.9960376024246216],"type":"VEC4"}],"materials":[{"pbrMetallicRoughness":{"metallicFactor":0,"roughnessFactor":1,"baseColorTexture":{"index":0}},"alphaMode":"MASK","alphaCutoff":0.05,"doubleSided":true}],"textures":[{"sampler":0,"source":0,"name":"bass"}],"samplers":[{"magFilter":9728,"minFilter":9728,"wrapS":33071,"wrapT":33071}],"images":[{"mimeType":"image/png","uri":"data:image/png;base64,"}],"meshes":[{"primitives":[{"mode":4,"attributes":{"POSITION":0,"NORMAL":1,"TEXCOORD_0":2},"indices":3,"material":0}]},{"primitives":[{"mode":4,"attributes":{"POSITION":4,"NORMAL":5,"TEXCOORD_0":6},"indices":7,"material":0}]},{"primitives":[{"mode":4,"attributes":{"POSITION":8,"NORMAL":9,"TEXCOORD_0":10},"indices":11,"material":0}]},{"primitives":[{"mode":4,"attributes":{"POSITION":12,"NORMAL":13,"TEXCOORD_0":14},"indices":15,"material":0}]},{"primitives":[{"mode":4,"attributes":{"POSITION":16,"NORMAL":17,"TEXCOORD_0":18},"indices":19,"material":0}]},{"primitives":[{"mode":4,"attributes":{"POSITION":20,"NORMAL":21,"TEXCOORD_0":22},"indices":23,"material":0}]},{"primitives":[{"mode":4,"attributes":{"POSITION":24,"NORMAL":25,"TEXCOORD_0":26},"indices":27,"material":0}]}],"animations":[{"name":"idle","samplers":[{"input":28,"output":29,"interpolation":"LINEAR"},{"input":30,"output":31,"interpolation":"LINEAR"},{"input":32,"output":33,"interpolation":"LINEAR"},{"input":34,"output":35,"interpolation":"LINEAR"},{"input":36,"output":37,"interpolation":"LINEAR"}],"channels":[{"sampler":0,"target":{"node":12,"path":"rotation"}},{"sampler":1,"target":{"node":12,"path":"translation"}},{"sampler":2,"target":{"node":2,"path":"rotation"}},{"sampler":3,"target":{"node":4,"path":"rotation"}},{"sampler":4,"target":{"node":9,"path":"rotation"}}]},{"name":"walk","samplers":[{"input":38,"output":39,"interpolation":"LINEAR"},{"input":40,"output":41,"interpolation":"LINEAR"},{"input":42,"output":43,"interpolation":"LINEAR"},{"input":44,"output":45,"interpolation":"LINEAR"},{"input":46,"output":47,"interpolation":"LINEAR"},{"input":48,"output":49,"interpolation":"LINEAR"},{"input":50,"output":51,"interpolation":"LINEAR"}],"channels":[{"sampler":0,"target":{"node":12,"path":"rotation"}},{"sampler":1,"target":{"node":12,"path":"translation"}},{"sampler":2,"target":{"node":2,"path":"rotation"}},{"sampler":3,"target":{"node":4,"path":"rotation"}},{"sampler":4,"target":{"node":6,"path":"rotation"}},{"sampler":5,"target":{"node":9,"path":"rotation"}},{"sampler":6,"target":{"node":11,"path":"rotation"}}]}]}