{"asset":{"version":"2.0","generator":"Blockbench 5.0.3 glTF exporter"},"scenes":[{"nodes":[17],"name":"blockbench_export"}],"scene":0,"nodes":[{"translation":[0,-0.125,-0.125],"name":"cube","mesh":0},{"rotation":[0.2131514098652129,-0.0375843445352855,0.16953202249987687,0.9614638770465722],"translation":[-0.234375,-0.17020437500000002,0.203569375],"name":"cube","mesh":1},{"rotation":[0.2131514098652129,-0.0375843445352855,0.16953202249987687,0.9614638770465722],"translation":[-0.234375,-0.17020437500000002,0.203569375],"name":"cube","mesh":2},{"rotation":[0.2131514098652129,0.0375843445352855,-0.16953202249987687,0.9614638770465722],"translation":[0.234375,-0.17020437500000002,0.203569375],"name":"cube","mesh":3},{"rotation":[0.2131514098652129,0.0375843445352855,-0.16953202249987687,0.9614638770465722],"translation":[0.234375,-0.17020437500000002,0.203569375],"name":"cube","mesh":4},{"translation":[0.03125,-0.125,-0.125],"name":"cube","mesh":5},{"translation":[-0.234375,0,-0.125],"name":"fin","children":[5]},{"translation":[0.09375,-0.125,-0.0625],"name":"cube","mesh":6},{"translation":[0.109375,0,-0.1875],"name":"fin2","children":[7]},{"name":"cube","mesh":7},{"translation":[0,0.125,0.03125],"name":"top_fin","children":[9]},{"translation":[0,0,0.0625],"name":"cube","mesh":8},{"translation":[0,0,0.0625],"name":"cube","mesh":9},{"translation":[0,-0.03125,0.4375],"name":"tail","children":[11,12]},{"translation":[0,-0.1015625,-0.34375],"name":"cube","mesh":10},{"translation":[0,-0.1328125,-0.53125],"name":"cube","mesh":11},{"translation":[0,-0.0078125,-0.21875],"name":"head","children":[14,15]},{"translation":[0,0.25,-0.0625],"name":"carp","children":[0,1,2,3,4,6,8,10,13,16]}],"bufferViews":[{"buffer":0,"byteOffset":0,"byteLength":288,"target":34962,"byteStride":12},{"buffer":0,"byteOffset":288,"byteLength":288,"target":34962,"byteStride":12},{"buffer":0,"byteOffset":576,"byteLength":192,"target":34962,"byteStride":8},{"buffer":0,"byteOffset":768,"byteLength":72,"target":34963},{"buffer":0,"byteOffset":840,"byteLength":288,"target":34962,"byteStride":12},{"buffer":0,"byteOffset":1128,"byteLength":288,"target":34962,"byteStride":12},{"buffer":0,"byteOffset":1416,"byteLength":192,"target":34962,"byteStride":8},{"buffer":0,"byteOffset":1608,"byteLength":72,"target":34963},{"buffer":0,"byteOffset":1680,"byteLength":288,"target":34962,"byteStride":12},{"buffer":0,"byteOffset":1968,"byteLength":288,"target":34962,"byteStride":12},{"buffer":0,"byteOffset":2256,"byteLength":192,"target":34962,"byteStride":8},{"buffer":0,"byteOffset":2448,"byteLength":72,"target":34963},{"buffer":0,"byteOffset":2520,"byteLength":288,"target":34962,"byteStride":12},{"buffer":0,"byteOffset":2808,"byteLength":288,"target":34962,"byteStride":12},{"buffer":0,"byteOffset":3096,"byteLength":192,"target":34962,"byteStride":8},{"buffer":0,"byteOffset":3288,"byteLength":72,"target":34963},{"buffer":0,"byteOffset":3360,"byteLength":288,"target":34962,"byteStride":12},{"buffer":0,"byteOffset":3648,"byteLength":288,"target":34962,"byteStride":12},{"buffer":0,"byteOffset":3936,"byteLength":192,"target":34962,"byteStride":8},{"buffer":0,"byteOffset":4128,"byteLength":72,"target":34963},{"buffer":0,"byteOffset":4200,"byteLength":240,"target":34962,"byteStride":12},{"buffer":0,"byteOffset":4440,"byteLength":240,"target":34962,"byteStride":12},{"buffer":0,"byteOffset":4680,"byteLength":160,"target":34962,"byteStride":8},{"buffer":0,"byteOffset":4840,"byteLength":60,"target":34963},{"buffer":0,"byteOffset":4900,"byteLength":240,"target":34962,"byteStride":12},{"buffer":0,"byteOffset":5140,"byteLength":240,"target":34962,"byteStride":12},{"buffer":0,"byteOffset":5380,"byteLength":160,"target":34962,"byteStride":8},{"buffer":0,"byteOffset":5540,"byteLength":60,"target":34963},{"buffer":0,"byteOffset":5600,"byteLength":240,"target":34962,"byteStride":12},{"buffer":0,"byteOffset":5840,"byteLength":240,"target":34962,"byteStride":12},{"buffer":0,"byteOffset":6080,"byteLength":160,"target":34962,"byteStride":8},{"buffer":0,"byteOffset":6240,"byteLength":60,"target":34963},{"buffer":0,"byteOffset":6300,"byteLength":240,"target":34962,"byteStride":12},{"buffer":0,"byteOffset":6540,"byteLength":240,"target":34962,"byteStride":12},{"buffer":0,"byteOffset":6780,"byteLength":160,"target":34962,"byteStride":8},{"buffer":0,"byteOffset":6940,"byteLength":60,"target":34963},{"buffer":0,"byteOffset":7000,"byteLength":288,"target":34962,"byteStride":12},{"buffer":0,"byteOffset":7288,"byteLength":288,"target":34962,"byteStride":12},{"buffer":0,"byteOffset":7576,"byteLength":192,"target":34962,"byteStride":8},{"buffer":0,"byteOffset":7768,"byteLength":72,"target":34963},{"buffer":0,"byteOffset":7840,"byteLength":288,"target":34962,"byteStride":12},{"buffer":0,"byteOffset":8128,"byteLength":288,"target":34962,"byteStride":12},{"buffer":0,"byteOffset":8416,"byteLength":192,"target":34962,"byteStride":8},{"buffer":0,"byteOffset":8608,"byteLength":72,"target":34963},{"buffer":0,"byteOffset":8680,"byteLength":288,"target":34962,"byteStride":12},{"buffer":0,"byteOffset":8968,"byteLength":288,"target":34962,"byteStride":12},{"buffer":0,"byteOffset":9256,"byteLength":192,"target":34962,"byteStride":8},{"buffer":0,"byteOffset":9448,"byteLength":72,"target":34963},{"buffer":0,"byteOffset":9520,"byteLength":308},{"buffer":0,"byteOffset":9828,"byteLength":1232},{"buffer":0,"byteOffset":11060,"byteLength":308},{"buffer":0,"byteOffset":11368,"byteLength":924},{"buffer":0,"byteOffset":12292,"byteLength":308},{"buffer":0,"byteOffset":12600,"byteLength":1232},{"buffer":0,"byteOffset":13832,"byteLength":308},{"buffer":0,"byteOffset":14140,"byteLength":1232},{"buffer":0,"byteOffset":15372,"byteLength":308},{"buffer":0,"byteOffset":15680,"byteLength":1232},{"buffer":0,"byteOffset":16912,"byteLength":184},{"buffer":0,"byteOffset":17096,"byteLength":736},{"buffer":0,"byteOffset":17832,"byteLength":184},{"buffer":0,"byteOffset":18016,"byteLength":552},{"buffer":0,"byteOffset":18568,"byteLength":184},{"buffer":0,"byteOffset":18752,"byteLength":736},{"buffer":0,"byteOffset":19488,"byteLength":184},{"buffer":0,"byteOffset":19672,"byteLength":736},{"buffer":0,"byteOffset":20408,"byteLength":184},{"buffer":0,"byteOffset":20592,"byteLength":736},{"buffer":0,"byteOffset":21328,"byteLength":184},{"buffer":0,"byteOffset":21512,"byteLength":736},{"buffer":0,"byteOffset":22248,"byteLength":184},{"buffer":0,"byteOffset":22432,"byteLength":736}],"buffers":[{"byteLength":23168,"uri":"data:application/octet-stream;base64,"}],"accessors":[{"bufferView":0,"componentType":5126,"count":24,"max":[0.125,0.375,0.5625],"min":[-0.125,-0.0625,-0.125],"type":"VEC3"},{"bufferView":1,"componentType":5126,"count":24,"max":[1,1,1],"min":[-1,-1,-1],"type":"VEC3"},{"bufferView":2,"componentType":5126,"count":24,"max":[0.3125,0.421875],"min":[0,0],"type":"VEC2"},{"bufferView":3,"componentType":5123,"count":36,"max":[23],"min":[0],"type":"SCALAR"},{"bufferView":4,"componentType":5126,"count":24,"max":[0.125,-0.03962062671780586,0.024408750236034393],"min":[-0.125,-0.03962062671780586,-0.2255912572145462],"type":"VEC3"},{"bufferView":5,"componentType":5126,"count":24,"max":[1,1,0],"min":[0,-1,0],"type":"VEC3"},{"bufferView":6,"componentType":5126,"count":24,"max":[0.5469250082969666,0.5],"min":[0.140625,0.0625],"type":"VEC2"},{"bufferView":7,"componentType":5123,"count":36,"max":[23],"min":[0],"type":"SCALAR"},{"bufferView":8,"componentType":5126,"count":24,"max":[0.125,0.03962062671780586,0.1943412572145462],"min":[-0.125,0.03962062671780586,0.006841250229626894],"type":"VEC3"},{"bufferView":9,"componentType":5126,"count":24,"max":[1,1,0],"min":[0,-1,0],"type":"VEC3"},{"bufferView":10,"componentType":5126,"count":24,"max":[0.546875,0.48442500829696655],"min":[0,0.078125],"type":"VEC2"},{"bufferView":11,"componentType":5123,"count":36,"max":[23],"min":[0],"type":"SCALAR"},{"bufferView":12,"componentType":5126,"count":24,"max":[0.125,-0.03962062671780586,0.024408750236034393],"min":[-0.125,-0.03962062671780586,-0.2255912572145462],"type":"VEC3"},{"bufferView":13,"componentType":5126,"count":24,"max":[1,1,0],"min":[0,-1,0],"type":"VEC3"},{"bufferView":14,"componentType":5126,"count":24,"max":[0.546875,0.5],"min":[0.140625,0.0625],"type":"VEC2"},{"bufferView":15,"componentType":5123,"count":36,"max":[23],"min":[0],"type":"SCALAR"},{"bufferView":16,"componentType":5126,"count":24,"max":[0.125,0.03962062671780586,0.1943412572145462],"min":[-0.125,0.03962062671780586,0.006841250229626894],"type":"VEC3"},{"bufferView":17,"componentType":5126,"count":24,"max":[1,1,0],"min":[0,-1,0],"type":"VEC3"},{"bufferView":18,"componentType":5126,"count":24,"max":[0.546875,0.48442500829696655],"min":[0,0.078125],"type":"VEC2"},{"bufferView":19,"componentType":5123,"count":36,"max":[23],"min":[0],"type":"SCALAR"},{"bufferView":20,"componentType":5126,"count":20,"max":[0.09375,0.125,0.25],"min":[-0.15625,0.125,0],"type":"VEC3"},{"bufferView":21,"componentType":5126,"count":20,"max":[1,1,0],"min":[0,0,0],"type":"VEC3"},{"bufferView":22,"componentType":5126,"count":20,"max":[0.125,0.5],"min":[0,0],"type":"VEC2"},{"bufferView":23,"componentType":5123,"count":30,"max":[19],"min":[0],"type":"SCALAR"},{"bufferView":24,"componentType":5126,"count":20,"max":[0.15625,0.125,0.25],"min":[-0.09375,0.125,0],"type":"VEC3"},{"bufferView":25,"componentType":5126,"count":20,"max":[1,1,0],"min":[0,0,0],"type":"VEC3"},{"bufferView":26,"componentType":5126,"count":20,"max":[0.125,0.5],"min":[0,0],"type":"VEC2"},{"bufferView":27,"componentType":5123,"count":30,"max":[19],"min":[0],"type":"SCALAR"},{"bufferView":28,"componentType":5126,"count":20,"max":[0,0.3125,0.40625],"min":[0,0.125,-0.28125],"type":"VEC3"},{"bufferView":29,"componentType":5126,"count":20,"max":[1,0,0],"min":[-1,0,0],"type":"VEC3"},{"bufferView":30,"componentType":5126,"count":20,"max":[0.328125,0.296875],"min":[0,0],"type":"VEC2"},{"bufferView":31,"componentType":5123,"count":30,"max":[19],"min":[0],"type":"SCALAR"},{"bufferView":32,"componentType":5126,"count":20,"max":[0,0.375,0.5],"min":[0,-0.3125,0],"type":"VEC3"},{"bufferView":33,"componentType":5126,"count":20,"max":[1,0,0],"min":[-1,0,0],"type":"VEC3"},{"bufferView":34,"componentType":5126,"count":20,"max":[0.125,0.171875],"min":[0,0],"type":"VEC2"},{"bufferView":35,"componentType":5123,"count":30,"max":[19],"min":[0],"type":"SCALAR"},{"bufferView":36,"componentType":5126,"count":24,"max":[0.078125,0.21875,0.125],"min":[-0.078125,-0.15625,-0.0625],"type":"VEC3"},{"bufferView":37,"componentType":5126,"count":24,"max":[1,1,1],"min":[-1,-1,-1],"type":"VEC3"},{"bufferView":38,"componentType":5126,"count":24,"max":[0.375,0.46875],"min":[0,0],"type":"VEC2"},{"bufferView":39,"componentType":5123,"count":36,"max":[23],"min":[0],"type":"SCALAR"},{"bufferView":40,"componentType":5126,"count":24,"max":[0.09375,0.3268750011920929,0.3125],"min":[-0.09375,-0.048124998807907104,0.125],"type":"VEC3"},{"bufferView":41,"componentType":5126,"count":24,"max":[1,1,1],"min":[-1,-1,-1],"type":"VEC3"},{"bufferView":42,"componentType":5126,"count":24,"max":[0.484375,0.484375],"min":[0.375,0],"type":"VEC2"},{"bufferView":43,"componentType":5123,"count":36,"max":[23],"min":[0],"type":"SCALAR"},{"bufferView":44,"componentType":5126,"count":24,"max":[0.09375,0.2331250011920929,0.3125],"min":[-0.09375,0.045625001192092896,0.25],"type":"VEC3"},{"bufferView":45,"componentType":5126,"count":24,"max":[1,1,1],"min":[-1,-1,-1],"type":"VEC3"},{"bufferView":46,"componentType":5126,"count":24,"max":[0.5,0.453125],"min":[0.34375,0],"type":"VEC2"},{"bufferView":47,"componentType":5123,"count":36,"max":[23],"min":[0],"type":"SCALAR"},{"bufferView":48,"componentType":5126,"count":77,"max":[2],"min":[0],"type":"SCALAR"},{"bufferView":49,"componentType":5126,"count":77,"max":[0.017809173092246056,0,0,1],"min":[-0.017809173092246056,0,0,0.9998413920402527],"type":"VEC4"},{"bufferView":50,"componentType":5126,"count":77,"max":[2],"min":[0],"type":"SCALAR"},{"bufferView":51,"componentType":5126,"count":77,"max":[0,0.3125,-0.0625],"min":[0,0.25,-0.0625],"type":"VEC3"},{"bufferView":52,"componentType":5126,"count":77,"max":[2],"min":[0],"type":"SCALAR"},{"bufferView":53,"componentType":5126,"count":77,"max":[0.194150909781456,0.02211712673306465,0.19509032368659973,1],"min":[-0.19426409900188446,-0.02126799337565899,0,0.9756917357444763],"type":"VEC4"},{"bufferView":54,"componentType":5126,"count":77,"max":[2],"min":[0],"type":"SCALAR"},{"bufferView":55,"componentType":5126,"count":77,"max":[0.194150909781456,0.02126799337565899,0,1],"min":[-0.19426409900188446,-0.02211712673306465,-0.19509032368659973,0.9756917357444763],"type":"VEC4"},{"bufferView":56,"componentType":5126,"count":77,"max":[2],"min":[0],"type":"SCALAR"},{"bufferView":57,"componentType":5126,"count":77,"max":[0,0.19509032368659973,0,1],"min":[0,-0.19509032368659973,0,0.9807852506637573],"type":"VEC4"},{"bufferView":58,"componentType":5126,"count":46,"max":[1],"min":[0],"type":"SCALAR"},{"bufferView":59,"componentType":5126,"count":46,"max":[0.005899077281355858,0.1736481785774231,0.08715574443340302,0.9961947202682495],"min":[-0.005899077281355858,-0.1736481785774231,-0.08715574443340302,0.9848077297210693],"type":"VEC4"},{"bufferView":60,"componentType":5126,"count":46,"max":[1],"min":[0],"type":"SCALAR"},{"bufferView":61,"componentType":5126,"count":46,"max":[0.06377777457237244,0.25,-0.0625],"min":[-0.06377777457237244,0.25,-0.0625],"type":"VEC3"},{"bufferView":62,"componentType":5126,"count":46,"max":[1],"min":[0],"type":"SCALAR"},{"bufferView":63,"componentType":5126,"count":46,"max":[0.3826834261417389,0.029587343335151672,0.19509032368659973,0.9807852506637573],"min":[-0.3826834261417389,-0.029587343335151672,-0.19509032368659973,0.9238795042037964],"type":"VEC4"},{"bufferView":64,"componentType":5126,"count":46,"max":[1],"min":[0],"type":"SCALAR"},{"bufferView":65,"componentType":5126,"count":46,"max":[0.3826834261417389,0.029587343335151672,0.19509032368659973,0.9807852506637573],"min":[-0.3826834261417389,-0.029587343335151672,-0.19509032368659973,0.9238795042037964],"type":"VEC4"},{"bufferView":66,"componentType":5126,"count":46,"max":[1],"min":[0],"type":"SCALAR"},{"bufferView":67,"componentType":5126,"count":46,"max":[0,0,0.13317899405956268,1],"min":[0,0,-0.13317899405956268,0.9910920262336731],"type":"VEC4"},{"bufferView":68,"componentType":5126,"count":46,"max":[1],"min":[0],"type":"SCALAR"},{"bufferView":69,"componentType":5126,"count":46,"max":[0,0.2853910028934479,0,1],"min":[0,-0.2853910028934479,0,0.9584111571311951],"type":"VEC4"},{"bufferView":70,"componentType":5126,"count":46,"max":[1],"min":[0],"type":"SCALAR"},{"bufferView":71,"componentType":5126,"count":46,"max":[0,0.08893293142318726,0,1],"min":[0,-0.08893293142318726,0,0.9960376024246216],"type":"VEC4"}],"materials":[{"pbrMetallicRoughness":{"metallicFactor":0,"roughnessFactor":1,"baseColorTexture":{"index":0}},"alphaMode":"MASK","alphaCutoff":0.05,"doubleSided":true}],"textures":[{"sampler":0,"source":0,"name":"carp"}],"samplers":[{"magFilter":9728,"minFilter":9728,"wrapS":33071,"wrapT":33071}],"images":[{"mimeType":"image/png","uri":"data:image/png;base64,"}],"meshes":[{"primitives":[{"mode":4,"attributes":{"POSITION":0,"NORMAL":1,"TEXCOORD_0":2},"indices":3,"material":0}]},{"primitives":[{"mode":4,"attributes":{"POSITION":4,"NORMAL":5,"TEXCOORD_0":6},"indices":7,"material":0}]},{"primitives":[{"mode":4,"attributes":{"POSITION":8,"NORMAL":9,"TEXCOORD_0":10},"indices":11,"material":0}]},{"primitives":[{"mode":4,"attributes":{"POSITION":12,"NORMAL":13,"TEXCOORD_0":14},"indices":15,"material":0}]},{"primitives":[{"mode":4,"attributes":{"POSITION":16,"NORMAL":17,"TEXCOORD_0":18},"indices":19,"material":0}]},{"primitives":[{"mode":4,"attributes":{"POSITION":20,"NORMAL":21,"TEXCOORD_0":22},"indices":23,"material":0}]},{"primitives":[{"mode":4,"attributes":{"POSITION":24,"NORMAL":25,"TEXCOORD_0":26},"indices":27,"material":0}]},{"primitives":[{"mode":4,"attributes":{"POSITION":28,"NORMAL":29,"TEXCOORD_0":30},"indices":31,"material":0}]},{"primitives":[{"mode":4,"attributes":{"POSITION":32,"NORMAL":33,"TEXCOORD_0":34},"indices":35,"material":0}]},{"primitives":[{"mode":4,"attributes":{"POSITION":36,"NORMAL":37,"TEXCOORD_0":38},"indices":39,"material":0}]},{"primitives":[{"mode":4,"attributes":{"POSITION":40,"NORMAL":41,"TEXCOORD_0":42},"indices":43,"material":0}]},{"primitives":[{"mode":4,"attributes":{"POSITION":44,"NORMAL":45,"TEXCOORD_0":46},"indices":47,"material":0}]}],"animations":[{"name":"idle","samplers":[{"input":48,"output":49,"interpolation":"LINEAR"},{"input":50,"output":51,"interpolation":"LINEAR"},{"input":52,"output":53,"interpolation":"LINEAR"},{"input":54,"output":55,"interpolation":"LINEAR"},{"input":56,"output":57,"interpolation":"LINEAR"}],"channels":[{"sampler":0,"target":{"node":17,"path":"rotation"}},{"sampler":1,"target":{"node":17,"path":"translation"}},{"sampler":2,"target":{"node":6,"path":"rotation"}},{"sampler":3,"target":{"node":8,"path":"rotation"}},{"sampler":4,"target":{"node":13,"path":"rotation"}}]},{"name":"walk","samplers":[{"input":58,"output":59,"interpolation":"LINEAR"},{"input":60,"output":61,"interpolation":"LINEAR"},{"input":62,"output":63,"interpolation":"LINEAR"},{"input":64,"output":65,"interpolation":"LINEAR"},{"input":66,"output":67,"interpolation":"LINEAR"},{"input":68,"output":69,"interpolation":"LINEAR"},{"input":70,"output":71,"interpolation":"LINEAR"}],"channels":[{"sampler":0,"target":{"node":17,"path":"rotation"}},{"sampler":1,"target":{"node":17,"path":"translation"}},{"sampler":2,"target":{"node":6,"path":"rotation"}},{"sampler":3,"target":{"node":8,"path":"rotation"}},{"sampler":4,"target":{"node":10,"path":"rotation"}},{"sampler":5,"target":{"node":13,"path":"rotation"}},{"sampler":6,"target":{"node":16,"path":"rotation"}}]}]}