{"asset":{"version":"2.0","generator":"Blockbench 4.12.6 glTF exporter"},"scenes":[{"nodes":[14],"name":"blockbench_export"}],"scene":0,"nodes":[{"translation":[0,-0.0625,0],"name":"cube","mesh":0},{"rotation":[0.19509032201612825,0,0,0.9807852804032304],"translation":[0,0.1875,0.03125],"name":"cube","mesh":1},{"translation":[-0.25,-0.0625,0.15625],"name":"cube","mesh":2},{"translation":[-0.25,-0.09375,-0.15625],"name":"fin","children":[2]},{"translation":[0.25,-0.0625,0.15625],"name":"cube","mesh":3},{"translation":[0.25,-0.09375,-0.15625],"name":"fin2","children":[4]},{"rotation":[0,0,0.19509032201612825,0.9807852804032304],"name":"cube","mesh":4},{"translation":[-0.21875,-0.09375,-0.3125],"name":"wisker","children":[6]},{"translation":[0.0625,0,0.0625],"name":"cube","mesh":5},{"rotation":[0,0,-0.19509032201612825,0.9807852804032304],"translation":[0.21875,-0.09375,-0.375],"name":"wisker2","children":[8]},{"translation":[0,-0.0625,0.375],"name":"cube","mesh":6},{"translation":[0,-0.0625,0.375],"name":"cube","mesh":7},{"translation":[0,0,0.375],"name":"tail","children":[10,11]},{"translation":[0,0.25,-0.0625],"name":"catfish","children":[0,1,3,5,7,9,12]},{"children":[13]}],"bufferViews":[{"buffer":0,"byteOffset":0,"byteLength":288,"target":34962,"byteStride":12},{"buffer":0,"byteOffset":288,"byteLength":288,"target":34962,"byteStride":12},{"buffer":0,"byteOffset":576,"byteLength":192,"target":34962,"byteStride":8},{"buffer":0,"byteOffset":768,"byteLength":72,"target":34963},{"buffer":0,"byteOffset":840,"byteLength":288,"target":34962,"byteStride":12},{"buffer":0,"byteOffset":1128,"byteLength":288,"target":34962,"byteStride":12},{"buffer":0,"byteOffset":1416,"byteLength":192,"target":34962,"byteStride":8},{"buffer":0,"byteOffset":1608,"byteLength":72,"target":34963},{"buffer":0,"byteOffset":1680,"byteLength":288,"target":34962,"byteStride":12},{"buffer":0,"byteOffset":1968,"byteLength":288,"target":34962,"byteStride":12},{"buffer":0,"byteOffset":2256,"byteLength":192,"target":34962,"byteStride":8},{"buffer":0,"byteOffset":2448,"byteLength":72,"target":34963},{"buffer":0,"byteOffset":2520,"byteLength":288,"target":34962,"byteStride":12},{"buffer":0,"byteOffset":2808,"byteLength":288,"target":34962,"byteStride":12},{"buffer":0,"byteOffset":3096,"byteLength":192,"target":34962,"byteStride":8},{"buffer":0,"byteOffset":3288,"byteLength":72,"target":34963},{"buffer":0,"byteOffset":3360,"byteLength":240,"target":34962,"byteStride":12},{"buffer":0,"byteOffset":3600,"byteLength":240,"target":34962,"byteStride":12},{"buffer":0,"byteOffset":3840,"byteLength":160,"target":34962,"byteStride":8},{"buffer":0,"byteOffset":4000,"byteLength":60,"target":34963},{"buffer":0,"byteOffset":4060,"byteLength":240,"target":34962,"byteStride":12},{"buffer":0,"byteOffset":4300,"byteLength":240,"target":34962,"byteStride":12},{"buffer":0,"byteOffset":4540,"byteLength":160,"target":34962,"byteStride":8},{"buffer":0,"byteOffset":4700,"byteLength":60,"target":34963},{"buffer":0,"byteOffset":4760,"byteLength":288,"target":34962,"byteStride":12},{"buffer":0,"byteOffset":5048,"byteLength":288,"target":34962,"byteStride":12},{"buffer":0,"byteOffset":5336,"byteLength":192,"target":34962,"byteStride":8},{"buffer":0,"byteOffset":5528,"byteLength":72,"target":34963},{"buffer":0,"byteOffset":5600,"byteLength":240,"target":34962,"byteStride":12},{"buffer":0,"byteOffset":5840,"byteLength":240,"target":34962,"byteStride":12},{"buffer":0,"byteOffset":6080,"byteLength":160,"target":34962,"byteStride":8},{"buffer":0,"byteOffset":6240,"byteLength":60,"target":34963},{"buffer":0,"byteOffset":6300,"byteLength":308},{"buffer":0,"byteOffset":6608,"byteLength":1232},{"buffer":0,"byteOffset":7840,"byteLength":308},{"buffer":0,"byteOffset":8148,"byteLength":924},{"buffer":0,"byteOffset":9072,"byteLength":308},{"buffer":0,"byteOffset":9380,"byteLength":1232},{"buffer":0,"byteOffset":10612,"byteLength":308},{"buffer":0,"byteOffset":10920,"byteLength":1232},{"buffer":0,"byteOffset":12152,"byteLength":308},{"buffer":0,"byteOffset":12460,"byteLength":1232},{"buffer":0,"byteOffset":13692,"byteLength":308},{"buffer":0,"byteOffset":14000,"byteLength":1232},{"buffer":0,"byteOffset":15232,"byteLength":308},{"buffer":0,"byteOffset":15540,"byteLength":1232},{"buffer":0,"byteOffset":16772,"byteLength":180},{"buffer":0,"byteOffset":16952,"byteLength":720},{"buffer":0,"byteOffset":17672,"byteLength":184},{"buffer":0,"byteOffset":17856,"byteLength":552},{"buffer":0,"byteOffset":18408,"byteLength":184},{"buffer":0,"byteOffset":18592,"byteLength":736},{"buffer":0,"byteOffset":19328,"byteLength":184},{"buffer":0,"byteOffset":19512,"byteLength":736},{"buffer":0,"byteOffset":20248,"byteLength":184},{"buffer":0,"byteOffset":20432,"byteLength":736}],"buffers":[{"byteLength":21168,"uri":"data:application/octet-stream;base64,"}],"accessors":[{"bufferView":0,"componentType":5126,"count":24,"max":[0.25,0.1875,0.375],"min":[-0.25,-0.0625,-0.375],"type":"VEC3"},{"bufferView":1,"componentType":5126,"count":24,"max":[1,1,1],"min":[-1,-1,-1],"type":"VEC3"},{"bufferView":2,"componentType":5126,"count":24,"max":[0.46875,0.296875],"min":[0,0],"type":"VEC2"},{"bufferView":3,"componentType":5123,"count":36,"max":[23],"min":[0],"type":"SCALAR"},{"bufferView":4,"componentType":5126,"count":24,"max":[0.0625,0.125,0.09375],"min":[-0.0625,-0.125,-0.09375],"type":"VEC3"},{"bufferView":5,"componentType":5126,"count":24,"max":[1,1,1],"min":[-1,-1,-1],"type":"VEC3"},{"bufferView":6,"componentType":5126,"count":24,"max":[0.453125,0.5],"min":[0.15625,0.359375],"type":"VEC2"},{"bufferView":7,"componentType":5123,"count":36,"max":[23],"min":[0],"type":"SCALAR"},{"bufferView":8,"componentType":5126,"count":24,"max":[0.25,0.09375,-0.0625],"min":[0,0.03125,-0.25],"type":"VEC3"},{"bufferView":9,"componentType":5126,"count":24,"max":[1,1,1],"min":[-1,-1,-1],"type":"VEC3"},{"bufferView":10,"componentType":5126,"count":24,"max":[0.515625,0.46875],"min":[0.15625,0.28125],"type":"VEC2"},{"bufferView":11,"componentType":5123,"count":36,"max":[23],"min":[0],"type":"SCALAR"},{"bufferView":12,"componentType":5126,"count":24,"max":[0,0.09375,-0.0625],"min":[-0.25,0.03125,-0.25],"type":"VEC3"},{"bufferView":13,"componentType":5126,"count":24,"max":[1,1,1],"min":[-1,-1,-1],"type":"VEC3"},{"bufferView":14,"componentType":5126,"count":24,"max":[0.515625,0.46875],"min":[0.15625,0.28125],"type":"VEC2"},{"bufferView":15,"componentType":5123,"count":36,"max":[23],"min":[0],"type":"SCALAR"},{"bufferView":16,"componentType":5126,"count":20,"max":[0.03125,0,0.25],"min":[-0.15625,0,-0.25],"type":"VEC3"},{"bufferView":17,"componentType":5126,"count":20,"max":[1,1,0],"min":[0,0,0],"type":"VEC3"},{"bufferView":18,"componentType":5126,"count":20,"max":[0.609375,0.43755000829696655],"min":[0.28125,0],"type":"VEC2"},{"bufferView":19,"componentType":5123,"count":30,"max":[19],"min":[0],"type":"SCALAR"},{"bufferView":20,"componentType":5126,"count":20,"max":[0.09375,0,0.25],"min":[-0.09375,0,-0.25],"type":"VEC3"},{"bufferView":21,"componentType":5126,"count":20,"max":[1,1,0],"min":[0,0,0],"type":"VEC3"},{"bufferView":22,"componentType":5126,"count":20,"max":[0.609375,0.43755000829696655],"min":[0.28125,0],"type":"VEC2"},{"bufferView":23,"componentType":5123,"count":30,"max":[19],"min":[0],"type":"SCALAR"},{"bufferView":24,"componentType":5126,"count":24,"max":[0.125,0.15625,-0.125],"min":[-0.125,-0.03125,-0.375],"type":"VEC3"},{"bufferView":25,"componentType":5126,"count":24,"max":[1,1,1],"min":[-1,-1,-1],"type":"VEC3"},{"bufferView":26,"componentType":5126,"count":24,"max":[0.484375,0.484375],"min":[0,0.15625],"type":"VEC2"},{"bufferView":27,"componentType":5123,"count":36,"max":[23],"min":[0],"type":"SCALAR"},{"bufferView":28,"componentType":5126,"count":20,"max":[0,0.34375,0.125],"min":[0,-0.21875,-0.375],"type":"VEC3"},{"bufferView":29,"componentType":5126,"count":20,"max":[1,0,0],"min":[-1,0,0],"type":"VEC3"},{"bufferView":30,"componentType":5126,"count":20,"max":[0.48442500829696655,0.625],"min":[0.140625,0.015625],"type":"VEC2"},{"bufferView":31,"componentType":5123,"count":30,"max":[19],"min":[0],"type":"SCALAR"},{"bufferView":32,"componentType":5126,"count":77,"max":[2],"min":[0],"type":"SCALAR"},{"bufferView":33,"componentType":5126,"count":77,"max":[0.04361938685178757,0,0,1],"min":[-0.04361938685178757,0,0,0.9990482330322266],"type":"VEC4"},{"bufferView":34,"componentType":5126,"count":77,"max":[2],"min":[0],"type":"SCALAR"},{"bufferView":35,"componentType":5126,"count":77,"max":[0,0.375,-0.0625],"min":[0,0.25,-0.0625],"type":"VEC3"},{"bufferView":36,"componentType":5126,"count":77,"max":[2],"min":[0],"type":"SCALAR"},{"bufferView":37,"componentType":5126,"count":77,"max":[0,0,0.19509032368659973,1],"min":[0,0,0,0.9807852506637573],"type":"VEC4"},{"bufferView":38,"componentType":5126,"count":77,"max":[2],"min":[0],"type":"SCALAR"},{"bufferView":39,"componentType":5126,"count":77,"max":[0,0,0,1],"min":[0,0,-0.19509032368659973,0.9807852506637573],"type":"VEC4"},{"bufferView":40,"componentType":5126,"count":77,"max":[2],"min":[0],"type":"SCALAR"},{"bufferView":41,"componentType":5126,"count":77,"max":[0.08715574443340302,0.08715574443340302,0.002971830777823925,0.9970281720161438],"min":[-0.08715574443340302,-0.08715574443340302,-0.002971830777823925,0.9961947202682495],"type":"VEC4"},{"bufferView":42,"componentType":5126,"count":77,"max":[2],"min":[0],"type":"SCALAR"},{"bufferView":43,"componentType":5126,"count":77,"max":[0,0,-0.06273245811462402,0.9980303645133972],"min":[0,0,-0.3239724636077881,0.9460664987564087],"type":"VEC4"},{"bufferView":44,"componentType":5126,"count":77,"max":[2],"min":[0],"type":"SCALAR"},{"bufferView":45,"componentType":5126,"count":77,"max":[0,0,0.13317899405956268,1],"min":[0,0,-0.13317899405956268,0.9910920262336731],"type":"VEC4"},{"bufferView":46,"componentType":5126,"count":45,"max":[1],"min":[0],"type":"SCALAR"},{"bufferView":47,"componentType":5126,"count":45,"max":[0,0.10877048969268799,0,0.9999735951423645],"min":[0,-0.10877048969268799,0,0.9940668940544128],"type":"VEC4"},{"bufferView":48,"componentType":5126,"count":46,"max":[1],"min":[0],"type":"SCALAR"},{"bufferView":49,"componentType":5126,"count":46,"max":[0.12755554914474487,0.25,-0.0625],"min":[-0.12755554914474487,0.25,-0.0625],"type":"VEC3"},{"bufferView":50,"componentType":5126,"count":46,"max":[1],"min":[0],"type":"SCALAR"},{"bufferView":51,"componentType":5126,"count":46,"max":[0,0,0.13052618503570557,1],"min":[0,0,-0.13052618503570557,0.9914448857307434],"type":"VEC4"},{"bufferView":52,"componentType":5126,"count":46,"max":[1],"min":[0],"type":"SCALAR"},{"bufferView":53,"componentType":5126,"count":46,"max":[0,0,0.13052618503570557,1],"min":[0,0,-0.13052618503570557,0.9914448857307434],"type":"VEC4"},{"bufferView":54,"componentType":5126,"count":46,"max":[1],"min":[0],"type":"SCALAR"},{"bufferView":55,"componentType":5126,"count":46,"max":[0,0.18120576441287994,0,1],"min":[0,-0.18072259426116943,0,0.9834452271461487],"type":"VEC4"}],"materials":[{"pbrMetallicRoughness":{"metallicFactor":0,"roughnessFactor":1,"baseColorTexture":{"index":0}},"alphaMode":"MASK","alphaCutoff":0.05,"doubleSided":true}],"textures":[{"sampler":0,"source":0,"name":"catfish.png"}],"samplers":[{"magFilter":9728,"minFilter":9728,"wrapS":33071,"wrapT":33071}],"images":[{"mimeType":"image/png","uri":"data:image/png;base64,"}],"meshes":[{"primitives":[{"mode":4,"attributes":{"POSITION":0,"NORMAL":1,"TEXCOORD_0":2},"indices":3,"material":0}]},{"primitives":[{"mode":4,"attributes":{"POSITION":4,"NORMAL":5,"TEXCOORD_0":6},"indices":7,"material":0}]},{"primitives":[{"mode":4,"attributes":{"POSITION":8,"NORMAL":9,"TEXCOORD_0":10},"indices":11,"material":0}]},{"primitives":[{"mode":4,"attributes":{"POSITION":12,"NORMAL":13,"TEXCOORD_0":14},"indices":15,"material":0}]},{"primitives":[{"mode":4,"attributes":{"POSITION":16,"NORMAL":17,"TEXCOORD_0":18},"indices":19,"material":0}]},{"primitives":[{"mode":4,"attributes":{"POSITION":20,"NORMAL":21,"TEXCOORD_0":22},"indices":23,"material":0}]},{"primitives":[{"mode":4,"attributes":{"POSITION":24,"NORMAL":25,"TEXCOORD_0":26},"indices":27,"material":0}]},{"primitives":[{"mode":4,"attributes":{"POSITION":28,"NORMAL":29,"TEXCOORD_0":30},"indices":31,"material":0}]}],"animations":[{"name":"idle","samplers":[{"input":32,"output":33,"interpolation":"LINEAR"},{"input":34,"output":35,"interpolation":"LINEAR"},{"input":36,"output":37,"interpolation":"LINEAR"},{"input":38,"output":39,"interpolation":"LINEAR"},{"input":40,"output":41,"interpolation":"LINEAR"},{"input":42,"output":43,"interpolation":"LINEAR"},{"input":44,"output":45,"interpolation":"LINEAR"}],"channels":[{"sampler":0,"target":{"node":13,"path":"rotation"}},{"sampler":1,"target":{"node":13,"path":"translation"}},{"sampler":2,"target":{"node":3,"path":"rotation"}},{"sampler":3,"target":{"node":5,"path":"rotation"}},{"sampler":4,"target":{"node":12,"path":"rotation"}},{"sampler":5,"target":{"node":9,"path":"rotation"}},{"sampler":6,"target":{"node":7,"path":"rotation"}}]},{"name":"walk","samplers":[{"input":46,"output":47,"interpolation":"LINEAR"},{"input":48,"output":49,"interpolation":"LINEAR"},{"input":50,"output":51,"interpolation":"LINEAR"},{"input":52,"output":53,"interpolation":"LINEAR"},{"input":54,"output":55,"interpolation":"LINEAR"}],"channels":[{"sampler":0,"target":{"node":13,"path":"rotation"}},{"sampler":1,"target":{"node":13,"path":"translation"}},{"sampler":2,"target":{"node":3,"path":"rotation"}},{"sampler":3,"target":{"node":5,"path":"rotation"}},{"sampler":4,"target":{"node":12,"path":"rotation"}}]}]}