{"asset":{"version":"2.0","generator":"Blockbench 4.12.6 glTF exporter"},"scenes":[{"nodes":[20],"name":"blockbench_export"}],"scene":0,"nodes":[{"translation":[0,-0.0625,0.0653925],"name":"cube","mesh":0},{"translation":[0.125,-0.0625,0.21875],"name":"cube","mesh":1},{"translation":[-0.125,0,-0.15335749999999998],"name":"fin","children":[1]},{"translation":[-0.125,-0.0625,0.21875],"name":"cube","mesh":2},{"translation":[0.125,0,-0.15335749999999998],"name":"fin2","children":[3]},{"rotation":[0.21643961393810288,0,0,0.9762960071199334],"name":"cube","mesh":3},{"translation":[0,0.1875,0.4403925],"name":"bone","children":[5]},{"translation":[0,-0.0625,0.5015806249999999],"name":"cube","mesh":4},{"rotation":[-0.2798290140309921,0,0,0.9600498543859287],"translation":[0,-0.15625,0.15783062499999995],"name":"cube","mesh":5},{"rotation":[-0.2798290140309921,0,0,0.9600498543859287],"translation":[0,-0.15625,0.15783062499999995],"name":"cube","mesh":6},{"rotation":[0.2798290140309921,0,0,0.9600498543859287],"translation":[0,0.15625,0.15783062499999995],"name":"cube","mesh":7},{"rotation":[0.2798290140309921,0,0,0.9600498543859287],"translation":[0,0.15625,0.15783062499999995],"name":"cube","mesh":8},{"translation":[0,0,0.5638118750000001],"name":"tail","children":[7,8,9,10,11]},{"translation":[0,0.015625,-0.37500000000000006],"name":"cube","mesh":9},{"translation":[0,0,-0.5],"name":"cube","mesh":10},{"translation":[0,0.015625,-0.12500000000000006],"name":"top_gaw","children":[14]},{"translation":[0,0.03125,-0.5],"name":"cube","mesh":11},{"translation":[0,-0.078125,-0.12500000000000006],"name":"bottom_gaw","children":[16]},{"translation":[0,0.015625,-0.3096075],"name":"head","children":[13,15,17]},{"translation":[0,0.375,-0.140625],"name":"barracuda","children":[0,2,4,6,12,18]},{"children":[19]}],"bufferViews":[{"buffer":0,"byteOffset":0,"byteLength":288,"target":34962,"byteStride":12},{"buffer":0,"byteOffset":288,"byteLength":288,"target":34962,"byteStride":12},{"buffer":0,"byteOffset":576,"byteLength":192,"target":34962,"byteStride":8},{"buffer":0,"byteOffset":768,"byteLength":72,"target":34963},{"buffer":0,"byteOffset":840,"byteLength":288,"target":34962,"byteStride":12},{"buffer":0,"byteOffset":1128,"byteLength":288,"target":34962,"byteStride":12},{"buffer":0,"byteOffset":1416,"byteLength":192,"target":34962,"byteStride":8},{"buffer":0,"byteOffset":1608,"byteLength":72,"target":34963},{"buffer":0,"byteOffset":1680,"byteLength":288,"target":34962,"byteStride":12},{"buffer":0,"byteOffset":1968,"byteLength":288,"target":34962,"byteStride":12},{"buffer":0,"byteOffset":2256,"byteLength":192,"target":34962,"byteStride":8},{"buffer":0,"byteOffset":2448,"byteLength":72,"target":34963},{"buffer":0,"byteOffset":2520,"byteLength":288,"target":34962,"byteStride":12},{"buffer":0,"byteOffset":2808,"byteLength":288,"target":34962,"byteStride":12},{"buffer":0,"byteOffset":3096,"byteLength":192,"target":34962,"byteStride":8},{"buffer":0,"byteOffset":3288,"byteLength":72,"target":34963},{"buffer":0,"byteOffset":3360,"byteLength":288,"target":34962,"byteStride":12},{"buffer":0,"byteOffset":3648,"byteLength":288,"target":34962,"byteStride":12},{"buffer":0,"byteOffset":3936,"byteLength":192,"target":34962,"byteStride":8},{"buffer":0,"byteOffset":4128,"byteLength":72,"target":34963},{"buffer":0,"byteOffset":4200,"byteLength":240,"target":34962,"byteStride":12},{"buffer":0,"byteOffset":4440,"byteLength":240,"target":34962,"byteStride":12},{"buffer":0,"byteOffset":4680,"byteLength":160,"target":34962,"byteStride":8},{"buffer":0,"byteOffset":4840,"byteLength":60,"target":34963},{"buffer":0,"byteOffset":4900,"byteLength":288,"target":34962,"byteStride":12},{"buffer":0,"byteOffset":5188,"byteLength":288,"target":34962,"byteStride":12},{"buffer":0,"byteOffset":5476,"byteLength":192,"target":34962,"byteStride":8},{"buffer":0,"byteOffset":5668,"byteLength":72,"target":34963},{"buffer":0,"byteOffset":5740,"byteLength":288,"target":34962,"byteStride":12},{"buffer":0,"byteOffset":6028,"byteLength":288,"target":34962,"byteStride":12},{"buffer":0,"byteOffset":6316,"byteLength":192,"target":34962,"byteStride":8},{"buffer":0,"byteOffset":6508,"byteLength":72,"target":34963},{"buffer":0,"byteOffset":6580,"byteLength":240,"target":34962,"byteStride":12},{"buffer":0,"byteOffset":6820,"byteLength":240,"target":34962,"byteStride":12},{"buffer":0,"byteOffset":7060,"byteLength":160,"target":34962,"byteStride":8},{"buffer":0,"byteOffset":7220,"byteLength":60,"target":34963},{"buffer":0,"byteOffset":7280,"byteLength":288,"target":34962,"byteStride":12},{"buffer":0,"byteOffset":7568,"byteLength":288,"target":34962,"byteStride":12},{"buffer":0,"byteOffset":7856,"byteLength":192,"target":34962,"byteStride":8},{"buffer":0,"byteOffset":8048,"byteLength":72,"target":34963},{"buffer":0,"byteOffset":8120,"byteLength":288,"target":34962,"byteStride":12},{"buffer":0,"byteOffset":8408,"byteLength":288,"target":34962,"byteStride":12},{"buffer":0,"byteOffset":8696,"byteLength":192,"target":34962,"byteStride":8},{"buffer":0,"byteOffset":8888,"byteLength":72,"target":34963},{"buffer":0,"byteOffset":8960,"byteLength":288,"target":34962,"byteStride":12},{"buffer":0,"byteOffset":9248,"byteLength":288,"target":34962,"byteStride":12},{"buffer":0,"byteOffset":9536,"byteLength":192,"target":34962,"byteStride":8},{"buffer":0,"byteOffset":9728,"byteLength":72,"target":34963},{"buffer":0,"byteOffset":9800,"byteLength":312},{"buffer":0,"byteOffset":10112,"byteLength":1248},{"buffer":0,"byteOffset":11360,"byteLength":308},{"buffer":0,"byteOffset":11668,"byteLength":924},{"buffer":0,"byteOffset":12592,"byteLength":308},{"buffer":0,"byteOffset":12900,"byteLength":1232},{"buffer":0,"byteOffset":14132,"byteLength":308},{"buffer":0,"byteOffset":14440,"byteLength":1232},{"buffer":0,"byteOffset":15672,"byteLength":308},{"buffer":0,"byteOffset":15980,"byteLength":1232},{"buffer":0,"byteOffset":17212,"byteLength":308},{"buffer":0,"byteOffset":17520,"byteLength":1232},{"buffer":0,"byteOffset":18752,"byteLength":308},{"buffer":0,"byteOffset":19060,"byteLength":1232},{"buffer":0,"byteOffset":20292,"byteLength":308},{"buffer":0,"byteOffset":20600,"byteLength":1232},{"buffer":0,"byteOffset":21832,"byteLength":224},{"buffer":0,"byteOffset":22056,"byteLength":896},{"buffer":0,"byteOffset":22952,"byteLength":220},{"buffer":0,"byteOffset":23172,"byteLength":660},{"buffer":0,"byteOffset":23832,"byteLength":224},{"buffer":0,"byteOffset":24056,"byteLength":896},{"buffer":0,"byteOffset":24952,"byteLength":224},{"buffer":0,"byteOffset":25176,"byteLength":896},{"buffer":0,"byteOffset":26072,"byteLength":224},{"buffer":0,"byteOffset":26296,"byteLength":896},{"buffer":0,"byteOffset":27192,"byteLength":224},{"buffer":0,"byteOffset":27416,"byteLength":896},{"buffer":0,"byteOffset":28312,"byteLength":224},{"buffer":0,"byteOffset":28536,"byteLength":896},{"buffer":0,"byteOffset":29432,"byteLength":224},{"buffer":0,"byteOffset":29656,"byteLength":896}],"buffers":[{"byteLength":30552,"uri":"data:application/octet-stream;base64,"}],"accessors":[{"bufferView":0,"componentType":5126,"count":24,"max":[0.125,0.1875,0.5],"min":[-0.125,-0.0625,-0.375],"type":"VEC3"},{"bufferView":1,"componentType":5126,"count":24,"max":[1,1,1],"min":[-1,-1,-1],"type":"VEC3"},{"bufferView":2,"componentType":5126,"count":24,"max":[0.296875,0.375],"min":[0,0],"type":"VEC2"},{"bufferView":3,"componentType":5123,"count":36,"max":[23],"min":[0],"type":"SCALAR"},{"bufferView":4,"componentType":5126,"count":24,"max":[-0.125,0.09375,-0.125],"min":[-0.375,0.03125,-0.3125],"type":"VEC3"},{"bufferView":5,"componentType":5126,"count":24,"max":[1,1,1],"min":[-1,-1,-1],"type":"VEC3"},{"bufferView":6,"componentType":5126,"count":24,"max":[0.515625,0.359375],"min":[0.3125,0],"type":"VEC2"},{"bufferView":7,"componentType":5123,"count":36,"max":[23],"min":[0],"type":"SCALAR"},{"bufferView":8,"componentType":5126,"count":24,"max":[0.375,0.09375,-0.125],"min":[0.125,0.03125,-0.3125],"type":"VEC3"},{"bufferView":9,"componentType":5126,"count":24,"max":[1,1,1],"min":[-1,-1,-1],"type":"VEC3"},{"bufferView":10,"componentType":5126,"count":24,"max":[0.515625,0.359375],"min":[0.3125,0],"type":"VEC2"},{"bufferView":11,"componentType":5123,"count":36,"max":[23],"min":[0],"type":"SCALAR"},{"bufferView":12,"componentType":5126,"count":24,"max":[0.0625,0.0625,-0.0625],"min":[-0.0625,-0.25,-0.25],"type":"VEC3"},{"bufferView":13,"componentType":5126,"count":24,"max":[1,1,1],"min":[-1,-1,-1],"type":"VEC3"},{"bufferView":14,"componentType":5126,"count":24,"max":[0.4375,0.4375],"min":[0.15625,0.125],"type":"VEC2"},{"bufferView":15,"componentType":5123,"count":36,"max":[23],"min":[0],"type":"SCALAR"},{"bufferView":16,"componentType":5126,"count":24,"max":[0.0625,0.15625,-0.3125],"min":[-0.0625,-0.03125,-0.5],"type":"VEC3"},{"bufferView":17,"componentType":5126,"count":24,"max":[1,1,1],"min":[-1,-1,-1],"type":"VEC3"},{"bufferView":18,"componentType":5126,"count":24,"max":[0.4375,0.46875],"min":[0,0],"type":"VEC2"},{"bufferView":19,"componentType":5123,"count":36,"max":[23],"min":[0],"type":"SCALAR"},{"bufferView":20,"componentType":5126,"count":20,"max":[0,0.15625,0.15625],"min":[0,-0.15625,0.09375],"type":"VEC3"},{"bufferView":21,"componentType":5126,"count":20,"max":[1,0,0],"min":[-1,0,0],"type":"VEC3"},{"bufferView":22,"componentType":5126,"count":20,"max":[0.31255000829696655,0.546875],"min":[0.125,0.125],"type":"VEC2"},{"bufferView":23,"componentType":5123,"count":30,"max":[19],"min":[0],"type":"SCALAR"},{"bufferView":24,"componentType":5126,"count":24,"max":[0.03125,0.15625,0.09375],"min":[-0.03125,-0.15625,-0.09375],"type":"VEC3"},{"bufferView":25,"componentType":5126,"count":24,"max":[1,1,1],"min":[-1,-1,-1],"type":"VEC3"},{"bufferView":26,"componentType":5126,"count":24,"max":[0.46875,0.53125],"min":[0,0.15625],"type":"VEC2"},{"bufferView":27,"componentType":5123,"count":36,"max":[23],"min":[0],"type":"SCALAR"},{"bufferView":28,"componentType":5126,"count":24,"max":[0.03125,0.15625,0.09375],"min":[-0.03125,-0.15625,-0.09375],"type":"VEC3"},{"bufferView":29,"componentType":5126,"count":24,"max":[1,1,1],"min":[-1,-1,-1],"type":"VEC3"},{"bufferView":30,"componentType":5126,"count":24,"max":[0.46875,0.53125],"min":[0,0.15625],"type":"VEC2"},{"bufferView":31,"componentType":5123,"count":36,"max":[23],"min":[0],"type":"SCALAR"},{"bufferView":32,"componentType":5126,"count":20,"max":[0,0.15625,0.15625],"min":[0,-0.15625,0.09375],"type":"VEC3"},{"bufferView":33,"componentType":5126,"count":20,"max":[1,0,0],"min":[-1,0,0],"type":"VEC3"},{"bufferView":34,"componentType":5126,"count":20,"max":[0.31255000829696655,0.546875],"min":[0.125,0.125],"type":"VEC2"},{"bufferView":35,"componentType":5123,"count":30,"max":[19],"min":[0],"type":"SCALAR"},{"bufferView":36,"componentType":5126,"count":24,"max":[0.09531249850988388,0.09531249850988388,0.3765625059604645],"min":[-0.09531249850988388,-0.12656250596046448,0.24843749403953552],"type":"VEC3"},{"bufferView":37,"componentType":5126,"count":24,"max":[1,1,1],"min":[-1,-1,-1],"type":"VEC3"},{"bufferView":38,"componentType":5126,"count":24,"max":[0.40625,0.46875],"min":[0.0625,0.34375],"type":"VEC2"},{"bufferView":39,"componentType":5123,"count":36,"max":[23],"min":[0],"type":"SCALAR"},{"bufferView":40,"componentType":5126,"count":24,"max":[0.09375,0.0625,0.5],"min":[-0.09375,0,0.25],"type":"VEC3"},{"bufferView":41,"componentType":5126,"count":24,"max":[1,1,1],"min":[-1,-1,-1],"type":"VEC3"},{"bufferView":42,"componentType":5126,"count":24,"max":[0.515625,0.484375],"min":[0.0625,0.0625],"type":"VEC2"},{"bufferView":43,"componentType":5123,"count":36,"max":[23],"min":[0],"type":"SCALAR"},{"bufferView":44,"componentType":5126,"count":24,"max":[0.125,0.0625,0.5],"min":[-0.125,-0.0625,0.25],"type":"VEC3"},{"bufferView":45,"componentType":5126,"count":24,"max":[1,1,1],"min":[-1,-1,-1],"type":"VEC3"},{"bufferView":46,"componentType":5126,"count":24,"max":[0.46875,0.296875],"min":[0.15625,0.0625],"type":"VEC2"},{"bufferView":47,"componentType":5123,"count":36,"max":[23],"min":[0],"type":"SCALAR"},{"bufferView":48,"componentType":5126,"count":78,"max":[2],"min":[0],"type":"SCALAR"},{"bufferView":49,"componentType":5126,"count":78,"max":[0.02181488461792469,0.0003606897371355444,0.02408141829073429,1],"min":[-0.02181488461792469,-0.0003240242076572031,-0.02181311510503292,0.9996306896209717],"type":"VEC4"},{"bufferView":50,"componentType":5126,"count":77,"max":[2],"min":[0],"type":"SCALAR"},{"bufferView":51,"componentType":5126,"count":77,"max":[0,0.4375,-0.140625],"min":[0,0.375,-0.140625],"type":"VEC3"},{"bufferView":52,"componentType":5126,"count":77,"max":[2],"min":[0],"type":"SCALAR"},{"bufferView":53,"componentType":5126,"count":77,"max":[0,0,0.42735785245895386,1],"min":[0,0,-0.049067676067352295,0.9040825366973877],"type":"VEC4"},{"bufferView":54,"componentType":5126,"count":77,"max":[2],"min":[0],"type":"SCALAR"},{"bufferView":55,"componentType":5126,"count":77,"max":[0,0,0.049067676067352295,1],"min":[0,0,-0.42735785245895386,0.9040825366973877],"type":"VEC4"},{"bufferView":56,"componentType":5126,"count":77,"max":[2],"min":[0],"type":"SCALAR"},{"bufferView":57,"componentType":5126,"count":77,"max":[0.006673156749457121,0.19509032368659973,0.08715574443340302,0.9961947202682495],"min":[-0.006673156749457121,-0.19509032368659973,-0.08715574443340302,0.9807852506637573],"type":"VEC4"},{"bufferView":58,"componentType":5126,"count":77,"max":[2],"min":[0],"type":"SCALAR"},{"bufferView":59,"componentType":5126,"count":77,"max":[0.02181488461792469,0,0,1],"min":[-0.02181488461792469,0,0,0.9997619986534119],"type":"VEC4"},{"bufferView":60,"componentType":5126,"count":77,"max":[2],"min":[0],"type":"SCALAR"},{"bufferView":61,"componentType":5126,"count":77,"max":[0.049067676067352295,0,0,1],"min":[-0.005429886747151613,0,0,0.9987954497337341],"type":"VEC4"},{"bufferView":62,"componentType":5126,"count":77,"max":[2],"min":[0],"type":"SCALAR"},{"bufferView":63,"componentType":5126,"count":77,"max":[0.005429886747151613,0,0,1],"min":[-0.049067676067352295,0,0,0.9987954497337341],"type":"VEC4"},{"bufferView":64,"componentType":5126,"count":56,"max":[1.3333300352096558],"min":[0],"type":"SCALAR"},{"bufferView":65,"componentType":5126,"count":56,"max":[0.026176948100328445,0.08715574443340302,0.0008795802714303136,0.9996573328971863],"min":[-0.026176948100328445,-0.08715574443340302,-0.000891951669473201,0.9961947202682495],"type":"VEC4"},{"bufferView":66,"componentType":5126,"count":55,"max":[1.3333300352096558],"min":[0],"type":"SCALAR"},{"bufferView":67,"componentType":5126,"count":55,"max":[0.0625,0.375,-0.140625],"min":[-0.0625,0.375,-0.140625],"type":"VEC3"},{"bufferView":68,"componentType":5126,"count":56,"max":[1.3333300352096558],"min":[0],"type":"SCALAR"},{"bufferView":69,"componentType":5126,"count":56,"max":[0.08715574443340302,0.002971830777823925,0.08715574443340302,0.9970281720161438],"min":[-0.08715574443340302,-0.002971830777823925,-0.08715574443340302,0.9961947202682495],"type":"VEC4"},{"bufferView":70,"componentType":5126,"count":56,"max":[1.3333300352096558],"min":[0],"type":"SCALAR"},{"bufferView":71,"componentType":5126,"count":56,"max":[0.08715574443340302,0.002971830777823925,0.08715574443340302,0.9970281720161438],"min":[-0.08715574443340302,-0.002971830777823925,-0.08715574443340302,0.9961947202682495],"type":"VEC4"},{"bufferView":72,"componentType":5126,"count":56,"max":[1.3333300352096558],"min":[0],"type":"SCALAR"},{"bufferView":73,"componentType":5126,"count":56,"max":[0.04361938685178757,0.08715574443340302,0.0014864681288599968,0.9990482330322266],"min":[-0.04361938685178757,-0.08715574443340302,-0.0014658297877758741,0.9961947202682495],"type":"VEC4"},{"bufferView":74,"componentType":5126,"count":56,"max":[1.3333300352096558],"min":[0],"type":"SCALAR"},{"bufferView":75,"componentType":5126,"count":56,"max":[0.054433438926935196,0.08707278966903687,0.004108045250177383,0.9993289709091187],"min":[-0.0544334352016449,-0.08707278966903687,-0.0006710372981615365,0.9951912760734558],"type":"VEC4"},{"bufferView":76,"componentType":5126,"count":56,"max":[1.3333300352096558],"min":[0],"type":"SCALAR"},{"bufferView":77,"componentType":5126,"count":56,"max":[0.04361938685178757,0,0,1],"min":[0,0,0,0.9990482330322266],"type":"VEC4"},{"bufferView":78,"componentType":5126,"count":56,"max":[1.3333300352096558],"min":[0],"type":"SCALAR"},{"bufferView":79,"componentType":5126,"count":56,"max":[0,0,0,1],"min":[-0.04361938685178757,0,0,0.9990482330322266],"type":"VEC4"}],"materials":[{"pbrMetallicRoughness":{"metallicFactor":0,"roughnessFactor":1,"baseColorTexture":{"index":0}},"alphaMode":"MASK","alphaCutoff":0.05,"doubleSided":true}],"textures":[{"sampler":0,"source":0,"name":"baddacuda.png"}],"samplers":[{"magFilter":9728,"minFilter":9728,"wrapS":33071,"wrapT":33071}],"images":[{"mimeType":"image/png","uri":"data:image/png;base64,"}],"meshes":[{"primitives":[{"mode":4,"attributes":{"POSITION":0,"NORMAL":1,"TEXCOORD_0":2},"indices":3,"material":0}]},{"primitives":[{"mode":4,"attributes":{"POSITION":4,"NORMAL":5,"TEXCOORD_0":6},"indices":7,"material":0}]},{"primitives":[{"mode":4,"attributes":{"POSITION":8,"NORMAL":9,"TEXCOORD_0":10},"indices":11,"material":0}]},{"primitives":[{"mode":4,"attributes":{"POSITION":12,"NORMAL":13,"TEXCOORD_0":14},"indices":15,"material":0}]},{"primitives":[{"mode":4,"attributes":{"POSITION":16,"NORMAL":17,"TEXCOORD_0":18},"indices":19,"material":0}]},{"primitives":[{"mode":4,"attributes":{"POSITION":20,"NORMAL":21,"TEXCOORD_0":22},"indices":23,"material":0}]},{"primitives":[{"mode":4,"attributes":{"POSITION":24,"NORMAL":25,"TEXCOORD_0":26},"indices":27,"material":0}]},{"primitives":[{"mode":4,"attributes":{"POSITION":28,"NORMAL":29,"TEXCOORD_0":30},"indices":31,"material":0}]},{"primitives":[{"mode":4,"attributes":{"POSITION":32,"NORMAL":33,"TEXCOORD_0":34},"indices":35,"material":0}]},{"primitives":[{"mode":4,"attributes":{"POSITION":36,"NORMAL":37,"TEXCOORD_0":38},"indices":39,"material":0}]},{"primitives":[{"mode":4,"attributes":{"POSITION":40,"NORMAL":41,"TEXCOORD_0":42},"indices":43,"material":0}]},{"primitives":[{"mode":4,"attributes":{"POSITION":44,"NORMAL":45,"TEXCOORD_0":46},"indices":47,"material":0}]}],"animations":[{"name":"idle","samplers":[{"input":48,"output":49,"interpolation":"LINEAR"},{"input":50,"output":51,"interpolation":"LINEAR"},{"input":52,"output":53,"interpolation":"LINEAR"},{"input":54,"output":55,"interpolation":"LINEAR"},{"input":56,"output":57,"interpolation":"LINEAR"},{"input":58,"output":59,"interpolation":"LINEAR"},{"input":60,"output":61,"interpolation":"LINEAR"},{"input":62,"output":63,"interpolation":"LINEAR"}],"channels":[{"sampler":0,"target":{"node":19,"path":"rotation"}},{"sampler":1,"target":{"node":19,"path":"translation"}},{"sampler":2,"target":{"node":2,"path":"rotation"}},{"sampler":3,"target":{"node":4,"path":"rotation"}},{"sampler":4,"target":{"node":12,"path":"rotation"}},{"sampler":5,"target":{"node":18,"path":"rotation"}},{"sampler":6,"target":{"node":15,"path":"rotation"}},{"sampler":7,"target":{"node":17,"path":"rotation"}}]},{"name":"walk","samplers":[{"input":64,"output":65,"interpolation":"LINEAR"},{"input":66,"output":67,"interpolation":"LINEAR"},{"input":68,"output":69,"interpolation":"LINEAR"},{"input":70,"output":71,"interpolation":"LINEAR"},{"input":72,"output":73,"interpolation":"LINEAR"},{"input":74,"output":75,"interpolation":"LINEAR"},{"input":76,"output":77,"interpolation":"LINEAR"},{"input":78,"output":79,"interpolation":"LINEAR"}],"channels":[{"sampler":0,"target":{"node":19,"path":"rotation"}},{"sampler":1,"target":{"node":19,"path":"translation"}},{"sampler":2,"target":{"node":2,"path":"rotation"}},{"sampler":3,"target":{"node":4,"path":"rotation"}},{"sampler":4,"target":{"node":12,"path":"rotation"}},{"sampler":5,"target":{"node":18,"path":"rotation"}},{"sampler":6,"target":{"node":15,"path":"rotation"}},{"sampler":7,"target":{"node":17,"path":"rotation"}}]}]}