{"asset":{"version":"2.0","generator":"Blockbench 4.12.6 glTF exporter"},"scenes":[{"nodes":[8],"name":"blockbench_export"}],"scene":0,"nodes":[{"translation":[0,-0.125,-0.0625],"name":"cube","mesh":0},{"translation":[0,0.125,-0.0625],"name":"cube","mesh":1},{"translation":[0,-0.09375,-0.0625],"name":"cube","mesh":2},{"translation":[0,-0.03125,-0.1875],"name":"head","children":[2]},{"translation":[0,-0.1875,0.125],"name":"cube","mesh":3},{"translation":[0,0,0.125],"name":"cube","mesh":4},{"translation":[0,0.0625,0.4375],"name":"tail","children":[4,5]},{"translation":[0,0.4375,-0.125],"name":"moray_eel","children":[0,1,3,6]},{"children":[7]}],"bufferViews":[{"buffer":0,"byteOffset":0,"byteLength":288,"target":34962,"byteStride":12},{"buffer":0,"byteOffset":288,"byteLength":288,"target":34962,"byteStride":12},{"buffer":0,"byteOffset":576,"byteLength":192,"target":34962,"byteStride":8},{"buffer":0,"byteOffset":768,"byteLength":72,"target":34963},{"buffer":0,"byteOffset":840,"byteLength":240,"target":34962,"byteStride":12},{"buffer":0,"byteOffset":1080,"byteLength":240,"target":34962,"byteStride":12},{"buffer":0,"byteOffset":1320,"byteLength":160,"target":34962,"byteStride":8},{"buffer":0,"byteOffset":1480,"byteLength":60,"target":34963},{"buffer":0,"byteOffset":1540,"byteLength":288,"target":34962,"byteStride":12},{"buffer":0,"byteOffset":1828,"byteLength":288,"target":34962,"byteStride":12},{"buffer":0,"byteOffset":2116,"byteLength":192,"target":34962,"byteStride":8},{"buffer":0,"byteOffset":2308,"byteLength":72,"target":34963},{"buffer":0,"byteOffset":2380,"byteLength":288,"target":34962,"byteStride":12},{"buffer":0,"byteOffset":2668,"byteLength":288,"target":34962,"byteStride":12},{"buffer":0,"byteOffset":2956,"byteLength":192,"target":34962,"byteStride":8},{"buffer":0,"byteOffset":3148,"byteLength":72,"target":34963},{"buffer":0,"byteOffset":3220,"byteLength":240,"target":34962,"byteStride":12},{"buffer":0,"byteOffset":3460,"byteLength":240,"target":34962,"byteStride":12},{"buffer":0,"byteOffset":3700,"byteLength":160,"target":34962,"byteStride":8},{"buffer":0,"byteOffset":3860,"byteLength":60,"target":34963},{"buffer":0,"byteOffset":3920,"byteLength":548},{"buffer":0,"byteOffset":4468,"byteLength":2192},{"buffer":0,"byteOffset":6660,"byteLength":548},{"buffer":0,"byteOffset":7208,"byteLength":1644},{"buffer":0,"byteOffset":8852,"byteLength":548},{"buffer":0,"byteOffset":9400,"byteLength":2192},{"buffer":0,"byteOffset":11592,"byteLength":548},{"buffer":0,"byteOffset":12140,"byteLength":2192},{"buffer":0,"byteOffset":14332,"byteLength":308},{"buffer":0,"byteOffset":14640,"byteLength":1232},{"buffer":0,"byteOffset":15872,"byteLength":308},{"buffer":0,"byteOffset":16180,"byteLength":924},{"buffer":0,"byteOffset":17104,"byteLength":308},{"buffer":0,"byteOffset":17412,"byteLength":1232},{"buffer":0,"byteOffset":18644,"byteLength":308},{"buffer":0,"byteOffset":18952,"byteLength":1232}],"buffers":[{"byteLength":20184,"uri":"data:application/octet-stream;base64,"}],"accessors":[{"bufferView":0,"componentType":5126,"count":24,"max":[0.09375,0.25,0.5],"min":[-0.09375,0,-0.125],"type":"VEC3"},{"bufferView":1,"componentType":5126,"count":24,"max":[1,1,1],"min":[-1,-1,-1],"type":"VEC3"},{"bufferView":2,"componentType":5126,"count":24,"max":[0.6875,0.625],"min":[0,0],"type":"VEC2"},{"bufferView":3,"componentType":5123,"count":36,"max":[23],"min":[0],"type":"SCALAR"},{"bufferView":4,"componentType":5126,"count":20,"max":[0,0.125,0.5],"min":[0,0,-0.125],"type":"VEC3"},{"bufferView":5,"componentType":5126,"count":20,"max":[1,0,0],"min":[-1,0,0],"type":"VEC3"},{"bufferView":6,"componentType":5126,"count":20,"max":[0.65625,0.96875],"min":[0.1875,0],"type":"VEC2"},{"bufferView":7,"componentType":5123,"count":30,"max":[19],"min":[0],"type":"SCALAR"},{"bufferView":8,"componentType":5126,"count":24,"max":[0.0625,0.1875,0.0625],"min":[-0.0625,0,-0.125],"type":"VEC3"},{"bufferView":9,"componentType":5126,"count":24,"max":[1,1,1],"min":[-1,-1,-1],"type":"VEC3"},{"bufferView":10,"componentType":5126,"count":24,"max":[0.75,0.75],"min":[0,0],"type":"VEC2"},{"bufferView":11,"componentType":5123,"count":36,"max":[23],"min":[0],"type":"SCALAR"},{"bufferView":12,"componentType":5126,"count":24,"max":[0.078125,0.1875,0.25],"min":[-0.078125,0,-0.125],"type":"VEC3"},{"bufferView":13,"componentType":5126,"count":24,"max":[1,1,1],"min":[-1,-1,-1],"type":"VEC3"},{"bufferView":14,"componentType":5126,"count":24,"max":[0.71875,0.71875],"min":[0.25,0.09375],"type":"VEC2"},{"bufferView":15,"componentType":5123,"count":36,"max":[23],"min":[0],"type":"SCALAR"},{"bufferView":16,"componentType":5126,"count":20,"max":[0,0.125,0.25],"min":[0,0,-0.125],"type":"VEC3"},{"bufferView":17,"componentType":5126,"count":20,"max":[1,0,0],"min":[-1,0,0],"type":"VEC3"},{"bufferView":18,"componentType":5126,"count":20,"max":[0.78125,0.84375],"min":[0.21875,0.40625],"type":"VEC2"},{"bufferView":19,"componentType":5123,"count":30,"max":[19],"min":[0],"type":"SCALAR"},{"bufferView":20,"componentType":5126,"count":137,"max":[4],"min":[0],"type":"SCALAR"},{"bufferView":21,"componentType":5126,"count":137,"max":[0,0.11121974885463715,0,1],"min":[0,-0.11119791865348816,0,0.9937958121299744],"type":"VEC4"},{"bufferView":22,"componentType":5126,"count":137,"max":[4],"min":[0],"type":"SCALAR"},{"bufferView":23,"componentType":5126,"count":137,"max":[0.0625,0.4375,-0.125],"min":[-0.0625,0.4375,-0.125],"type":"VEC3"},{"bufferView":24,"componentType":5126,"count":137,"max":[4],"min":[0],"type":"SCALAR"},{"bufferView":25,"componentType":5126,"count":137,"max":[0.16920708119869232,0.39797326922416687,0.007506498135626316,1],"min":[-0.10327916592359543,-0.4671168923377991,-0.14717698097229004,0.8764715790748596],"type":"VEC4"},{"bufferView":26,"componentType":5126,"count":137,"max":[4],"min":[0],"type":"SCALAR"},{"bufferView":27,"componentType":5126,"count":137,"max":[0,0.10886687785387039,0,1],"min":[0,-0.10886687785387039,0,0.9940563440322876],"type":"VEC4"},{"bufferView":28,"componentType":5126,"count":77,"max":[2],"min":[0],"type":"SCALAR"},{"bufferView":29,"componentType":5126,"count":77,"max":[0,0.1110834926366806,0,1],"min":[0,-0.1110834926366806,0,0.9938110709190369],"type":"VEC4"},{"bufferView":30,"componentType":5126,"count":77,"max":[2],"min":[0],"type":"SCALAR"},{"bufferView":31,"componentType":5126,"count":77,"max":[0.0625,0.4375,-0.125],"min":[-0.0625,0.4375,-0.125],"type":"VEC3"},{"bufferView":32,"componentType":5126,"count":77,"max":[2],"min":[0],"type":"SCALAR"},{"bufferView":33,"componentType":5126,"count":77,"max":[-0.02152351103723049,0.16271324455738068,0.003550415625795722,0.9997619986534119],"min":[-0.02181488461792469,-0.16285671293735504,-0.0035535460337996483,0.986408531665802],"type":"VEC4"},{"bufferView":34,"componentType":5126,"count":77,"max":[2],"min":[0],"type":"SCALAR"},{"bufferView":35,"componentType":5126,"count":77,"max":[0,0.10886687785387039,0,1],"min":[0,-0.10886687785387039,0,0.9940563440322876],"type":"VEC4"}],"materials":[{"pbrMetallicRoughness":{"metallicFactor":0,"roughnessFactor":1,"baseColorTexture":{"index":0}},"alphaMode":"MASK","alphaCutoff":0.05,"doubleSided":true}],"textures":[{"sampler":0,"source":0,"name":"cheese_eel.png"}],"samplers":[{"magFilter":9728,"minFilter":9728,"wrapS":33071,"wrapT":33071}],"images":[{"mimeType":"image/png","uri":"data:image/png;base64,"}],"meshes":[{"primitives":[{"mode":4,"attributes":{"POSITION":0,"NORMAL":1,"TEXCOORD_0":2},"indices":3,"material":0}]},{"primitives":[{"mode":4,"attributes":{"POSITION":4,"NORMAL":5,"TEXCOORD_0":6},"indices":7,"material":0}]},{"primitives":[{"mode":4,"attributes":{"POSITION":8,"NORMAL":9,"TEXCOORD_0":10},"indices":11,"material":0}]},{"primitives":[{"mode":4,"attributes":{"POSITION":12,"NORMAL":13,"TEXCOORD_0":14},"indices":15,"material":0}]},{"primitives":[{"mode":4,"attributes":{"POSITION":16,"NORMAL":17,"TEXCOORD_0":18},"indices":19,"material":0}]}],"animations":[{"name":"idle","samplers":[{"input":20,"output":21,"interpolation":"LINEAR"},{"input":22,"output":23,"interpolation":"LINEAR"},{"input":24,"output":25,"interpolation":"LINEAR"},{"input":26,"output":27,"interpolation":"LINEAR"}],"channels":[{"sampler":0,"target":{"node":7,"path":"rotation"}},{"sampler":1,"target":{"node":7,"path":"translation"}},{"sampler":2,"target":{"node":3,"path":"rotation"}},{"sampler":3,"target":{"node":6,"path":"rotation"}}]},{"name":"walk","samplers":[{"input":28,"output":29,"interpolation":"LINEAR"},{"input":30,"output":31,"interpolation":"LINEAR"},{"input":32,"output":33,"interpolation":"LINEAR"},{"input":34,"output":35,"interpolation":"LINEAR"}],"channels":[{"sampler":0,"target":{"node":7,"path":"rotation"}},{"sampler":1,"target":{"node":7,"path":"translation"}},{"sampler":2,"target":{"node":3,"path":"rotation"}},{"sampler":3,"target":{"node":6,"path":"rotation"}}]}]}