{"asset":{"version":"2.0","generator":"Blockbench 4.12.6 glTF exporter"},"scenes":[{"nodes":[13],"name":"blockbench_export"}],"scene":0,"nodes":[{"translation":[0,-0.125,-0.125],"name":"cube","mesh":0},{"translation":[-0.09375,-0.125,-0.0625],"name":"cube","mesh":1},{"translation":[-0.09375,0,-0.0625],"name":"arm","children":[1]},{"translation":[0.09375,-0.125,-0.0625],"name":"cube","mesh":2},{"translation":[0.09375,0,-0.0625],"name":"arm2","children":[3]},{"translation":[0,0,-0.1875],"name":"cube","mesh":3},{"translation":[0,0.125,0.0625],"name":"top_fin","children":[5]},{"translation":[0,0,0.0625],"name":"cube","mesh":4},{"translation":[0,0,0.0625],"name":"cube","mesh":5},{"translation":[0,0,0.3125],"name":"back","children":[7,8]},{"translation":[0,-0.09375,-0.3125],"name":"cube","mesh":6},{"translation":[0,-0.03125,-0.1875],"name":"head","children":[10]},{"translation":[0,0.25,-0.0625],"name":"trout","children":[0,2,4,6,9,11]},{"children":[12]}],"bufferViews":[{"buffer":0,"byteOffset":0,"byteLength":288,"target":34962,"byteStride":12},{"buffer":0,"byteOffset":288,"byteLength":288,"target":34962,"byteStride":12},{"buffer":0,"byteOffset":576,"byteLength":192,"target":34962,"byteStride":8},{"buffer":0,"byteOffset":768,"byteLength":72,"target":34963},{"buffer":0,"byteOffset":840,"byteLength":240,"target":34962,"byteStride":12},{"buffer":0,"byteOffset":1080,"byteLength":240,"target":34962,"byteStride":12},{"buffer":0,"byteOffset":1320,"byteLength":160,"target":34962,"byteStride":8},{"buffer":0,"byteOffset":1480,"byteLength":60,"target":34963},{"buffer":0,"byteOffset":1540,"byteLength":240,"target":34962,"byteStride":12},{"buffer":0,"byteOffset":1780,"byteLength":240,"target":34962,"byteStride":12},{"buffer":0,"byteOffset":2020,"byteLength":160,"target":34962,"byteStride":8},{"buffer":0,"byteOffset":2180,"byteLength":60,"target":34963},{"buffer":0,"byteOffset":2240,"byteLength":240,"target":34962,"byteStride":12},{"buffer":0,"byteOffset":2480,"byteLength":240,"target":34962,"byteStride":12},{"buffer":0,"byteOffset":2720,"byteLength":160,"target":34962,"byteStride":8},{"buffer":0,"byteOffset":2880,"byteLength":60,"target":34963},{"buffer":0,"byteOffset":2940,"byteLength":288,"target":34962,"byteStride":12},{"buffer":0,"byteOffset":3228,"byteLength":288,"target":34962,"byteStride":12},{"buffer":0,"byteOffset":3516,"byteLength":192,"target":34962,"byteStride":8},{"buffer":0,"byteOffset":3708,"byteLength":72,"target":34963},{"buffer":0,"byteOffset":3780,"byteLength":240,"target":34962,"byteStride":12},{"buffer":0,"byteOffset":4020,"byteLength":240,"target":34962,"byteStride":12},{"buffer":0,"byteOffset":4260,"byteLength":160,"target":34962,"byteStride":8},{"buffer":0,"byteOffset":4420,"byteLength":60,"target":34963},{"buffer":0,"byteOffset":4480,"byteLength":288,"target":34962,"byteStride":12},{"buffer":0,"byteOffset":4768,"byteLength":288,"target":34962,"byteStride":12},{"buffer":0,"byteOffset":5056,"byteLength":192,"target":34962,"byteStride":8},{"buffer":0,"byteOffset":5248,"byteLength":72,"target":34963},{"buffer":0,"byteOffset":5320,"byteLength":548},{"buffer":0,"byteOffset":5868,"byteLength":2192},{"buffer":0,"byteOffset":8060,"byteLength":548},{"buffer":0,"byteOffset":8608,"byteLength":1644},{"buffer":0,"byteOffset":10252,"byteLength":548},{"buffer":0,"byteOffset":10800,"byteLength":2192},{"buffer":0,"byteOffset":12992,"byteLength":548},{"buffer":0,"byteOffset":13540,"byteLength":2192},{"buffer":0,"byteOffset":15732,"byteLength":548},{"buffer":0,"byteOffset":16280,"byteLength":2192},{"buffer":0,"byteOffset":18472,"byteLength":548},{"buffer":0,"byteOffset":19020,"byteLength":2192},{"buffer":0,"byteOffset":21212,"byteLength":184},{"buffer":0,"byteOffset":21396,"byteLength":736},{"buffer":0,"byteOffset":22132,"byteLength":184},{"buffer":0,"byteOffset":22316,"byteLength":552},{"buffer":0,"byteOffset":22868,"byteLength":188},{"buffer":0,"byteOffset":23056,"byteLength":752},{"buffer":0,"byteOffset":23808,"byteLength":188},{"buffer":0,"byteOffset":23996,"byteLength":752},{"buffer":0,"byteOffset":24748,"byteLength":184},{"buffer":0,"byteOffset":24932,"byteLength":736},{"buffer":0,"byteOffset":25668,"byteLength":184},{"buffer":0,"byteOffset":25852,"byteLength":736}],"buffers":[{"byteLength":26588,"uri":"data:application/octet-stream;base64,"}],"accessors":[{"bufferView":0,"componentType":5126,"count":24,"max":[0.09375,0.25,0.4375],"min":[-0.09375,0,-0.0625],"type":"VEC3"},{"bufferView":1,"componentType":5126,"count":24,"max":[1,1,1],"min":[-1,-1,-1],"type":"VEC3"},{"bufferView":2,"componentType":5126,"count":24,"max":[0.53125,0.5625],"min":[0,0],"type":"VEC2"},{"bufferView":3,"componentType":5123,"count":36,"max":[23],"min":[0],"type":"SCALAR"},{"bufferView":4,"componentType":5126,"count":20,"max":[0.09375,0.125,0.25],"min":[-0.09375,0.125,0],"type":"VEC3"},{"bufferView":5,"componentType":5126,"count":20,"max":[1,1,0],"min":[0,0,0],"type":"VEC3"},{"bufferView":6,"componentType":5126,"count":20,"max":[0.5,0.375],"min":[0,0],"type":"VEC2"},{"bufferView":7,"componentType":5123,"count":30,"max":[19],"min":[0],"type":"SCALAR"},{"bufferView":8,"componentType":5126,"count":20,"max":[0.09375,0.125,0.25],"min":[-0.09375,0.125,0],"type":"VEC3"},{"bufferView":9,"componentType":5126,"count":20,"max":[1,1,0],"min":[0,0,0],"type":"VEC3"},{"bufferView":10,"componentType":5126,"count":20,"max":[0.5,0.375],"min":[0,0],"type":"VEC2"},{"bufferView":11,"componentType":5123,"count":30,"max":[19],"min":[0],"type":"SCALAR"},{"bufferView":12,"componentType":5126,"count":20,"max":[0,0.1875,0.3125],"min":[0,0,0.0625],"type":"VEC3"},{"bufferView":13,"componentType":5126,"count":20,"max":[1,0,0],"min":[-1,0,0],"type":"VEC3"},{"bufferView":14,"componentType":5126,"count":20,"max":[0.25,0.40625],"min":[0,0],"type":"VEC2"},{"bufferView":15,"componentType":5123,"count":30,"max":[19],"min":[0],"type":"SCALAR"},{"bufferView":16,"componentType":5126,"count":24,"max":[0.046875,0.078125,0.0625],"min":[-0.046875,-0.078125,-0.0625],"type":"VEC3"},{"bufferView":17,"componentType":5126,"count":24,"max":[1,1,1],"min":[-1,-1,-1],"type":"VEC3"},{"bufferView":18,"componentType":5126,"count":24,"max":[0.59375,0.625],"min":[0.125,0.15625],"type":"VEC2"},{"bufferView":19,"componentType":5123,"count":36,"max":[23],"min":[0],"type":"SCALAR"},{"bufferView":20,"componentType":5126,"count":20,"max":[0,0.203125,0.1875],"min":[0,-0.203125,-0.0625],"type":"VEC3"},{"bufferView":21,"componentType":5126,"count":20,"max":[1,0,0],"min":[-1,0,0],"type":"VEC3"},{"bufferView":22,"componentType":5126,"count":20,"max":[0.40625,0.21875],"min":[0,0],"type":"VEC2"},{"bufferView":23,"componentType":5123,"count":30,"max":[19],"min":[0],"type":"SCALAR"},{"bufferView":24,"componentType":5126,"count":24,"max":[0.0625,0.1875,0.3125],"min":[-0.0625,0,0.1875],"type":"VEC3"},{"bufferView":25,"componentType":5126,"count":24,"max":[1,1,1],"min":[-1,-1,-1],"type":"VEC3"},{"bufferView":26,"componentType":5126,"count":24,"max":[0.625,0.65625],"min":[0,0],"type":"VEC2"},{"bufferView":27,"componentType":5123,"count":36,"max":[23],"min":[0],"type":"SCALAR"},{"bufferView":28,"componentType":5126,"count":137,"max":[4],"min":[0],"type":"SCALAR"},{"bufferView":29,"componentType":5126,"count":137,"max":[0,0,0.04455658793449402,1],"min":[0,0,-0.04456536844372749,0.999006450176239],"type":"VEC4"},{"bufferView":30,"componentType":5126,"count":137,"max":[4],"min":[0],"type":"SCALAR"},{"bufferView":31,"componentType":5126,"count":137,"max":[0.015625,0.28125,-0.0625],"min":[-0.015625,0.25,-0.0625],"type":"VEC3"},{"bufferView":32,"componentType":5126,"count":137,"max":[4],"min":[0],"type":"SCALAR"},{"bufferView":33,"componentType":5126,"count":137,"max":[0,0,0.4829427897930145,0.9606715440750122],"min":[0,0,0.27768728137016296,0.8756518959999084],"type":"VEC4"},{"bufferView":34,"componentType":5126,"count":137,"max":[4],"min":[0],"type":"SCALAR"},{"bufferView":35,"componentType":5126,"count":137,"max":[0,0,-0.27768728137016296,0.9606715440750122],"min":[0,0,-0.4829427897930145,0.8756518959999084],"type":"VEC4"},{"bufferView":36,"componentType":5126,"count":137,"max":[4],"min":[0],"type":"SCALAR"},{"bufferView":37,"componentType":5126,"count":137,"max":[0,0,0.07352830469608307,1],"min":[0,0,-0.07352830469608307,0.9972931146621704],"type":"VEC4"},{"bufferView":38,"componentType":5126,"count":137,"max":[4],"min":[0],"type":"SCALAR"},{"bufferView":39,"componentType":5126,"count":137,"max":[0,0.19902586936950684,0,1],"min":[0,-0.19902586936950684,0,0.9799942374229431],"type":"VEC4"},{"bufferView":40,"componentType":5126,"count":46,"max":[1],"min":[0],"type":"SCALAR"},{"bufferView":41,"componentType":5126,"count":46,"max":[0,0.08715574443340302,0,0.9999996423721313],"min":[0,-0.19509032368659973,0,0.9807852506637573],"type":"VEC4"},{"bufferView":42,"componentType":5126,"count":46,"max":[1],"min":[0],"type":"SCALAR"},{"bufferView":43,"componentType":5126,"count":46,"max":[0.06377777457237244,0.25,-0.0625],"min":[-0.06377777457237244,0.25,-0.0625],"type":"VEC3"},{"bufferView":44,"componentType":5126,"count":47,"max":[1],"min":[0],"type":"SCALAR"},{"bufferView":45,"componentType":5126,"count":47,"max":[0,0,0.5555702447891235,0.9999198317527771],"min":[0,0,-0.19509032368659973,0.8314695954322815],"type":"VEC4"},{"bufferView":46,"componentType":5126,"count":47,"max":[1],"min":[0],"type":"SCALAR"},{"bufferView":47,"componentType":5126,"count":47,"max":[0,0,0.19509032368659973,0.9999198317527771],"min":[0,0,-0.5555702447891235,0.8314695954322815],"type":"VEC4"},{"bufferView":48,"componentType":5126,"count":46,"max":[1],"min":[0],"type":"SCALAR"},{"bufferView":49,"componentType":5126,"count":46,"max":[0,0,0.19509032368659973,1],"min":[0,0,-0.19509032368659973,0.9807852506637573],"type":"VEC4"},{"bufferView":50,"componentType":5126,"count":46,"max":[1],"min":[0],"type":"SCALAR"},{"bufferView":51,"componentType":5126,"count":46,"max":[0,0.19902586936950684,0,1],"min":[0,-0.19902586936950684,0,0.9799942374229431],"type":"VEC4"}],"materials":[{"pbrMetallicRoughness":{"metallicFactor":0,"roughnessFactor":1,"baseColorTexture":{"index":0}},"alphaMode":"MASK","alphaCutoff":0.05,"doubleSided":true}],"textures":[{"sampler":0,"source":0,"name":"trout.png"}],"samplers":[{"magFilter":9728,"minFilter":9728,"wrapS":33071,"wrapT":33071}],"images":[{"mimeType":"image/png","uri":"data:image/png;base64,"}],"meshes":[{"primitives":[{"mode":4,"attributes":{"POSITION":0,"NORMAL":1,"TEXCOORD_0":2},"indices":3,"material":0}]},{"primitives":[{"mode":4,"attributes":{"POSITION":4,"NORMAL":5,"TEXCOORD_0":6},"indices":7,"material":0}]},{"primitives":[{"mode":4,"attributes":{"POSITION":8,"NORMAL":9,"TEXCOORD_0":10},"indices":11,"material":0}]},{"primitives":[{"mode":4,"attributes":{"POSITION":12,"NORMAL":13,"TEXCOORD_0":14},"indices":15,"material":0}]},{"primitives":[{"mode":4,"attributes":{"POSITION":16,"NORMAL":17,"TEXCOORD_0":18},"indices":19,"material":0}]},{"primitives":[{"mode":4,"attributes":{"POSITION":20,"NORMAL":21,"TEXCOORD_0":22},"indices":23,"material":0}]},{"primitives":[{"mode":4,"attributes":{"POSITION":24,"NORMAL":25,"TEXCOORD_0":26},"indices":27,"material":0}]}],"animations":[{"name":"idle","samplers":[{"input":28,"output":29,"interpolation":"LINEAR"},{"input":30,"output":31,"interpolation":"LINEAR"},{"input":32,"output":33,"interpolation":"LINEAR"},{"input":34,"output":35,"interpolation":"LINEAR"},{"input":36,"output":37,"interpolation":"LINEAR"},{"input":38,"output":39,"interpolation":"LINEAR"}],"channels":[{"sampler":0,"target":{"node":12,"path":"rotation"}},{"sampler":1,"target":{"node":12,"path":"translation"}},{"sampler":2,"target":{"node":2,"path":"rotation"}},{"sampler":3,"target":{"node":4,"path":"rotation"}},{"sampler":4,"target":{"node":6,"path":"rotation"}},{"sampler":5,"target":{"node":9,"path":"rotation"}}]},{"name":"walk","samplers":[{"input":40,"output":41,"interpolation":"LINEAR"},{"input":42,"output":43,"interpolation":"LINEAR"},{"input":44,"output":45,"interpolation":"LINEAR"},{"input":46,"output":47,"interpolation":"LINEAR"},{"input":48,"output":49,"interpolation":"LINEAR"},{"input":50,"output":51,"interpolation":"LINEAR"}],"channels":[{"sampler":0,"target":{"node":12,"path":"rotation"}},{"sampler":1,"target":{"node":12,"path":"translation"}},{"sampler":2,"target":{"node":2,"path":"rotation"}},{"sampler":3,"target":{"node":4,"path":"rotation"}},{"sampler":4,"target":{"node":6,"path":"rotation"}},{"sampler":5,"target":{"node":9,"path":"rotation"}}]}]}