{"asset":{"version":"2.0","generator":"Blockbench 5.0.3 glTF exporter"},"scenes":[{"nodes":[23],"name":"blockbench_export"}],"scene":0,"nodes":[{"name":"cube","mesh":0},{"name":"cube","mesh":1},{"name":"cube","mesh":2},{"name":"cube","mesh":3},{"name":"cube","mesh":4},{"name":"cube","mesh":5},{"name":"cube","mesh":6},{"name":"cube","mesh":7},{"name":"cube","mesh":8},{"translation":[0.3125,0.5,0],"name":"bone2","children":[0,1,2,3,4,5,6,7,8]},{"name":"cube","mesh":9},{"name":"cube","mesh":10},{"name":"cube","mesh":11},{"name":"cube","mesh":12},{"name":"cube","mesh":13},{"name":"cube","mesh":14},{"name":"cube","mesh":15},{"name":"cube","mesh":16},{"name":"cube","mesh":17},{"translation":[-3.4375,0.5,0],"name":"bone3","children":[10,11,12,13,14,15,16,17,18]},{"translation":[0.3125,0.5,0],"name":"cube","mesh":18},{"translation":[0.3125,0.5,0],"name":"cube","mesh":19},{"translation":[0.3125,0.5,0],"name":"cube","mesh":20},{"translation":[1.5625,0,0],"name":"castle_portal","children":[9,19,20,21,22]}],"bufferViews":[{"buffer":0,"byteOffset":0,"byteLength":288,"target":34962,"byteStride":12},{"buffer":0,"byteOffset":288,"byteLength":288,"target":34962,"byteStride":12},{"buffer":0,"byteOffset":576,"byteLength":192,"target":34962,"byteStride":8},{"buffer":0,"byteOffset":768,"byteLength":72,"target":34963},{"buffer":0,"byteOffset":840,"byteLength":288,"target":34962,"byteStride":12},{"buffer":0,"byteOffset":1128,"byteLength":288,"target":34962,"byteStride":12},{"buffer":0,"byteOffset":1416,"byteLength":192,"target":34962,"byteStride":8},{"buffer":0,"byteOffset":1608,"byteLength":72,"target":34963},{"buffer":0,"byteOffset":1680,"byteLength":288,"target":34962,"byteStride":12},{"buffer":0,"byteOffset":1968,"byteLength":288,"target":34962,"byteStride":12},{"buffer":0,"byteOffset":2256,"byteLength":192,"target":34962,"byteStride":8},{"buffer":0,"byteOffset":2448,"byteLength":72,"target":34963},{"buffer":0,"byteOffset":2520,"byteLength":288,"target":34962,"byteStride":12},{"buffer":0,"byteOffset":2808,"byteLength":288,"target":34962,"byteStride":12},{"buffer":0,"byteOffset":3096,"byteLength":192,"target":34962,"byteStride":8},{"buffer":0,"byteOffset":3288,"byteLength":72,"target":34963},{"buffer":0,"byteOffset":3360,"byteLength":240,"target":34962,"byteStride":12},{"buffer":0,"byteOffset":3600,"byteLength":240,"target":34962,"byteStride":12},{"buffer":0,"byteOffset":3840,"byteLength":160,"target":34962,"byteStride":8},{"buffer":0,"byteOffset":4000,"byteLength":60,"target":34963},{"buffer":0,"byteOffset":4060,"byteLength":240,"target":34962,"byteStride":12},{"buffer":0,"byteOffset":4300,"byteLength":240,"target":34962,"byteStride":12},{"buffer":0,"byteOffset":4540,"byteLength":160,"target":34962,"byteStride":8},{"buffer":0,"byteOffset":4700,"byteLength":60,"target":34963},{"buffer":0,"byteOffset":4760,"byteLength":240,"target":34962,"byteStride":12},{"buffer":0,"byteOffset":5000,"byteLength":240,"target":34962,"byteStride":12},{"buffer":0,"byteOffset":5240,"byteLength":160,"target":34962,"byteStride":8},{"buffer":0,"byteOffset":5400,"byteLength":60,"target":34963},{"buffer":0,"byteOffset":5460,"byteLength":288,"target":34962,"byteStride":12},{"buffer":0,"byteOffset":5748,"byteLength":288,"target":34962,"byteStride":12},{"buffer":0,"byteOffset":6036,"byteLength":192,"target":34962,"byteStride":8},{"buffer":0,"byteOffset":6228,"byteLength":72,"target":34963},{"buffer":0,"byteOffset":6300,"byteLength":288,"target":34962,"byteStride":12},{"buffer":0,"byteOffset":6588,"byteLength":288,"target":34962,"byteStride":12},{"buffer":0,"byteOffset":6876,"byteLength":192,"target":34962,"byteStride":8},{"buffer":0,"byteOffset":7068,"byteLength":72,"target":34963},{"buffer":0,"byteOffset":7140,"byteLength":288,"target":34962,"byteStride":12},{"buffer":0,"byteOffset":7428,"byteLength":288,"target":34962,"byteStride":12},{"buffer":0,"byteOffset":7716,"byteLength":192,"target":34962,"byteStride":8},{"buffer":0,"byteOffset":7908,"byteLength":72,"target":34963},{"buffer":0,"byteOffset":7980,"byteLength":288,"target":34962,"byteStride":12},{"buffer":0,"byteOffset":8268,"byteLength":288,"target":34962,"byteStride":12},{"buffer":0,"byteOffset":8556,"byteLength":192,"target":34962,"byteStride":8},{"buffer":0,"byteOffset":8748,"byteLength":72,"target":34963},{"buffer":0,"byteOffset":8820,"byteLength":240,"target":34962,"byteStride":12},{"buffer":0,"byteOffset":9060,"byteLength":240,"target":34962,"byteStride":12},{"buffer":0,"byteOffset":9300,"byteLength":160,"target":34962,"byteStride":8},{"buffer":0,"byteOffset":9460,"byteLength":60,"target":34963},{"buffer":0,"byteOffset":9520,"byteLength":288,"target":34962,"byteStride":12},{"buffer":0,"byteOffset":9808,"byteLength":288,"target":34962,"byteStride":12},{"buffer":0,"byteOffset":10096,"byteLength":192,"target":34962,"byteStride":8},{"buffer":0,"byteOffset":10288,"byteLength":72,"target":34963},{"buffer":0,"byteOffset":10360,"byteLength":288,"target":34962,"byteStride":12},{"buffer":0,"byteOffset":10648,"byteLength":288,"target":34962,"byteStride":12},{"buffer":0,"byteOffset":10936,"byteLength":192,"target":34962,"byteStride":8},{"buffer":0,"byteOffset":11128,"byteLength":72,"target":34963},{"buffer":0,"byteOffset":11200,"byteLength":240,"target":34962,"byteStride":12},{"buffer":0,"byteOffset":11440,"byteLength":240,"target":34962,"byteStride":12},{"buffer":0,"byteOffset":11680,"byteLength":160,"target":34962,"byteStride":8},{"buffer":0,"byteOffset":11840,"byteLength":60,"target":34963},{"buffer":0,"byteOffset":11900,"byteLength":288,"target":34962,"byteStride":12},{"buffer":0,"byteOffset":12188,"byteLength":288,"target":34962,"byteStride":12},{"buffer":0,"byteOffset":12476,"byteLength":192,"target":34962,"byteStride":8},{"buffer":0,"byteOffset":12668,"byteLength":72,"target":34963},{"buffer":0,"byteOffset":12740,"byteLength":240,"target":34962,"byteStride":12},{"buffer":0,"byteOffset":12980,"byteLength":240,"target":34962,"byteStride":12},{"buffer":0,"byteOffset":13220,"byteLength":160,"target":34962,"byteStride":8},{"buffer":0,"byteOffset":13380,"byteLength":60,"target":34963},{"buffer":0,"byteOffset":13440,"byteLength":288,"target":34962,"byteStride":12},{"buffer":0,"byteOffset":13728,"byteLength":288,"target":34962,"byteStride":12},{"buffer":0,"byteOffset":14016,"byteLength":192,"target":34962,"byteStride":8},{"buffer":0,"byteOffset":14208,"byteLength":72,"target":34963},{"buffer":0,"byteOffset":14280,"byteLength":288,"target":34962,"byteStride":12},{"buffer":0,"byteOffset":14568,"byteLength":288,"target":34962,"byteStride":12},{"buffer":0,"byteOffset":14856,"byteLength":192,"target":34962,"byteStride":8},{"buffer":0,"byteOffset":15048,"byteLength":72,"target":34963},{"buffer":0,"byteOffset":15120,"byteLength":240,"target":34962,"byteStride":12},{"buffer":0,"byteOffset":15360,"byteLength":240,"target":34962,"byteStride":12},{"buffer":0,"byteOffset":15600,"byteLength":160,"target":34962,"byteStride":8},{"buffer":0,"byteOffset":15760,"byteLength":60,"target":34963},{"buffer":0,"byteOffset":15820,"byteLength":240,"target":34962,"byteStride":12},{"buffer":0,"byteOffset":16060,"byteLength":240,"target":34962,"byteStride":12},{"buffer":0,"byteOffset":16300,"byteLength":160,"target":34962,"byteStride":8},{"buffer":0,"byteOffset":16460,"byteLength":60,"target":34963}],"buffers":[{"byteLength":16520,"uri":"data:application/octet-stream;base64,"}],"accessors":[{"bufferView":0,"componentType":5126,"count":24,"max":[1.0625,4.75,0.625],"min":[-0.1875,-0.5,-0.625],"type":"VEC3"},{"bufferView":1,"componentType":5126,"count":24,"max":[1,1,1],"min":[-1,-1,-1],"type":"VEC3"},{"bufferView":2,"componentType":5126,"count":24,"max":[0.5625,0.59765625],"min":[0,0],"type":"VEC2"},{"bufferView":3,"componentType":5123,"count":36,"max":[23],"min":[0],"type":"SCALAR"},{"bufferView":4,"componentType":5126,"count":24,"max":[0.5625,3.8125,-0.625],"min":[0.3125,3.5625,-1.8125],"type":"VEC3"},{"bufferView":5,"componentType":5126,"count":24,"max":[1,1,1],"min":[-1,-1,-1],"type":"VEC3"},{"bufferView":6,"componentType":5126,"count":24,"max":[0.640625,0.62890625],"min":[0.3125,0.5078125],"type":"VEC2"},{"bufferView":7,"componentType":5123,"count":36,"max":[23],"min":[0],"type":"SCALAR"},{"bufferView":8,"componentType":5126,"count":24,"max":[0.6875,3.9375,-1.8125],"min":[0.1875,3.4375,-2],"type":"VEC3"},{"bufferView":9,"componentType":5126,"count":24,"max":[1,1,1],"min":[-1,-1,-1],"type":"VEC3"},{"bufferView":10,"componentType":5126,"count":24,"max":[0.59765625,0.6015625],"min":[0.2421875,0.546875],"type":"VEC2"},{"bufferView":11,"componentType":5123,"count":36,"max":[23],"min":[0],"type":"SCALAR"},{"bufferView":12,"componentType":5126,"count":24,"max":[1.375,5.75,0.9375],"min":[-0.5,4.75,-0.9375],"type":"VEC3"},{"bufferView":13,"componentType":5126,"count":24,"max":[1,1,1],"min":[-1,-1,-1],"type":"VEC3"},{"bufferView":14,"componentType":5126,"count":24,"max":[0.48046875,0.55078125],"min":[0,0.1640625],"type":"VEC2"},{"bufferView":15,"componentType":5123,"count":36,"max":[23],"min":[0],"type":"SCALAR"},{"bufferView":16,"componentType":5126,"count":20,"max":[0.4375,3.5625,-0.625],"min":[0.4375,2.625,-1.8125],"type":"VEC3"},{"bufferView":17,"componentType":5126,"count":20,"max":[1,0,0],"min":[-1,0,0],"type":"VEC3"},{"bufferView":18,"componentType":5126,"count":20,"max":[0.5625500082969666,0.6484375],"min":[0.1640625,0.51953125],"type":"VEC2"},{"bufferView":19,"componentType":5123,"count":30,"max":[19],"min":[0],"type":"SCALAR"},{"bufferView":20,"componentType":5126,"count":20,"max":[1.375,6,0.9375],"min":[-0.5,5.75,-0.9375],"type":"VEC3"},{"bufferView":21,"componentType":5126,"count":20,"max":[1,0,1],"min":[-1,-1,-1],"type":"VEC3"},{"bufferView":22,"componentType":5126,"count":20,"max":[0.66015625,0.5703125],"min":[0.12109375,0.1015625],"type":"VEC2"},{"bufferView":23,"componentType":5123,"count":30,"max":[19],"min":[0],"type":"SCALAR"},{"bufferView":24,"componentType":5126,"count":20,"max":[0.4375,3.5625,1.8125],"min":[0.4375,2.625,0.625],"type":"VEC3"},{"bufferView":25,"componentType":5126,"count":20,"max":[1,0,0],"min":[-1,0,0],"type":"VEC3"},{"bufferView":26,"componentType":5126,"count":20,"max":[0.5625500082969666,0.6484375],"min":[0.1640625,0.51953125],"type":"VEC2"},{"bufferView":27,"componentType":5123,"count":30,"max":[19],"min":[0],"type":"SCALAR"},{"bufferView":28,"componentType":5126,"count":24,"max":[0.6875,3.9375,2],"min":[0.1875,3.4375,1.8125],"type":"VEC3"},{"bufferView":29,"componentType":5126,"count":24,"max":[1,1,1],"min":[-1,-1,-1],"type":"VEC3"},{"bufferView":30,"componentType":5126,"count":24,"max":[0.59765625,0.6015625],"min":[0.2421875,0.546875],"type":"VEC2"},{"bufferView":31,"componentType":5123,"count":36,"max":[23],"min":[0],"type":"SCALAR"},{"bufferView":32,"componentType":5126,"count":24,"max":[0.5625,3.8125,1.8125],"min":[0.3125,3.5625,0.625],"type":"VEC3"},{"bufferView":33,"componentType":5126,"count":24,"max":[1,1,1],"min":[-1,-1,-1],"type":"VEC3"},{"bufferView":34,"componentType":5126,"count":24,"max":[0.640625,0.62890625],"min":[0.3125,0.5078125],"type":"VEC2"},{"bufferView":35,"componentType":5123,"count":36,"max":[23],"min":[0],"type":"SCALAR"},{"bufferView":36,"componentType":5126,"count":24,"max":[0.1875,4.75,0.625],"min":[-1.0625,-0.5,-0.625],"type":"VEC3"},{"bufferView":37,"componentType":5126,"count":24,"max":[1,1,1],"min":[-1,-1,-1],"type":"VEC3"},{"bufferView":38,"componentType":5126,"count":24,"max":[0.5625,0.59765625],"min":[0,0],"type":"VEC2"},{"bufferView":39,"componentType":5123,"count":36,"max":[23],"min":[0],"type":"SCALAR"},{"bufferView":40,"componentType":5126,"count":24,"max":[-0.3125,3.8125,-0.625],"min":[-0.5625,3.5625,-1.8125],"type":"VEC3"},{"bufferView":41,"componentType":5126,"count":24,"max":[1,1,1],"min":[-1,-1,-1],"type":"VEC3"},{"bufferView":42,"componentType":5126,"count":24,"max":[0.640625,0.62890625],"min":[0.3125,0.5078125],"type":"VEC2"},{"bufferView":43,"componentType":5123,"count":36,"max":[23],"min":[0],"type":"SCALAR"},{"bufferView":44,"componentType":5126,"count":20,"max":[-0.4375,3.5625,-0.625],"min":[-0.4375,2.625,-1.8125],"type":"VEC3"},{"bufferView":45,"componentType":5126,"count":20,"max":[1,0,0],"min":[1,0,0],"type":"VEC3"},{"bufferView":46,"componentType":5126,"count":20,"max":[0.5625500082969666,0.6484375],"min":[0.1640625,0.51953125],"type":"VEC2"},{"bufferView":47,"componentType":5123,"count":30,"max":[19],"min":[0],"type":"SCALAR"},{"bufferView":48,"componentType":5126,"count":24,"max":[-0.1875,3.9375,-1.8125],"min":[-0.6875,3.4375,-2],"type":"VEC3"},{"bufferView":49,"componentType":5126,"count":24,"max":[1,1,1],"min":[-1,-1,-1],"type":"VEC3"},{"bufferView":50,"componentType":5126,"count":24,"max":[0.59765625,0.6015625],"min":[0.2421875,0.546875],"type":"VEC2"},{"bufferView":51,"componentType":5123,"count":36,"max":[23],"min":[0],"type":"SCALAR"},{"bufferView":52,"componentType":5126,"count":24,"max":[0.5,5.75,0.9375],"min":[-1.375,4.75,-0.9375],"type":"VEC3"},{"bufferView":53,"componentType":5126,"count":24,"max":[1,1,1],"min":[-1,-1,-1],"type":"VEC3"},{"bufferView":54,"componentType":5126,"count":24,"max":[0.48046875,0.55078125],"min":[0,0.1640625],"type":"VEC2"},{"bufferView":55,"componentType":5123,"count":36,"max":[23],"min":[0],"type":"SCALAR"},{"bufferView":56,"componentType":5126,"count":20,"max":[0.5,6,0.9375],"min":[-1.375,5.75,-0.9375],"type":"VEC3"},{"bufferView":57,"componentType":5126,"count":20,"max":[1,0,1],"min":[-1,-1,-1],"type":"VEC3"},{"bufferView":58,"componentType":5126,"count":20,"max":[0.66015625,0.5703125],"min":[0.12109375,0.1015625],"type":"VEC2"},{"bufferView":59,"componentType":5123,"count":30,"max":[19],"min":[0],"type":"SCALAR"},{"bufferView":60,"componentType":5126,"count":24,"max":[-0.1875,3.9375,2],"min":[-0.6875,3.4375,1.8125],"type":"VEC3"},{"bufferView":61,"componentType":5126,"count":24,"max":[1,1,1],"min":[-1,-1,-1],"type":"VEC3"},{"bufferView":62,"componentType":5126,"count":24,"max":[0.59765625,0.6015625],"min":[0.2421875,0.546875],"type":"VEC2"},{"bufferView":63,"componentType":5123,"count":36,"max":[23],"min":[0],"type":"SCALAR"},{"bufferView":64,"componentType":5126,"count":20,"max":[-0.4375,3.5625,1.8125],"min":[-0.4375,2.625,0.625],"type":"VEC3"},{"bufferView":65,"componentType":5126,"count":20,"max":[1,0,0],"min":[1,0,0],"type":"VEC3"},{"bufferView":66,"componentType":5126,"count":20,"max":[0.5625500082969666,0.6484375],"min":[0.1640625,0.51953125],"type":"VEC2"},{"bufferView":67,"componentType":5123,"count":30,"max":[19],"min":[0],"type":"SCALAR"},{"bufferView":68,"componentType":5126,"count":24,"max":[-0.3125,3.8125,1.8125],"min":[-0.5625,3.5625,0.625],"type":"VEC3"},{"bufferView":69,"componentType":5126,"count":24,"max":[1,1,1],"min":[-1,-1,-1],"type":"VEC3"},{"bufferView":70,"componentType":5126,"count":24,"max":[0.640625,0.62890625],"min":[0.3125,0.5078125],"type":"VEC2"},{"bufferView":71,"componentType":5123,"count":36,"max":[23],"min":[0],"type":"SCALAR"},{"bufferView":72,"componentType":5126,"count":24,"max":[-0.1875,4.75,0.625],"min":[-3.5625,3.75,-0.625],"type":"VEC3"},{"bufferView":73,"componentType":5126,"count":24,"max":[1,1,1],"min":[-1,-1,-1],"type":"VEC3"},{"bufferView":74,"componentType":5126,"count":24,"max":[0.66015625,0.58203125],"min":[0.08203125,0],"type":"VEC2"},{"bufferView":75,"componentType":5123,"count":36,"max":[23],"min":[0],"type":"SCALAR"},{"bufferView":76,"componentType":5126,"count":20,"max":[-0.1875,3.9375,0],"min":[-3.5625,3.1875,0],"type":"VEC3"},{"bufferView":77,"componentType":5126,"count":20,"max":[1,0,0],"min":[0,0,-1],"type":"VEC3"},{"bufferView":78,"componentType":5126,"count":20,"max":[0.66015625,0.6171875],"min":[0.32421875,0.296875],"type":"VEC2"},{"bufferView":79,"componentType":5123,"count":30,"max":[19],"min":[0],"type":"SCALAR"},{"bufferView":80,"componentType":5126,"count":20,"max":[-0.5,5,0.625],"min":[-3.25,4.75,-0.625],"type":"VEC3"},{"bufferView":81,"componentType":5126,"count":20,"max":[1,0,1],"min":[-1,-1,-1],"type":"VEC3"},{"bufferView":82,"componentType":5126,"count":20,"max":[0.71484375,0.5703125],"min":[0.36328125,0.0625],"type":"VEC2"},{"bufferView":83,"componentType":5123,"count":30,"max":[19],"min":[0],"type":"SCALAR"}],"materials":[{"pbrMetallicRoughness":{"metallicFactor":0,"roughnessFactor":1,"baseColorTexture":{"index":0}},"alphaMode":"MASK","alphaCutoff":0.05,"doubleSided":true}],"textures":[{"sampler":0,"source":0,"name":"castle_portal"}],"samplers":[{"magFilter":9728,"minFilter":9728,"wrapS":33071,"wrapT":33071}],"images":[{"mimeType":"image/png","uri":"data:image/png;base64,"}],"meshes":[{"primitives":[{"mode":4,"attributes":{"POSITION":0,"NORMAL":1,"TEXCOORD_0":2},"indices":3,"material":0}]},{"primitives":[{"mode":4,"attributes":{"POSITION":4,"NORMAL":5,"TEXCOORD_0":6},"indices":7,"material":0}]},{"primitives":[{"mode":4,"attributes":{"POSITION":8,"NORMAL":9,"TEXCOORD_0":10},"indices":11,"material":0}]},{"primitives":[{"mode":4,"attributes":{"POSITION":12,"NORMAL":13,"TEXCOORD_0":14},"indices":15,"material":0}]},{"primitives":[{"mode":4,"attributes":{"POSITION":16,"NORMAL":17,"TEXCOORD_0":18},"indices":19,"material":0}]},{"primitives":[{"mode":4,"attributes":{"POSITION":20,"NORMAL":21,"TEXCOORD_0":22},"indices":23,"material":0}]},{"primitives":[{"mode":4,"attributes":{"POSITION":24,"NORMAL":25,"TEXCOORD_0":26},"indices":27,"material":0}]},{"primitives":[{"mode":4,"attributes":{"POSITION":28,"NORMAL":29,"TEXCOORD_0":30},"indices":31,"material":0}]},{"primitives":[{"mode":4,"attributes":{"POSITION":32,"NORMAL":33,"TEXCOORD_0":34},"indices":35,"material":0}]},{"primitives":[{"mode":4,"attributes":{"POSITION":36,"NORMAL":37,"TEXCOORD_0":38},"indices":39,"material":0}]},{"primitives":[{"mode":4,"attributes":{"POSITION":40,"NORMAL":41,"TEXCOORD_0":42},"indices":43,"material":0}]},{"primitives":[{"mode":4,"attributes":{"POSITION":44,"NORMAL":45,"TEXCOORD_0":46},"indices":47,"material":0}]},{"primitives":[{"mode":4,"attributes":{"POSITION":48,"NORMAL":49,"TEXCOORD_0":50},"indices":51,"material":0}]},{"primitives":[{"mode":4,"attributes":{"POSITION":52,"NORMAL":53,"TEXCOORD_0":54},"indices":55,"material":0}]},{"primitives":[{"mode":4,"attributes":{"POSITION":56,"NORMAL":57,"TEXCOORD_0":58},"indices":59,"material":0}]},{"primitives":[{"mode":4,"attributes":{"POSITION":60,"NORMAL":61,"TEXCOORD_0":62},"indices":63,"material":0}]},{"primitives":[{"mode":4,"attributes":{"POSITION":64,"NORMAL":65,"TEXCOORD_0":66},"indices":67,"material":0}]},{"primitives":[{"mode":4,"attributes":{"POSITION":68,"NORMAL":69,"TEXCOORD_0":70},"indices":71,"material":0}]},{"primitives":[{"mode":4,"attributes":{"POSITION":72,"NORMAL":73,"TEXCOORD_0":74},"indices":75,"material":0}]},{"primitives":[{"mode":4,"attributes":{"POSITION":76,"NORMAL":77,"TEXCOORD_0":78},"indices":79,"material":0}]},{"primitives":[{"mode":4,"attributes":{"POSITION":80,"NORMAL":81,"TEXCOORD_0":82},"indices":83,"material":0}]}]}