{"asset":{"version":"2.0","generator":"Blockbench 4.12.6 glTF exporter"},"scenes":[{"nodes":[13],"name":"blockbench_export"}],"scene":0,"nodes":[{"name":"chains4"},{"rotation":[0,0,-1,6.123233995736766e-17],"translation":[0,0.999875,0],"name":"chains3","children":[0]},{"name":"chains2"},{"name":"chains2"},{"name":"chains4"},{"rotation":[0,0,-1,6.123233995736766e-17],"name":"chains3","children":[4]},{"name":"chains2"},{"translation":[0,0.6875,0],"name":"cube","mesh":0},{"translation":[0,0.1875,0],"name":"cube","mesh":1},{"translation":[0,0.125,0],"name":"cube","mesh":2},{"translation":[0,0.625,0],"name":"cube","mesh":3},{"name":"cube","mesh":4},{"name":"chains","children":[3,5,6,7,8,9,10,11]},{"children":[1,2,12]}],"bufferViews":[{"buffer":0,"byteOffset":0,"byteLength":240,"target":34962,"byteStride":12},{"buffer":0,"byteOffset":240,"byteLength":240,"target":34962,"byteStride":12},{"buffer":0,"byteOffset":480,"byteLength":160,"target":34962,"byteStride":8},{"buffer":0,"byteOffset":640,"byteLength":60,"target":34963},{"buffer":0,"byteOffset":700,"byteLength":240,"target":34962,"byteStride":12},{"buffer":0,"byteOffset":940,"byteLength":240,"target":34962,"byteStride":12},{"buffer":0,"byteOffset":1180,"byteLength":160,"target":34962,"byteStride":8},{"buffer":0,"byteOffset":1340,"byteLength":60,"target":34963},{"buffer":0,"byteOffset":1400,"byteLength":288,"target":34962,"byteStride":12},{"buffer":0,"byteOffset":1688,"byteLength":288,"target":34962,"byteStride":12},{"buffer":0,"byteOffset":1976,"byteLength":192,"target":34962,"byteStride":8},{"buffer":0,"byteOffset":2168,"byteLength":72,"target":34963},{"buffer":0,"byteOffset":2240,"byteLength":240,"target":34962,"byteStride":12},{"buffer":0,"byteOffset":2480,"byteLength":240,"target":34962,"byteStride":12},{"buffer":0,"byteOffset":2720,"byteLength":160,"target":34962,"byteStride":8},{"buffer":0,"byteOffset":2880,"byteLength":60,"target":34963},{"buffer":0,"byteOffset":2940,"byteLength":240,"target":34962,"byteStride":12},{"buffer":0,"byteOffset":3180,"byteLength":240,"target":34962,"byteStride":12},{"buffer":0,"byteOffset":3420,"byteLength":160,"target":34962,"byteStride":8},{"buffer":0,"byteOffset":3580,"byteLength":60,"target":34963}],"buffers":[{"byteLength":3640,"uri":"data:application/octet-stream;base64,"}],"accessors":[{"bufferView":0,"componentType":5126,"count":20,"max":[0,0.25,0.125],"min":[0,-0.125,-0.125],"type":"VEC3"},{"bufferView":1,"componentType":5126,"count":20,"max":[1,0,0],"min":[-1,0,0],"type":"VEC3"},{"bufferView":2,"componentType":5126,"count":20,"max":[0.5313000082969666,0.625],"min":[0.15625,0],"type":"VEC2"},{"bufferView":3,"componentType":5123,"count":30,"max":[19],"min":[0],"type":"SCALAR"},{"bufferView":4,"componentType":5126,"count":20,"max":[0,0.25,0.125],"min":[0,-0.125,-0.125],"type":"VEC3"},{"bufferView":5,"componentType":5126,"count":20,"max":[1,0,0],"min":[-1,0,0],"type":"VEC3"},{"bufferView":6,"componentType":5126,"count":20,"max":[0.5313000082969666,0.625],"min":[0.15625,0],"type":"VEC2"},{"bufferView":7,"componentType":5123,"count":30,"max":[19],"min":[0],"type":"SCALAR"},{"bufferView":8,"componentType":5126,"count":24,"max":[0.125,0.5625,0],"min":[-0.125,0.1875,0],"type":"VEC3"},{"bufferView":9,"componentType":5126,"count":24,"max":[1,0,1],"min":[0,0,-1],"type":"VEC3"},{"bufferView":10,"componentType":5126,"count":24,"max":[0.6875,0.75],"min":[0.15625,0],"type":"VEC2"},{"bufferView":11,"componentType":5123,"count":36,"max":[23],"min":[0],"type":"SCALAR"},{"bufferView":12,"componentType":5126,"count":20,"max":[0.125,0.375,0],"min":[-0.125,0.1875,0],"type":"VEC3"},{"bufferView":13,"componentType":5126,"count":20,"max":[1,0,0],"min":[0,0,-1],"type":"VEC3"},{"bufferView":14,"componentType":5126,"count":20,"max":[0.65625,0.65625],"min":[0.09375,0.28125],"type":"VEC2"},{"bufferView":15,"componentType":5123,"count":30,"max":[19],"min":[0],"type":"SCALAR"},{"bufferView":16,"componentType":5126,"count":20,"max":[0.125,0.1875,0],"min":[-0.125,0,0],"type":"VEC3"},{"bufferView":17,"componentType":5126,"count":20,"max":[1,0,0],"min":[0,0,-1],"type":"VEC3"},{"bufferView":18,"componentType":5126,"count":20,"max":[0.59375,0.53125],"min":[0,0.125],"type":"VEC2"},{"bufferView":19,"componentType":5123,"count":30,"max":[19],"min":[0],"type":"SCALAR"}],"materials":[{"pbrMetallicRoughness":{"metallicFactor":0,"roughnessFactor":1,"baseColorTexture":{"index":0}},"alphaMode":"MASK","alphaCutoff":0.05,"doubleSided":true}],"textures":[{"sampler":0,"source":0,"name":"chains"}],"samplers":[{"magFilter":9728,"minFilter":9728,"wrapS":33071,"wrapT":33071}],"images":[{"mimeType":"image/png","uri":"data:image/png;base64,"}],"meshes":[{"primitives":[{"mode":4,"attributes":{"POSITION":0,"NORMAL":1,"TEXCOORD_0":2},"indices":3,"material":0}]},{"primitives":[{"mode":4,"attributes":{"POSITION":4,"NORMAL":5,"TEXCOORD_0":6},"indices":7,"material":0}]},{"primitives":[{"mode":4,"attributes":{"POSITION":8,"NORMAL":9,"TEXCOORD_0":10},"indices":11,"material":0}]},{"primitives":[{"mode":4,"attributes":{"POSITION":12,"NORMAL":13,"TEXCOORD_0":14},"indices":15,"material":0}]},{"primitives":[{"mode":4,"attributes":{"POSITION":16,"NORMAL":17,"TEXCOORD_0":18},"indices":19,"material":0}]}]}