{"asset":{"version":"2.0","generator":"Blockbench 4.12.6 glTF exporter"},"scenes":[{"nodes":[3],"name":"blockbench_export"}],"scene":0,"nodes":[{"name":"cube","mesh":0},{"name":"bone","children":[0]},{"translation":[0,0.175,0],"name":"coin","children":[1]},{"children":[2]}],"bufferViews":[{"buffer":0,"byteOffset":0,"byteLength":288,"target":34962,"byteStride":12},{"buffer":0,"byteOffset":288,"byteLength":288,"target":34962,"byteStride":12},{"buffer":0,"byteOffset":576,"byteLength":192,"target":34962,"byteStride":8},{"buffer":0,"byteOffset":768,"byteLength":72,"target":34963},{"buffer":0,"byteOffset":840,"byteLength":12},{"buffer":0,"byteOffset":852,"byteLength":48},{"buffer":0,"byteOffset":900,"byteLength":456},{"buffer":0,"byteOffset":1356,"byteLength":1368},{"buffer":0,"byteOffset":2724,"byteLength":4},{"buffer":0,"byteOffset":2728,"byteLength":12}],"buffers":[{"byteLength":2740,"uri":"data:application/octet-stream;base64,"}],"accessors":[{"bufferView":0,"componentType":5126,"count":24,"max":[0.21875,0.26249998807907104,0.08749999850988388],"min":[-0.21875,-0.17499999701976776,-0.08749999850988388],"type":"VEC3"},{"bufferView":1,"componentType":5126,"count":24,"max":[1,1,1],"min":[-1,-1,-1],"type":"VEC3"},{"bufferView":2,"componentType":5126,"count":24,"max":[0.75,0.625],"min":[0,0],"type":"VEC2"},{"bufferView":3,"componentType":5123,"count":36,"max":[23],"min":[0],"type":"SCALAR"},{"bufferView":4,"componentType":5126,"count":3,"max":[3.25],"min":[0],"type":"SCALAR"},{"bufferView":5,"componentType":5126,"count":3,"max":[0,0,0,1],"min":[0,-0.9999904632568359,0,-0.9999619126319885],"type":"VEC4"},{"bufferView":6,"componentType":5126,"count":114,"max":[3.25],"min":[0],"type":"SCALAR"},{"bufferView":7,"componentType":5126,"count":114,"max":[0,0.20624524354934692,0],"min":[0,0.14377591013908386,0],"type":"VEC3"},{"bufferView":8,"componentType":5126,"count":1,"max":[0],"min":[0],"type":"SCALAR"},{"bufferView":9,"componentType":5126,"count":1,"max":[0,0.25,0],"min":[0,0.25,0],"type":"VEC3"}],"materials":[{"pbrMetallicRoughness":{"metallicFactor":0,"roughnessFactor":1,"baseColorTexture":{"index":0}},"alphaMode":"MASK","alphaCutoff":0.05,"doubleSided":true}],"textures":[{"sampler":0,"source":0,"name":"coin"}],"samplers":[{"magFilter":9728,"minFilter":9728,"wrapS":33071,"wrapT":33071}],"images":[{"mimeType":"image/png","uri":"data:image/png;base64,"}],"meshes":[{"primitives":[{"mode":4,"attributes":{"POSITION":0,"NORMAL":1,"TEXCOORD_0":2},"indices":3,"material":0}]}],"animations":[{"name":"idle","samplers":[{"input":4,"output":5,"interpolation":"LINEAR"},{"input":6,"output":7,"interpolation":"LINEAR"},{"input":8,"output":9,"interpolation":"LINEAR"}],"channels":[{"sampler":0,"target":{"node":2,"path":"rotation"}},{"sampler":1,"target":{"node":2,"path":"translation"}},{"sampler":2,"target":{"node":1,"path":"translation"}}]}]}