{"asset":{"version":"2.0","generator":"Blockbench 4.12.6 glTF exporter"},"scenes":[{"nodes":[4],"name":"blockbench_export"}],"scene":0,"nodes":[{"name":"pyramid","mesh":0},{"translation":[-0.36,0,0.27],"name":"pyramid","mesh":1},{"translation":[0.36,0,-0.27],"name":"pyramid","mesh":2},{"name":"ice_spikes","children":[0,1,2]},{"children":[3]}],"bufferViews":[{"buffer":0,"byteOffset":0,"byteLength":192,"target":34962,"byteStride":12},{"buffer":0,"byteOffset":192,"byteLength":192,"target":34962,"byteStride":12},{"buffer":0,"byteOffset":384,"byteLength":128,"target":34962,"byteStride":8},{"buffer":0,"byteOffset":512,"byteLength":36,"target":34963},{"buffer":0,"byteOffset":548,"byteLength":192,"target":34962,"byteStride":12},{"buffer":0,"byteOffset":740,"byteLength":192,"target":34962,"byteStride":12},{"buffer":0,"byteOffset":932,"byteLength":128,"target":34962,"byteStride":8},{"buffer":0,"byteOffset":1060,"byteLength":36,"target":34963},{"buffer":0,"byteOffset":1096,"byteLength":192,"target":34962,"byteStride":12},{"buffer":0,"byteOffset":1288,"byteLength":192,"target":34962,"byteStride":12},{"buffer":0,"byteOffset":1480,"byteLength":128,"target":34962,"byteStride":8},{"buffer":0,"byteOffset":1608,"byteLength":36,"target":34963}],"buffers":[{"byteLength":1644,"uri":"data:application/octet-stream;base64,"}],"accessors":[{"bufferView":0,"componentType":5126,"count":16,"max":[0.3149999976158142,1.440000057220459,0.3149999976158142],"min":[-0.3149999976158142,0,-0.3149999976158142],"type":"VEC3"},{"bufferView":1,"componentType":5126,"count":16,"max":[0.976900041103363,0.21369688212871552,0.976900041103363],"min":[-0.976900041103363,-1,-0.976900041103363],"type":"VEC3"},{"bufferView":2,"componentType":5126,"count":16,"max":[0.43970170617103577,0.533393919467926],"min":[0.002201718743890524,0],"type":"VEC2"},{"bufferView":3,"componentType":5123,"count":18,"max":[15],"min":[0],"type":"SCALAR"},{"bufferView":4,"componentType":5126,"count":16,"max":[0.13500000536441803,0.9900000095367432,0.13500000536441803],"min":[-0.13500000536441803,0,-0.13500000536441803],"type":"VEC3"},{"bufferView":5,"componentType":5126,"count":16,"max":[0.9908301830291748,0.1351131945848465,0.9908301830291748],"min":[-0.9908301830291748,-1,-0.9908301830291748],"type":"VEC3"},{"bufferView":6,"componentType":5126,"count":16,"max":[0.3827421963214874,0.5317991971969604],"min":[0,0],"type":"VEC2"},{"bufferView":7,"componentType":5123,"count":18,"max":[15],"min":[0],"type":"SCALAR"},{"bufferView":8,"componentType":5126,"count":16,"max":[0.13500000536441803,0.9900000095367432,0.13500000536441803],"min":[-0.13500000536441803,0,-0.13500000536441803],"type":"VEC3"},{"bufferView":9,"componentType":5126,"count":16,"max":[0.9908301830291748,0.1351131945848465,0.9908301830291748],"min":[-0.9908301830291748,-1,-0.9908301830291748],"type":"VEC3"},{"bufferView":10,"componentType":5126,"count":16,"max":[0.3827421963214874,0.5317991971969604],"min":[0,0],"type":"VEC2"},{"bufferView":11,"componentType":5123,"count":18,"max":[15],"min":[0],"type":"SCALAR"}],"materials":[{"pbrMetallicRoughness":{"metallicFactor":0,"roughnessFactor":1,"baseColorTexture":{"index":0}},"alphaMode":"MASK","alphaCutoff":0.05,"doubleSided":true}],"textures":[{"sampler":0,"source":0,"name":"ice_spikes"}],"samplers":[{"magFilter":9728,"minFilter":9728,"wrapS":33071,"wrapT":33071}],"images":[{"mimeType":"image/png","uri":"data:image/png;base64,"}],"meshes":[{"primitives":[{"mode":4,"attributes":{"POSITION":0,"NORMAL":1,"TEXCOORD_0":2},"indices":3,"material":0}]},{"primitives":[{"mode":4,"attributes":{"POSITION":4,"NORMAL":5,"TEXCOORD_0":6},"indices":7,"material":0}]},{"primitives":[{"mode":4,"attributes":{"POSITION":8,"NORMAL":9,"TEXCOORD_0":10},"indices":11,"material":0}]}]}