{"asset":{"version":"2.0","generator":"Blockbench 5.0.3 glTF exporter"},"scenes":[{"nodes":[14],"name":"blockbench_export"}],"scene":0,"nodes":[{"rotation":[0,-0.7071067811865475,0,0.7071067811865476],"translation":[0.0022524999999999906,0.249986875,-0.0011687499999999962],"name":"flower-tuft","mesh":0},{"translation":[-0.1875,-0.03125,-0.3125],"name":"bone6","children":[0]},{"translation":[0,0.0625,-0.1875],"name":"flower-tuft","mesh":1},{"translation":[0.1875,-0.0625,-0.25],"name":"bone7","children":[2]},{"rotation":[0,0.2798290140309921,0,0.9600498543859287],"translation":[0,0.3125,-0.025],"name":"flower-tuft","mesh":2},{"translation":[-0.343026875,0.0118975,0.02214],"name":"bone5","children":[4]},{"rotation":[0.10845260352534469,-0.08663771849078357,-0.00948837333833932,0.9902736537415698],"translation":[-0.09375,0.46875,0],"name":"flower-tuft","mesh":3},{"translation":[-0.25,-0.03125,0.3125],"name":"bone4","children":[6]},{"translation":[0.1875,0,-0.3125],"name":"flower-tuft","mesh":4},{"translation":[0.0625,0,0.1875],"name":"bone3","children":[8]},{"rotation":[0,-0.7071067811865475,0,0.7071067811865476],"translation":[-0.03125,0.21875,-0.03125],"name":"flower-tuft","mesh":5},{"translation":[0.21875,0,0.34375],"name":"bone2","children":[10]},{"rotation":[0,-0.7071067811865475,0,0.7071067811865476],"translation":[0.01619125,0.243780625,0.018350625],"name":"flower-tuft","mesh":6},{"translation":[-0.01619125,-0.025030625,-0.018350625],"name":"bone","children":[12]},{"name":"root","children":[1,3,5,7,9,11,13]}],"bufferViews":[{"buffer":0,"byteOffset":0,"byteLength":384,"target":34962,"byteStride":12},{"buffer":0,"byteOffset":384,"byteLength":384,"target":34962,"byteStride":12},{"buffer":0,"byteOffset":768,"byteLength":256,"target":34962,"byteStride":8},{"buffer":0,"byteOffset":1024,"byteLength":96,"target":34963},{"buffer":0,"byteOffset":1120,"byteLength":480,"target":34962,"byteStride":12},{"buffer":0,"byteOffset":1600,"byteLength":480,"target":34962,"byteStride":12},{"buffer":0,"byteOffset":2080,"byteLength":320,"target":34962,"byteStride":8},{"buffer":0,"byteOffset":2400,"byteLength":120,"target":34963},{"buffer":0,"byteOffset":2520,"byteLength":384,"target":34962,"byteStride":12},{"buffer":0,"byteOffset":2904,"byteLength":384,"target":34962,"byteStride":12},{"buffer":0,"byteOffset":3288,"byteLength":256,"target":34962,"byteStride":8},{"buffer":0,"byteOffset":3544,"byteLength":96,"target":34963},{"buffer":0,"byteOffset":3640,"byteLength":384,"target":34962,"byteStride":12},{"buffer":0,"byteOffset":4024,"byteLength":384,"target":34962,"byteStride":12},{"buffer":0,"byteOffset":4408,"byteLength":256,"target":34962,"byteStride":8},{"buffer":0,"byteOffset":4664,"byteLength":96,"target":34963},{"buffer":0,"byteOffset":4760,"byteLength":384,"target":34962,"byteStride":12},{"buffer":0,"byteOffset":5144,"byteLength":384,"target":34962,"byteStride":12},{"buffer":0,"byteOffset":5528,"byteLength":256,"target":34962,"byteStride":8},{"buffer":0,"byteOffset":5784,"byteLength":96,"target":34963},{"buffer":0,"byteOffset":5880,"byteLength":480,"target":34962,"byteStride":12},{"buffer":0,"byteOffset":6360,"byteLength":480,"target":34962,"byteStride":12},{"buffer":0,"byteOffset":6840,"byteLength":320,"target":34962,"byteStride":8},{"buffer":0,"byteOffset":7160,"byteLength":120,"target":34963},{"buffer":0,"byteOffset":7280,"byteLength":384,"target":34962,"byteStride":12},{"buffer":0,"byteOffset":7664,"byteLength":384,"target":34962,"byteStride":12},{"buffer":0,"byteOffset":8048,"byteLength":256,"target":34962,"byteStride":8},{"buffer":0,"byteOffset":8304,"byteLength":96,"target":34963},{"buffer":0,"byteOffset":8400,"byteLength":788},{"buffer":0,"byteOffset":9188,"byteLength":3152},{"buffer":0,"byteOffset":12340,"byteLength":788},{"buffer":0,"byteOffset":13128,"byteLength":3152},{"buffer":0,"byteOffset":16280,"byteLength":788},{"buffer":0,"byteOffset":17068,"byteLength":3152},{"buffer":0,"byteOffset":20220,"byteLength":788},{"buffer":0,"byteOffset":21008,"byteLength":3152},{"buffer":0,"byteOffset":24160,"byteLength":788},{"buffer":0,"byteOffset":24948,"byteLength":3152},{"buffer":0,"byteOffset":28100,"byteLength":788},{"buffer":0,"byteOffset":28888,"byteLength":3152},{"buffer":0,"byteOffset":32040,"byteLength":788},{"buffer":0,"byteOffset":32828,"byteLength":3152}],"buffers":[{"byteLength":35980,"uri":"data:application/octet-stream;base64,"}],"accessors":[{"bufferView":0,"componentType":5126,"count":32,"max":[0.16347342729568481,0.25499117374420166,0.28180283308029175],"min":[-0.18996280431747437,-0.21875,-0.16419684886932373],"type":"VEC3"},{"bufferView":1,"componentType":5126,"count":32,"max":[1,0.9762960076332092,1],"min":[-1,-0.9762960076332092,-1],"type":"VEC3"},{"bufferView":2,"componentType":5126,"count":32,"max":[0.46875,0.65625],"min":[0,0],"type":"VEC2"},{"bufferView":3,"componentType":5123,"count":48,"max":[31],"min":[0],"type":"SCALAR"},{"bufferView":4,"componentType":5126,"count":40,"max":[0.32203420996665955,0.4862411916255951,0.4518478214740753],"min":[-0.16419684886932373,0,-0.06496279686689377],"type":"VEC3"},{"bufferView":5,"componentType":5126,"count":40,"max":[1,0.9762960076332092,1],"min":[-1,-0.9762960076332092,-1],"type":"VEC3"},{"bufferView":6,"componentType":5126,"count":40,"max":[0.46875,0.65625],"min":[0,0],"type":"VEC2"},{"bufferView":7,"componentType":5123,"count":60,"max":[39],"min":[0],"type":"SCALAR"},{"bufferView":8,"componentType":5126,"count":32,"max":[0.15552687644958496,0.1131025031208992,0.15911062061786652],"min":[-0.18168087303638458,-0.3243975043296814,-0.18464000523090363],"type":"VEC3"},{"bufferView":9,"componentType":5126,"count":32,"max":[1,1,1],"min":[-1,-1,-1],"type":"VEC3"},{"bufferView":10,"componentType":5126,"count":32,"max":[0.46875,0.65625],"min":[0,0.15625],"type":"VEC2"},{"bufferView":11,"componentType":5123,"count":48,"max":[31],"min":[0],"type":"SCALAR"},{"bufferView":12,"componentType":5126,"count":32,"max":[0.234375,0.02029121294617653,0.24461223185062408],"min":[-0.17723669111728668,-0.44742071628570557,-0.15625],"type":"VEC3"},{"bufferView":13,"componentType":5126,"count":32,"max":[0.9848077297210693,1,0.9614638686180115],"min":[-0.9848077297210693,-1,-0.9614638686180115],"type":"VEC3"},{"bufferView":14,"componentType":5126,"count":32,"max":[0.46875,0.65625],"min":[0,0],"type":"VEC2"},{"bufferView":15,"componentType":5123,"count":48,"max":[31],"min":[0],"type":"SCALAR"},{"bufferView":16,"componentType":5126,"count":32,"max":[-0.0625,0.4375,0.5625],"min":[-0.4366064965724945,0,0.21875],"type":"VEC3"},{"bufferView":17,"componentType":5126,"count":32,"max":[1,1,1],"min":[-1,-1,-1],"type":"VEC3"},{"bufferView":18,"componentType":5126,"count":32,"max":[0.46875,0.65625],"min":[0,0.15625],"type":"VEC2"},{"bufferView":19,"componentType":5123,"count":48,"max":[31],"min":[0],"type":"SCALAR"},{"bufferView":20,"componentType":5126,"count":40,"max":[0.18996280431747437,0.25499117374420166,0.16419684886932373],"min":[-0.2531881332397461,-0.21875,-0.28180283308029175],"type":"VEC3"},{"bufferView":21,"componentType":5126,"count":40,"max":[1,0.9762960076332092,1],"min":[-1,-0.9762960076332092,-1],"type":"VEC3"},{"bufferView":22,"componentType":5126,"count":40,"max":[0.46875,0.65625],"min":[0,0],"type":"VEC2"},{"bufferView":23,"componentType":5123,"count":60,"max":[39],"min":[0],"type":"SCALAR"},{"bufferView":24,"componentType":5126,"count":32,"max":[0.15625,0.27618521451950073,0.22841143608093262],"min":[-0.1909136325120926,-0.21875,-0.15998651087284088],"type":"VEC3"},{"bufferView":25,"componentType":5126,"count":32,"max":[1,0.9396926164627075,1],"min":[-1,-0.9396926164627075,-1],"type":"VEC3"},{"bufferView":26,"componentType":5126,"count":32,"max":[0.46875,0.65625],"min":[0,0],"type":"VEC2"},{"bufferView":27,"componentType":5123,"count":48,"max":[31],"min":[0],"type":"SCALAR"},{"bufferView":28,"componentType":5126,"count":197,"max":[6.016666889190674],"min":[0],"type":"SCALAR"},{"bufferView":29,"componentType":5126,"count":197,"max":[0.00872520636767149,0.000058618745242711157,0.008726369589567184,1],"min":[-0.00872520636767149,-0.000058618745242711157,-0.008726369589567184,0.9999405145645142],"type":"VEC4"},{"bufferView":30,"componentType":5126,"count":197,"max":[6.016666889190674],"min":[0],"type":"SCALAR"},{"bufferView":31,"componentType":5126,"count":197,"max":[0.00872520636767149,0.000058618745242711157,0.008726369589567184,1],"min":[-0.00872520636767149,-0.000058618745242711157,-0.008726369589567184,0.9999405145645142],"type":"VEC4"},{"bufferView":32,"componentType":5126,"count":197,"max":[6.016666889190674],"min":[0],"type":"SCALAR"},{"bufferView":33,"componentType":5126,"count":197,"max":[0.00872520636767149,0.000058618745242711157,0.008726369589567184,1],"min":[-0.00872520636767149,-0.000058618745242711157,-0.008726369589567184,0.9999405145645142],"type":"VEC4"},{"bufferView":34,"componentType":5126,"count":197,"max":[6.016666889190674],"min":[0],"type":"SCALAR"},{"bufferView":35,"componentType":5126,"count":197,"max":[0.00872520636767149,0.000058618745242711157,0.008726369589567184,1],"min":[-0.00872520636767149,-0.000058618745242711157,-0.008726369589567184,0.9999405145645142],"type":"VEC4"},{"bufferView":36,"componentType":5126,"count":197,"max":[6.016666889190674],"min":[0],"type":"SCALAR"},{"bufferView":37,"componentType":5126,"count":197,"max":[0.00872520636767149,0.000058618745242711157,0.008726369589567184,1],"min":[-0.00872520636767149,-0.000058618745242711157,-0.008726369589567184,0.9999405145645142],"type":"VEC4"},{"bufferView":38,"componentType":5126,"count":197,"max":[6.016666889190674],"min":[0],"type":"SCALAR"},{"bufferView":39,"componentType":5126,"count":197,"max":[0.00872520636767149,0.000058618745242711157,0.008726369589567184,1],"min":[-0.00872520636767149,-0.000058618745242711157,-0.008726369589567184,0.9999405145645142],"type":"VEC4"},{"bufferView":40,"componentType":5126,"count":197,"max":[6.016666889190674],"min":[0],"type":"SCALAR"},{"bufferView":41,"componentType":5126,"count":197,"max":[0.00872520636767149,0.000058618745242711157,0.008726369589567184,1],"min":[-0.00872520636767149,-0.000058618745242711157,-0.008726369589567184,0.9999405145645142],"type":"VEC4"}],"materials":[{"pbrMetallicRoughness":{"metallicFactor":0,"roughnessFactor":1,"baseColorTexture":{"index":0}},"alphaMode":"MASK","alphaCutoff":0.05,"doubleSided":true}],"textures":[{"sampler":0,"source":0,"name":"flower_tuft"}],"samplers":[{"magFilter":9728,"minFilter":9728,"wrapS":33071,"wrapT":33071}],"images":[{"mimeType":"image/png","uri":"data:image/png;base64,"}],"meshes":[{"primitives":[{"mode":4,"attributes":{"POSITION":0,"NORMAL":1,"TEXCOORD_0":2},"indices":3,"material":0}]},{"primitives":[{"mode":4,"attributes":{"POSITION":4,"NORMAL":5,"TEXCOORD_0":6},"indices":7,"material":0}]},{"primitives":[{"mode":4,"attributes":{"POSITION":8,"NORMAL":9,"TEXCOORD_0":10},"indices":11,"material":0}]},{"primitives":[{"mode":4,"attributes":{"POSITION":12,"NORMAL":13,"TEXCOORD_0":14},"indices":15,"material":0}]},{"primitives":[{"mode":4,"attributes":{"POSITION":16,"NORMAL":17,"TEXCOORD_0":18},"indices":19,"material":0}]},{"primitives":[{"mode":4,"attributes":{"POSITION":20,"NORMAL":21,"TEXCOORD_0":22},"indices":23,"material":0}]},{"primitives":[{"mode":4,"attributes":{"POSITION":24,"NORMAL":25,"TEXCOORD_0":26},"indices":27,"material":0}]}],"animations":[{"name":"idle","samplers":[{"input":28,"output":29,"interpolation":"LINEAR"},{"input":30,"output":31,"interpolation":"LINEAR"},{"input":32,"output":33,"interpolation":"LINEAR"},{"input":34,"output":35,"interpolation":"LINEAR"},{"input":36,"output":37,"interpolation":"LINEAR"},{"input":38,"output":39,"interpolation":"LINEAR"},{"input":40,"output":41,"interpolation":"LINEAR"}],"channels":[{"sampler":0,"target":{"node":13,"path":"rotation"}},{"sampler":1,"target":{"node":11,"path":"rotation"}},{"sampler":2,"target":{"node":9,"path":"rotation"}},{"sampler":3,"target":{"node":7,"path":"rotation"}},{"sampler":4,"target":{"node":5,"path":"rotation"}},{"sampler":5,"target":{"node":1,"path":"rotation"}},{"sampler":6,"target":{"node":3,"path":"rotation"}}]}]}