{"asset":{"version":"2.0","generator":"Blockbench 5.0.3 glTF exporter"},"scenes":[{"nodes":[5],"name":"blockbench_export"}],"scene":0,"nodes":[{"translation":[1.4375,-4.75,-0.0625],"name":"cube","mesh":0},{"rotation":[0.28478491549954843,0.28478491549954843,0.64722295378325,0.6472229537832501],"name":"plane","mesh":1},{"translation":[0,0.5,0],"name":"bone","children":[1]},{"rotation":[-0.6472229537832501,0.64722295378325,-0.2847849154995484,0.2847849154995485],"name":"plane","mesh":2},{"translation":[0,0.5,0],"name":"bone2","children":[3]},{"translation":[0,0.00625,0],"name":"leafy-leafblock","children":[0,2,4]}],"bufferViews":[{"buffer":0,"byteOffset":0,"byteLength":288,"target":34962,"byteStride":12},{"buffer":0,"byteOffset":288,"byteLength":288,"target":34962,"byteStride":12},{"buffer":0,"byteOffset":576,"byteLength":192,"target":34962,"byteStride":8},{"buffer":0,"byteOffset":768,"byteLength":72,"target":34963},{"buffer":0,"byteOffset":840,"byteLength":48,"target":34962,"byteStride":12},{"buffer":0,"byteOffset":888,"byteLength":48,"target":34962,"byteStride":12},{"buffer":0,"byteOffset":936,"byteLength":32,"target":34962,"byteStride":8},{"buffer":0,"byteOffset":968,"byteLength":12,"target":34963},{"buffer":0,"byteOffset":980,"byteLength":48,"target":34962,"byteStride":12},{"buffer":0,"byteOffset":1028,"byteLength":48,"target":34962,"byteStride":12},{"buffer":0,"byteOffset":1076,"byteLength":32,"target":34962,"byteStride":8},{"buffer":0,"byteOffset":1108,"byteLength":12,"target":34963},{"buffer":0,"byteOffset":1120,"byteLength":784},{"buffer":0,"byteOffset":1904,"byteLength":3136},{"buffer":0,"byteOffset":5040,"byteLength":784},{"buffer":0,"byteOffset":5824,"byteLength":3136},{"buffer":0,"byteOffset":8960,"byteLength":784},{"buffer":0,"byteOffset":9744,"byteLength":3136}],"buffers":[{"byteLength":12880,"uri":"data:application/octet-stream;base64,"}],"accessors":[{"bufferView":0,"componentType":5126,"count":24,"max":[-0.9375,5.75,0.5625],"min":[-1.9375,4.75,-0.4375],"type":"VEC3"},{"bufferView":1,"componentType":5126,"count":24,"max":[1,1,1],"min":[-1,-1,-1],"type":"VEC3"},{"bufferView":2,"componentType":5126,"count":24,"max":[0.25,0.125],"min":[0,0],"type":"VEC2"},{"bufferView":3,"componentType":5123,"count":36,"max":[23],"min":[0],"type":"SCALAR"},{"bufferView":4,"componentType":5126,"count":4,"max":[0.75,0,0.75],"min":[-0.75,0,-0.75],"type":"VEC3"},{"bufferView":5,"componentType":5126,"count":4,"max":[0,1,0],"min":[0,1,0],"type":"VEC3"},{"bufferView":6,"componentType":5126,"count":4,"max":[0.375,0.4296875],"min":[0.28125,0.3359375],"type":"VEC2"},{"bufferView":7,"componentType":5123,"count":6,"max":[3],"min":[0],"type":"SCALAR"},{"bufferView":8,"componentType":5126,"count":4,"max":[0.75,0,0.75],"min":[-0.75,0,-0.75],"type":"VEC3"},{"bufferView":9,"componentType":5126,"count":4,"max":[0,1,0],"min":[0,1,0],"type":"VEC3"},{"bufferView":10,"componentType":5126,"count":4,"max":[0.375,0.4296875],"min":[0.28125,0.3359375],"type":"VEC2"},{"bufferView":11,"componentType":5123,"count":6,"max":[3],"min":[0],"type":"SCALAR"},{"bufferView":12,"componentType":5126,"count":196,"max":[5.983333110809326],"min":[0],"type":"SCALAR"},{"bufferView":13,"componentType":5126,"count":196,"max":[0.00872520636767149,0.000058618745242711157,0.008726369589567184,1],"min":[-0.00872520636767149,-0.000058618745242711157,-0.008726369589567184,0.9999405145645142],"type":"VEC4"},{"bufferView":14,"componentType":5126,"count":196,"max":[5.983333110809326],"min":[0],"type":"SCALAR"},{"bufferView":15,"componentType":5126,"count":196,"max":[0.006107683759182692,0.000028723474315484054,0.006108557339757681,1],"min":[-0.006107683759182692,-0.000028723474315484054,-0.006108557339757681,0.9999708533287048],"type":"VEC4"},{"bufferView":16,"componentType":5126,"count":196,"max":[5.983333110809326],"min":[0],"type":"SCALAR"},{"bufferView":17,"componentType":5126,"count":196,"max":[0.006107683759182692,0.000028723474315484054,0.006108557339757681,1],"min":[-0.006107683759182692,-0.000028723474315484054,-0.006108557339757681,0.9999708533287048],"type":"VEC4"}],"materials":[{"pbrMetallicRoughness":{"metallicFactor":0,"roughnessFactor":1,"baseColorTexture":{"index":0}},"alphaMode":"MASK","alphaCutoff":0.05,"doubleSided":true}],"textures":[{"sampler":0,"source":0,"name":"leafy-leafblock"}],"samplers":[{"magFilter":9728,"minFilter":9728,"wrapS":33071,"wrapT":33071}],"images":[{"mimeType":"image/png","uri":"data:image/png;base64,"}],"meshes":[{"primitives":[{"mode":4,"attributes":{"POSITION":0,"NORMAL":1,"TEXCOORD_0":2},"indices":3,"material":0}]},{"primitives":[{"mode":4,"attributes":{"POSITION":4,"NORMAL":5,"TEXCOORD_0":6},"indices":7,"material":0}]},{"primitives":[{"mode":4,"attributes":{"POSITION":8,"NORMAL":9,"TEXCOORD_0":10},"indices":11,"material":0}]}],"animations":[{"name":"idle","samplers":[{"input":12,"output":13,"interpolation":"LINEAR"},{"input":14,"output":15,"interpolation":"LINEAR"},{"input":16,"output":17,"interpolation":"LINEAR"}],"channels":[{"sampler":0,"target":{"node":5,"path":"rotation"}},{"sampler":1,"target":{"node":2,"path":"rotation"}},{"sampler":2,"target":{"node":4,"path":"rotation"}}]}]}