{"asset":{"version":"2.0","generator":"Blockbench 5.0.3 glTF exporter"},"scenes":[{"nodes":[11],"name":"blockbench_export"}],"scene":0,"nodes":[{"translation":[-0.0625,0,-0.0625],"name":"cube","mesh":0},{"translation":[0.375,-3.625,0.0625],"name":"cube","mesh":1},{"translation":[-0.3125,3.625,0],"name":"branch_1","children":[1]},{"rotation":[-0.7071067811865475,0,0,0.7071067811865476],"translation":[0,0.1875,0.1875],"name":"cube","mesh":2},{"translation":[0,5.375,0.1875],"name":"bone9","children":[3]},{"translation":[-0.375,-3.625,0.125],"name":"cube","mesh":3},{"translation":[0.3125,3.625,-0.0625],"name":"branch_2","children":[5]},{"translation":[0.0625,-3.625,-0.25],"name":"cube","mesh":4},{"translation":[0,5.1875,0.25],"name":"branch_3","children":[7]},{"translation":[-0.0625,-3.625,0.25],"name":"cube","mesh":5},{"translation":[0,4.6875,-0.25],"name":"branch_4","children":[9]},{"name":"root","children":[0,2,4,6,8,10]}],"bufferViews":[{"buffer":0,"byteOffset":0,"byteLength":1728,"target":34962,"byteStride":12},{"buffer":0,"byteOffset":1728,"byteLength":1728,"target":34962,"byteStride":12},{"buffer":0,"byteOffset":3456,"byteLength":1152,"target":34962,"byteStride":8},{"buffer":0,"byteOffset":4608,"byteLength":432,"target":34963},{"buffer":0,"byteOffset":5040,"byteLength":3744,"target":34962,"byteStride":12},{"buffer":0,"byteOffset":8784,"byteLength":3744,"target":34962,"byteStride":12},{"buffer":0,"byteOffset":12528,"byteLength":2496,"target":34962,"byteStride":8},{"buffer":0,"byteOffset":15024,"byteLength":936,"target":34963},{"buffer":0,"byteOffset":15960,"byteLength":1248,"target":34962,"byteStride":12},{"buffer":0,"byteOffset":17208,"byteLength":1248,"target":34962,"byteStride":12},{"buffer":0,"byteOffset":18456,"byteLength":832,"target":34962,"byteStride":8},{"buffer":0,"byteOffset":19288,"byteLength":312,"target":34963},{"buffer":0,"byteOffset":19600,"byteLength":3744,"target":34962,"byteStride":12},{"buffer":0,"byteOffset":23344,"byteLength":3744,"target":34962,"byteStride":12},{"buffer":0,"byteOffset":27088,"byteLength":2496,"target":34962,"byteStride":8},{"buffer":0,"byteOffset":29584,"byteLength":936,"target":34963},{"buffer":0,"byteOffset":30520,"byteLength":3744,"target":34962,"byteStride":12},{"buffer":0,"byteOffset":34264,"byteLength":3744,"target":34962,"byteStride":12},{"buffer":0,"byteOffset":38008,"byteLength":2496,"target":34962,"byteStride":8},{"buffer":0,"byteOffset":40504,"byteLength":936,"target":34963},{"buffer":0,"byteOffset":41440,"byteLength":3744,"target":34962,"byteStride":12},{"buffer":0,"byteOffset":45184,"byteLength":3744,"target":34962,"byteStride":12},{"buffer":0,"byteOffset":48928,"byteLength":2496,"target":34962,"byteStride":8},{"buffer":0,"byteOffset":51424,"byteLength":936,"target":34963},{"buffer":0,"byteOffset":52360,"byteLength":784},{"buffer":0,"byteOffset":53144,"byteLength":3136},{"buffer":0,"byteOffset":56280,"byteLength":784},{"buffer":0,"byteOffset":57064,"byteLength":3136},{"buffer":0,"byteOffset":60200,"byteLength":784},{"buffer":0,"byteOffset":60984,"byteLength":3136},{"buffer":0,"byteOffset":64120,"byteLength":784},{"buffer":0,"byteOffset":64904,"byteLength":3136},{"buffer":0,"byteOffset":68040,"byteLength":784},{"buffer":0,"byteOffset":68824,"byteLength":3136}],"buffers":[{"byteLength":71960,"uri":"data:application/octet-stream;base64,"}],"accessors":[{"bufferView":0,"componentType":5126,"count":144,"max":[0.5625,5.6875,0.5],"min":[-0.375,0,-0.375],"type":"VEC3"},{"bufferView":1,"componentType":5126,"count":144,"max":[1,1,1],"min":[-1,-1,-1],"type":"VEC3"},{"bufferView":2,"componentType":5126,"count":144,"max":[0.41015625,0.453125],"min":[0,0],"type":"VEC2"},{"bufferView":3,"componentType":5123,"count":216,"max":[143],"min":[0],"type":"SCALAR"},{"bufferView":4,"componentType":5126,"count":312,"max":[-0.375,5.9375,1.31919264793396],"min":[-2.5529580116271973,3.25,-1.44419264793396],"type":"VEC3"},{"bufferView":5,"componentType":5126,"count":312,"max":[1,1,1],"min":[-1,-1,-1],"type":"VEC3"},{"bufferView":6,"componentType":5126,"count":312,"max":[0.37890625,0.4296875],"min":[0,0],"type":"VEC2"},{"bufferView":7,"componentType":5123,"count":468,"max":[311],"min":[0],"type":"SCALAR"},{"bufferView":8,"componentType":5126,"count":104,"max":[0.5529580116271973,0.88169264793396,2.6875],"min":[-0.5529580116271973,-0.13169266283512115,-0.1875],"type":"VEC3"},{"bufferView":9,"componentType":5126,"count":104,"max":[1,1,1],"min":[-1,-1,-1],"type":"VEC3"},{"bufferView":10,"componentType":5126,"count":104,"max":[0.375,0.4296875],"min":[0,0],"type":"VEC2"},{"bufferView":11,"componentType":5123,"count":156,"max":[103],"min":[0],"type":"SCALAR"},{"bufferView":12,"componentType":5126,"count":312,"max":[2.56919264793396,5.9375,0.8654580116271973],"min":[0.375,2.875,-1.4279580116271973],"type":"VEC3"},{"bufferView":13,"componentType":5126,"count":312,"max":[1,1,1],"min":[-1,-1,-1],"type":"VEC3"},{"bufferView":14,"componentType":5126,"count":312,"max":[0.37890625,0.4296875],"min":[0,0],"type":"VEC2"},{"bufferView":15,"componentType":5123,"count":468,"max":[311],"min":[0],"type":"SCALAR"},{"bufferView":16,"componentType":5126,"count":312,"max":[1.13169264793396,5.75,2.125],"min":[-1.75669264793396,3.4375,-0.30295801162719727],"type":"VEC3"},{"bufferView":17,"componentType":5126,"count":312,"max":[1,1,1],"min":[-1,-1,-1],"type":"VEC3"},{"bufferView":18,"componentType":5126,"count":312,"max":[0.37890625,0.4296875],"min":[0,0],"type":"VEC2"},{"bufferView":19,"componentType":5123,"count":468,"max":[311],"min":[0],"type":"SCALAR"},{"bufferView":20,"componentType":5126,"count":312,"max":[1.56919264793396,5.6875,-0.11830734461545944],"min":[-1.0529580116271973,3.4375,-2.3654580116271973],"type":"VEC3"},{"bufferView":21,"componentType":5126,"count":312,"max":[1,1,1],"min":[-1,-1,-1],"type":"VEC3"},{"bufferView":22,"componentType":5126,"count":312,"max":[0.37890625,0.4296875],"min":[0,0],"type":"VEC2"},{"bufferView":23,"componentType":5123,"count":468,"max":[311],"min":[0],"type":"SCALAR"},{"bufferView":24,"componentType":5126,"count":196,"max":[5.983333110809326],"min":[0],"type":"SCALAR"},{"bufferView":25,"componentType":5126,"count":196,"max":[0.00872520636767149,0.000058618745242711157,0.008726369589567184,1],"min":[-0.00872520636767149,-0.000058618745242711157,-0.008726369589567184,0.9999405145645142],"type":"VEC4"},{"bufferView":26,"componentType":5126,"count":196,"max":[5.983333110809326],"min":[0],"type":"SCALAR"},{"bufferView":27,"componentType":5126,"count":196,"max":[0.00872520636767149,0.000058618745242711157,0.008726369589567184,1],"min":[-0.00872520636767149,-0.000058618745242711157,-0.008726369589567184,0.9999405145645142],"type":"VEC4"},{"bufferView":28,"componentType":5126,"count":196,"max":[5.983333110809326],"min":[0],"type":"SCALAR"},{"bufferView":29,"componentType":5126,"count":196,"max":[0.00872520636767149,0.000058618745242711157,0.008726369589567184,1],"min":[-0.00872520636767149,-0.000058618745242711157,-0.008726369589567184,0.9999405145645142],"type":"VEC4"},{"bufferView":30,"componentType":5126,"count":196,"max":[5.983333110809326],"min":[0],"type":"SCALAR"},{"bufferView":31,"componentType":5126,"count":196,"max":[0.00872520636767149,0.000058618745242711157,0.008726369589567184,1],"min":[-0.00872520636767149,-0.000058618745242711157,-0.008726369589567184,0.9999405145645142],"type":"VEC4"},{"bufferView":32,"componentType":5126,"count":196,"max":[5.983333110809326],"min":[0],"type":"SCALAR"},{"bufferView":33,"componentType":5126,"count":196,"max":[0.00872520636767149,0.000058618745242711157,0.008726369589567184,1],"min":[-0.00872520636767149,-0.000058618745242711157,-0.008726369589567184,0.9999405145645142],"type":"VEC4"}],"materials":[{"pbrMetallicRoughness":{"metallicFactor":0,"roughnessFactor":1,"baseColorTexture":{"index":0}},"alphaMode":"MASK","alphaCutoff":0.05,"doubleSided":true}],"textures":[{"sampler":0,"source":0,"name":"oak_big_tree"}],"samplers":[{"magFilter":9728,"minFilter":9728,"wrapS":33071,"wrapT":33071}],"images":[{"mimeType":"image/png","uri":"data:image/png;base64,"}],"meshes":[{"primitives":[{"mode":4,"attributes":{"POSITION":0,"NORMAL":1,"TEXCOORD_0":2},"indices":3,"material":0}]},{"primitives":[{"mode":4,"attributes":{"POSITION":4,"NORMAL":5,"TEXCOORD_0":6},"indices":7,"material":0}]},{"primitives":[{"mode":4,"attributes":{"POSITION":8,"NORMAL":9,"TEXCOORD_0":10},"indices":11,"material":0}]},{"primitives":[{"mode":4,"attributes":{"POSITION":12,"NORMAL":13,"TEXCOORD_0":14},"indices":15,"material":0}]},{"primitives":[{"mode":4,"attributes":{"POSITION":16,"NORMAL":17,"TEXCOORD_0":18},"indices":19,"material":0}]},{"primitives":[{"mode":4,"attributes":{"POSITION":20,"NORMAL":21,"TEXCOORD_0":22},"indices":23,"material":0}]}],"animations":[{"name":"idle","samplers":[{"input":24,"output":25,"interpolation":"LINEAR"},{"input":26,"output":27,"interpolation":"LINEAR"},{"input":28,"output":29,"interpolation":"LINEAR"},{"input":30,"output":31,"interpolation":"LINEAR"},{"input":32,"output":33,"interpolation":"LINEAR"}],"channels":[{"sampler":0,"target":{"node":2,"path":"rotation"}},{"sampler":1,"target":{"node":4,"path":"rotation"}},{"sampler":2,"target":{"node":6,"path":"rotation"}},{"sampler":3,"target":{"node":8,"path":"rotation"}},{"sampler":4,"target":{"node":10,"path":"rotation"}}]}]}