{"asset":{"version":"2.0","generator":"Blockbench 5.0.3 glTF exporter"},"scenes":[{"nodes":[13],"name":"blockbench_export"}],"scene":0,"nodes":[{"translation":[-0.141358125,-3.17973,0.03147625],"name":"oak-tree-small","mesh":0},{"rotation":[0,0,-0.19509032201612825,0.9807852804032304],"translation":[0.196508125,2.8200893749999993,0.064845],"name":"oak-tree-small","mesh":1},{"rotation":[0.3775774520872915,-0.2129627913294407,-0.6775042980390059,0.594196973505517],"translation":[-0.0530225,0.3415531250000001,-0.162581875],"name":"oak-tree-small","mesh":2},{"rotation":[-0.47341693560480685,0.040454771997769895,0.004666000456036663,0.8798966103724386],"translation":[-0.0340075,0.4588693749999999,0.007409375000000003],"name":"bone4","children":[2]},{"rotation":[0.043770221243114305,0.9570109184261019,-0.12762448819272995,-0.25676109471472025],"translation":[0.209243125,0,0.281946875],"name":"oak-tree-small","mesh":3},{"rotation":[0,-0.5555702330196022,0,0.8314696123025452],"translation":[-0.090979375,1.4755618749999997,-0.23162999999999997],"name":"bone3","children":[4]},{"rotation":[0.7643584833567358,0.6301311444087863,-0.08614906508289547,0.1061564333990505],"name":"oak-tree-small","mesh":4},{"rotation":[0,0.6087614290087207,0,0.7933533402912352],"translation":[0.35554125,0.856425,-0.14277375],"name":"bone","children":[6]},{"rotation":[0.47139374258909933,-0.16952576023680752,-0.5152917607450047,0.6953584380535605],"translation":[-0.1473875,0.03396124999999994,-0.40557125],"name":"oak-tree-small","mesh":5},{"rotation":[0,0.9659258262890683,0,0.25881904510252074],"translation":[0.056724375,0.9088575000000001,0.08385062500000001],"name":"bone2","children":[8]},{"rotation":[-0.016782307875994135,-0.3582627586328687,0.2443641600463487,0.9009174807960851],"translation":[-0.29543187499999995,0.629450625,-0.045374374999999995],"name":"oak-tree-small","mesh":6},{"translation":[-0.0031631249999999993,1.69281875,0.075915625],"name":"bone6","children":[10]},{"translation":[-0.088861875,-1.814480625,0.031746874999999994],"name":"bone5","children":[1,3,5,7,9,11]},{"translation":[0.078858125,3.17973,-0.09397625],"name":"root","children":[0,12]}],"bufferViews":[{"buffer":0,"byteOffset":0,"byteLength":288,"target":34962,"byteStride":12},{"buffer":0,"byteOffset":288,"byteLength":288,"target":34962,"byteStride":12},{"buffer":0,"byteOffset":576,"byteLength":192,"target":34962,"byteStride":8},{"buffer":0,"byteOffset":768,"byteLength":72,"target":34963},{"buffer":0,"byteOffset":840,"byteLength":1248,"target":34962,"byteStride":12},{"buffer":0,"byteOffset":2088,"byteLength":1248,"target":34962,"byteStride":12},{"buffer":0,"byteOffset":3336,"byteLength":832,"target":34962,"byteStride":8},{"buffer":0,"byteOffset":4168,"byteLength":312,"target":34963},{"buffer":0,"byteOffset":4480,"byteLength":240,"target":34962,"byteStride":12},{"buffer":0,"byteOffset":4720,"byteLength":240,"target":34962,"byteStride":12},{"buffer":0,"byteOffset":4960,"byteLength":160,"target":34962,"byteStride":8},{"buffer":0,"byteOffset":5120,"byteLength":60,"target":34963},{"buffer":0,"byteOffset":5180,"byteLength":240,"target":34962,"byteStride":12},{"buffer":0,"byteOffset":5420,"byteLength":240,"target":34962,"byteStride":12},{"buffer":0,"byteOffset":5660,"byteLength":160,"target":34962,"byteStride":8},{"buffer":0,"byteOffset":5820,"byteLength":60,"target":34963},{"buffer":0,"byteOffset":5880,"byteLength":864,"target":34962,"byteStride":12},{"buffer":0,"byteOffset":6744,"byteLength":864,"target":34962,"byteStride":12},{"buffer":0,"byteOffset":7608,"byteLength":576,"target":34962,"byteStride":8},{"buffer":0,"byteOffset":8184,"byteLength":216,"target":34963},{"buffer":0,"byteOffset":8400,"byteLength":1152,"target":34962,"byteStride":12},{"buffer":0,"byteOffset":9552,"byteLength":1152,"target":34962,"byteStride":12},{"buffer":0,"byteOffset":10704,"byteLength":768,"target":34962,"byteStride":8},{"buffer":0,"byteOffset":11472,"byteLength":288,"target":34963},{"buffer":0,"byteOffset":11760,"byteLength":1872,"target":34962,"byteStride":12},{"buffer":0,"byteOffset":13632,"byteLength":1872,"target":34962,"byteStride":12},{"buffer":0,"byteOffset":15504,"byteLength":1248,"target":34962,"byteStride":8},{"buffer":0,"byteOffset":16752,"byteLength":468,"target":34963},{"buffer":0,"byteOffset":17220,"byteLength":784},{"buffer":0,"byteOffset":18004,"byteLength":3136},{"buffer":0,"byteOffset":21140,"byteLength":784},{"buffer":0,"byteOffset":21924,"byteLength":3136}],"buffers":[{"byteLength":25060,"uri":"data:application/octet-stream;base64,"}],"accessors":[{"bufferView":0,"componentType":5126,"count":24,"max":[0.1875,1.375,0.1875],"min":[-0.0625,0,-0.0625],"type":"VEC3"},{"bufferView":1,"componentType":5126,"count":24,"max":[1,1,1],"min":[-1,-1,-1],"type":"VEC3"},{"bufferView":2,"componentType":5126,"count":24,"max":[0.25,0.40625],"min":[0,0],"type":"VEC2"},{"bufferView":3,"componentType":5123,"count":36,"max":[23],"min":[0],"type":"SCALAR"},{"bufferView":4,"componentType":5126,"count":104,"max":[0.9907290935516357,0.4746289551258087,0.5241835117340088],"min":[-0.5490458607673645,-2.7061727046966553,-0.4048652946949005],"type":"VEC3"},{"bufferView":5,"componentType":5126,"count":104,"max":[1,1,1],"min":[-1,-1,-1],"type":"VEC3"},{"bufferView":6,"componentType":5126,"count":104,"max":[0.59375,0.71875],"min":[0,0.328125],"type":"VEC2"},{"bufferView":7,"componentType":5123,"count":156,"max":[103],"min":[0],"type":"SCALAR"},{"bufferView":8,"componentType":5126,"count":20,"max":[0.26231417059898376,0.27472376823425293,0.5834567546844482],"min":[-0.4281652569770813,-0.25356465578079224,-0.4259229600429535],"type":"VEC3"},{"bufferView":9,"componentType":5126,"count":20,"max":[1,0.7475767731666565,0.17591875791549683],"min":[-0.8614269495010376,-0.9489420652389526,-1],"type":"VEC3"},{"bufferView":10,"componentType":5126,"count":20,"max":[0.78125,0.671875],"min":[0.4375,0.140625],"type":"VEC2"},{"bufferView":11,"componentType":5123,"count":30,"max":[19],"min":[0],"type":"SCALAR"},{"bufferView":12,"componentType":5126,"count":20,"max":[0.33929938077926636,0.0525749996304512,0.4203442335128784],"min":[-0.3822076618671417,-0.6522341966629028,-0.32496652007102966],"type":"VEC3"},{"bufferView":13,"componentType":5126,"count":20,"max":[1,0.4673108458518982,0.5517488718032837],"min":[-0.7039552330970764,-0.8191521763801575,-0.6427878141403198],"type":"VEC3"},{"bufferView":14,"componentType":5126,"count":20,"max":[0.65625,0.671875],"min":[0.4375,0.15625],"type":"VEC2"},{"bufferView":15,"componentType":5123,"count":30,"max":[19],"min":[0],"type":"SCALAR"},{"bufferView":16,"componentType":5126,"count":72,"max":[0.6882297396659851,0.5014367699623108,0.39015379548072815],"min":[-0.1700609028339386,-0.36901190876960754,-0.8161048293113708],"type":"VEC3"},{"bufferView":17,"componentType":5126,"count":72,"max":[0.9349783658981323,0.9590185880661011,0.8372029066085815],"min":[-0.9349783658981323,-0.8792038559913635,-1],"type":"VEC3"},{"bufferView":18,"componentType":5126,"count":72,"max":[0.84375,0.734375],"min":[0.4375,0.140625],"type":"VEC2"},{"bufferView":19,"componentType":5123,"count":108,"max":[71],"min":[0],"type":"SCALAR"},{"bufferView":20,"componentType":5126,"count":96,"max":[0.24031759798526764,0.5255199074745178,0.5156147480010986],"min":[-0.9223716855049133,-0.8462316989898682,-0.3523295521736145],"type":"VEC3"},{"bufferView":21,"componentType":5126,"count":96,"max":[1,0.9659259915351868,0.8191521167755127],"min":[-0.7912401556968689,-0.9659259915351868,-1],"type":"VEC3"},{"bufferView":22,"componentType":5126,"count":96,"max":[0.84375,0.734375],"min":[0.4375,0.140625],"type":"VEC2"},{"bufferView":23,"componentType":5123,"count":144,"max":[95],"min":[0],"type":"SCALAR"},{"bufferView":24,"componentType":5126,"count":156,"max":[1.1883759498596191,1.0130674839019775,0.2917085587978363],"min":[-0.7818864583969116,-1.0706543922424316,-0.7745239734649658],"type":"VEC3"},{"bufferView":25,"componentType":5126,"count":156,"max":[0.987872838973999,0.9681760668754578,0.980109691619873],"min":[-0.9971357583999634,-0.9681760668754578,-1],"type":"VEC3"},{"bufferView":26,"componentType":5126,"count":156,"max":[0.90625,0.515625],"min":[0.046875,0.140625],"type":"VEC2"},{"bufferView":27,"componentType":5123,"count":234,"max":[155],"min":[0],"type":"SCALAR"},{"bufferView":28,"componentType":5126,"count":196,"max":[5.983333110809326],"min":[0],"type":"SCALAR"},{"bufferView":29,"componentType":5126,"count":196,"max":[0.004362644627690315,0.000014654902770416811,0.004363288637250662,1],"min":[-0.004362644627690315,-0.000014654902770416811,-0.004363288637250662,0.9999850988388062],"type":"VEC4"},{"bufferView":30,"componentType":5126,"count":196,"max":[5.983333110809326],"min":[0],"type":"SCALAR"},{"bufferView":31,"componentType":5126,"count":196,"max":[0.010060260072350502,0.9659258127212524,0.00938362255692482,0.25886034965515137],"min":[-0.010061243548989296,0.9658532738685608,-0.00938362255692482,0.25874707102775574],"type":"VEC4"}],"materials":[{"pbrMetallicRoughness":{"metallicFactor":0,"roughnessFactor":1,"baseColorTexture":{"index":0}},"alphaMode":"MASK","alphaCutoff":0.05,"doubleSided":true}],"textures":[{"sampler":0,"source":0,"name":"oak_tree_small"}],"samplers":[{"magFilter":9728,"minFilter":9728,"wrapS":33071,"wrapT":33071}],"images":[{"mimeType":"image/png","uri":"data:image/png;base64,"}],"meshes":[{"primitives":[{"mode":4,"attributes":{"POSITION":0,"NORMAL":1,"TEXCOORD_0":2},"indices":3,"material":0}]},{"primitives":[{"mode":4,"attributes":{"POSITION":4,"NORMAL":5,"TEXCOORD_0":6},"indices":7,"material":0}]},{"primitives":[{"mode":4,"attributes":{"POSITION":8,"NORMAL":9,"TEXCOORD_0":10},"indices":11,"material":0}]},{"primitives":[{"mode":4,"attributes":{"POSITION":12,"NORMAL":13,"TEXCOORD_0":14},"indices":15,"material":0}]},{"primitives":[{"mode":4,"attributes":{"POSITION":16,"NORMAL":17,"TEXCOORD_0":18},"indices":19,"material":0}]},{"primitives":[{"mode":4,"attributes":{"POSITION":20,"NORMAL":21,"TEXCOORD_0":22},"indices":23,"material":0}]},{"primitives":[{"mode":4,"attributes":{"POSITION":24,"NORMAL":25,"TEXCOORD_0":26},"indices":27,"material":0}]}],"animations":[{"name":"idle","samplers":[{"input":28,"output":29,"interpolation":"LINEAR"},{"input":30,"output":31,"interpolation":"LINEAR"}],"channels":[{"sampler":0,"target":{"node":12,"path":"rotation"}},{"sampler":1,"target":{"node":9,"path":"rotation"}}]}]}