{"asset":{"version":"2.0","generator":"Blockbench 5.0.3 glTF exporter"},"scenes":[{"nodes":[14],"name":"blockbench_export"}],"scene":0,"nodes":[{"rotation":[0.19509032201612825,0,0,0.9807852804032304],"translation":[0,0,-0.0625],"name":"wild-grass-clump","mesh":0},{"translation":[0,-0.337555,0],"name":"bone","children":[0]},{"rotation":[-0.19509032201612825,0,0,0.9807852804032304],"translation":[0,0.33123375,-0.24812625],"name":"wild-grass-clump","mesh":1},{"translation":[0,-0.337555,0],"name":"bone2","children":[2]},{"translation":[0,0.42498375,-0.16022375],"name":"wild-grass-clump","mesh":2},{"translation":[0,-0.337555,0],"name":"bone3","children":[4]},{"rotation":[0.21643961393810288,0,0,0.9762960071199334],"translation":[0,0.592700625,0.18682375],"name":"wild-grass-clump","mesh":3},{"translation":[0,-0.337555,0.21875],"name":"bone5","children":[6]},{"rotation":[-0.21643961393810288,0,0,0.9762960071199334],"translation":[0,0.33123375,0.03312375000000001],"name":"wild-grass-clump","mesh":4},{"translation":[0,-0.337555,-0.21875],"name":"bone7","children":[8]},{"rotation":[0.15304591873303092,-0.6903455270798549,0.15304591873303092,0.6903455270798549],"translation":[-0.15560625,0.47823,-0.00187375],"name":"wild-grass-clump","mesh":5},{"translation":[-0.1875,-0.33757125,0.00187375],"name":"bone9","children":[10]},{"rotation":[-0.07698050545441143,-0.7029039776384705,-0.07698050545441143,0.7029039776384705],"translation":[0.003124999999999989,-0.005855625,0],"name":"wild-grass-clump","mesh":6},{"translation":[0.2,-0.337555,0],"name":"bone10","children":[12]},{"translation":[0,0.337555,0],"name":"root","children":[1,3,5,7,9,11,13]}],"bufferViews":[{"buffer":0,"byteOffset":0,"byteLength":96,"target":34962,"byteStride":12},{"buffer":0,"byteOffset":96,"byteLength":96,"target":34962,"byteStride":12},{"buffer":0,"byteOffset":192,"byteLength":64,"target":34962,"byteStride":8},{"buffer":0,"byteOffset":256,"byteLength":24,"target":34963},{"buffer":0,"byteOffset":280,"byteLength":96,"target":34962,"byteStride":12},{"buffer":0,"byteOffset":376,"byteLength":96,"target":34962,"byteStride":12},{"buffer":0,"byteOffset":472,"byteLength":64,"target":34962,"byteStride":8},{"buffer":0,"byteOffset":536,"byteLength":24,"target":34963},{"buffer":0,"byteOffset":560,"byteLength":96,"target":34962,"byteStride":12},{"buffer":0,"byteOffset":656,"byteLength":96,"target":34962,"byteStride":12},{"buffer":0,"byteOffset":752,"byteLength":64,"target":34962,"byteStride":8},{"buffer":0,"byteOffset":816,"byteLength":24,"target":34963},{"buffer":0,"byteOffset":840,"byteLength":192,"target":34962,"byteStride":12},{"buffer":0,"byteOffset":1032,"byteLength":192,"target":34962,"byteStride":12},{"buffer":0,"byteOffset":1224,"byteLength":128,"target":34962,"byteStride":8},{"buffer":0,"byteOffset":1352,"byteLength":48,"target":34963},{"buffer":0,"byteOffset":1400,"byteLength":192,"target":34962,"byteStride":12},{"buffer":0,"byteOffset":1592,"byteLength":192,"target":34962,"byteStride":12},{"buffer":0,"byteOffset":1784,"byteLength":128,"target":34962,"byteStride":8},{"buffer":0,"byteOffset":1912,"byteLength":48,"target":34963},{"buffer":0,"byteOffset":1960,"byteLength":192,"target":34962,"byteStride":12},{"buffer":0,"byteOffset":2152,"byteLength":192,"target":34962,"byteStride":12},{"buffer":0,"byteOffset":2344,"byteLength":128,"target":34962,"byteStride":8},{"buffer":0,"byteOffset":2472,"byteLength":48,"target":34963},{"buffer":0,"byteOffset":2520,"byteLength":192,"target":34962,"byteStride":12},{"buffer":0,"byteOffset":2712,"byteLength":192,"target":34962,"byteStride":12},{"buffer":0,"byteOffset":2904,"byteLength":128,"target":34962,"byteStride":8},{"buffer":0,"byteOffset":3032,"byteLength":48,"target":34963},{"buffer":0,"byteOffset":3080,"byteLength":784},{"buffer":0,"byteOffset":3864,"byteLength":3136},{"buffer":0,"byteOffset":7000,"byteLength":784},{"buffer":0,"byteOffset":7784,"byteLength":3136},{"buffer":0,"byteOffset":10920,"byteLength":784},{"buffer":0,"byteOffset":11704,"byteLength":3136},{"buffer":0,"byteOffset":14840,"byteLength":784},{"buffer":0,"byteOffset":15624,"byteLength":3136},{"buffer":0,"byteOffset":18760,"byteLength":784},{"buffer":0,"byteOffset":19544,"byteLength":3136},{"buffer":0,"byteOffset":22680,"byteLength":784},{"buffer":0,"byteOffset":23464,"byteLength":3136},{"buffer":0,"byteOffset":26600,"byteLength":784},{"buffer":0,"byteOffset":27384,"byteLength":3136}],"buffers":[{"byteLength":30520,"uri":"data:application/octet-stream;base64,"}],"accessors":[{"bufferView":0,"componentType":5126,"count":8,"max":[0.25,0.75,0],"min":[-0.25,0,0],"type":"VEC3"},{"bufferView":1,"componentType":5126,"count":8,"max":[0,0,1],"min":[0,0,-1],"type":"VEC3"},{"bufferView":2,"componentType":5126,"count":8,"max":[0.5,0.375],"min":[0,0],"type":"VEC2"},{"bufferView":3,"componentType":5123,"count":12,"max":[7],"min":[0],"type":"SCALAR"},{"bufferView":4,"componentType":5126,"count":8,"max":[0.25,0.3251081109046936,0.16022375226020813],"min":[-0.25,-0.4248918890953064,0.16022375226020813],"type":"VEC3"},{"bufferView":5,"componentType":5126,"count":8,"max":[0,0,1],"min":[0,0,-1],"type":"VEC3"},{"bufferView":6,"componentType":5126,"count":8,"max":[0.5,0.375],"min":[0,0],"type":"VEC2"},{"bufferView":7,"componentType":5123,"count":12,"max":[7],"min":[0],"type":"SCALAR"},{"bufferView":8,"componentType":5126,"count":8,"max":[0.25,0.3251081109046936,0.16022375226020813],"min":[-0.25,-0.4248918890953064,0.16022375226020813],"type":"VEC3"},{"bufferView":9,"componentType":5126,"count":8,"max":[0,0,1],"min":[0,0,-1],"type":"VEC3"},{"bufferView":10,"componentType":5126,"count":8,"max":[0.5,0.375],"min":[0,0],"type":"VEC2"},{"bufferView":11,"componentType":5123,"count":12,"max":[7],"min":[0],"type":"SCALAR"},{"bufferView":12,"componentType":5126,"count":16,"max":[0.25,0,0.08116628974676132],"min":[-0.25,-0.6161243319511414,0],"type":"VEC3"},{"bufferView":13,"componentType":5126,"count":16,"max":[0,0.2164396196603775,1],"min":[0,-0.2164396196603775,-1],"type":"VEC3"},{"bufferView":14,"componentType":5126,"count":16,"max":[1,0.5625],"min":[0,0.125],"type":"VEC2"},{"bufferView":15,"componentType":5123,"count":24,"max":[15],"min":[0],"type":"SCALAR"},{"bufferView":16,"componentType":5126,"count":16,"max":[0.25,0.32992374897003174,-0.08883937448263168],"min":[-0.25,-0.28620126843452454,-0.17000572383403778],"type":"VEC3"},{"bufferView":17,"componentType":5126,"count":16,"max":[0,0.2164396196603775,1],"min":[0,-0.2164396196603775,-1],"type":"VEC3"},{"bufferView":18,"componentType":5126,"count":16,"max":[1,0.5625],"min":[0,0.125],"type":"VEC2"},{"bufferView":19,"componentType":5123,"count":24,"max":[15],"min":[0],"type":"SCALAR"},{"bufferView":20,"componentType":5126,"count":16,"max":[0.25,0.125,0.08116468042135239],"min":[-0.25,-0.4911108911037445,-1.719664339816518e-7],"type":"VEC3"},{"bufferView":21,"componentType":5126,"count":16,"max":[3.700743525707937e-17,0.2164396196603775,1],"min":[-3.700743525707937e-17,-0.2164396196603775,-1],"type":"VEC3"},{"bufferView":22,"componentType":5126,"count":16,"max":[1,0.5625],"min":[0,0.125],"type":"VEC2"},{"bufferView":23,"componentType":5123,"count":24,"max":[15],"min":[0],"type":"SCALAR"},{"bufferView":24,"componentType":5126,"count":16,"max":[0.25,0.6249294877052307,-0.0048362500965595245],"min":[-0.25,0.005855625029653311,-0.05894630029797554],"type":"VEC3"},{"bufferView":25,"componentType":5126,"count":16,"max":[0,0.2164396196603775,1],"min":[0,-0.2164396196603775,-1],"type":"VEC3"},{"bufferView":26,"componentType":5126,"count":16,"max":[1,0.5625],"min":[0,0.125],"type":"VEC2"},{"bufferView":27,"componentType":5123,"count":24,"max":[15],"min":[0],"type":"SCALAR"},{"bufferView":28,"componentType":5126,"count":196,"max":[5.983333110809326],"min":[0],"type":"SCALAR"},{"bufferView":29,"componentType":5126,"count":196,"max":[0.00872520636767149,0.000058618745242711157,0.008726369589567184,1],"min":[-0.00872520636767149,-0.000058618745242711157,-0.008726369589567184,0.9999405145645142],"type":"VEC4"},{"bufferView":30,"componentType":5126,"count":196,"max":[5.983333110809326],"min":[0],"type":"SCALAR"},{"bufferView":31,"componentType":5126,"count":196,"max":[0.00872520636767149,0.000058618745242711157,0.008726369589567184,1],"min":[-0.00872520636767149,-0.000058618745242711157,-0.008726369589567184,0.9999405145645142],"type":"VEC4"},{"bufferView":32,"componentType":5126,"count":196,"max":[5.983333110809326],"min":[0],"type":"SCALAR"},{"bufferView":33,"componentType":5126,"count":196,"max":[0.00872520636767149,0.000058618745242711157,0.008726369589567184,1],"min":[-0.00872520636767149,-0.000058618745242711157,-0.008726369589567184,0.9999405145645142],"type":"VEC4"},{"bufferView":34,"componentType":5126,"count":196,"max":[5.983333110809326],"min":[0],"type":"SCALAR"},{"bufferView":35,"componentType":5126,"count":196,"max":[0.00872520636767149,0.000058618745242711157,0.008726369589567184,1],"min":[-0.00872520636767149,-0.000058618745242711157,-0.008726369589567184,0.9999405145645142],"type":"VEC4"},{"bufferView":36,"componentType":5126,"count":196,"max":[5.983333110809326],"min":[0],"type":"SCALAR"},{"bufferView":37,"componentType":5126,"count":196,"max":[0.00872520636767149,0.000058618745242711157,0.008726369589567184,1],"min":[-0.00872520636767149,-0.000058618745242711157,-0.008726369589567184,0.9999405145645142],"type":"VEC4"},{"bufferView":38,"componentType":5126,"count":196,"max":[5.983333110809326],"min":[0],"type":"SCALAR"},{"bufferView":39,"componentType":5126,"count":196,"max":[0.00872520636767149,0.000058618745242711157,0.008726369589567184,1],"min":[-0.00872520636767149,-0.000058618745242711157,-0.008726369589567184,0.9999405145645142],"type":"VEC4"},{"bufferView":40,"componentType":5126,"count":196,"max":[5.983333110809326],"min":[0],"type":"SCALAR"},{"bufferView":41,"componentType":5126,"count":196,"max":[0.00872520636767149,0.000058618745242711157,0.008726369589567184,1],"min":[-0.00872520636767149,-0.000058618745242711157,-0.008726369589567184,0.9999405145645142],"type":"VEC4"}],"materials":[{"pbrMetallicRoughness":{"metallicFactor":0,"roughnessFactor":1,"baseColorTexture":{"index":0}},"alphaMode":"MASK","alphaCutoff":0.05,"doubleSided":true}],"textures":[{"sampler":0,"source":0,"name":"wild_grass_clump"}],"samplers":[{"magFilter":9728,"minFilter":9728,"wrapS":33071,"wrapT":33071}],"images":[{"mimeType":"image/png","uri":"data:image/png;base64,"}],"meshes":[{"primitives":[{"mode":4,"attributes":{"POSITION":0,"NORMAL":1,"TEXCOORD_0":2},"indices":3,"material":0}]},{"primitives":[{"mode":4,"attributes":{"POSITION":4,"NORMAL":5,"TEXCOORD_0":6},"indices":7,"material":0}]},{"primitives":[{"mode":4,"attributes":{"POSITION":8,"NORMAL":9,"TEXCOORD_0":10},"indices":11,"material":0}]},{"primitives":[{"mode":4,"attributes":{"POSITION":12,"NORMAL":13,"TEXCOORD_0":14},"indices":15,"material":0}]},{"primitives":[{"mode":4,"attributes":{"POSITION":16,"NORMAL":17,"TEXCOORD_0":18},"indices":19,"material":0}]},{"primitives":[{"mode":4,"attributes":{"POSITION":20,"NORMAL":21,"TEXCOORD_0":22},"indices":23,"material":0}]},{"primitives":[{"mode":4,"attributes":{"POSITION":24,"NORMAL":25,"TEXCOORD_0":26},"indices":27,"material":0}]}],"animations":[{"name":"idle","samplers":[{"input":28,"output":29,"interpolation":"LINEAR"},{"input":30,"output":31,"interpolation":"LINEAR"},{"input":32,"output":33,"interpolation":"LINEAR"},{"input":34,"output":35,"interpolation":"LINEAR"},{"input":36,"output":37,"interpolation":"LINEAR"},{"input":38,"output":39,"interpolation":"LINEAR"},{"input":40,"output":41,"interpolation":"LINEAR"}],"channels":[{"sampler":0,"target":{"node":3,"path":"rotation"}},{"sampler":1,"target":{"node":5,"path":"rotation"}},{"sampler":2,"target":{"node":7,"path":"rotation"}},{"sampler":3,"target":{"node":9,"path":"rotation"}},{"sampler":4,"target":{"node":11,"path":"rotation"}},{"sampler":5,"target":{"node":1,"path":"rotation"}},{"sampler":6,"target":{"node":13,"path":"rotation"}}]}]}