{"asset":{"version":"2.0","generator":"Blockbench 5.0.3 glTF exporter"},"scenes":[{"nodes":[15],"name":"blockbench_export"}],"scene":0,"nodes":[{"translation":[0.4375,-0.03125,0],"name":"cube","mesh":0},{"rotation":[0,0,0.3826834323650898,0.9238795325112867],"translation":[0,0.296875,0],"name":"cube","mesh":1},{"translation":[0.4375,-0.03125,0],"name":"cube","mesh":2},{"translation":[0.4375,0.21874999999999997,0],"name":"cube","mesh":3},{"translation":[0,-0.09375,0],"name":"cube","mesh":4},{"translation":[0.4375,-0.03125,0],"name":"cube","mesh":5},{"translation":[0.4375,-0.03125,0],"name":"cube","mesh":6},{"rotation":[0,0,0.3826834323650898,0.9238795325112867],"translation":[0,0.359375,0],"name":"cube","mesh":7},{"rotation":[0,0,0.3826834323650898,0.9238795325112867],"translation":[0,0.296875,0],"name":"cube","mesh":8},{"rotation":[0,0,0.3826834323650898,0.9238795325112867],"translation":[0,0.296875,0],"name":"cube","mesh":9},{"rotation":[0,0,0.3826834323650898,0.9238795325112867],"translation":[0,0.296875,0],"name":"cube","mesh":10},{"rotation":[0,0,0.3826834323650898,0.9238795325112867],"translation":[-0.0258884375,-0.125,0],"name":"cube","mesh":11},{"rotation":[0,0,-0.3826834323650898,0.9238795325112867],"translation":[0,0.296875,0],"name":"cube","mesh":12},{"rotation":[0,0,-0.3826834323650898,0.9238795325112867],"translation":[0,0.296875,0],"name":"cube","mesh":13},{"rotation":[0,0,-0.3826834323650898,0.9238795325112867],"translation":[0,0.296875,0],"name":"cube","mesh":14},{"translation":[0,0.18984375,0],"name":"ruby-sword","children":[0,1,2,3,4,5,6,7,8,9,10,11,12,13,14]}],"bufferViews":[{"buffer":0,"byteOffset":0,"byteLength":288,"target":34962,"byteStride":12},{"buffer":0,"byteOffset":288,"byteLength":288,"target":34962,"byteStride":12},{"buffer":0,"byteOffset":576,"byteLength":192,"target":34962,"byteStride":8},{"buffer":0,"byteOffset":768,"byteLength":72,"target":34963},{"buffer":0,"byteOffset":840,"byteLength":288,"target":34962,"byteStride":12},{"buffer":0,"byteOffset":1128,"byteLength":288,"target":34962,"byteStride":12},{"buffer":0,"byteOffset":1416,"byteLength":192,"target":34962,"byteStride":8},{"buffer":0,"byteOffset":1608,"byteLength":72,"target":34963},{"buffer":0,"byteOffset":1680,"byteLength":288,"target":34962,"byteStride":12},{"buffer":0,"byteOffset":1968,"byteLength":288,"target":34962,"byteStride":12},{"buffer":0,"byteOffset":2256,"byteLength":192,"target":34962,"byteStride":8},{"buffer":0,"byteOffset":2448,"byteLength":72,"target":34963},{"buffer":0,"byteOffset":2520,"byteLength":288,"target":34962,"byteStride":12},{"buffer":0,"byteOffset":2808,"byteLength":288,"target":34962,"byteStride":12},{"buffer":0,"byteOffset":3096,"byteLength":192,"target":34962,"byteStride":8},{"buffer":0,"byteOffset":3288,"byteLength":72,"target":34963},{"buffer":0,"byteOffset":3360,"byteLength":288,"target":34962,"byteStride":12},{"buffer":0,"byteOffset":3648,"byteLength":288,"target":34962,"byteStride":12},{"buffer":0,"byteOffset":3936,"byteLength":192,"target":34962,"byteStride":8},{"buffer":0,"byteOffset":4128,"byteLength":72,"target":34963},{"buffer":0,"byteOffset":4200,"byteLength":288,"target":34962,"byteStride":12},{"buffer":0,"byteOffset":4488,"byteLength":288,"target":34962,"byteStride":12},{"buffer":0,"byteOffset":4776,"byteLength":192,"target":34962,"byteStride":8},{"buffer":0,"byteOffset":4968,"byteLength":72,"target":34963},{"buffer":0,"byteOffset":5040,"byteLength":240,"target":34962,"byteStride":12},{"buffer":0,"byteOffset":5280,"byteLength":240,"target":34962,"byteStride":12},{"buffer":0,"byteOffset":5520,"byteLength":160,"target":34962,"byteStride":8},{"buffer":0,"byteOffset":5680,"byteLength":60,"target":34963},{"buffer":0,"byteOffset":5740,"byteLength":288,"target":34962,"byteStride":12},{"buffer":0,"byteOffset":6028,"byteLength":288,"target":34962,"byteStride":12},{"buffer":0,"byteOffset":6316,"byteLength":192,"target":34962,"byteStride":8},{"buffer":0,"byteOffset":6508,"byteLength":72,"target":34963},{"buffer":0,"byteOffset":6580,"byteLength":288,"target":34962,"byteStride":12},{"buffer":0,"byteOffset":6868,"byteLength":288,"target":34962,"byteStride":12},{"buffer":0,"byteOffset":7156,"byteLength":192,"target":34962,"byteStride":8},{"buffer":0,"byteOffset":7348,"byteLength":72,"target":34963},{"buffer":0,"byteOffset":7420,"byteLength":288,"target":34962,"byteStride":12},{"buffer":0,"byteOffset":7708,"byteLength":288,"target":34962,"byteStride":12},{"buffer":0,"byteOffset":7996,"byteLength":192,"target":34962,"byteStride":8},{"buffer":0,"byteOffset":8188,"byteLength":72,"target":34963},{"buffer":0,"byteOffset":8260,"byteLength":288,"target":34962,"byteStride":12},{"buffer":0,"byteOffset":8548,"byteLength":288,"target":34962,"byteStride":12},{"buffer":0,"byteOffset":8836,"byteLength":192,"target":34962,"byteStride":8},{"buffer":0,"byteOffset":9028,"byteLength":72,"target":34963},{"buffer":0,"byteOffset":9100,"byteLength":288,"target":34962,"byteStride":12},{"buffer":0,"byteOffset":9388,"byteLength":288,"target":34962,"byteStride":12},{"buffer":0,"byteOffset":9676,"byteLength":192,"target":34962,"byteStride":8},{"buffer":0,"byteOffset":9868,"byteLength":72,"target":34963},{"buffer":0,"byteOffset":9940,"byteLength":288,"target":34962,"byteStride":12},{"buffer":0,"byteOffset":10228,"byteLength":288,"target":34962,"byteStride":12},{"buffer":0,"byteOffset":10516,"byteLength":192,"target":34962,"byteStride":8},{"buffer":0,"byteOffset":10708,"byteLength":72,"target":34963},{"buffer":0,"byteOffset":10780,"byteLength":288,"target":34962,"byteStride":12},{"buffer":0,"byteOffset":11068,"byteLength":288,"target":34962,"byteStride":12},{"buffer":0,"byteOffset":11356,"byteLength":192,"target":34962,"byteStride":8},{"buffer":0,"byteOffset":11548,"byteLength":72,"target":34963},{"buffer":0,"byteOffset":11620,"byteLength":288,"target":34962,"byteStride":12},{"buffer":0,"byteOffset":11908,"byteLength":288,"target":34962,"byteStride":12},{"buffer":0,"byteOffset":12196,"byteLength":192,"target":34962,"byteStride":8},{"buffer":0,"byteOffset":12388,"byteLength":72,"target":34963}],"buffers":[{"byteLength":12460,"uri":"data:application/octet-stream;base64,"}],"accessors":[{"bufferView":0,"componentType":5126,"count":24,"max":[-0.40625,0.1875,0.03125],"min":[-0.46875,-0.03125,-0.03125],"type":"VEC3"},{"bufferView":1,"componentType":5126,"count":24,"max":[1,1,1],"min":[-1,-1,-1],"type":"VEC3"},{"bufferView":2,"componentType":5126,"count":24,"max":[0.609375,0.609375],"min":[0.1875,0],"type":"VEC2"},{"bufferView":3,"componentType":5123,"count":36,"max":[23],"min":[0],"type":"SCALAR"},{"bufferView":4,"componentType":5126,"count":24,"max":[0.078125,0.078125,0.03125],"min":[-0.078125,-0.078125,-0.03125],"type":"VEC3"},{"bufferView":5,"componentType":5126,"count":24,"max":[1,1,1],"min":[-1,-1,-1],"type":"VEC3"},{"bufferView":6,"componentType":5126,"count":24,"max":[0.5,0.46875],"min":[0.09375,0.0625],"type":"VEC2"},{"bufferView":7,"componentType":5123,"count":36,"max":[23],"min":[0],"type":"SCALAR"},{"bufferView":8,"componentType":5126,"count":24,"max":[-0.359375,0.84375,0.015625],"min":[-0.515625,0.34375,-0.015625],"type":"VEC3"},{"bufferView":9,"componentType":5126,"count":24,"max":[1,1,1],"min":[-1,-1,-1],"type":"VEC3"},{"bufferView":10,"componentType":5126,"count":24,"max":[0.625,0.609375],"min":[0,0],"type":"VEC2"},{"bufferView":11,"componentType":5123,"count":36,"max":[23],"min":[0],"type":"SCALAR"},{"bufferView":12,"componentType":5126,"count":24,"max":[-0.375,0,0.0625],"min":[-0.5,-0.0625,-0.0625],"type":"VEC3"},{"bufferView":13,"componentType":5126,"count":24,"max":[1,1,1],"min":[-1,-1,-1],"type":"VEC3"},{"bufferView":14,"componentType":5126,"count":24,"max":[0.578125,0.546875],"min":[0.125,0],"type":"VEC2"},{"bufferView":15,"componentType":5123,"count":36,"max":[23],"min":[0],"type":"SCALAR"},{"bufferView":16,"componentType":5126,"count":24,"max":[0.0625,0.03125,0.046875],"min":[-0.0625,-0.03125,-0.046875],"type":"VEC3"},{"bufferView":17,"componentType":5126,"count":24,"max":[1,1,1],"min":[-1,-1,-1],"type":"VEC3"},{"bufferView":18,"componentType":5126,"count":24,"max":[0.578125,0.546875],"min":[0,0],"type":"VEC2"},{"bufferView":19,"componentType":5123,"count":36,"max":[23],"min":[0],"type":"SCALAR"},{"bufferView":20,"componentType":5126,"count":24,"max":[-0.3984375,0.15625,0.0390625],"min":[-0.4765625,-2.7755575615628914e-17,-0.0390625],"type":"VEC3"},{"bufferView":21,"componentType":5126,"count":24,"max":[1,1,1],"min":[-1,-1,-1],"type":"VEC3"},{"bufferView":22,"componentType":5126,"count":24,"max":[0.515625,0.5],"min":[0.09375,0],"type":"VEC2"},{"bufferView":23,"componentType":5123,"count":36,"max":[23],"min":[0],"type":"SCALAR"},{"bufferView":24,"componentType":5126,"count":20,"max":[-0.296875,1.03125,0],"min":[-0.578125,0.75,0],"type":"VEC3"},{"bufferView":25,"componentType":5126,"count":20,"max":[1,0,0],"min":[0,0,-1],"type":"VEC3"},{"bufferView":26,"componentType":5126,"count":20,"max":[0.140625,0.140625],"min":[0,0],"type":"VEC2"},{"bufferView":27,"componentType":5123,"count":30,"max":[19],"min":[0],"type":"SCALAR"},{"bufferView":28,"componentType":5126,"count":24,"max":[0.10953125357627869,0.10953125357627869,0.015781249850988388],"min":[-0.07828125357627869,-0.07828125357627869,-0.015781249850988388],"type":"VEC3"},{"bufferView":29,"componentType":5126,"count":24,"max":[1,1,1],"min":[-1,-1,-1],"type":"VEC3"},{"bufferView":30,"componentType":5126,"count":24,"max":[0.625,0.640625],"min":[0,0],"type":"VEC2"},{"bufferView":31,"componentType":5123,"count":36,"max":[23],"min":[0],"type":"SCALAR"},{"bufferView":32,"componentType":5126,"count":24,"max":[-0.078125,0.046875,0.03125],"min":[-0.171875,-0.015625,-0.03125],"type":"VEC3"},{"bufferView":33,"componentType":5126,"count":24,"max":[1,1,1],"min":[-1,-1,-1],"type":"VEC3"},{"bufferView":34,"componentType":5126,"count":24,"max":[0.578125,0.609375],"min":[0.34375,0.21875],"type":"VEC2"},{"bufferView":35,"componentType":5123,"count":36,"max":[23],"min":[0],"type":"SCALAR"},{"bufferView":36,"componentType":5126,"count":24,"max":[-0.140625,0.203125,0.03125],"min":[-0.171875,0.046875,-0.03125],"type":"VEC3"},{"bufferView":37,"componentType":5126,"count":24,"max":[1,1,1],"min":[-1,-1,-1],"type":"VEC3"},{"bufferView":38,"componentType":5126,"count":24,"max":[0.453125,0.625],"min":[0.03125,0.25],"type":"VEC2"},{"bufferView":39,"componentType":5123,"count":36,"max":[23],"min":[0],"type":"SCALAR"},{"bufferView":40,"componentType":5126,"count":24,"max":[-0.078125,0.203125,0.03125],"min":[-0.140625,0.171875,-0.03125],"type":"VEC3"},{"bufferView":41,"componentType":5126,"count":24,"max":[1,1,1],"min":[-1,-1,-1],"type":"VEC3"},{"bufferView":42,"componentType":5126,"count":24,"max":[0.625,0.609375],"min":[0.15625,0.125],"type":"VEC2"},{"bufferView":43,"componentType":5123,"count":36,"max":[23],"min":[0],"type":"SCALAR"},{"bufferView":44,"componentType":5126,"count":24,"max":[0.0625,0.025888437405228615,0.04609375074505806],"min":[-0.025888124480843544,-0.0625,-0.04609375074505806],"type":"VEC3"},{"bufferView":45,"componentType":5126,"count":24,"max":[1,1,1],"min":[-1,-1,-1],"type":"VEC3"},{"bufferView":46,"componentType":5126,"count":24,"max":[0.53125,0.53125],"min":[0,0.25],"type":"VEC2"},{"bufferView":47,"componentType":5123,"count":36,"max":[23],"min":[0],"type":"SCALAR"},{"bufferView":48,"componentType":5126,"count":24,"max":[0.140625,0.203125,0.03125],"min":[0.078125,0.171875,-0.03125],"type":"VEC3"},{"bufferView":49,"componentType":5126,"count":24,"max":[1,1,1],"min":[-1,-1,-1],"type":"VEC3"},{"bufferView":50,"componentType":5126,"count":24,"max":[0.625,0.609375],"min":[0.15625,0.125],"type":"VEC2"},{"bufferView":51,"componentType":5123,"count":36,"max":[23],"min":[0],"type":"SCALAR"},{"bufferView":52,"componentType":5126,"count":24,"max":[0.171875,0.203125,0.03125],"min":[0.140625,0.046875,-0.03125],"type":"VEC3"},{"bufferView":53,"componentType":5126,"count":24,"max":[1,1,1],"min":[-1,-1,-1],"type":"VEC3"},{"bufferView":54,"componentType":5126,"count":24,"max":[0.453125,0.625],"min":[0.03125,0.25],"type":"VEC2"},{"bufferView":55,"componentType":5123,"count":36,"max":[23],"min":[0],"type":"SCALAR"},{"bufferView":56,"componentType":5126,"count":24,"max":[0.171875,0.046875,0.03125],"min":[0.078125,-0.015625,-0.03125],"type":"VEC3"},{"bufferView":57,"componentType":5126,"count":24,"max":[1,1,1],"min":[-1,-1,-1],"type":"VEC3"},{"bufferView":58,"componentType":5126,"count":24,"max":[0.578125,0.609375],"min":[0.34375,0.21875],"type":"VEC2"},{"bufferView":59,"componentType":5123,"count":36,"max":[23],"min":[0],"type":"SCALAR"}],"materials":[{"pbrMetallicRoughness":{"metallicFactor":0,"roughnessFactor":1,"baseColorTexture":{"index":0}},"alphaMode":"MASK","alphaCutoff":0.05,"doubleSided":true}],"textures":[{"sampler":0,"source":0,"name":"roby-sword"}],"samplers":[{"magFilter":9728,"minFilter":9728,"wrapS":33071,"wrapT":33071}],"images":[{"mimeType":"image/png","uri":"data:image/png;base64,"}],"meshes":[{"primitives":[{"mode":4,"attributes":{"POSITION":0,"NORMAL":1,"TEXCOORD_0":2},"indices":3,"material":0}]},{"primitives":[{"mode":4,"attributes":{"POSITION":4,"NORMAL":5,"TEXCOORD_0":6},"indices":7,"material":0}]},{"primitives":[{"mode":4,"attributes":{"POSITION":8,"NORMAL":9,"TEXCOORD_0":10},"indices":11,"material":0}]},{"primitives":[{"mode":4,"attributes":{"POSITION":12,"NORMAL":13,"TEXCOORD_0":14},"indices":15,"material":0}]},{"primitives":[{"mode":4,"attributes":{"POSITION":16,"NORMAL":17,"TEXCOORD_0":18},"indices":19,"material":0}]},{"primitives":[{"mode":4,"attributes":{"POSITION":20,"NORMAL":21,"TEXCOORD_0":22},"indices":23,"material":0}]},{"primitives":[{"mode":4,"attributes":{"POSITION":24,"NORMAL":25,"TEXCOORD_0":26},"indices":27,"material":0}]},{"primitives":[{"mode":4,"attributes":{"POSITION":28,"NORMAL":29,"TEXCOORD_0":30},"indices":31,"material":0}]},{"primitives":[{"mode":4,"attributes":{"POSITION":32,"NORMAL":33,"TEXCOORD_0":34},"indices":35,"material":0}]},{"primitives":[{"mode":4,"attributes":{"POSITION":36,"NORMAL":37,"TEXCOORD_0":38},"indices":39,"material":0}]},{"primitives":[{"mode":4,"attributes":{"POSITION":40,"NORMAL":41,"TEXCOORD_0":42},"indices":43,"material":0}]},{"primitives":[{"mode":4,"attributes":{"POSITION":44,"NORMAL":45,"TEXCOORD_0":46},"indices":47,"material":0}]},{"primitives":[{"mode":4,"attributes":{"POSITION":48,"NORMAL":49,"TEXCOORD_0":50},"indices":51,"material":0}]},{"primitives":[{"mode":4,"attributes":{"POSITION":52,"NORMAL":53,"TEXCOORD_0":54},"indices":55,"material":0}]},{"primitives":[{"mode":4,"attributes":{"POSITION":56,"NORMAL":57,"TEXCOORD_0":58},"indices":59,"material":0}]}]}