{"asset":{"version":"2.0","generator":"Blockbench 4.12.6 glTF exporter"},"scenes":[{"nodes":[6],"name":"blockbench_export"}],"scene":0,"nodes":[{"rotation":[0.19134171618254486,0.03806023374435662,0.19134171618254486,0.9619397662556434],"translation":[0.40625,0.5,0.34375],"name":"cube","mesh":0},{"rotation":[0.1934212966777733,-0.02546437463784228,-0.253845904241221,0.9473658345727639],"translation":[-0.28618875,0.463213125,0.43512125],"name":"cube","mesh":1},{"name":"bone","children":[0,1]},{"rotation":[0.19509032201612825,0,0,0.9807852804032304],"translation":[0,0.46875,0.3125],"name":"cube","mesh":2},{"rotation":[-0.19509032201612825,0,0,0.9807852804032304],"translation":[0,1.334886875,0.121158125],"name":"cube","mesh":3},{"name":"bone","children":[2,3,4]},{"children":[5]}],"bufferViews":[{"buffer":0,"byteOffset":0,"byteLength":288,"target":34962,"byteStride":12},{"buffer":0,"byteOffset":288,"byteLength":288,"target":34962,"byteStride":12},{"buffer":0,"byteOffset":576,"byteLength":192,"target":34962,"byteStride":8},{"buffer":0,"byteOffset":768,"byteLength":72,"target":34963},{"buffer":0,"byteOffset":840,"byteLength":288,"target":34962,"byteStride":12},{"buffer":0,"byteOffset":1128,"byteLength":288,"target":34962,"byteStride":12},{"buffer":0,"byteOffset":1416,"byteLength":192,"target":34962,"byteStride":8},{"buffer":0,"byteOffset":1608,"byteLength":72,"target":34963},{"buffer":0,"byteOffset":1680,"byteLength":240,"target":34962,"byteStride":12},{"buffer":0,"byteOffset":1920,"byteLength":240,"target":34962,"byteStride":12},{"buffer":0,"byteOffset":2160,"byteLength":160,"target":34962,"byteStride":8},{"buffer":0,"byteOffset":2320,"byteLength":60,"target":34963},{"buffer":0,"byteOffset":2380,"byteLength":240,"target":34962,"byteStride":12},{"buffer":0,"byteOffset":2620,"byteLength":240,"target":34962,"byteStride":12},{"buffer":0,"byteOffset":2860,"byteLength":160,"target":34962,"byteStride":8},{"buffer":0,"byteOffset":3020,"byteLength":60,"target":34963}],"buffers":[{"byteLength":3080,"uri":"data:application/octet-stream;base64,"}],"accessors":[{"bufferView":0,"componentType":5126,"count":24,"max":[-0.15625,0.1875,0.09375],"min":[-0.34375,-0.1875,-0.09375],"type":"VEC3"},{"bufferView":1,"componentType":5126,"count":24,"max":[1,1,1],"min":[-1,-1,-1],"type":"VEC3"},{"bufferView":2,"componentType":5126,"count":24,"max":[0.46875,0.515625],"min":[0.296875,0.3125],"type":"VEC2"},{"bufferView":3,"componentType":5123,"count":36,"max":[23],"min":[0],"type":"SCALAR"},{"bufferView":4,"componentType":5126,"count":24,"max":[0.09375,0.1875,0.09375],"min":[-0.09375,-0.1875,-0.09375],"type":"VEC3"},{"bufferView":5,"componentType":5126,"count":24,"max":[1,1,1],"min":[-1,-1,-1],"type":"VEC3"},{"bufferView":6,"componentType":5126,"count":24,"max":[0.46875,0.515625],"min":[0.296875,0.3125],"type":"VEC2"},{"bufferView":7,"componentType":5123,"count":36,"max":[23],"min":[0],"type":"SCALAR"},{"bufferView":8,"componentType":5126,"count":20,"max":[0.5625,0.59375,0],"min":[-0.5625,-0.21875,0],"type":"VEC3"},{"bufferView":9,"componentType":5126,"count":20,"max":[1,0,0],"min":[0,0,-1],"type":"VEC3"},{"bufferView":10,"componentType":5126,"count":20,"max":[0.765625,0.640625],"min":[0,0],"type":"VEC2"},{"bufferView":11,"componentType":5123,"count":30,"max":[19],"min":[0],"type":"SCALAR"},{"bufferView":12,"componentType":5126,"count":20,"max":[0.5625,-0.46875,0],"min":[-0.5625,-1.03125,0],"type":"VEC3"},{"bufferView":13,"componentType":5126,"count":20,"max":[1,0,0],"min":[0,0,-1],"type":"VEC3"},{"bufferView":14,"componentType":5126,"count":20,"max":[0.765625,0.578125],"min":[0.03125,0],"type":"VEC2"},{"bufferView":15,"componentType":5123,"count":30,"max":[19],"min":[0],"type":"SCALAR"}],"materials":[{"pbrMetallicRoughness":{"metallicFactor":0,"roughnessFactor":1,"baseColorTexture":{"index":0}},"alphaMode":"MASK","alphaCutoff":0.05,"doubleSided":true}],"textures":[{"sampler":0,"source":0,"name":"christmas_leafs"}],"samplers":[{"magFilter":9728,"minFilter":9728,"wrapS":33071,"wrapT":33071}],"images":[{"mimeType":"image/png","uri":"data:image/png;base64,"}],"meshes":[{"primitives":[{"mode":4,"attributes":{"POSITION":0,"NORMAL":1,"TEXCOORD_0":2},"indices":3,"material":0}]},{"primitives":[{"mode":4,"attributes":{"POSITION":4,"NORMAL":5,"TEXCOORD_0":6},"indices":7,"material":0}]},{"primitives":[{"mode":4,"attributes":{"POSITION":8,"NORMAL":9,"TEXCOORD_0":10},"indices":11,"material":0}]},{"primitives":[{"mode":4,"attributes":{"POSITION":12,"NORMAL":13,"TEXCOORD_0":14},"indices":15,"material":0}]}]}