{"asset":{"version":"2.0","generator":"Blockbench 4.12.6 glTF exporter"},"scenes":[{"nodes":[27],"name":"blockbench_export"}],"scene":0,"nodes":[{"rotation":[0,-0.3826834323650898,0,0.9238795325112867],"translation":[-0.188671875,0.031445,-0.383185625],"name":"cube","mesh":0},{"translation":[0,0.0044025,0.20125],"name":"cube","mesh":1},{"rotation":[0,0.3826834323650898,0,0.9238795325112867],"translation":[0.188671875,0.031445,-0.383185625],"name":"cube","mesh":2},{"rotation":[0,-0.3826834323650898,0,0.9238795325112867],"translation":[0.188671875,0.031445,0.383185625],"name":"cube","mesh":3},{"translation":[0,0.0044025,-0.20125],"name":"cube","mesh":4},{"rotation":[0,0.3826834323650898,0,0.9238795325112867],"translation":[-0.188671875,0.031445,0.383185625],"name":"cube","mesh":5},{"translation":[0.301875,0.0044025,0.503125],"name":"cube","mesh":6},{"translation":[-0.301875,0.0044025,0.503125],"name":"cube","mesh":7},{"translation":[0.128925625,0.018866875,-0.32703125],"name":"cube","mesh":8},{"translation":[0.128925625,0.018866875,-0.32703125],"name":"cube","mesh":9},{"translation":[0.128925625,0.018866875,-0.32703125],"name":"cube","mesh":10},{"translation":[0.128925625,0.018866875,-0.32703125],"name":"cube","mesh":11},{"translation":[0.128925625,0.018866875,-0.32703125],"name":"cube","mesh":12},{"name":"bone","children":[8,9,10,11,12]},{"translation":[0.05974609375000001,-0.09119156249999999,-0.051884687500000026],"name":"cube","mesh":13},{"translation":[0.05974609375000001,-0.09119156249999999,-0.051884687500000026],"name":"cube","mesh":14},{"translation":[0.05974609375000001,-0.09119156249999999,-0.051884687500000026],"name":"cube","mesh":15},{"translation":[0.05974609375000001,-0.09119156249999999,-0.051884687500000026],"name":"cube","mesh":16},{"rotation":[0,-0.3826834323650898,0,0.9238795325112867],"translation":[0.30435953125,0.1100584375,-0.1832946875],"name":"bone","children":[14,15,16,17]},{"translation":[0.048381042064770174,-0.12075024999999998,-0.061874844920919464],"name":"cube","mesh":17},{"translation":[0.048381042064770174,-0.12075024999999998,-0.061874844920919464],"name":"cube","mesh":18},{"rotation":[0,0.3826834323650898,0,0.9238795325112867],"translation":[-0.16544708293522983,-0.045281499999999975,-0.011562344920919482],"name":"cube","mesh":19},{"translation":[0.048381042064770174,-0.12075024999999998,-0.061874844920919464],"name":"cube","mesh":20},{"translation":[0.048381042064770174,-0.12075024999999998,-0.061874844920919464],"name":"cube","mesh":21},{"rotation":[0,-0.9238795325112867,0,0.38268343236508984],"translation":[0.29895083293522984,0.13961712499999998,0.16428734492091948],"name":"bone","children":[19,20,21,22,23]},{"name":"bone","children":[13,18,24]},{"name":"bone","children":[0,1,2,3,4,5,6,7,25]},{"children":[26]}],"bufferViews":[{"buffer":0,"byteOffset":0,"byteLength":288,"target":34962,"byteStride":12},{"buffer":0,"byteOffset":288,"byteLength":288,"target":34962,"byteStride":12},{"buffer":0,"byteOffset":576,"byteLength":192,"target":34962,"byteStride":8},{"buffer":0,"byteOffset":768,"byteLength":72,"target":34963},{"buffer":0,"byteOffset":840,"byteLength":288,"target":34962,"byteStride":12},{"buffer":0,"byteOffset":1128,"byteLength":288,"target":34962,"byteStride":12},{"buffer":0,"byteOffset":1416,"byteLength":192,"target":34962,"byteStride":8},{"buffer":0,"byteOffset":1608,"byteLength":72,"target":34963},{"buffer":0,"byteOffset":1680,"byteLength":288,"target":34962,"byteStride":12},{"buffer":0,"byteOffset":1968,"byteLength":288,"target":34962,"byteStride":12},{"buffer":0,"byteOffset":2256,"byteLength":192,"target":34962,"byteStride":8},{"buffer":0,"byteOffset":2448,"byteLength":72,"target":34963},{"buffer":0,"byteOffset":2520,"byteLength":288,"target":34962,"byteStride":12},{"buffer":0,"byteOffset":2808,"byteLength":288,"target":34962,"byteStride":12},{"buffer":0,"byteOffset":3096,"byteLength":192,"target":34962,"byteStride":8},{"buffer":0,"byteOffset":3288,"byteLength":72,"target":34963},{"buffer":0,"byteOffset":3360,"byteLength":288,"target":34962,"byteStride":12},{"buffer":0,"byteOffset":3648,"byteLength":288,"target":34962,"byteStride":12},{"buffer":0,"byteOffset":3936,"byteLength":192,"target":34962,"byteStride":8},{"buffer":0,"byteOffset":4128,"byteLength":72,"target":34963},{"buffer":0,"byteOffset":4200,"byteLength":288,"target":34962,"byteStride":12},{"buffer":0,"byteOffset":4488,"byteLength":288,"target":34962,"byteStride":12},{"buffer":0,"byteOffset":4776,"byteLength":192,"target":34962,"byteStride":8},{"buffer":0,"byteOffset":4968,"byteLength":72,"target":34963},{"buffer":0,"byteOffset":5040,"byteLength":288,"target":34962,"byteStride":12},{"buffer":0,"byteOffset":5328,"byteLength":288,"target":34962,"byteStride":12},{"buffer":0,"byteOffset":5616,"byteLength":192,"target":34962,"byteStride":8},{"buffer":0,"byteOffset":5808,"byteLength":72,"target":34963},{"buffer":0,"byteOffset":5880,"byteLength":288,"target":34962,"byteStride":12},{"buffer":0,"byteOffset":6168,"byteLength":288,"target":34962,"byteStride":12},{"buffer":0,"byteOffset":6456,"byteLength":192,"target":34962,"byteStride":8},{"buffer":0,"byteOffset":6648,"byteLength":72,"target":34963},{"buffer":0,"byteOffset":6720,"byteLength":288,"target":34962,"byteStride":12},{"buffer":0,"byteOffset":7008,"byteLength":288,"target":34962,"byteStride":12},{"buffer":0,"byteOffset":7296,"byteLength":192,"target":34962,"byteStride":8},{"buffer":0,"byteOffset":7488,"byteLength":72,"target":34963},{"buffer":0,"byteOffset":7560,"byteLength":288,"target":34962,"byteStride":12},{"buffer":0,"byteOffset":7848,"byteLength":288,"target":34962,"byteStride":12},{"buffer":0,"byteOffset":8136,"byteLength":192,"target":34962,"byteStride":8},{"buffer":0,"byteOffset":8328,"byteLength":72,"target":34963},{"buffer":0,"byteOffset":8400,"byteLength":288,"target":34962,"byteStride":12},{"buffer":0,"byteOffset":8688,"byteLength":288,"target":34962,"byteStride":12},{"buffer":0,"byteOffset":8976,"byteLength":192,"target":34962,"byteStride":8},{"buffer":0,"byteOffset":9168,"byteLength":72,"target":34963},{"buffer":0,"byteOffset":9240,"byteLength":288,"target":34962,"byteStride":12},{"buffer":0,"byteOffset":9528,"byteLength":288,"target":34962,"byteStride":12},{"buffer":0,"byteOffset":9816,"byteLength":192,"target":34962,"byteStride":8},{"buffer":0,"byteOffset":10008,"byteLength":72,"target":34963},{"buffer":0,"byteOffset":10080,"byteLength":288,"target":34962,"byteStride":12},{"buffer":0,"byteOffset":10368,"byteLength":288,"target":34962,"byteStride":12},{"buffer":0,"byteOffset":10656,"byteLength":192,"target":34962,"byteStride":8},{"buffer":0,"byteOffset":10848,"byteLength":72,"target":34963},{"buffer":0,"byteOffset":10920,"byteLength":288,"target":34962,"byteStride":12},{"buffer":0,"byteOffset":11208,"byteLength":288,"target":34962,"byteStride":12},{"buffer":0,"byteOffset":11496,"byteLength":192,"target":34962,"byteStride":8},{"buffer":0,"byteOffset":11688,"byteLength":72,"target":34963},{"buffer":0,"byteOffset":11760,"byteLength":288,"target":34962,"byteStride":12},{"buffer":0,"byteOffset":12048,"byteLength":288,"target":34962,"byteStride":12},{"buffer":0,"byteOffset":12336,"byteLength":192,"target":34962,"byteStride":8},{"buffer":0,"byteOffset":12528,"byteLength":72,"target":34963},{"buffer":0,"byteOffset":12600,"byteLength":288,"target":34962,"byteStride":12},{"buffer":0,"byteOffset":12888,"byteLength":288,"target":34962,"byteStride":12},{"buffer":0,"byteOffset":13176,"byteLength":192,"target":34962,"byteStride":8},{"buffer":0,"byteOffset":13368,"byteLength":72,"target":34963},{"buffer":0,"byteOffset":13440,"byteLength":240,"target":34962,"byteStride":12},{"buffer":0,"byteOffset":13680,"byteLength":240,"target":34962,"byteStride":12},{"buffer":0,"byteOffset":13920,"byteLength":160,"target":34962,"byteStride":8},{"buffer":0,"byteOffset":14080,"byteLength":60,"target":34963},{"buffer":0,"byteOffset":14140,"byteLength":288,"target":34962,"byteStride":12},{"buffer":0,"byteOffset":14428,"byteLength":288,"target":34962,"byteStride":12},{"buffer":0,"byteOffset":14716,"byteLength":192,"target":34962,"byteStride":8},{"buffer":0,"byteOffset":14908,"byteLength":72,"target":34963},{"buffer":0,"byteOffset":14980,"byteLength":288,"target":34962,"byteStride":12},{"buffer":0,"byteOffset":15268,"byteLength":288,"target":34962,"byteStride":12},{"buffer":0,"byteOffset":15556,"byteLength":192,"target":34962,"byteStride":8},{"buffer":0,"byteOffset":15748,"byteLength":72,"target":34963},{"buffer":0,"byteOffset":15820,"byteLength":288,"target":34962,"byteStride":12},{"buffer":0,"byteOffset":16108,"byteLength":288,"target":34962,"byteStride":12},{"buffer":0,"byteOffset":16396,"byteLength":192,"target":34962,"byteStride":8},{"buffer":0,"byteOffset":16588,"byteLength":72,"target":34963},{"buffer":0,"byteOffset":16660,"byteLength":288,"target":34962,"byteStride":12},{"buffer":0,"byteOffset":16948,"byteLength":288,"target":34962,"byteStride":12},{"buffer":0,"byteOffset":17236,"byteLength":192,"target":34962,"byteStride":8},{"buffer":0,"byteOffset":17428,"byteLength":72,"target":34963},{"buffer":0,"byteOffset":17500,"byteLength":288,"target":34962,"byteStride":12},{"buffer":0,"byteOffset":17788,"byteLength":288,"target":34962,"byteStride":12},{"buffer":0,"byteOffset":18076,"byteLength":192,"target":34962,"byteStride":8},{"buffer":0,"byteOffset":18268,"byteLength":72,"target":34963}],"buffers":[{"byteLength":18340,"uri":"data:application/octet-stream;base64,"}],"accessors":[{"bufferView":0,"componentType":5126,"count":24,"max":[0.15471124649047852,-0.015722500160336494,0.3622500002384186],"min":[-0.04653875157237053,-0.04087875038385391,-0.015093750320374966],"type":"VEC3"},{"bufferView":1,"componentType":5126,"count":24,"max":[1,1,1],"min":[-1,-1,-1],"type":"VEC3"},{"bufferView":2,"componentType":5126,"count":24,"max":[0.859375,0.640625],"min":[0.25,0],"type":"VEC2"},{"bufferView":3,"componentType":5123,"count":36,"max":[23],"min":[0],"type":"SCALAR"},{"bufferView":4,"componentType":5126,"count":24,"max":[0.18867187201976776,0.012578125111758709,-0.42765626311302185],"min":[-0.18867187201976776,-0.012578125111758709,-0.62890625],"type":"VEC3"},{"bufferView":5,"componentType":5126,"count":24,"max":[1,1,1],"min":[-1,-1,-1],"type":"VEC3"},{"bufferView":6,"componentType":5126,"count":24,"max":[0.859375,0.640625],"min":[0.25,0],"type":"VEC2"},{"bufferView":7,"componentType":5123,"count":36,"max":[23],"min":[0],"type":"SCALAR"},{"bufferView":8,"componentType":5126,"count":24,"max":[0.04653875157237053,-0.015722500160336494,0.3622500002384186],"min":[-0.15471124649047852,-0.04087875038385391,-0.015093750320374966],"type":"VEC3"},{"bufferView":9,"componentType":5126,"count":24,"max":[1,1,1],"min":[-1,-1,-1],"type":"VEC3"},{"bufferView":10,"componentType":5126,"count":24,"max":[0.859375,0.640625],"min":[0.25,0],"type":"VEC2"},{"bufferView":11,"componentType":5123,"count":36,"max":[23],"min":[0],"type":"SCALAR"},{"bufferView":12,"componentType":5126,"count":24,"max":[0.04653875157237053,-0.015722500160336494,0.015093750320374966],"min":[-0.15471124649047852,-0.04087875038385391,-0.3622500002384186],"type":"VEC3"},{"bufferView":13,"componentType":5126,"count":24,"max":[1,1,1],"min":[-1,-1,-1],"type":"VEC3"},{"bufferView":14,"componentType":5126,"count":24,"max":[0.859375,0.640625],"min":[0.25,0],"type":"VEC2"},{"bufferView":15,"componentType":5123,"count":36,"max":[23],"min":[0],"type":"SCALAR"},{"bufferView":16,"componentType":5126,"count":24,"max":[0.18867187201976776,0.012578125111758709,0.62890625],"min":[-0.18867187201976776,-0.012578125111758709,0.42765626311302185],"type":"VEC3"},{"bufferView":17,"componentType":5126,"count":24,"max":[1,1,1],"min":[-1,-1,-1],"type":"VEC3"},{"bufferView":18,"componentType":5126,"count":24,"max":[0.859375,0.640625],"min":[0.25,0],"type":"VEC2"},{"bufferView":19,"componentType":5123,"count":36,"max":[23],"min":[0],"type":"SCALAR"},{"bufferView":20,"componentType":5126,"count":24,"max":[0.15471124649047852,-0.015722500160336494,0.015093750320374966],"min":[-0.04653875157237053,-0.04087875038385391,-0.3622500002384186],"type":"VEC3"},{"bufferView":21,"componentType":5126,"count":24,"max":[1,1,1],"min":[-1,-1,-1],"type":"VEC3"},{"bufferView":22,"componentType":5126,"count":24,"max":[0.859375,0.640625],"min":[0.25,0],"type":"VEC2"},{"bufferView":23,"componentType":5123,"count":36,"max":[23],"min":[0],"type":"SCALAR"},{"bufferView":24,"componentType":5126,"count":24,"max":[-0.5785937309265137,0.006288750097155571,-0.314453125],"min":[-0.7798437476158142,-0.018867500126361847,-0.6917968988418579],"type":"VEC3"},{"bufferView":25,"componentType":5126,"count":24,"max":[1,1,1],"min":[-1,-1,-1],"type":"VEC3"},{"bufferView":26,"componentType":5126,"count":24,"max":[0.859375,0.640625],"min":[0.25,0],"type":"VEC2"},{"bufferView":27,"componentType":5123,"count":36,"max":[23],"min":[0],"type":"SCALAR"},{"bufferView":28,"componentType":5126,"count":24,"max":[0.7798437476158142,0.006288750097155571,-0.314453125],"min":[0.5785937309265137,-0.018867500126361847,-0.6917968988418579],"type":"VEC3"},{"bufferView":29,"componentType":5126,"count":24,"max":[1,1,1],"min":[-1,-1,-1],"type":"VEC3"},{"bufferView":30,"componentType":5126,"count":24,"max":[0.859375,0.640625],"min":[0.25,0],"type":"VEC2"},{"bufferView":31,"componentType":5123,"count":36,"max":[23],"min":[0],"type":"SCALAR"},{"bufferView":32,"componentType":5126,"count":24,"max":[0.025156250223517418,0.050312500447034836,0.06289062649011612],"min":[-0.2515625059604645,-3.469446951953614e-18,-0.06289062649011612],"type":"VEC3"},{"bufferView":33,"componentType":5126,"count":24,"max":[1,1,1],"min":[-1,-1,-1],"type":"VEC3"},{"bufferView":34,"componentType":5126,"count":24,"max":[0.734375,0.703125],"min":[0,0],"type":"VEC2"},{"bufferView":35,"componentType":5123,"count":36,"max":[23],"min":[0],"type":"SCALAR"},{"bufferView":36,"componentType":5126,"count":24,"max":[-0.12578125298023224,0.12578125298023224,0.03773437440395355],"min":[-0.2515625059604645,0.050312500447034836,-0.03773437440395355],"type":"VEC3"},{"bufferView":37,"componentType":5126,"count":24,"max":[1,1,1],"min":[-1,-1,-1],"type":"VEC3"},{"bufferView":38,"componentType":5126,"count":24,"max":[0.734375,0.65625],"min":[0.296875,0],"type":"VEC2"},{"bufferView":39,"componentType":5123,"count":36,"max":[23],"min":[0],"type":"SCALAR"},{"bufferView":40,"componentType":5126,"count":24,"max":[0.025156250223517418,0.17609436810016632,0.06289062649011612],"min":[-0.12578125298023224,0.050312500447034836,-0.06289062649011612],"type":"VEC3"},{"bufferView":41,"componentType":5126,"count":24,"max":[1,1,1],"min":[-1,-1,-1],"type":"VEC3"},{"bufferView":42,"componentType":5126,"count":24,"max":[0.640625,0.640625],"min":[0,0.078125],"type":"VEC2"},{"bufferView":43,"componentType":5123,"count":36,"max":[23],"min":[0],"type":"SCALAR"},{"bufferView":44,"componentType":5126,"count":24,"max":[0.0754687488079071,0.20125000178813934,0.06289062649011612],"min":[-0.12578125298023224,0.17609436810016632,-0.06289062649011612],"type":"VEC3"},{"bufferView":45,"componentType":5126,"count":24,"max":[1,1,1],"min":[-1,-1,-1],"type":"VEC3"},{"bufferView":46,"componentType":5126,"count":24,"max":[0.8125,0.71875],"min":[0,0.078125],"type":"VEC2"},{"bufferView":47,"componentType":5123,"count":36,"max":[23],"min":[0],"type":"SCALAR"},{"bufferView":48,"componentType":5126,"count":24,"max":[-0.1635156273841858,0.20125000178813934,0.025156250223517418],"min":[-0.21382813155651093,0.12578125298023224,-0.025156250223517418],"type":"VEC3"},{"bufferView":49,"componentType":5126,"count":24,"max":[1,1,1],"min":[-1,-1,-1],"type":"VEC3"},{"bufferView":50,"componentType":5126,"count":24,"max":[0.71875,0.734375],"min":[0.09375,0.515625],"type":"VEC2"},{"bufferView":51,"componentType":5123,"count":36,"max":[23],"min":[0],"type":"SCALAR"},{"bufferView":52,"componentType":5126,"count":24,"max":[0.12578125298023224,0.1509374976158142,0.11320312321186066],"min":[-0.1509374976158142,0.07546937465667725,-0.012578125111758709],"type":"VEC3"},{"bufferView":53,"componentType":5126,"count":24,"max":[1,1,1],"min":[-1,-1,-1],"type":"VEC3"},{"bufferView":54,"componentType":5126,"count":24,"max":[0.359375,0.6875],"min":[0,0.28125],"type":"VEC2"},{"bufferView":55,"componentType":5123,"count":36,"max":[23],"min":[0],"type":"SCALAR"},{"bufferView":56,"componentType":5126,"count":24,"max":[0.12578125298023224,0.07546937465667725,0.11320312321186066],"min":[-0.1509374976158142,-3.469446951953614e-18,-0.012578125111758709],"type":"VEC3"},{"bufferView":57,"componentType":5126,"count":24,"max":[1,1,1],"min":[-1,-1,-1],"type":"VEC3"},{"bufferView":58,"componentType":5126,"count":24,"max":[0.65625,0.65625],"min":[0,0.1875],"type":"VEC2"},{"bufferView":59,"componentType":5123,"count":36,"max":[23],"min":[0],"type":"SCALAR"},{"bufferView":60,"componentType":5126,"count":24,"max":[-0.13835936784744263,0.03779687359929085,0.08175750076770782],"min":[-0.26414063572883606,0.03773437440395355,0.03144500032067299],"type":"VEC3"},{"bufferView":61,"componentType":5126,"count":24,"max":[1,1,1],"min":[-1,-1,-1],"type":"VEC3"},{"bufferView":62,"componentType":5126,"count":24,"max":[0.765625,0.703125],"min":[0.296875,0.0625],"type":"VEC2"},{"bufferView":63,"componentType":5123,"count":36,"max":[23],"min":[0],"type":"SCALAR"},{"bufferView":64,"componentType":5126,"count":20,"max":[0.0754687488079071,0.20125000178813934,0.050312500447034836],"min":[-0.10062500089406967,0.1509374976158142,0.050312500447034836],"type":"VEC3"},{"bufferView":65,"componentType":5126,"count":20,"max":[1,0,0],"min":[0,0,-1],"type":"VEC3"},{"bufferView":66,"componentType":5126,"count":20,"max":[0.75,0.71875],"min":[0.28125,0.171875],"type":"VEC2"},{"bufferView":67,"componentType":5123,"count":30,"max":[19],"min":[0],"type":"SCALAR"},{"bufferView":68,"componentType":5126,"count":24,"max":[0.12578125298023224,0.07546937465667725,0.11320312321186066],"min":[-0.1509374976158142,-3.469446951953614e-18,-0.012578125111758709],"type":"VEC3"},{"bufferView":69,"componentType":5126,"count":24,"max":[1,1,1],"min":[-1,-1,-1],"type":"VEC3"},{"bufferView":70,"componentType":5126,"count":24,"max":[0.65625,0.65625],"min":[0,0.1875],"type":"VEC2"},{"bufferView":71,"componentType":5123,"count":36,"max":[23],"min":[0],"type":"SCALAR"},{"bufferView":72,"componentType":5126,"count":24,"max":[0.12578125298023224,0.17609436810016632,0.11320312321186066],"min":[-0.1509374976158142,0.07546937465667725,-0.012578125111758709],"type":"VEC3"},{"bufferView":73,"componentType":5126,"count":24,"max":[1,1,1],"min":[-1,-1,-1],"type":"VEC3"},{"bufferView":74,"componentType":5126,"count":24,"max":[0.671875,0.625],"min":[0.09375,0],"type":"VEC2"},{"bufferView":75,"componentType":5123,"count":36,"max":[23],"min":[0],"type":"SCALAR"},{"bufferView":76,"componentType":5126,"count":24,"max":[0.050312500447034836,-0.03767187520861626,0.08175812661647797],"min":[-0.10062500089406967,-0.03773437440395355,0.03144562616944313],"type":"VEC3"},{"bufferView":77,"componentType":5126,"count":24,"max":[1,1,1],"min":[-1,-1,-1],"type":"VEC3"},{"bufferView":78,"componentType":5126,"count":24,"max":[0.75,0.734375],"min":[0,0.671875],"type":"VEC2"},{"bufferView":79,"componentType":5123,"count":36,"max":[23],"min":[0],"type":"SCALAR"},{"bufferView":80,"componentType":5126,"count":24,"max":[0.1509374976158142,0.20125000178813934,0.13835936784744263],"min":[-0.17609375715255737,0.17609436810016632,-0.03773437440395355],"type":"VEC3"},{"bufferView":81,"componentType":5126,"count":24,"max":[1,1,1],"min":[-1,-1,-1],"type":"VEC3"},{"bufferView":82,"componentType":5126,"count":24,"max":[0.859375,0.4375],"min":[0,0],"type":"VEC2"},{"bufferView":83,"componentType":5123,"count":36,"max":[23],"min":[0],"type":"SCALAR"},{"bufferView":84,"componentType":5126,"count":24,"max":[0.0754687488079071,0.2264062464237213,0.08804687857627869],"min":[-0.10062500089406967,0.20125000178813934,0.012578125111758709],"type":"VEC3"},{"bufferView":85,"componentType":5126,"count":24,"max":[1,1,1],"min":[-1,-1,-1],"type":"VEC3"},{"bufferView":86,"componentType":5126,"count":24,"max":[0.796875,0.734375],"min":[0.28125,0.359375],"type":"VEC2"},{"bufferView":87,"componentType":5123,"count":36,"max":[23],"min":[0],"type":"SCALAR"}],"materials":[{"pbrMetallicRoughness":{"metallicFactor":0,"roughnessFactor":1,"baseColorTexture":{"index":0}},"alphaMode":"MASK","alphaCutoff":0.05,"doubleSided":true},{"pbrMetallicRoughness":{"metallicFactor":0,"roughnessFactor":1,"baseColorTexture":{"index":1}},"alphaMode":"MASK","alphaCutoff":0.05,"doubleSided":true}],"textures":[{"sampler":0,"source":0,"name":"rails"},{"sampler":1,"source":1,"name":"train"}],"samplers":[{"magFilter":9728,"minFilter":9728,"wrapS":33071,"wrapT":33071},{"magFilter":9728,"minFilter":9728,"wrapS":33071,"wrapT":33071}],"images":[{"mimeType":"image/png","uri":"data:image/png;base64,"},{"mimeType":"image/png","uri":"data:image/png;base64,"}],"meshes":[{"primitives":[{"mode":4,"attributes":{"POSITION":0,"NORMAL":1,"TEXCOORD_0":2},"indices":3,"material":0}]},{"primitives":[{"mode":4,"attributes":{"POSITION":4,"NORMAL":5,"TEXCOORD_0":6},"indices":7,"material":0}]},{"primitives":[{"mode":4,"attributes":{"POSITION":8,"NORMAL":9,"TEXCOORD_0":10},"indices":11,"material":0}]},{"primitives":[{"mode":4,"attributes":{"POSITION":12,"NORMAL":13,"TEXCOORD_0":14},"indices":15,"material":0}]},{"primitives":[{"mode":4,"attributes":{"POSITION":16,"NORMAL":17,"TEXCOORD_0":18},"indices":19,"material":0}]},{"primitives":[{"mode":4,"attributes":{"POSITION":20,"NORMAL":21,"TEXCOORD_0":22},"indices":23,"material":0}]},{"primitives":[{"mode":4,"attributes":{"POSITION":24,"NORMAL":25,"TEXCOORD_0":26},"indices":27,"material":0}]},{"primitives":[{"mode":4,"attributes":{"POSITION":28,"NORMAL":29,"TEXCOORD_0":30},"indices":31,"material":0}]},{"primitives":[{"mode":4,"attributes":{"POSITION":32,"NORMAL":33,"TEXCOORD_0":34},"indices":35,"material":1}]},{"primitives":[{"mode":4,"attributes":{"POSITION":36,"NORMAL":37,"TEXCOORD_0":38},"indices":39,"material":1}]},{"primitives":[{"mode":4,"attributes":{"POSITION":40,"NORMAL":41,"TEXCOORD_0":42},"indices":43,"material":1}]},{"primitives":[{"mode":4,"attributes":{"POSITION":44,"NORMAL":45,"TEXCOORD_0":46},"indices":47,"material":1}]},{"primitives":[{"mode":4,"attributes":{"POSITION":48,"NORMAL":49,"TEXCOORD_0":50},"indices":51,"material":1}]},{"primitives":[{"mode":4,"attributes":{"POSITION":52,"NORMAL":53,"TEXCOORD_0":54},"indices":55,"material":1}]},{"primitives":[{"mode":4,"attributes":{"POSITION":56,"NORMAL":57,"TEXCOORD_0":58},"indices":59,"material":1}]},{"primitives":[{"mode":4,"attributes":{"POSITION":60,"NORMAL":61,"TEXCOORD_0":62},"indices":63,"material":1}]},{"primitives":[{"mode":4,"attributes":{"POSITION":64,"NORMAL":65,"TEXCOORD_0":66},"indices":67,"material":1}]},{"primitives":[{"mode":4,"attributes":{"POSITION":68,"NORMAL":69,"TEXCOORD_0":70},"indices":71,"material":1}]},{"primitives":[{"mode":4,"attributes":{"POSITION":72,"NORMAL":73,"TEXCOORD_0":74},"indices":75,"material":1}]},{"primitives":[{"mode":4,"attributes":{"POSITION":76,"NORMAL":77,"TEXCOORD_0":78},"indices":79,"material":1}]},{"primitives":[{"mode":4,"attributes":{"POSITION":80,"NORMAL":81,"TEXCOORD_0":82},"indices":83,"material":1}]},{"primitives":[{"mode":4,"attributes":{"POSITION":84,"NORMAL":85,"TEXCOORD_0":86},"indices":87,"material":1}]}]}